G04 #@! TF.FileFunction,Soldermask,Top*
%FSLAX46Y46*%
G04 Gerber Fmt 4.6, Leading zero omitted, Abs format (unit mm)*
G04 Created by KiCad (PCBNEW 4.0.7) date 03/18/18 12:41:27*
%MOMM*%
%LPD*%
G01*
G04 APERTURE LIST*
%ADD10C,0.100000*%
%ADD11O,2.400000X1.600000*%
%ADD12R,1.650000X1.900000*%
%ADD13R,2.000000X2.000000*%
%ADD14C,2.000000*%
%ADD15R,1.900000X1.650000*%
%ADD16R,1.470000X2.200000*%
%ADD17O,1.470000X2.200000*%
%ADD18R,2.100000X2.100000*%
%ADD19O,2.100000X2.100000*%
%ADD20R,3.400000X3.400000*%
%ADD21C,3.400000*%
%ADD22R,1.400000X2.910000*%
%ADD23R,2.600000X1.600000*%
%ADD24R,6.800000X6.200000*%
%ADD25R,0.950000X2.150000*%
%ADD26R,2.150000X0.950000*%
%ADD27R,3.100000X3.600000*%
%ADD28C,2.800000*%
%ADD29O,2.800000X2.800000*%
%ADD30R,1.700000X1.900000*%
%ADD31R,1.900000X1.700000*%
%ADD32R,2.000000X2.800000*%
%ADD33O,2.000000X2.800000*%
%ADD34R,0.800000X1.960000*%
%ADD35R,1.050000X1.960000*%
%ADD36R,1.960000X1.050000*%
%ADD37R,2.400000X8.275000*%
G04 APERTURE END LIST*
D10*
D11*
X74803000Y4064000D03*
X63483000Y4064000D03*
X74803000Y6604000D03*
X63483000Y6604000D03*
X74803000Y9144000D03*
X63483000Y9144000D03*
X74803000Y11684000D03*
X63483000Y11684000D03*
X74803000Y14224000D03*
X63483000Y14224000D03*
X74803000Y16764000D03*
X63483000Y16764000D03*
X74803000Y19304000D03*
X63483000Y19304000D03*
D12*
X30289500Y70846000D03*
X30289500Y68346000D03*
D13*
X47625000Y65913000D03*
D14*
X47625000Y68413000D03*
D12*
X27241500Y28404500D03*
X27241500Y30904500D03*
D15*
X27071000Y52451000D03*
X29571000Y52451000D03*
D12*
X58039000Y22713000D03*
X58039000Y20213000D03*
D15*
X52431000Y40513000D03*
X49931000Y40513000D03*
X27452000Y9525000D03*
X29952000Y9525000D03*
D12*
X56642000Y4552000D03*
X56642000Y2052000D03*
X79067000Y32129000D03*
X79067000Y34629000D03*
X79167000Y60479000D03*
X79167000Y57979000D03*
D15*
X10902000Y36830000D03*
X8402000Y36830000D03*
X10902000Y60579000D03*
X8402000Y60579000D03*
D12*
X2540000Y11283000D03*
X2540000Y8783000D03*
D16*
X69024500Y68199000D03*
D17*
X70294500Y68199000D03*
X71564500Y68199000D03*
X72834500Y68199000D03*
D16*
X77406500Y68262500D03*
D17*
X78676500Y68262500D03*
X79946500Y68262500D03*
X81216500Y68262500D03*
D16*
X60642500Y68199000D03*
D17*
X61912500Y68199000D03*
X63182500Y68199000D03*
X64452500Y68199000D03*
D18*
X63436500Y45085000D03*
D19*
X63436500Y42545000D03*
X63436500Y40005000D03*
X63436500Y37465000D03*
X63436500Y34925000D03*
X63436500Y32385000D03*
D20*
X3937000Y65913000D03*
D21*
X3937000Y70993000D03*
D22*
X19367500Y61908500D03*
X24447500Y61908500D03*
X21907500Y65218500D03*
X26987500Y65218500D03*
D20*
X4191000Y33528000D03*
D21*
X4191000Y28448000D03*
D20*
X4191000Y58420000D03*
D21*
X4191000Y53340000D03*
D20*
X5715000Y4826000D03*
D21*
X10795000Y4826000D03*
D18*
X61277500Y54864000D03*
D19*
X61277500Y52324000D03*
X61277500Y49784000D03*
D23*
X41538000Y22358000D03*
X41538000Y26918000D03*
D24*
X35238000Y24638000D03*
D23*
X41249000Y45219000D03*
X41249000Y49779000D03*
D24*
X34949000Y47499000D03*
D23*
X41411000Y4070000D03*
X41411000Y8630000D03*
D24*
X35111000Y6350000D03*
D25*
X13970000Y28338000D03*
X12700000Y28338000D03*
X11430000Y28338000D03*
X10160000Y28338000D03*
X10160000Y20938000D03*
X11430000Y20938000D03*
X12700000Y20938000D03*
X13970000Y20938000D03*
X14097000Y51706000D03*
X12827000Y51706000D03*
X11557000Y51706000D03*
X10287000Y51706000D03*
X10287000Y44306000D03*
X11557000Y44306000D03*
X12827000Y44306000D03*
X14097000Y44306000D03*
D26*
X11794000Y14224000D03*
X11794000Y12954000D03*
X11794000Y11684000D03*
X11794000Y10414000D03*
X19194000Y10414000D03*
X19194000Y11684000D03*
X19194000Y12954000D03*
X19194000Y14224000D03*
D27*
X20307000Y24130000D03*
X28207000Y24130000D03*
X19926000Y47879000D03*
X27826000Y47879000D03*
D28*
X29845000Y34671000D03*
D29*
X45085000Y34671000D03*
D28*
X30353000Y57785000D03*
D29*
X45593000Y57785000D03*
D27*
X18656000Y5080000D03*
X26556000Y5080000D03*
D28*
X28092400Y17297400D03*
D29*
X43332400Y17297400D03*
D30*
X19367500Y67517000D03*
X19367500Y64817000D03*
X24447500Y64944000D03*
X24447500Y67644000D03*
D31*
X11002000Y39370000D03*
X8302000Y39370000D03*
X13542000Y62674500D03*
X10842000Y62674500D03*
X14144000Y33020000D03*
X16844000Y33020000D03*
X14398000Y56769000D03*
X17098000Y56769000D03*
D30*
X2540000Y13864600D03*
X2540000Y16564600D03*
X7112000Y14398000D03*
X7112000Y17098000D03*
D18*
X49911000Y32512000D03*
X53340000Y56769000D03*
X48133000Y14351000D03*
D32*
X33274000Y63246000D03*
D33*
X40894000Y70866000D03*
X35814000Y63246000D03*
X38354000Y70866000D03*
X38354000Y63246000D03*
X35814000Y70866000D03*
X40894000Y63246000D03*
X33274000Y70866000D03*
D34*
X23150000Y28241000D03*
X23800000Y28241000D03*
X24460000Y28241000D03*
X25110000Y28241000D03*
X25110000Y30941000D03*
X24460000Y30941000D03*
X23800000Y30941000D03*
X23150000Y30941000D03*
X22515000Y52625000D03*
X23165000Y52625000D03*
X23825000Y52625000D03*
X24475000Y52625000D03*
X24475000Y55325000D03*
X23825000Y55325000D03*
X23165000Y55325000D03*
X22515000Y55325000D03*
D32*
X54737000Y28448000D03*
D33*
X47117000Y20828000D03*
X52197000Y28448000D03*
X49657000Y20828000D03*
X49657000Y28448000D03*
X52197000Y20828000D03*
X47117000Y28448000D03*
X54737000Y20828000D03*
D32*
X54991000Y51562000D03*
D33*
X47371000Y43942000D03*
X52451000Y51562000D03*
X49911000Y43942000D03*
X49911000Y51562000D03*
X52451000Y43942000D03*
X47371000Y51562000D03*
X54991000Y43942000D03*
D34*
X23023000Y9699000D03*
X23673000Y9699000D03*
X24333000Y9699000D03*
X24983000Y9699000D03*
X24983000Y12399000D03*
X24333000Y12399000D03*
X23673000Y12399000D03*
X23023000Y12399000D03*
D32*
X52832000Y10414000D03*
D33*
X45212000Y2794000D03*
X50292000Y10414000D03*
X47752000Y2794000D03*
X47752000Y10414000D03*
X50292000Y2794000D03*
X45212000Y10414000D03*
X52832000Y2794000D03*
D35*
X10099000Y31670000D03*
X11049000Y31670000D03*
X11999000Y31670000D03*
X11999000Y34370000D03*
X10099000Y34370000D03*
X11049000Y34370000D03*
X10099000Y55292000D03*
X11049000Y55292000D03*
X11999000Y55292000D03*
X11999000Y57992000D03*
X10099000Y57992000D03*
X11049000Y57992000D03*
D36*
X8462000Y10353000D03*
X8462000Y11303000D03*
X8462000Y12253000D03*
X5762000Y12253000D03*
X5762000Y10353000D03*
X5762000Y11303000D03*
D37*
X78892400Y40366700D03*
X78892400Y52241700D03*
M02*
