G04 #@! TF.FileFunction,Copper,L1,Top,Signal*
%FSLAX46Y46*%
G04 Gerber Fmt 4.6, Leading zero omitted, Abs format (unit mm)*
G04 Created by KiCad (PCBNEW 4.0.7) date 03/18/18 12:41:27*
%MOMM*%
%LPD*%
G01*
G04 APERTURE LIST*
%ADD10C,0.100000*%
%ADD11C,0.300000*%
%ADD12O,2.000000X1.200000*%
%ADD13R,1.250000X1.500000*%
%ADD14R,1.600000X1.600000*%
%ADD15C,1.600000*%
%ADD16R,1.500000X1.250000*%
%ADD17R,1.070000X1.800000*%
%ADD18O,1.070000X1.800000*%
%ADD19R,1.700000X1.700000*%
%ADD20O,1.700000X1.700000*%
%ADD21R,3.000000X3.000000*%
%ADD22C,3.000000*%
%ADD23R,1.000000X2.510000*%
%ADD24R,2.200000X1.200000*%
%ADD25R,6.400000X5.800000*%
%ADD26R,3.050000X2.750000*%
%ADD27R,0.550000X1.750000*%
%ADD28R,1.750000X0.550000*%
%ADD29R,2.700000X3.200000*%
%ADD30C,2.400000*%
%ADD31O,2.400000X2.400000*%
%ADD32R,1.300000X1.500000*%
%ADD33R,1.500000X1.300000*%
%ADD34R,1.600000X2.400000*%
%ADD35O,1.600000X2.400000*%
%ADD36R,0.400000X1.560000*%
%ADD37R,0.650000X1.560000*%
%ADD38R,1.560000X0.650000*%
%ADD39R,2.000000X7.875000*%
%ADD40C,1.500000*%
%ADD41C,0.400000*%
%ADD42C,0.800000*%
%ADD43C,0.254000*%
G04 APERTURE END LIST*
D10*
D11*
X70309658Y65105743D02*
X70523944Y65034314D01*
X70595372Y64962886D01*
X70666801Y64820029D01*
X70666801Y64605743D01*
X70595372Y64462886D01*
X70523944Y64391457D01*
X70381086Y64320029D01*
X69809658Y64320029D01*
X69809658Y65820029D01*
X70309658Y65820029D01*
X70452515Y65748600D01*
X70523944Y65677171D01*
X70595372Y65534314D01*
X70595372Y65391457D01*
X70523944Y65248600D01*
X70452515Y65177171D01*
X70309658Y65105743D01*
X69809658Y65105743D01*
X71166801Y65820029D02*
X72095372Y65820029D01*
X71595372Y65248600D01*
X71809658Y65248600D01*
X71952515Y65177171D01*
X72023944Y65105743D01*
X72095372Y64962886D01*
X72095372Y64605743D01*
X72023944Y64462886D01*
X71952515Y64391457D01*
X71809658Y64320029D01*
X71381086Y64320029D01*
X71238229Y64391457D01*
X71166801Y64462886D01*
X78691658Y65207343D02*
X78905944Y65135914D01*
X78977372Y65064486D01*
X79048801Y64921629D01*
X79048801Y64707343D01*
X78977372Y64564486D01*
X78905944Y64493057D01*
X78763086Y64421629D01*
X78191658Y64421629D01*
X78191658Y65921629D01*
X78691658Y65921629D01*
X78834515Y65850200D01*
X78905944Y65778771D01*
X78977372Y65635914D01*
X78977372Y65493057D01*
X78905944Y65350200D01*
X78834515Y65278771D01*
X78691658Y65207343D01*
X78191658Y65207343D01*
X79620229Y65778771D02*
X79691658Y65850200D01*
X79834515Y65921629D01*
X80191658Y65921629D01*
X80334515Y65850200D01*
X80405944Y65778771D01*
X80477372Y65635914D01*
X80477372Y65493057D01*
X80405944Y65278771D01*
X79548801Y64421629D01*
X80477372Y64421629D01*
X61876858Y65054943D02*
X62091144Y64983514D01*
X62162572Y64912086D01*
X62234001Y64769229D01*
X62234001Y64554943D01*
X62162572Y64412086D01*
X62091144Y64340657D01*
X61948286Y64269229D01*
X61376858Y64269229D01*
X61376858Y65769229D01*
X61876858Y65769229D01*
X62019715Y65697800D01*
X62091144Y65626371D01*
X62162572Y65483514D01*
X62162572Y65340657D01*
X62091144Y65197800D01*
X62019715Y65126371D01*
X61876858Y65054943D01*
X61376858Y65054943D01*
X63662572Y64269229D02*
X62805429Y64269229D01*
X63234001Y64269229D02*
X63234001Y65769229D01*
X63091144Y65554943D01*
X62948286Y65412086D01*
X62805429Y65340657D01*
X66020071Y53979072D02*
X65305786Y53479072D01*
X66020071Y53121929D02*
X64520071Y53121929D01*
X64520071Y53693357D01*
X64591500Y53836215D01*
X64662929Y53907643D01*
X64805786Y53979072D01*
X65020071Y53979072D01*
X65162929Y53907643D01*
X65234357Y53836215D01*
X65305786Y53693357D01*
X65305786Y53121929D01*
X65948643Y54550500D02*
X66020071Y54764786D01*
X66020071Y55121929D01*
X65948643Y55264786D01*
X65877214Y55336215D01*
X65734357Y55407643D01*
X65591500Y55407643D01*
X65448643Y55336215D01*
X65377214Y55264786D01*
X65305786Y55121929D01*
X65234357Y54836215D01*
X65162929Y54693357D01*
X65091500Y54621929D01*
X64948643Y54550500D01*
X64805786Y54550500D01*
X64662929Y54621929D01*
X64591500Y54693357D01*
X64520071Y54836215D01*
X64520071Y55193357D01*
X64591500Y55407643D01*
X64520071Y55836214D02*
X64520071Y56693357D01*
X66020071Y56264786D02*
X64520071Y56264786D01*
X68409357Y35619715D02*
X68409357Y35119715D01*
X69195071Y35119715D02*
X67695071Y35119715D01*
X67695071Y35834001D01*
X67695071Y36191143D02*
X67695071Y37048286D01*
X69195071Y36619715D02*
X67695071Y36619715D01*
X69195071Y37548286D02*
X67695071Y37548286D01*
X67695071Y37905429D01*
X67766500Y38119714D01*
X67909357Y38262572D01*
X68052214Y38334000D01*
X68337929Y38405429D01*
X68552214Y38405429D01*
X68837929Y38334000D01*
X68980786Y38262572D01*
X69123643Y38119714D01*
X69195071Y37905429D01*
X69195071Y37548286D01*
X69195071Y39048286D02*
X67695071Y39048286D01*
D12*
X74803000Y4064000D03*
X63483000Y4064000D03*
X74803000Y6604000D03*
X63483000Y6604000D03*
X74803000Y9144000D03*
X63483000Y9144000D03*
X74803000Y11684000D03*
X63483000Y11684000D03*
X74803000Y14224000D03*
X63483000Y14224000D03*
X74803000Y16764000D03*
X63483000Y16764000D03*
X74803000Y19304000D03*
X63483000Y19304000D03*
D13*
X30289500Y70846000D03*
X30289500Y68346000D03*
D14*
X47625000Y65913000D03*
D15*
X47625000Y68413000D03*
D13*
X27241500Y28404500D03*
X27241500Y30904500D03*
D16*
X27071000Y52451000D03*
X29571000Y52451000D03*
D13*
X58039000Y22713000D03*
X58039000Y20213000D03*
D16*
X52431000Y40513000D03*
X49931000Y40513000D03*
X27452000Y9525000D03*
X29952000Y9525000D03*
D13*
X56642000Y4552000D03*
X56642000Y2052000D03*
X79067000Y32129000D03*
X79067000Y34629000D03*
X79167000Y60479000D03*
X79167000Y57979000D03*
D16*
X10902000Y36830000D03*
X8402000Y36830000D03*
X10902000Y60579000D03*
X8402000Y60579000D03*
D13*
X2540000Y11283000D03*
X2540000Y8783000D03*
D17*
X69024500Y68199000D03*
D18*
X70294500Y68199000D03*
X71564500Y68199000D03*
X72834500Y68199000D03*
D17*
X77406500Y68262500D03*
D18*
X78676500Y68262500D03*
X79946500Y68262500D03*
X81216500Y68262500D03*
D17*
X60642500Y68199000D03*
D18*
X61912500Y68199000D03*
X63182500Y68199000D03*
X64452500Y68199000D03*
D19*
X63436500Y45085000D03*
D20*
X63436500Y42545000D03*
X63436500Y40005000D03*
X63436500Y37465000D03*
X63436500Y34925000D03*
X63436500Y32385000D03*
D21*
X3937000Y65913000D03*
D22*
X3937000Y70993000D03*
D23*
X19367500Y61908500D03*
X24447500Y61908500D03*
X21907500Y65218500D03*
X26987500Y65218500D03*
D21*
X4191000Y33528000D03*
D22*
X4191000Y28448000D03*
D21*
X4191000Y58420000D03*
D22*
X4191000Y53340000D03*
D21*
X5715000Y4826000D03*
D22*
X10795000Y4826000D03*
D19*
X61277500Y54864000D03*
D20*
X61277500Y52324000D03*
X61277500Y49784000D03*
D24*
X41538000Y22358000D03*
X41538000Y26918000D03*
D25*
X35238000Y24638000D03*
D26*
X33563000Y26163000D03*
X36913000Y23113000D03*
X33563000Y23113000D03*
X36913000Y26163000D03*
D24*
X41249000Y45219000D03*
X41249000Y49779000D03*
D25*
X34949000Y47499000D03*
D26*
X33274000Y49024000D03*
X36624000Y45974000D03*
X33274000Y45974000D03*
X36624000Y49024000D03*
D24*
X41411000Y4070000D03*
X41411000Y8630000D03*
D25*
X35111000Y6350000D03*
D26*
X33436000Y7875000D03*
X36786000Y4825000D03*
X33436000Y4825000D03*
X36786000Y7875000D03*
D27*
X13970000Y28338000D03*
X12700000Y28338000D03*
X11430000Y28338000D03*
X10160000Y28338000D03*
X10160000Y20938000D03*
X11430000Y20938000D03*
X12700000Y20938000D03*
X13970000Y20938000D03*
X14097000Y51706000D03*
X12827000Y51706000D03*
X11557000Y51706000D03*
X10287000Y51706000D03*
X10287000Y44306000D03*
X11557000Y44306000D03*
X12827000Y44306000D03*
X14097000Y44306000D03*
D28*
X11794000Y14224000D03*
X11794000Y12954000D03*
X11794000Y11684000D03*
X11794000Y10414000D03*
X19194000Y10414000D03*
X19194000Y11684000D03*
X19194000Y12954000D03*
X19194000Y14224000D03*
D29*
X20307000Y24130000D03*
X28207000Y24130000D03*
X19926000Y47879000D03*
X27826000Y47879000D03*
D30*
X29845000Y34671000D03*
D31*
X45085000Y34671000D03*
D30*
X30353000Y57785000D03*
D31*
X45593000Y57785000D03*
D29*
X18656000Y5080000D03*
X26556000Y5080000D03*
D30*
X28092400Y17297400D03*
D31*
X43332400Y17297400D03*
D32*
X19367500Y67517000D03*
X19367500Y64817000D03*
X24447500Y64944000D03*
X24447500Y67644000D03*
D33*
X11002000Y39370000D03*
X8302000Y39370000D03*
X13542000Y62674500D03*
X10842000Y62674500D03*
X14144000Y33020000D03*
X16844000Y33020000D03*
X14398000Y56769000D03*
X17098000Y56769000D03*
D32*
X2540000Y13864600D03*
X2540000Y16564600D03*
X7112000Y14398000D03*
X7112000Y17098000D03*
D19*
X49911000Y32512000D03*
X53340000Y56769000D03*
X48133000Y14351000D03*
D34*
X33274000Y63246000D03*
D35*
X40894000Y70866000D03*
X35814000Y63246000D03*
X38354000Y70866000D03*
X38354000Y63246000D03*
X35814000Y70866000D03*
X40894000Y63246000D03*
X33274000Y70866000D03*
D36*
X23150000Y28241000D03*
X23800000Y28241000D03*
X24460000Y28241000D03*
X25110000Y28241000D03*
X25110000Y30941000D03*
X24460000Y30941000D03*
X23800000Y30941000D03*
X23150000Y30941000D03*
X22515000Y52625000D03*
X23165000Y52625000D03*
X23825000Y52625000D03*
X24475000Y52625000D03*
X24475000Y55325000D03*
X23825000Y55325000D03*
X23165000Y55325000D03*
X22515000Y55325000D03*
D34*
X54737000Y28448000D03*
D35*
X47117000Y20828000D03*
X52197000Y28448000D03*
X49657000Y20828000D03*
X49657000Y28448000D03*
X52197000Y20828000D03*
X47117000Y28448000D03*
X54737000Y20828000D03*
D34*
X54991000Y51562000D03*
D35*
X47371000Y43942000D03*
X52451000Y51562000D03*
X49911000Y43942000D03*
X49911000Y51562000D03*
X52451000Y43942000D03*
X47371000Y51562000D03*
X54991000Y43942000D03*
D36*
X23023000Y9699000D03*
X23673000Y9699000D03*
X24333000Y9699000D03*
X24983000Y9699000D03*
X24983000Y12399000D03*
X24333000Y12399000D03*
X23673000Y12399000D03*
X23023000Y12399000D03*
D34*
X52832000Y10414000D03*
D35*
X45212000Y2794000D03*
X50292000Y10414000D03*
X47752000Y2794000D03*
X47752000Y10414000D03*
X50292000Y2794000D03*
X45212000Y10414000D03*
X52832000Y2794000D03*
D37*
X10099000Y31670000D03*
X11049000Y31670000D03*
X11999000Y31670000D03*
X11999000Y34370000D03*
X10099000Y34370000D03*
X11049000Y34370000D03*
X10099000Y55292000D03*
X11049000Y55292000D03*
X11999000Y55292000D03*
X11999000Y57992000D03*
X10099000Y57992000D03*
X11049000Y57992000D03*
D38*
X8462000Y10353000D03*
X8462000Y11303000D03*
X8462000Y12253000D03*
X5762000Y12253000D03*
X5762000Y10353000D03*
X5762000Y11303000D03*
D39*
X78892400Y40366700D03*
X78892400Y52241700D03*
D40*
X30486599Y28822105D03*
X26481492Y55080568D03*
X28575000Y11938000D03*
X69088000Y55448200D03*
X9494654Y66232267D03*
X56705500Y62166500D03*
X21240580Y34886958D03*
X21327013Y17107807D03*
X67460171Y27302981D03*
X21844000Y58674000D03*
X23975953Y34941124D03*
X23910374Y17254589D03*
X65615666Y29406796D03*
X24286490Y58913601D03*
X74509094Y49357140D03*
X73386511Y52807029D03*
D41*
X52197000Y20828000D02*
X52197000Y19228000D01*
X55139750Y6961254D02*
X53131496Y4953000D01*
X52197000Y19228000D02*
X55139750Y16285250D01*
X55139750Y16285250D02*
X55139750Y6961254D01*
X53131496Y4953000D02*
X51206400Y4953000D01*
X50851000Y4953000D02*
X51206400Y4953000D01*
X51206400Y4953000D02*
X56261000Y4953000D01*
X33274000Y70866000D02*
X30309500Y70866000D01*
X30309500Y70866000D02*
X30289500Y70846000D01*
X52431000Y40513000D02*
X52431000Y43922000D01*
X52431000Y43922000D02*
X52451000Y43942000D01*
X27241500Y28404500D02*
X30068994Y28404500D01*
X30068994Y28404500D02*
X30486599Y28822105D01*
X19367500Y67517000D02*
X19367500Y68341357D01*
X19367500Y68341357D02*
X20317012Y69290869D01*
X20317012Y69290869D02*
X25302030Y69290869D01*
X25302030Y69290869D02*
X25712560Y68880339D01*
X25712560Y68880339D02*
X25712560Y66209060D01*
X25712560Y66209060D02*
X24447500Y64944000D01*
X24447500Y64944000D02*
X24447500Y61908500D01*
X26481492Y55080568D02*
X26481492Y60774508D01*
X26481492Y60774508D02*
X25347500Y61908500D01*
X25347500Y61908500D02*
X24447500Y61908500D01*
X27071000Y54491060D02*
X26481492Y55080568D01*
X27071000Y52451000D02*
X27071000Y54491060D01*
X27686000Y28174000D02*
X27579000Y28067000D01*
X27452000Y9525000D02*
X27452000Y10815000D01*
X27452000Y10815000D02*
X28575000Y11938000D01*
X52451000Y44342000D02*
X52451000Y43942000D01*
X58039000Y22713000D02*
X53682000Y22713000D01*
X53682000Y22713000D02*
X52197000Y21228000D01*
X52197000Y21228000D02*
X52197000Y20828000D01*
X27452000Y9525000D02*
X25157000Y9525000D01*
X25157000Y9525000D02*
X24983000Y9699000D01*
X27579000Y28067000D02*
X25284000Y28067000D01*
X25284000Y28067000D02*
X25110000Y28241000D01*
X27071000Y52451000D02*
X24649000Y52451000D01*
X24649000Y52451000D02*
X24475000Y52625000D01*
X50292000Y2794000D02*
X50292000Y4394000D01*
X50292000Y4394000D02*
X50851000Y4953000D01*
X69088000Y55448200D02*
X66904503Y57631697D01*
X66904503Y57631697D02*
X61304614Y57631697D01*
X61304614Y57631697D02*
X61277500Y57604583D01*
X61277500Y57604583D02*
X61277500Y54864000D01*
X25935473Y11085027D02*
X26597946Y11747500D01*
X21880027Y11085027D02*
X25935473Y11085027D01*
X23360942Y11085027D02*
X21880027Y11085027D01*
X23150000Y29761000D02*
X22141000Y29761000D01*
X26216500Y30904500D02*
X27241500Y30904500D01*
X22141000Y29761000D02*
X22001001Y29621001D01*
X22001001Y29621001D02*
X25877999Y29621001D01*
X25877999Y29621001D02*
X26098500Y29841502D01*
X26098500Y29841502D02*
X26098500Y30786500D01*
X26098500Y30786500D02*
X26216500Y30904500D01*
X61277500Y54864000D02*
X61277500Y57594500D01*
X61277500Y57594500D02*
X56705500Y62166500D01*
X29571000Y52451000D02*
X37768096Y52451000D01*
X37768096Y52451000D02*
X39078518Y51140578D01*
X39078518Y51140578D02*
X39078518Y40677482D01*
X39078518Y40677482D02*
X43885001Y35870999D01*
X43885001Y35870999D02*
X45085000Y34671000D01*
X17098000Y56769000D02*
X20926988Y56769000D01*
X20926988Y56769000D02*
X22370988Y55325000D01*
X22370988Y55325000D02*
X22515000Y55325000D01*
X22515000Y55325000D02*
X22425955Y55325000D01*
X22425955Y55325000D02*
X21463000Y54362045D01*
X21463000Y54362045D02*
X21463000Y53276500D01*
X21463000Y53276500D02*
X19892500Y51706000D01*
X19892500Y51706000D02*
X14097000Y51706000D01*
X29083000Y50927000D02*
X29571000Y51415000D01*
X29571000Y51415000D02*
X29571000Y52451000D01*
X24343000Y50927000D02*
X29083000Y50927000D01*
X23825000Y52625000D02*
X23825000Y51445000D01*
X23825000Y51445000D02*
X24343000Y50927000D01*
X23150000Y30941000D02*
X17873000Y30941000D01*
X17873000Y30941000D02*
X16844000Y31970000D01*
X16844000Y31970000D02*
X16844000Y33020000D01*
X23150000Y30941000D02*
X23150000Y29761000D01*
X23150000Y29761000D02*
X23289999Y29621001D01*
X23289999Y29621001D02*
X24259999Y29621001D01*
X24259999Y29621001D02*
X24460000Y29421000D01*
X24460000Y29421000D02*
X24460000Y28241000D01*
X24333000Y9699000D02*
X24333000Y10879000D01*
X24333000Y10879000D02*
X24126973Y11085027D01*
X24126973Y11085027D02*
X23360942Y11085027D01*
X23360942Y11085027D02*
X23241000Y11204969D01*
X23241000Y11204969D02*
X23241000Y12399000D01*
X23673000Y12399000D02*
X23241000Y12399000D01*
X23241000Y12399000D02*
X23023000Y12399000D01*
X21990579Y34136959D02*
X21240580Y34886958D01*
X23800000Y32327538D02*
X21990579Y34136959D01*
X23800000Y30941000D02*
X23800000Y32327538D01*
X22077012Y16357808D02*
X21327013Y17107807D01*
X24333000Y14101820D02*
X22077012Y16357808D01*
X24333000Y12399000D02*
X24333000Y14101820D01*
X67460171Y26242321D02*
X67460171Y27302981D01*
X63883000Y9144000D02*
X67460171Y12721171D01*
X63483000Y9144000D02*
X63883000Y9144000D01*
X67460171Y12721171D02*
X67460171Y26242321D01*
X19367500Y61908500D02*
X19367500Y64817000D01*
X21844000Y58674000D02*
X19367500Y61150500D01*
X19367500Y61150500D02*
X19367500Y61908500D01*
X23825000Y55325000D02*
X23825000Y56693000D01*
X23825000Y56693000D02*
X21844000Y58674000D01*
X24460000Y30941000D02*
X23800000Y30941000D01*
X24725952Y34191125D02*
X23975953Y34941124D01*
X25110000Y33807077D02*
X24725952Y34191125D01*
X25110000Y30941000D02*
X25110000Y33807077D01*
X24983000Y16181963D02*
X24660373Y16504590D01*
X24983000Y12399000D02*
X24983000Y16181963D01*
X24660373Y16504590D02*
X23910374Y17254589D01*
X63483000Y6604000D02*
X63083000Y6604000D01*
X63083000Y6604000D02*
X61404608Y8282392D01*
X61404608Y27292507D02*
X63518897Y29406796D01*
X61404608Y8282392D02*
X61404608Y27292507D01*
X63518897Y29406796D02*
X64555006Y29406796D01*
X64555006Y29406796D02*
X65615666Y29406796D01*
X21907500Y65218500D02*
X22022000Y65218500D01*
X22022000Y65218500D02*
X24447500Y67644000D01*
X24286490Y58913601D02*
X21907500Y61292591D01*
X21907500Y61292591D02*
X21907500Y65218500D01*
X24475000Y58725091D02*
X24286490Y58913601D01*
X24475000Y55325000D02*
X24475000Y58725091D01*
X24475000Y55325000D02*
X24475000Y54145000D01*
X24475000Y54145000D02*
X24253230Y53923230D01*
X24253230Y53923230D02*
X23386770Y53923230D01*
X23386770Y53923230D02*
X23165000Y54145000D01*
X23165000Y54145000D02*
X23165000Y55325000D01*
X48704500Y23939500D02*
X49657000Y22987000D01*
X49657000Y22987000D02*
X49657000Y20828000D01*
X44619500Y23939500D02*
X48704500Y23939500D01*
X43038000Y22358000D02*
X44619500Y23939500D01*
X49657000Y20828000D02*
X49657000Y21228000D01*
X43337258Y22358000D02*
X41538000Y22358000D01*
X49657000Y20828000D02*
X49657000Y20428000D01*
X43038000Y22358000D02*
X41538000Y22358000D01*
X29845000Y34671000D02*
X38482799Y34671000D01*
X38482799Y34671000D02*
X41538000Y31615799D01*
X41538000Y31615799D02*
X41538000Y26918000D01*
X50876000Y25527000D02*
X44429000Y25527000D01*
X44429000Y25527000D02*
X43038000Y26918000D01*
X43038000Y26918000D02*
X41538000Y26918000D01*
X52197000Y28448000D02*
X52197000Y26848000D01*
X52197000Y26848000D02*
X50876000Y25527000D01*
X41538000Y26918000D02*
X41538000Y27918000D01*
X23800000Y26787000D02*
X23800000Y28241000D01*
D42*
X28207000Y24130000D02*
X34730000Y24130000D01*
X34730000Y24130000D02*
X35238000Y24638000D01*
D41*
X28207000Y24130000D02*
X26457000Y24130000D01*
X26457000Y24130000D02*
X23800000Y26787000D01*
X23800000Y26787000D02*
X23800000Y26860999D01*
X13542000Y62674500D02*
X13542000Y61624500D01*
X13542000Y61624500D02*
X12496500Y60579000D01*
X12496500Y60579000D02*
X12052000Y60579000D01*
X12052000Y60579000D02*
X10902000Y60579000D01*
X10902000Y60579000D02*
X10902000Y58139000D01*
X10902000Y58139000D02*
X11049000Y57992000D01*
X5715000Y4826000D02*
X5715000Y8763000D01*
X5715000Y8763000D02*
X5715000Y10306000D01*
X2540000Y8783000D02*
X3565000Y8783000D01*
X3565000Y8783000D02*
X3585000Y8763000D01*
X3585000Y8763000D02*
X5715000Y8763000D01*
X14478000Y11176000D02*
X13970000Y11684000D01*
X13970000Y11684000D02*
X11794000Y11684000D01*
X14478000Y9652000D02*
X14478000Y11176000D01*
X13208000Y8382000D02*
X14478000Y9652000D01*
X7008000Y8382000D02*
X13208000Y8382000D01*
X5762000Y10353000D02*
X5762000Y9628000D01*
X5762000Y9628000D02*
X7008000Y8382000D01*
X5715000Y10306000D02*
X5762000Y10353000D01*
X8302000Y39370000D02*
X4643329Y39370000D01*
X4643329Y39370000D02*
X1143000Y35869671D01*
X1143000Y35869671D02*
X1143000Y29374680D01*
X1143000Y29374680D02*
X2069680Y28448000D01*
X2069680Y28448000D02*
X4191000Y28448000D01*
D42*
X4191000Y28448000D02*
X4191000Y26326680D01*
X4191000Y26326680D02*
X5857476Y24660204D01*
X5857476Y24660204D02*
X20281271Y24660204D01*
X20281271Y24660204D02*
X20307000Y24634475D01*
X20307000Y24634475D02*
X20307000Y24130000D01*
D41*
X20307000Y24130000D02*
X20307000Y26130000D01*
X20307000Y26130000D02*
X22418000Y28241000D01*
X22418000Y28241000D02*
X22999999Y28241000D01*
X10795000Y4826000D02*
X10795000Y3768443D01*
X10795000Y3768443D02*
X8584719Y1558162D01*
X8584719Y1558162D02*
X3902838Y1558162D01*
X914400Y4546600D02*
X914400Y14839000D01*
X914400Y14839000D02*
X2540000Y16464600D01*
X3902838Y1558162D02*
X914400Y4546600D01*
X2540000Y16464600D02*
X2540000Y16564600D01*
X18656000Y5080000D02*
X18656000Y5330000D01*
X18656000Y5330000D02*
X22872999Y9546999D01*
D42*
X10795000Y4826000D02*
X18402000Y4826000D01*
X18402000Y4826000D02*
X18656000Y5080000D01*
X19926000Y47879000D02*
X19672000Y48133000D01*
X19672000Y48133000D02*
X6595449Y48133000D01*
X6595449Y48133000D02*
X4191000Y50537449D01*
X4191000Y50537449D02*
X4191000Y53340000D01*
D41*
X1270000Y54483000D02*
X1270000Y59944000D01*
X1270000Y59944000D02*
X3999614Y62673614D01*
X3999614Y62673614D02*
X4240864Y62673614D01*
X4241750Y62674500D02*
X10842000Y62674500D01*
X4240864Y62673614D02*
X4241750Y62674500D01*
X19926000Y47879000D02*
X19926000Y49879000D01*
X19926000Y49879000D02*
X22364999Y52317999D01*
X1270000Y54483000D02*
X1270000Y54229000D01*
X4191000Y53340000D02*
X2069680Y53340000D01*
X2069680Y53340000D02*
X1270000Y54139680D01*
X1270000Y54139680D02*
X1270000Y54483000D01*
X49911000Y43942000D02*
X49911000Y44342000D01*
X49911000Y44342000D02*
X47771000Y46482000D01*
X47771000Y46482000D02*
X43012000Y46482000D01*
X43012000Y46482000D02*
X41749000Y45219000D01*
X41749000Y45219000D02*
X41249000Y45219000D01*
X41249000Y49779000D02*
X41249000Y55115877D01*
X41249000Y55115877D02*
X38579877Y57785000D01*
X38579877Y57785000D02*
X32050056Y57785000D01*
X32050056Y57785000D02*
X30353000Y57785000D01*
X51689000Y48577500D02*
X52451000Y49339500D01*
X52451000Y49339500D02*
X52451000Y51562000D01*
X43950500Y48577500D02*
X51689000Y48577500D01*
X41249000Y49779000D02*
X42749000Y49779000D01*
X42749000Y49779000D02*
X43950500Y48577500D01*
X41249000Y49779000D02*
X40391000Y49779000D01*
X23165000Y51244999D02*
X23165000Y52625000D01*
D42*
X27826000Y47879000D02*
X34569000Y47879000D01*
X34569000Y47879000D02*
X34949000Y47499000D01*
D41*
X27826000Y47879000D02*
X26076000Y47879000D01*
X26076000Y47879000D02*
X23165000Y50790000D01*
X23165000Y50790000D02*
X23165000Y51244999D01*
X41910000Y5905500D02*
X41411000Y5406500D01*
X41411000Y5406500D02*
X41411000Y4070000D01*
X46240500Y5905500D02*
X41910000Y5905500D01*
X47752000Y2794000D02*
X47752000Y4394000D01*
X47752000Y4394000D02*
X46240500Y5905500D01*
X41411000Y8630000D02*
X41411000Y13358319D01*
X41411000Y13358319D02*
X37471919Y17297400D01*
X37471919Y17297400D02*
X28092400Y17297400D01*
X50292000Y10414000D02*
X50292000Y8814000D01*
X50292000Y8814000D02*
X48853531Y7375531D01*
X48853531Y7375531D02*
X41665469Y7375531D01*
X41665469Y7375531D02*
X41411000Y7630000D01*
X41411000Y7630000D02*
X41411000Y8630000D01*
X23673000Y8318999D02*
X23673000Y9699000D01*
D42*
X26556000Y5080000D02*
X32639000Y5080000D01*
X32639000Y5080000D02*
X33909000Y6350000D01*
D41*
X26556000Y5080000D02*
X24806000Y5080000D01*
X24806000Y5080000D02*
X23673000Y6213000D01*
X23673000Y6213000D02*
X23673000Y8318999D01*
X11999000Y31670000D02*
X12700000Y30969000D01*
X12700000Y30969000D02*
X12700000Y28338000D01*
X10160000Y28338000D02*
X10160000Y31609000D01*
X10160000Y31609000D02*
X10099000Y31670000D01*
X11999000Y55292000D02*
X12724000Y55292000D01*
X12827000Y52981000D02*
X12827000Y51706000D01*
X12724000Y55292000D02*
X12827000Y55189000D01*
X12827000Y55189000D02*
X12827000Y52981000D01*
X10099000Y55292000D02*
X10099000Y51894000D01*
X10099000Y51894000D02*
X10287000Y51706000D01*
X8462000Y12253000D02*
X9163000Y12954000D01*
X9163000Y12954000D02*
X11794000Y12954000D01*
X8462000Y10353000D02*
X11733000Y10353000D01*
X11733000Y10353000D02*
X11794000Y10414000D01*
X49657000Y28448000D02*
X49657000Y32258000D01*
X49657000Y32258000D02*
X49911000Y32512000D01*
X47752000Y12014000D02*
X48133000Y12395000D01*
X48133000Y12395000D02*
X48133000Y14351000D01*
X47752000Y10414000D02*
X47752000Y12014000D01*
X49911000Y51562000D02*
X49911000Y54590000D01*
X49911000Y54590000D02*
X52090000Y56769000D01*
X52090000Y56769000D02*
X53340000Y56769000D01*
X79067000Y34629000D02*
X79067000Y40192100D01*
X79067000Y40192100D02*
X78892400Y40366700D01*
X75259093Y48607141D02*
X74509094Y49357140D01*
X78892400Y40366700D02*
X78892400Y44973834D01*
X78892400Y44973834D02*
X75259093Y48607141D01*
X78892400Y40366700D02*
X78892400Y38125400D01*
X78892400Y41721200D02*
X78892400Y40366700D01*
X79167000Y57979000D02*
X79167000Y52516300D01*
X79167000Y52516300D02*
X78892400Y52241700D01*
X73951840Y52241700D02*
X73386511Y52807029D01*
X78892400Y52241700D02*
X73951840Y52241700D01*
X10902000Y36830000D02*
X10902000Y39270000D01*
X10902000Y39270000D02*
X11002000Y39370000D01*
X11049000Y34370000D02*
X11049000Y36683000D01*
X11049000Y36683000D02*
X10902000Y36830000D01*
X8402000Y36830000D02*
X8402000Y35805000D01*
X8402000Y35805000D02*
X8763000Y35444000D01*
X8763000Y35444000D02*
X8763000Y33528000D01*
X11430000Y27063000D02*
X11430000Y27051000D01*
X4191000Y33528000D02*
X8763000Y33528000D01*
X8763000Y33528000D02*
X9257000Y33528000D01*
X9525000Y26416000D02*
X8763000Y27178000D01*
X8763000Y27178000D02*
X8763000Y33528000D01*
X10783000Y26416000D02*
X9525000Y26416000D01*
X11430000Y28338000D02*
X11430000Y27063000D01*
X11430000Y27063000D02*
X10783000Y26416000D01*
X9257000Y33528000D02*
X10099000Y34370000D01*
X8402000Y60579000D02*
X8402000Y59554000D01*
X8402000Y59554000D02*
X8382000Y59534000D01*
X8382000Y59534000D02*
X8382000Y58420000D01*
X10010319Y58049689D02*
X10068008Y57992000D01*
X10068008Y57992000D02*
X10099000Y57992000D01*
X4191000Y58420000D02*
X8382000Y58420000D01*
X8382000Y58420000D02*
X9671000Y58420000D01*
X9271000Y49911000D02*
X8382000Y50800000D01*
X8382000Y50800000D02*
X8382000Y58420000D01*
X11037000Y49911000D02*
X9271000Y49911000D01*
X11557000Y51706000D02*
X11557000Y50431000D01*
X11557000Y50431000D02*
X11037000Y49911000D01*
X9671000Y58420000D02*
X10099000Y57992000D01*
X2540000Y11283000D02*
X2540000Y13864600D01*
X2540000Y11283000D02*
X5742000Y11283000D01*
X5742000Y11283000D02*
X5762000Y11303000D01*
X13970000Y20938000D02*
X12700000Y20938000D01*
X12700000Y20938000D02*
X11430000Y20938000D01*
X10160000Y20938000D02*
X11430000Y20938000D01*
X12827000Y44306000D02*
X14097000Y44306000D01*
X11557000Y44306000D02*
X12827000Y44306000D01*
X10287000Y44306000D02*
X11557000Y44306000D01*
X19194000Y14224000D02*
X19194000Y12954000D01*
X19194000Y12954000D02*
X19194000Y11684000D01*
X19194000Y10414000D02*
X19194000Y11684000D01*
X11049000Y31670000D02*
X11049000Y32850000D01*
X11049000Y32850000D02*
X11219000Y33020000D01*
X11219000Y33020000D02*
X12994000Y33020000D01*
X12994000Y33020000D02*
X14144000Y33020000D01*
X11346000Y56769000D02*
X13843000Y56769000D01*
X11049000Y55292000D02*
X11049000Y56472000D01*
X11049000Y56472000D02*
X11346000Y56769000D01*
X7112000Y11473000D02*
X7112000Y14224000D01*
X8462000Y11303000D02*
X7281999Y11303001D01*
X7281999Y11303001D02*
X7112000Y11473000D01*
D43*
G36*
X2729200Y72804020D02*
X2128091Y72203959D01*
X1802372Y71419541D01*
X1801630Y70570185D01*
X2125980Y69785200D01*
X2726041Y69184091D01*
X3510459Y68858372D01*
X4359815Y68857630D01*
X5144800Y69181980D01*
X5745909Y69782041D01*
X6071628Y70566459D01*
X6072370Y71415815D01*
X5997919Y71596000D01*
X29017060Y71596000D01*
X29017060Y70096000D01*
X29061338Y69860683D01*
X29200410Y69644559D01*
X29268506Y69598031D01*
X29126173Y69455698D01*
X29029500Y69222309D01*
X29029500Y68631750D01*
X29188250Y68473000D01*
X30162500Y68473000D01*
X30162500Y68493000D01*
X30416500Y68493000D01*
X30416500Y68473000D01*
X31390750Y68473000D01*
X31549500Y68631750D01*
X31549500Y69222309D01*
X31452827Y69455698D01*
X31311590Y69596936D01*
X31365941Y69631910D01*
X31510931Y69844110D01*
X31548777Y70031000D01*
X31918376Y70031000D01*
X31948233Y69880899D01*
X32259302Y69415352D01*
X32724849Y69104283D01*
X33274000Y68995050D01*
X33823151Y69104283D01*
X34288698Y69415352D01*
X34544000Y69797438D01*
X34799302Y69415352D01*
X35264849Y69104283D01*
X35814000Y68995050D01*
X36363151Y69104283D01*
X36828698Y69415352D01*
X37084000Y69797438D01*
X37339302Y69415352D01*
X37804849Y69104283D01*
X38354000Y68995050D01*
X38903151Y69104283D01*
X39368698Y69415352D01*
X39624000Y69797438D01*
X39879302Y69415352D01*
X40344849Y69104283D01*
X40894000Y68995050D01*
X41443151Y69104283D01*
X41908698Y69415352D01*
X42219767Y69880899D01*
X42329000Y70430050D01*
X42329000Y71301950D01*
X42219767Y71851101D01*
X41908698Y72316648D01*
X41443151Y72627717D01*
X40894000Y72736950D01*
X40344849Y72627717D01*
X39879302Y72316648D01*
X39624000Y71934562D01*
X39368698Y72316648D01*
X38903151Y72627717D01*
X38354000Y72736950D01*
X37804849Y72627717D01*
X37339302Y72316648D01*
X37084000Y71934562D01*
X36828698Y72316648D01*
X36363151Y72627717D01*
X35814000Y72736950D01*
X35264849Y72627717D01*
X34799302Y72316648D01*
X34544000Y71934562D01*
X34288698Y72316648D01*
X33823151Y72627717D01*
X33274000Y72736950D01*
X32724849Y72627717D01*
X32259302Y72316648D01*
X31948233Y71851101D01*
X31918376Y71701000D01*
X31542183Y71701000D01*
X31517662Y71831317D01*
X31378590Y72047441D01*
X31166390Y72192431D01*
X30914500Y72243440D01*
X29664500Y72243440D01*
X29429183Y72199162D01*
X29213059Y72060090D01*
X29068069Y71847890D01*
X29017060Y71596000D01*
X5997919Y71596000D01*
X5748020Y72200800D01*
X5147959Y72801909D01*
X4791316Y72950000D01*
X86349724Y72950000D01*
X86474275Y772982D01*
X57598400Y751951D01*
X57626699Y763673D01*
X57805327Y942302D01*
X57902000Y1175691D01*
X57902000Y1766250D01*
X57743250Y1925000D01*
X56769000Y1925000D01*
X56769000Y1905000D01*
X56515000Y1905000D01*
X56515000Y1925000D01*
X55540750Y1925000D01*
X55382000Y1766250D01*
X55382000Y1175691D01*
X55478673Y942302D01*
X55657301Y763673D01*
X55688958Y750560D01*
X710000Y710517D01*
X710000Y3570132D01*
X3312404Y967728D01*
X3583298Y786722D01*
X3902838Y723162D01*
X8584719Y723162D01*
X8904260Y786723D01*
X9175153Y967728D01*
X10898334Y2690909D01*
X11217815Y2690630D01*
X12002800Y3014980D01*
X12603909Y3615041D01*
X12676974Y3791000D01*
X16658560Y3791000D01*
X16658560Y3480000D01*
X16702838Y3244683D01*
X16841910Y3028559D01*
X17054110Y2883569D01*
X17306000Y2832560D01*
X20006000Y2832560D01*
X20241317Y2876838D01*
X20457441Y3015910D01*
X20602431Y3228110D01*
X20653440Y3480000D01*
X20653440Y6146572D01*
X22785934Y8279066D01*
X22823000Y8271560D01*
X22838000Y8271560D01*
X22838000Y6213000D01*
X22901561Y5893459D01*
X22995118Y5753441D01*
X23082566Y5622566D01*
X24215566Y4489566D01*
X24486459Y4308561D01*
X24558560Y4294219D01*
X24558560Y3480000D01*
X24602838Y3244683D01*
X24741910Y3028559D01*
X24954110Y2883569D01*
X25206000Y2832560D01*
X27906000Y2832560D01*
X28141317Y2876838D01*
X28357441Y3015910D01*
X28502431Y3228110D01*
X28553440Y3480000D01*
X28553440Y4045000D01*
X31263560Y4045000D01*
X31263560Y3450000D01*
X31307838Y3214683D01*
X31446910Y2998559D01*
X31659110Y2853569D01*
X31911000Y2802560D01*
X38311000Y2802560D01*
X38546317Y2846838D01*
X38762441Y2985910D01*
X38907431Y3198110D01*
X38958440Y3450000D01*
X38958440Y9250000D01*
X38914162Y9485317D01*
X38775090Y9701441D01*
X38562890Y9846431D01*
X38311000Y9897440D01*
X31911000Y9897440D01*
X31675683Y9853162D01*
X31459559Y9714090D01*
X31337000Y9534719D01*
X31337000Y9652002D01*
X31178252Y9652002D01*
X31337000Y9810750D01*
X31337000Y10276310D01*
X31240327Y10509699D01*
X31061698Y10688327D01*
X30828309Y10785000D01*
X30237750Y10785000D01*
X30079000Y10626250D01*
X30079000Y9652000D01*
X30099000Y9652000D01*
X30099000Y9398000D01*
X30079000Y9398000D01*
X30079000Y8423750D01*
X30237750Y8265000D01*
X30828309Y8265000D01*
X31061698Y8361673D01*
X31240327Y8540301D01*
X31263560Y8596390D01*
X31263560Y6115000D01*
X28553440Y6115000D01*
X28553440Y6680000D01*
X28509162Y6915317D01*
X28370090Y7131441D01*
X28157890Y7276431D01*
X27906000Y7327440D01*
X25206000Y7327440D01*
X24970683Y7283162D01*
X24754559Y7144090D01*
X24609569Y6931890D01*
X24558560Y6680000D01*
X24558560Y6508308D01*
X24508000Y6558868D01*
X24508000Y8338359D01*
X24531110Y8322569D01*
X24558785Y8316965D01*
X24591750Y8284000D01*
X24659310Y8284000D01*
X24679753Y8292468D01*
X24783000Y8271560D01*
X25183000Y8271560D01*
X25418317Y8315838D01*
X25634441Y8454910D01*
X25779431Y8667110D01*
X25784066Y8690000D01*
X26094074Y8690000D01*
X26098838Y8664683D01*
X26237910Y8448559D01*
X26450110Y8303569D01*
X26702000Y8252560D01*
X28202000Y8252560D01*
X28437317Y8296838D01*
X28653441Y8435910D01*
X28699969Y8504006D01*
X28842302Y8361673D01*
X29075691Y8265000D01*
X29666250Y8265000D01*
X29825000Y8423750D01*
X29825000Y9398000D01*
X29805000Y9398000D01*
X29805000Y9652000D01*
X29825000Y9652000D01*
X29825000Y10626250D01*
X29666250Y10785000D01*
X29380384Y10785000D01*
X29748461Y11152436D01*
X29959759Y11661298D01*
X29960240Y12212285D01*
X29749831Y12721515D01*
X29360564Y13111461D01*
X28851702Y13322759D01*
X28300715Y13323240D01*
X27791485Y13112831D01*
X27401539Y12723564D01*
X27190241Y12214702D01*
X27189821Y11733689D01*
X26861566Y11405434D01*
X26680561Y11134541D01*
X26617000Y10815000D01*
X26617000Y10781446D01*
X26466683Y10753162D01*
X26250559Y10614090D01*
X26105569Y10401890D01*
X26097086Y10360000D01*
X25830440Y10360000D01*
X25830440Y10479000D01*
X25786162Y10714317D01*
X25647090Y10930441D01*
X25471768Y11050233D01*
X25634441Y11154910D01*
X25779431Y11367110D01*
X25830440Y11619000D01*
X25830440Y13179000D01*
X25818000Y13245113D01*
X25818000Y16181963D01*
X25754439Y16501504D01*
X25617154Y16706966D01*
X25573434Y16772398D01*
X25411835Y16933997D01*
X26257082Y16933997D01*
X26535855Y16259314D01*
X27051599Y15742670D01*
X27725795Y15462719D01*
X28455803Y15462082D01*
X29130486Y15740855D01*
X29647130Y16256599D01*
X29732586Y16462400D01*
X37126051Y16462400D01*
X40576000Y13012451D01*
X40576000Y9877440D01*
X40311000Y9877440D01*
X40075683Y9833162D01*
X39859559Y9694090D01*
X39714569Y9481890D01*
X39663560Y9230000D01*
X39663560Y8030000D01*
X39707838Y7794683D01*
X39846910Y7578559D01*
X40059110Y7433569D01*
X40311000Y7382560D01*
X40625219Y7382560D01*
X40639561Y7310459D01*
X40759177Y7131441D01*
X40820566Y7039566D01*
X41075035Y6785096D01*
X41345929Y6604091D01*
X41450349Y6583321D01*
X41319566Y6495934D01*
X40820566Y5996934D01*
X40639561Y5726041D01*
X40576000Y5406500D01*
X40576000Y5317440D01*
X40311000Y5317440D01*
X40075683Y5273162D01*
X39859559Y5134090D01*
X39714569Y4921890D01*
X39663560Y4670000D01*
X39663560Y3470000D01*
X39707838Y3234683D01*
X39846910Y3018559D01*
X40059110Y2873569D01*
X40311000Y2822560D01*
X42511000Y2822560D01*
X42746317Y2866838D01*
X42962441Y3005910D01*
X43107431Y3218110D01*
X43158440Y3470000D01*
X43158440Y4670000D01*
X43114162Y4905317D01*
X43007870Y5070500D01*
X45894632Y5070500D01*
X46730566Y4234566D01*
X46482000Y3862562D01*
X46226698Y4244648D01*
X45761151Y4555717D01*
X45212000Y4664950D01*
X44662849Y4555717D01*
X44197302Y4244648D01*
X43886233Y3779101D01*
X43777000Y3229950D01*
X43777000Y2358050D01*
X43886233Y1808899D01*
X44197302Y1343352D01*
X44662849Y1032283D01*
X45212000Y923050D01*
X45761151Y1032283D01*
X46226698Y1343352D01*
X46482000Y1725438D01*
X46737302Y1343352D01*
X47202849Y1032283D01*
X47752000Y923050D01*
X48301151Y1032283D01*
X48766698Y1343352D01*
X49022000Y1725438D01*
X49277302Y1343352D01*
X49742849Y1032283D01*
X50292000Y923050D01*
X50841151Y1032283D01*
X51306698Y1343352D01*
X51562000Y1725438D01*
X51817302Y1343352D01*
X52282849Y1032283D01*
X52832000Y923050D01*
X53381151Y1032283D01*
X53846698Y1343352D01*
X54157767Y1808899D01*
X54267000Y2358050D01*
X54267000Y3229950D01*
X54157767Y3779101D01*
X53931322Y4118000D01*
X55369560Y4118000D01*
X55369560Y3802000D01*
X55413838Y3566683D01*
X55552910Y3350559D01*
X55621006Y3304031D01*
X55478673Y3161698D01*
X55382000Y2928309D01*
X55382000Y2337750D01*
X55540750Y2179000D01*
X56515000Y2179000D01*
X56515000Y2199000D01*
X56769000Y2199000D01*
X56769000Y2179000D01*
X57743250Y2179000D01*
X57902000Y2337750D01*
X57902000Y2928309D01*
X57805327Y3161698D01*
X57664090Y3302936D01*
X57718441Y3337910D01*
X57863431Y3550110D01*
X57914440Y3802000D01*
X57914440Y4064000D01*
X61815968Y4064000D01*
X61909977Y3591386D01*
X62177691Y3190723D01*
X62578354Y2923009D01*
X63050968Y2829000D01*
X63915032Y2829000D01*
X64387646Y2923009D01*
X64788309Y3190723D01*
X65056023Y3591386D01*
X65086855Y3746391D01*
X73209538Y3746391D01*
X73213408Y3708719D01*
X73439920Y3280526D01*
X73813053Y2971610D01*
X74276000Y2829000D01*
X74676000Y2829000D01*
X74676000Y3937000D01*
X74930000Y3937000D01*
X74930000Y2829000D01*
X75330000Y2829000D01*
X75792947Y2971610D01*
X76166080Y3280526D01*
X76392592Y3708719D01*
X76396462Y3746391D01*
X76271731Y3937000D01*
X74930000Y3937000D01*
X74676000Y3937000D01*
X73334269Y3937000D01*
X73209538Y3746391D01*
X65086855Y3746391D01*
X65150032Y4064000D01*
X65086856Y4381609D01*
X73209538Y4381609D01*
X73334269Y4191000D01*
X74676000Y4191000D01*
X74676000Y5299000D01*
X74930000Y5299000D01*
X74930000Y4191000D01*
X76271731Y4191000D01*
X76396462Y4381609D01*
X76392592Y4419281D01*
X76166080Y4847474D01*
X75792947Y5156390D01*
X75330000Y5299000D01*
X74930000Y5299000D01*
X74676000Y5299000D01*
X74276000Y5299000D01*
X73813053Y5156390D01*
X73439920Y4847474D01*
X73213408Y4419281D01*
X73209538Y4381609D01*
X65086856Y4381609D01*
X65056023Y4536614D01*
X64788309Y4937277D01*
X64387646Y5204991D01*
X63915032Y5299000D01*
X63050968Y5299000D01*
X62578354Y5204991D01*
X62177691Y4937277D01*
X61909977Y4536614D01*
X61815968Y4064000D01*
X57914440Y4064000D01*
X57914440Y5302000D01*
X57870162Y5537317D01*
X57731090Y5753441D01*
X57518890Y5898431D01*
X57267000Y5949440D01*
X56017000Y5949440D01*
X55781683Y5905162D01*
X55599608Y5788000D01*
X55147364Y5788000D01*
X55730184Y6370820D01*
X55911189Y6641713D01*
X55974750Y6961254D01*
X55974750Y16285250D01*
X55911189Y16604791D01*
X55730184Y16875684D01*
X53218434Y19387434D01*
X53467000Y19759438D01*
X53722302Y19377352D01*
X54187849Y19066283D01*
X54737000Y18957050D01*
X55286151Y19066283D01*
X55751698Y19377352D01*
X56062767Y19842899D01*
X56079545Y19927250D01*
X56779000Y19927250D01*
X56779000Y19336691D01*
X56875673Y19103302D01*
X57054301Y18924673D01*
X57287690Y18828000D01*
X57753250Y18828000D01*
X57912000Y18986750D01*
X57912000Y20086000D01*
X58166000Y20086000D01*
X58166000Y18986750D01*
X58324750Y18828000D01*
X58790310Y18828000D01*
X59023699Y18924673D01*
X59202327Y19103302D01*
X59299000Y19336691D01*
X59299000Y19927250D01*
X59140250Y20086000D01*
X58166000Y20086000D01*
X57912000Y20086000D01*
X56937750Y20086000D01*
X56779000Y19927250D01*
X56079545Y19927250D01*
X56172000Y20392050D01*
X56172000Y21263950D01*
X56062767Y21813101D01*
X56019403Y21878000D01*
X56782554Y21878000D01*
X56810838Y21727683D01*
X56949910Y21511559D01*
X57018006Y21465031D01*
X56875673Y21322698D01*
X56779000Y21089309D01*
X56779000Y20498750D01*
X56937750Y20340000D01*
X57912000Y20340000D01*
X57912000Y20360000D01*
X58166000Y20360000D01*
X58166000Y20340000D01*
X59140250Y20340000D01*
X59299000Y20498750D01*
X59299000Y21089309D01*
X59202327Y21322698D01*
X59061090Y21463936D01*
X59115441Y21498910D01*
X59260431Y21711110D01*
X59311440Y21963000D01*
X59311440Y23463000D01*
X59267162Y23698317D01*
X59128090Y23914441D01*
X58915890Y24059431D01*
X58664000Y24110440D01*
X57414000Y24110440D01*
X57178683Y24066162D01*
X56962559Y23927090D01*
X56817569Y23714890D01*
X56783773Y23548000D01*
X53682000Y23548000D01*
X53362459Y23484439D01*
X53159859Y23349066D01*
X53091566Y23303434D01*
X52438954Y22650822D01*
X52197000Y22698950D01*
X51647849Y22589717D01*
X51182302Y22278648D01*
X50927000Y21896562D01*
X50671698Y22278648D01*
X50492000Y22398719D01*
X50492000Y22987000D01*
X50428439Y23306541D01*
X50247434Y23577434D01*
X49294934Y24529934D01*
X49138477Y24634475D01*
X49052385Y24692000D01*
X50876000Y24692000D01*
X51195541Y24755561D01*
X51466434Y24936566D01*
X52787434Y26257566D01*
X52814744Y26298439D01*
X52968439Y26528459D01*
X53032000Y26848000D01*
X53032000Y26877281D01*
X53211698Y26997352D01*
X53309251Y27143350D01*
X53333838Y27012683D01*
X53472910Y26796559D01*
X53685110Y26651569D01*
X53937000Y26600560D01*
X55537000Y26600560D01*
X55772317Y26644838D01*
X55988441Y26783910D01*
X56133431Y26996110D01*
X56184440Y27248000D01*
X56184440Y27292507D01*
X60569608Y27292507D01*
X60569608Y8282392D01*
X60633169Y7962851D01*
X60786956Y7732693D01*
X60814174Y7691958D01*
X61830264Y6675868D01*
X61815968Y6604000D01*
X61909977Y6131386D01*
X62177691Y5730723D01*
X62578354Y5463009D01*
X63050968Y5369000D01*
X63915032Y5369000D01*
X64387646Y5463009D01*
X64788309Y5730723D01*
X65056023Y6131386D01*
X65150032Y6604000D01*
X73135968Y6604000D01*
X73229977Y6131386D01*
X73497691Y5730723D01*
X73898354Y5463009D01*
X74370968Y5369000D01*
X75235032Y5369000D01*
X75707646Y5463009D01*
X76108309Y5730723D01*
X76376023Y6131386D01*
X76470032Y6604000D01*
X76376023Y7076614D01*
X76108309Y7477277D01*
X75707646Y7744991D01*
X75235032Y7839000D01*
X74370968Y7839000D01*
X73898354Y7744991D01*
X73497691Y7477277D01*
X73229977Y7076614D01*
X73135968Y6604000D01*
X65150032Y6604000D01*
X65056023Y7076614D01*
X64788309Y7477277D01*
X64387646Y7744991D01*
X63915032Y7839000D01*
X63050968Y7839000D01*
X63032535Y7835333D01*
X62935999Y7931869D01*
X63050968Y7909000D01*
X63915032Y7909000D01*
X64387646Y8003009D01*
X64788309Y8270723D01*
X65056023Y8671386D01*
X65150032Y9144000D01*
X73135968Y9144000D01*
X73229977Y8671386D01*
X73497691Y8270723D01*
X73898354Y8003009D01*
X74370968Y7909000D01*
X75235032Y7909000D01*
X75707646Y8003009D01*
X76108309Y8270723D01*
X76376023Y8671386D01*
X76470032Y9144000D01*
X76376023Y9616614D01*
X76108309Y10017277D01*
X75707646Y10284991D01*
X75235032Y10379000D01*
X74370968Y10379000D01*
X73898354Y10284991D01*
X73497691Y10017277D01*
X73229977Y9616614D01*
X73135968Y9144000D01*
X65150032Y9144000D01*
X65135736Y9215868D01*
X67603868Y11684000D01*
X73135968Y11684000D01*
X73229977Y11211386D01*
X73497691Y10810723D01*
X73898354Y10543009D01*
X74370968Y10449000D01*
X75235032Y10449000D01*
X75707646Y10543009D01*
X76108309Y10810723D01*
X76376023Y11211386D01*
X76470032Y11684000D01*
X76376023Y12156614D01*
X76108309Y12557277D01*
X75707646Y12824991D01*
X75235032Y12919000D01*
X74370968Y12919000D01*
X73898354Y12824991D01*
X73497691Y12557277D01*
X73229977Y12156614D01*
X73135968Y11684000D01*
X67603868Y11684000D01*
X68050605Y12130737D01*
X68231611Y12401631D01*
X68295171Y12721171D01*
X68295171Y14224000D01*
X73135968Y14224000D01*
X73229977Y13751386D01*
X73497691Y13350723D01*
X73898354Y13083009D01*
X74370968Y12989000D01*
X75235032Y12989000D01*
X75707646Y13083009D01*
X76108309Y13350723D01*
X76376023Y13751386D01*
X76470032Y14224000D01*
X76376023Y14696614D01*
X76108309Y15097277D01*
X75707646Y15364991D01*
X75235032Y15459000D01*
X74370968Y15459000D01*
X73898354Y15364991D01*
X73497691Y15097277D01*
X73229977Y14696614D01*
X73135968Y14224000D01*
X68295171Y14224000D01*
X68295171Y16446391D01*
X73209538Y16446391D01*
X73213408Y16408719D01*
X73439920Y15980526D01*
X73813053Y15671610D01*
X74276000Y15529000D01*
X74676000Y15529000D01*
X74676000Y16637000D01*
X74930000Y16637000D01*
X74930000Y15529000D01*
X75330000Y15529000D01*
X75792947Y15671610D01*
X76166080Y15980526D01*
X76392592Y16408719D01*
X76396462Y16446391D01*
X76271731Y16637000D01*
X74930000Y16637000D01*
X74676000Y16637000D01*
X73334269Y16637000D01*
X73209538Y16446391D01*
X68295171Y16446391D01*
X68295171Y17081609D01*
X73209538Y17081609D01*
X73334269Y16891000D01*
X74676000Y16891000D01*
X74676000Y17999000D01*
X74930000Y17999000D01*
X74930000Y16891000D01*
X76271731Y16891000D01*
X76396462Y17081609D01*
X76392592Y17119281D01*
X76166080Y17547474D01*
X75792947Y17856390D01*
X75330000Y17999000D01*
X74930000Y17999000D01*
X74676000Y17999000D01*
X74276000Y17999000D01*
X73813053Y17856390D01*
X73439920Y17547474D01*
X73213408Y17119281D01*
X73209538Y17081609D01*
X68295171Y17081609D01*
X68295171Y18986391D01*
X73209538Y18986391D01*
X73213408Y18948719D01*
X73439920Y18520526D01*
X73813053Y18211610D01*
X74276000Y18069000D01*
X74676000Y18069000D01*
X74676000Y19177000D01*
X74930000Y19177000D01*
X74930000Y18069000D01*
X75330000Y18069000D01*
X75792947Y18211610D01*
X76166080Y18520526D01*
X76392592Y18948719D01*
X76396462Y18986391D01*
X76271731Y19177000D01*
X74930000Y19177000D01*
X74676000Y19177000D01*
X73334269Y19177000D01*
X73209538Y18986391D01*
X68295171Y18986391D01*
X68295171Y19621609D01*
X73209538Y19621609D01*
X73334269Y19431000D01*
X74676000Y19431000D01*
X74676000Y20539000D01*
X74930000Y20539000D01*
X74930000Y19431000D01*
X76271731Y19431000D01*
X76396462Y19621609D01*
X76392592Y19659281D01*
X76166080Y20087474D01*
X75792947Y20396390D01*
X75330000Y20539000D01*
X74930000Y20539000D01*
X74676000Y20539000D01*
X74276000Y20539000D01*
X73813053Y20396390D01*
X73439920Y20087474D01*
X73213408Y19659281D01*
X73209538Y19621609D01*
X68295171Y19621609D01*
X68295171Y26179545D01*
X68633632Y26517417D01*
X68844930Y27026279D01*
X68845411Y27577266D01*
X68635002Y28086496D01*
X68245735Y28476442D01*
X67736873Y28687740D01*
X67185886Y28688221D01*
X66676656Y28477812D01*
X66286710Y28088545D01*
X66075412Y27579683D01*
X66074931Y27028696D01*
X66285340Y26519466D01*
X66625171Y26179042D01*
X66625171Y13067039D01*
X65016363Y11458231D01*
X64951731Y11557000D01*
X63610000Y11557000D01*
X63610000Y10449000D01*
X64007132Y10449000D01*
X63933465Y10375333D01*
X63915032Y10379000D01*
X63050968Y10379000D01*
X62578354Y10284991D01*
X62239608Y10058649D01*
X62239608Y10801437D01*
X62493053Y10591610D01*
X62956000Y10449000D01*
X63356000Y10449000D01*
X63356000Y11557000D01*
X63336000Y11557000D01*
X63336000Y11811000D01*
X63356000Y11811000D01*
X63356000Y12919000D01*
X63610000Y12919000D01*
X63610000Y11811000D01*
X64951731Y11811000D01*
X65076462Y12001609D01*
X65072592Y12039281D01*
X64846080Y12467474D01*
X64472947Y12776390D01*
X64010000Y12919000D01*
X63610000Y12919000D01*
X63356000Y12919000D01*
X62956000Y12919000D01*
X62493053Y12776390D01*
X62239608Y12566563D01*
X62239608Y13309351D01*
X62578354Y13083009D01*
X63050968Y12989000D01*
X63915032Y12989000D01*
X64387646Y13083009D01*
X64788309Y13350723D01*
X65056023Y13751386D01*
X65150032Y14224000D01*
X65056023Y14696614D01*
X64788309Y15097277D01*
X64387646Y15364991D01*
X63915032Y15459000D01*
X63050968Y15459000D01*
X62578354Y15364991D01*
X62239608Y15138649D01*
X62239608Y15881437D01*
X62493053Y15671610D01*
X62956000Y15529000D01*
X63356000Y15529000D01*
X63356000Y16637000D01*
X63610000Y16637000D01*
X63610000Y15529000D01*
X64010000Y15529000D01*
X64472947Y15671610D01*
X64846080Y15980526D01*
X65072592Y16408719D01*
X65076462Y16446391D01*
X64951731Y16637000D01*
X63610000Y16637000D01*
X63356000Y16637000D01*
X63336000Y16637000D01*
X63336000Y16891000D01*
X63356000Y16891000D01*
X63356000Y17999000D01*
X63610000Y17999000D01*
X63610000Y16891000D01*
X64951731Y16891000D01*
X65076462Y17081609D01*
X65072592Y17119281D01*
X64846080Y17547474D01*
X64472947Y17856390D01*
X64010000Y17999000D01*
X63610000Y17999000D01*
X63356000Y17999000D01*
X62956000Y17999000D01*
X62493053Y17856390D01*
X62239608Y17646563D01*
X62239608Y18421437D01*
X62493053Y18211610D01*
X62956000Y18069000D01*
X63356000Y18069000D01*
X63356000Y19177000D01*
X63610000Y19177000D01*
X63610000Y18069000D01*
X64010000Y18069000D01*
X64472947Y18211610D01*
X64846080Y18520526D01*
X65072592Y18948719D01*
X65076462Y18986391D01*
X64951731Y19177000D01*
X63610000Y19177000D01*
X63356000Y19177000D01*
X63336000Y19177000D01*
X63336000Y19431000D01*
X63356000Y19431000D01*
X63356000Y20539000D01*
X63610000Y20539000D01*
X63610000Y19431000D01*
X64951731Y19431000D01*
X65076462Y19621609D01*
X65072592Y19659281D01*
X64846080Y20087474D01*
X64472947Y20396390D01*
X64010000Y20539000D01*
X63610000Y20539000D01*
X63356000Y20539000D01*
X62956000Y20539000D01*
X62493053Y20396390D01*
X62239608Y20186563D01*
X62239608Y26946639D01*
X63864765Y28571796D01*
X64492230Y28571796D01*
X64830102Y28233335D01*
X65338964Y28022037D01*
X65889951Y28021556D01*
X66399181Y28231965D01*
X66789127Y28621232D01*
X67000425Y29130094D01*
X67000906Y29681081D01*
X66790497Y30190311D01*
X66401230Y30580257D01*
X65892368Y30791555D01*
X65341381Y30792036D01*
X64832151Y30581627D01*
X64491727Y30241796D01*
X63518897Y30241796D01*
X63199356Y30178235D01*
X62928463Y29997230D01*
X60814174Y27882941D01*
X60633169Y27612048D01*
X60569608Y27292507D01*
X56184440Y27292507D01*
X56184440Y29648000D01*
X56140162Y29883317D01*
X56001090Y30099441D01*
X55788890Y30244431D01*
X55537000Y30295440D01*
X53937000Y30295440D01*
X53701683Y30251162D01*
X53485559Y30112090D01*
X53340569Y29899890D01*
X53310403Y29750926D01*
X53211698Y29898648D01*
X52746151Y30209717D01*
X52197000Y30318950D01*
X51647849Y30209717D01*
X51182302Y29898648D01*
X50927000Y29516562D01*
X50671698Y29898648D01*
X50492000Y30018719D01*
X50492000Y31014560D01*
X50761000Y31014560D01*
X50996317Y31058838D01*
X51212441Y31197910D01*
X51357431Y31410110D01*
X51408440Y31662000D01*
X51408440Y32028110D01*
X61995024Y32028110D01*
X62164855Y31618076D01*
X62555142Y31189817D01*
X63079608Y30943514D01*
X63309500Y31064181D01*
X63309500Y32258000D01*
X63563500Y32258000D01*
X63563500Y31064181D01*
X63793392Y30943514D01*
X64317858Y31189817D01*
X64708145Y31618076D01*
X64801409Y31843250D01*
X77807000Y31843250D01*
X77807000Y31252691D01*
X77903673Y31019302D01*
X78082301Y30840673D01*
X78315690Y30744000D01*
X78781250Y30744000D01*
X78940000Y30902750D01*
X78940000Y32002000D01*
X79194000Y32002000D01*
X79194000Y30902750D01*
X79352750Y30744000D01*
X79818310Y30744000D01*
X80051699Y30840673D01*
X80230327Y31019302D01*
X80327000Y31252691D01*
X80327000Y31843250D01*
X80168250Y32002000D01*
X79194000Y32002000D01*
X78940000Y32002000D01*
X77965750Y32002000D01*
X77807000Y31843250D01*
X64801409Y31843250D01*
X64877976Y32028110D01*
X64756655Y32258000D01*
X63563500Y32258000D01*
X63309500Y32258000D01*
X62116345Y32258000D01*
X61995024Y32028110D01*
X51408440Y32028110D01*
X51408440Y33362000D01*
X51364162Y33597317D01*
X51225090Y33813441D01*
X51012890Y33958431D01*
X50761000Y34009440D01*
X49061000Y34009440D01*
X48825683Y33965162D01*
X48609559Y33826090D01*
X48464569Y33613890D01*
X48413560Y33362000D01*
X48413560Y31662000D01*
X48457838Y31426683D01*
X48596910Y31210559D01*
X48809110Y31065569D01*
X48822000Y31062959D01*
X48822000Y30018719D01*
X48642302Y29898648D01*
X48387000Y29516562D01*
X48131698Y29898648D01*
X47666151Y30209717D01*
X47117000Y30318950D01*
X46567849Y30209717D01*
X46102302Y29898648D01*
X45791233Y29433101D01*
X45682000Y28883950D01*
X45682000Y28012050D01*
X45791233Y27462899D01*
X46102302Y26997352D01*
X46567849Y26686283D01*
X47117000Y26577050D01*
X47666151Y26686283D01*
X48131698Y26997352D01*
X48387000Y27379438D01*
X48642302Y26997352D01*
X49107849Y26686283D01*
X49657000Y26577050D01*
X50206151Y26686283D01*
X50671698Y26997352D01*
X50927000Y27379438D01*
X51175566Y27007434D01*
X50530132Y26362000D01*
X44774868Y26362000D01*
X43628434Y27508434D01*
X43537042Y27569500D01*
X43357541Y27689439D01*
X43249124Y27711005D01*
X43241162Y27753317D01*
X43102090Y27969441D01*
X42889890Y28114431D01*
X42638000Y28165440D01*
X42373000Y28165440D01*
X42373000Y31615799D01*
X42351764Y31722560D01*
X42309440Y31935339D01*
X42128434Y32206233D01*
X40075472Y34259195D01*
X43296805Y34259195D01*
X43529358Y33697742D01*
X44020224Y33176508D01*
X44673193Y32882797D01*
X44958000Y32999142D01*
X44958000Y34544000D01*
X45212000Y34544000D01*
X45212000Y32999142D01*
X45496807Y32882797D01*
X46149776Y33176508D01*
X46640642Y33697742D01*
X46873195Y34259195D01*
X46756432Y34544000D01*
X45212000Y34544000D01*
X44958000Y34544000D01*
X43413568Y34544000D01*
X43296805Y34259195D01*
X40075472Y34259195D01*
X39766557Y34568110D01*
X61995024Y34568110D01*
X62164855Y34158076D01*
X62555142Y33729817D01*
X62714454Y33655000D01*
X62555142Y33580183D01*
X62164855Y33151924D01*
X61995024Y32741890D01*
X62116345Y32512000D01*
X63309500Y32512000D01*
X63309500Y34798000D01*
X63563500Y34798000D01*
X63563500Y32512000D01*
X64756655Y32512000D01*
X64877976Y32741890D01*
X64708145Y33151924D01*
X64317858Y33580183D01*
X64158546Y33655000D01*
X64317858Y33729817D01*
X64708145Y34158076D01*
X64877976Y34568110D01*
X64756655Y34798000D01*
X63563500Y34798000D01*
X63309500Y34798000D01*
X62116345Y34798000D01*
X61995024Y34568110D01*
X39766557Y34568110D01*
X39251862Y35082805D01*
X43296805Y35082805D01*
X43413568Y34798000D01*
X44958000Y34798000D01*
X44958000Y36342858D01*
X45212000Y36342858D01*
X45212000Y34798000D01*
X46756432Y34798000D01*
X46873195Y35082805D01*
X46640642Y35644258D01*
X46149776Y36165492D01*
X45496807Y36459203D01*
X45212000Y36342858D01*
X44958000Y36342858D01*
X44673193Y36459203D01*
X44020224Y36165492D01*
X43529358Y35644258D01*
X43296805Y35082805D01*
X39251862Y35082805D01*
X39073233Y35261434D01*
X39042618Y35281890D01*
X38802340Y35442439D01*
X38482799Y35506000D01*
X31485458Y35506000D01*
X31401545Y35709086D01*
X30885801Y36225730D01*
X30211605Y36505681D01*
X29481597Y36506318D01*
X28806914Y36227545D01*
X28290270Y35711801D01*
X28010319Y35037605D01*
X28009682Y34307597D01*
X28288455Y33632914D01*
X28804199Y33116270D01*
X29478395Y32836319D01*
X30208403Y32835682D01*
X30883086Y33114455D01*
X31399730Y33630199D01*
X31485186Y33836000D01*
X38136931Y33836000D01*
X40703000Y31269931D01*
X40703000Y28165440D01*
X40438000Y28165440D01*
X40202683Y28121162D01*
X39986559Y27982090D01*
X39841569Y27769890D01*
X39790560Y27518000D01*
X39790560Y26318000D01*
X39834838Y26082683D01*
X39973910Y25866559D01*
X40186110Y25721569D01*
X40438000Y25670560D01*
X42638000Y25670560D01*
X42873317Y25714838D01*
X42987086Y25788046D01*
X43838566Y24936566D01*
X44109459Y24755561D01*
X44316871Y24714304D01*
X44299960Y24710940D01*
X44029066Y24529934D01*
X42987125Y23487993D01*
X42889890Y23554431D01*
X42638000Y23605440D01*
X40438000Y23605440D01*
X40202683Y23561162D01*
X39986559Y23422090D01*
X39841569Y23209890D01*
X39790560Y22958000D01*
X39790560Y21758000D01*
X39834838Y21522683D01*
X39973910Y21306559D01*
X40186110Y21161569D01*
X40438000Y21110560D01*
X42638000Y21110560D01*
X42873317Y21154838D01*
X43089441Y21293910D01*
X43234431Y21506110D01*
X43237851Y21523000D01*
X43337258Y21523000D01*
X43656799Y21586561D01*
X43927692Y21767566D01*
X44108697Y22038459D01*
X44160685Y22299817D01*
X44965368Y23104500D01*
X48358632Y23104500D01*
X48822000Y22641132D01*
X48822000Y22398719D01*
X48642302Y22278648D01*
X48387000Y21896562D01*
X48131698Y22278648D01*
X47666151Y22589717D01*
X47117000Y22698950D01*
X46567849Y22589717D01*
X46102302Y22278648D01*
X45791233Y21813101D01*
X45682000Y21263950D01*
X45682000Y20392050D01*
X45791233Y19842899D01*
X46102302Y19377352D01*
X46567849Y19066283D01*
X47117000Y18957050D01*
X47666151Y19066283D01*
X48131698Y19377352D01*
X48387000Y19759438D01*
X48642302Y19377352D01*
X49107849Y19066283D01*
X49657000Y18957050D01*
X50206151Y19066283D01*
X50671698Y19377352D01*
X50927000Y19759438D01*
X51182302Y19377352D01*
X51362000Y19257281D01*
X51362000Y19228000D01*
X51425561Y18908459D01*
X51463199Y18852130D01*
X51606566Y18637566D01*
X54304750Y15939382D01*
X54304750Y7307122D01*
X52785628Y5788000D01*
X50851000Y5788000D01*
X50531459Y5724439D01*
X50341390Y5597439D01*
X50260566Y5543434D01*
X49701566Y4984434D01*
X49520561Y4713541D01*
X49457000Y4394000D01*
X49457000Y4364719D01*
X49277302Y4244648D01*
X49022000Y3862562D01*
X48766698Y4244648D01*
X48587000Y4364719D01*
X48587000Y4394000D01*
X48523439Y4713541D01*
X48342434Y4984434D01*
X46830934Y6495934D01*
X46764190Y6540531D01*
X48853531Y6540531D01*
X49173072Y6604092D01*
X49443965Y6785097D01*
X50882434Y8223566D01*
X50913943Y8270723D01*
X51063439Y8494459D01*
X51127000Y8814000D01*
X51127000Y8843281D01*
X51306698Y8963352D01*
X51404251Y9109350D01*
X51428838Y8978683D01*
X51567910Y8762559D01*
X51780110Y8617569D01*
X52032000Y8566560D01*
X53632000Y8566560D01*
X53867317Y8610838D01*
X54083441Y8749910D01*
X54228431Y8962110D01*
X54279440Y9214000D01*
X54279440Y11614000D01*
X54235162Y11849317D01*
X54096090Y12065441D01*
X53883890Y12210431D01*
X53632000Y12261440D01*
X52032000Y12261440D01*
X51796683Y12217162D01*
X51580559Y12078090D01*
X51435569Y11865890D01*
X51405403Y11716926D01*
X51306698Y11864648D01*
X50841151Y12175717D01*
X50292000Y12284950D01*
X49742849Y12175717D01*
X49277302Y11864648D01*
X49022000Y11482562D01*
X48766698Y11864648D01*
X48764542Y11866089D01*
X48904439Y12075459D01*
X48968000Y12395000D01*
X48968000Y12853560D01*
X48983000Y12853560D01*
X49218317Y12897838D01*
X49434441Y13036910D01*
X49579431Y13249110D01*
X49630440Y13501000D01*
X49630440Y15201000D01*
X49586162Y15436317D01*
X49447090Y15652441D01*
X49234890Y15797431D01*
X48983000Y15848440D01*
X47283000Y15848440D01*
X47047683Y15804162D01*
X46831559Y15665090D01*
X46686569Y15452890D01*
X46635560Y15201000D01*
X46635560Y13501000D01*
X46679838Y13265683D01*
X46818910Y13049559D01*
X47031110Y12904569D01*
X47283000Y12853560D01*
X47298000Y12853560D01*
X47298000Y12740868D01*
X47161566Y12604434D01*
X46980561Y12333541D01*
X46917000Y12014000D01*
X46917000Y11984719D01*
X46737302Y11864648D01*
X46482000Y11482562D01*
X46226698Y11864648D01*
X45761151Y12175717D01*
X45212000Y12284950D01*
X44662849Y12175717D01*
X44197302Y11864648D01*
X43886233Y11399101D01*
X43777000Y10849950D01*
X43777000Y9978050D01*
X43886233Y9428899D01*
X44197302Y8963352D01*
X44662849Y8652283D01*
X45212000Y8543050D01*
X45761151Y8652283D01*
X46226698Y8963352D01*
X46482000Y9345438D01*
X46737302Y8963352D01*
X47202849Y8652283D01*
X47752000Y8543050D01*
X48301151Y8652283D01*
X48766698Y8963352D01*
X49022000Y9345438D01*
X49270566Y8973434D01*
X48507663Y8210531D01*
X43158440Y8210531D01*
X43158440Y9230000D01*
X43114162Y9465317D01*
X42975090Y9681441D01*
X42762890Y9826431D01*
X42511000Y9877440D01*
X42246000Y9877440D01*
X42246000Y13358319D01*
X42221619Y13480890D01*
X42182440Y13677859D01*
X42001434Y13948753D01*
X39064592Y16885595D01*
X41544205Y16885595D01*
X41776758Y16324142D01*
X42267624Y15802908D01*
X42920593Y15509197D01*
X43205400Y15625542D01*
X43205400Y17170400D01*
X43459400Y17170400D01*
X43459400Y15625542D01*
X43744207Y15509197D01*
X44397176Y15802908D01*
X44888042Y16324142D01*
X45120595Y16885595D01*
X45003832Y17170400D01*
X43459400Y17170400D01*
X43205400Y17170400D01*
X41660968Y17170400D01*
X41544205Y16885595D01*
X39064592Y16885595D01*
X38240982Y17709205D01*
X41544205Y17709205D01*
X41660968Y17424400D01*
X43205400Y17424400D01*
X43205400Y18969258D01*
X43459400Y18969258D01*
X43459400Y17424400D01*
X45003832Y17424400D01*
X45120595Y17709205D01*
X44888042Y18270658D01*
X44397176Y18791892D01*
X43744207Y19085603D01*
X43459400Y18969258D01*
X43205400Y18969258D01*
X42920593Y19085603D01*
X42267624Y18791892D01*
X41776758Y18270658D01*
X41544205Y17709205D01*
X38240982Y17709205D01*
X38062353Y17887834D01*
X38027636Y17911031D01*
X37791460Y18068839D01*
X37471919Y18132400D01*
X29732858Y18132400D01*
X29648945Y18335486D01*
X29133201Y18852130D01*
X28459005Y19132081D01*
X27728997Y19132718D01*
X27054314Y18853945D01*
X26537670Y18338201D01*
X26257719Y17664005D01*
X26257082Y16933997D01*
X25411835Y16933997D01*
X25295197Y17050635D01*
X25295614Y17528874D01*
X25085205Y18038104D01*
X24695938Y18428050D01*
X24187076Y18639348D01*
X23636089Y18639829D01*
X23126859Y18429420D01*
X22736913Y18040153D01*
X22588265Y17682168D01*
X22501844Y17891322D01*
X22112577Y18281268D01*
X21603715Y18492566D01*
X21052728Y18493047D01*
X20543498Y18282638D01*
X20153552Y17893371D01*
X19942254Y17384509D01*
X19941773Y16833522D01*
X20152182Y16324292D01*
X20541449Y15934346D01*
X21050311Y15723048D01*
X21531324Y15722628D01*
X23498000Y13755952D01*
X23498000Y13752411D01*
X23460170Y13768080D01*
X23414250Y13814000D01*
X23281750Y13814000D01*
X23235830Y13768080D01*
X23113301Y13717327D01*
X22934673Y13538698D01*
X22923000Y13510517D01*
X22923000Y13655250D01*
X22764250Y13814000D01*
X22696690Y13814000D01*
X22463301Y13717327D01*
X22284673Y13538698D01*
X22188000Y13305309D01*
X22188000Y12684750D01*
X22346750Y12526000D01*
X22923000Y12526000D01*
X22923000Y12599750D01*
X22996750Y12526000D01*
X23170000Y12526000D01*
X23170000Y12272000D01*
X22996750Y12272000D01*
X22976750Y12252000D01*
X22923000Y12252000D01*
X22923000Y12272000D01*
X22346750Y12272000D01*
X22188000Y12113250D01*
X22188000Y11492691D01*
X22284673Y11259302D01*
X22463301Y11080673D01*
X22537565Y11049912D01*
X22371559Y10943090D01*
X22226569Y10730890D01*
X22175560Y10479000D01*
X22175560Y10030428D01*
X19472572Y7327440D01*
X17306000Y7327440D01*
X17070683Y7283162D01*
X16854559Y7144090D01*
X16709569Y6931890D01*
X16658560Y6680000D01*
X16658560Y5861000D01*
X12677420Y5861000D01*
X12606020Y6033800D01*
X12005959Y6634909D01*
X11221541Y6960628D01*
X10372185Y6961370D01*
X9587200Y6637020D01*
X8986091Y6036959D01*
X8660372Y5252541D01*
X8659630Y4403185D01*
X8983980Y3618200D01*
X9223725Y3378036D01*
X8238851Y2393162D01*
X4248706Y2393162D01*
X3802686Y2839182D01*
X3963110Y2729569D01*
X4215000Y2678560D01*
X7215000Y2678560D01*
X7450317Y2722838D01*
X7666441Y2861910D01*
X7811431Y3074110D01*
X7862440Y3326000D01*
X7862440Y6326000D01*
X7818162Y6561317D01*
X7679090Y6777441D01*
X7466890Y6922431D01*
X7215000Y6973440D01*
X6550000Y6973440D01*
X6550000Y7703076D01*
X6688459Y7610561D01*
X7008000Y7547000D01*
X13208000Y7547000D01*
X13527541Y7610561D01*
X13798434Y7791566D01*
X15068434Y9061566D01*
X15105736Y9117392D01*
X15249439Y9332459D01*
X15313000Y9652000D01*
X15313000Y11176000D01*
X15249439Y11495541D01*
X15138684Y11661298D01*
X15068434Y11766435D01*
X14560434Y12274434D01*
X14510199Y12308000D01*
X14289541Y12455439D01*
X13970000Y12519000D01*
X13284039Y12519000D01*
X13316440Y12679000D01*
X13316440Y13229000D01*
X13272162Y13464317D01*
X13197841Y13579815D01*
X13207327Y13589301D01*
X13304000Y13822690D01*
X13304000Y13938250D01*
X13145250Y14097000D01*
X11921000Y14097000D01*
X11921000Y14077000D01*
X11667000Y14077000D01*
X11667000Y14097000D01*
X10442750Y14097000D01*
X10284000Y13938250D01*
X10284000Y13822690D01*
X10297955Y13789000D01*
X9163000Y13789000D01*
X8843460Y13725440D01*
X8572566Y13544434D01*
X8253572Y13225440D01*
X8241817Y13225440D01*
X8358431Y13396110D01*
X8409440Y13648000D01*
X8409440Y14625310D01*
X10284000Y14625310D01*
X10284000Y14509750D01*
X10442750Y14351000D01*
X11667000Y14351000D01*
X11667000Y14975250D01*
X11921000Y14975250D01*
X11921000Y14351000D01*
X13145250Y14351000D01*
X13293250Y14499000D01*
X17671560Y14499000D01*
X17671560Y13949000D01*
X17715838Y13713683D01*
X17796248Y13588723D01*
X17722569Y13480890D01*
X17671560Y13229000D01*
X17671560Y12679000D01*
X17715838Y12443683D01*
X17796248Y12318723D01*
X17722569Y12210890D01*
X17671560Y11959000D01*
X17671560Y11409000D01*
X17715838Y11173683D01*
X17796248Y11048723D01*
X17722569Y10940890D01*
X17671560Y10689000D01*
X17671560Y10139000D01*
X17715838Y9903683D01*
X17854910Y9687559D01*
X18067110Y9542569D01*
X18319000Y9491560D01*
X20069000Y9491560D01*
X20304317Y9535838D01*
X20520441Y9674910D01*
X20665431Y9887110D01*
X20716440Y10139000D01*
X20716440Y10689000D01*
X20672162Y10924317D01*
X20591752Y11049277D01*
X20665431Y11157110D01*
X20716440Y11409000D01*
X20716440Y11959000D01*
X20672162Y12194317D01*
X20591752Y12319277D01*
X20665431Y12427110D01*
X20716440Y12679000D01*
X20716440Y13229000D01*
X20672162Y13464317D01*
X20591752Y13589277D01*
X20665431Y13697110D01*
X20716440Y13949000D01*
X20716440Y14499000D01*
X20672162Y14734317D01*
X20533090Y14950441D01*
X20320890Y15095431D01*
X20069000Y15146440D01*
X18319000Y15146440D01*
X18083683Y15102162D01*
X17867559Y14963090D01*
X17722569Y14750890D01*
X17671560Y14499000D01*
X13293250Y14499000D01*
X13304000Y14509750D01*
X13304000Y14625310D01*
X13207327Y14858699D01*
X13028698Y15037327D01*
X12795309Y15134000D01*
X12079750Y15134000D01*
X11921000Y14975250D01*
X11667000Y14975250D01*
X11508250Y15134000D01*
X10792691Y15134000D01*
X10559302Y15037327D01*
X10380673Y14858699D01*
X10284000Y14625310D01*
X8409440Y14625310D01*
X8409440Y15148000D01*
X8365162Y15383317D01*
X8226090Y15599441D01*
X8013890Y15744431D01*
X7980510Y15751191D01*
X8121699Y15809673D01*
X8300327Y15988302D01*
X8397000Y16221691D01*
X8397000Y16812250D01*
X8238250Y16971000D01*
X7239000Y16971000D01*
X7239000Y16951000D01*
X6985000Y16951000D01*
X6985000Y16971000D01*
X5985750Y16971000D01*
X5827000Y16812250D01*
X5827000Y16221691D01*
X5923673Y15988302D01*
X6102301Y15809673D01*
X6238287Y15753346D01*
X6226683Y15751162D01*
X6010559Y15612090D01*
X5865569Y15399890D01*
X5814560Y15148000D01*
X5814560Y13648000D01*
X5858838Y13412683D01*
X5979326Y13225440D01*
X4982000Y13225440D01*
X4746683Y13181162D01*
X4530559Y13042090D01*
X4385569Y12829890D01*
X4334560Y12578000D01*
X4334560Y12118000D01*
X3796446Y12118000D01*
X3768162Y12268317D01*
X3629090Y12484441D01*
X3509911Y12565873D01*
X3641441Y12650510D01*
X3786431Y12862710D01*
X3837440Y13114600D01*
X3837440Y14614600D01*
X3793162Y14849917D01*
X3654090Y15066041D01*
X3441890Y15211031D01*
X3428803Y15213681D01*
X3641441Y15350510D01*
X3786431Y15562710D01*
X3837440Y15814600D01*
X3837440Y17314600D01*
X3793162Y17549917D01*
X3654090Y17766041D01*
X3441890Y17911031D01*
X3190000Y17962040D01*
X1890000Y17962040D01*
X1654683Y17917762D01*
X1438559Y17778690D01*
X1293569Y17566490D01*
X1242560Y17314600D01*
X1242560Y16348028D01*
X710000Y15815468D01*
X710000Y17974309D01*
X5827000Y17974309D01*
X5827000Y17383750D01*
X5985750Y17225000D01*
X6985000Y17225000D01*
X6985000Y18324250D01*
X7239000Y18324250D01*
X7239000Y17225000D01*
X8238250Y17225000D01*
X8397000Y17383750D01*
X8397000Y17974309D01*
X8300327Y18207698D01*
X8121699Y18386327D01*
X7888310Y18483000D01*
X7397750Y18483000D01*
X7239000Y18324250D01*
X6985000Y18324250D01*
X6826250Y18483000D01*
X6335690Y18483000D01*
X6102301Y18386327D01*
X5923673Y18207698D01*
X5827000Y17974309D01*
X710000Y17974309D01*
X710000Y21813000D01*
X9237560Y21813000D01*
X9237560Y20063000D01*
X9281838Y19827683D01*
X9420910Y19611559D01*
X9633110Y19466569D01*
X9885000Y19415560D01*
X10435000Y19415560D01*
X10670317Y19459838D01*
X10795277Y19540248D01*
X10903110Y19466569D01*
X11155000Y19415560D01*
X11705000Y19415560D01*
X11940317Y19459838D01*
X12065277Y19540248D01*
X12173110Y19466569D01*
X12425000Y19415560D01*
X12975000Y19415560D01*
X13210317Y19459838D01*
X13335277Y19540248D01*
X13443110Y19466569D01*
X13695000Y19415560D01*
X14245000Y19415560D01*
X14480317Y19459838D01*
X14696441Y19598910D01*
X14841431Y19811110D01*
X14892440Y20063000D01*
X14892440Y21813000D01*
X14848162Y22048317D01*
X14709090Y22264441D01*
X14496890Y22409431D01*
X14245000Y22460440D01*
X13695000Y22460440D01*
X13459683Y22416162D01*
X13334723Y22335752D01*
X13226890Y22409431D01*
X12975000Y22460440D01*
X12425000Y22460440D01*
X12189683Y22416162D01*
X12064723Y22335752D01*
X11956890Y22409431D01*
X11705000Y22460440D01*
X11155000Y22460440D01*
X10919683Y22416162D01*
X10794723Y22335752D01*
X10686890Y22409431D01*
X10435000Y22460440D01*
X9885000Y22460440D01*
X9649683Y22416162D01*
X9433559Y22277090D01*
X9288569Y22064890D01*
X9237560Y21813000D01*
X710000Y21813000D01*
X710000Y28626812D01*
X1479246Y27857566D01*
X1750139Y27676561D01*
X2069680Y27613000D01*
X2225942Y27613000D01*
X2379980Y27240200D01*
X2980041Y26639091D01*
X3156000Y26566026D01*
X3156000Y26326685D01*
X3155999Y26326680D01*
X3234785Y25930603D01*
X3459144Y25594824D01*
X5125618Y23928351D01*
X5125620Y23928348D01*
X5416599Y23733923D01*
X5461399Y23703989D01*
X5857476Y23625203D01*
X5857481Y23625204D01*
X18309560Y23625204D01*
X18309560Y22530000D01*
X18353838Y22294683D01*
X18492910Y22078559D01*
X18705110Y21933569D01*
X18957000Y21882560D01*
X21657000Y21882560D01*
X21892317Y21926838D01*
X22108441Y22065910D01*
X22253431Y22278110D01*
X22304440Y22530000D01*
X22304440Y25730000D01*
X22260162Y25965317D01*
X22121090Y26181441D01*
X21908890Y26326431D01*
X21722121Y26364253D01*
X22439520Y27081652D01*
X22485910Y27009559D01*
X22698110Y26864569D01*
X22950000Y26813560D01*
X22965000Y26813560D01*
X22965000Y26787000D01*
X23028561Y26467459D01*
X23196581Y26216000D01*
X23209566Y26196566D01*
X25866566Y23539566D01*
X26137459Y23358561D01*
X26209560Y23344219D01*
X26209560Y22530000D01*
X26253838Y22294683D01*
X26392910Y22078559D01*
X26605110Y21933569D01*
X26857000Y21882560D01*
X29557000Y21882560D01*
X29792317Y21926838D01*
X30008441Y22065910D01*
X30153431Y22278110D01*
X30204440Y22530000D01*
X30204440Y23095000D01*
X31390560Y23095000D01*
X31390560Y21738000D01*
X31434838Y21502683D01*
X31573910Y21286559D01*
X31786110Y21141569D01*
X32038000Y21090560D01*
X38438000Y21090560D01*
X38673317Y21134838D01*
X38889441Y21273910D01*
X39034431Y21486110D01*
X39085440Y21738000D01*
X39085440Y27538000D01*
X39041162Y27773317D01*
X38902090Y27989441D01*
X38689890Y28134431D01*
X38438000Y28185440D01*
X32038000Y28185440D01*
X31802683Y28141162D01*
X31667339Y28054070D01*
X31871358Y28545403D01*
X31871839Y29096390D01*
X31661430Y29605620D01*
X31272163Y29995566D01*
X30763301Y30206864D01*
X30212314Y30207345D01*
X29703084Y29996936D01*
X29313138Y29607669D01*
X29160261Y29239500D01*
X28497946Y29239500D01*
X28469662Y29389817D01*
X28330590Y29605941D01*
X28262494Y29652469D01*
X28404827Y29794802D01*
X28501500Y30028191D01*
X28501500Y30618750D01*
X28342750Y30777500D01*
X27368500Y30777500D01*
X27368500Y30757500D01*
X27114500Y30757500D01*
X27114500Y30777500D01*
X26140250Y30777500D01*
X25981500Y30618750D01*
X25981500Y30028191D01*
X26078173Y29794802D01*
X26219410Y29653564D01*
X26165059Y29618590D01*
X26020069Y29406390D01*
X25969060Y29154500D01*
X25969060Y28902000D01*
X25957440Y28902000D01*
X25957440Y29021000D01*
X25913162Y29256317D01*
X25774090Y29472441D01*
X25598768Y29592233D01*
X25761441Y29696910D01*
X25906431Y29909110D01*
X25957440Y30161000D01*
X25957440Y31721000D01*
X25946187Y31780809D01*
X25981500Y31780809D01*
X25981500Y31190250D01*
X26140250Y31031500D01*
X27114500Y31031500D01*
X27114500Y32130750D01*
X27368500Y32130750D01*
X27368500Y31031500D01*
X28342750Y31031500D01*
X28501500Y31190250D01*
X28501500Y31780809D01*
X28404827Y32014198D01*
X28226199Y32192827D01*
X27992810Y32289500D01*
X27527250Y32289500D01*
X27368500Y32130750D01*
X27114500Y32130750D01*
X26955750Y32289500D01*
X26490190Y32289500D01*
X26256801Y32192827D01*
X26078173Y32014198D01*
X25981500Y31780809D01*
X25946187Y31780809D01*
X25945000Y31787113D01*
X25945000Y33807077D01*
X25881439Y34126618D01*
X25700434Y34397511D01*
X25360776Y34737169D01*
X25361193Y35215409D01*
X25150784Y35724639D01*
X24761517Y36114585D01*
X24252655Y36325883D01*
X23701668Y36326364D01*
X23192438Y36115955D01*
X22802492Y35726688D01*
X22596831Y35231402D01*
X22415411Y35670473D01*
X22026144Y36060419D01*
X21517282Y36271717D01*
X20966295Y36272198D01*
X20457065Y36061789D01*
X20067119Y35672522D01*
X19855821Y35163660D01*
X19855340Y34612673D01*
X20065749Y34103443D01*
X20455016Y33713497D01*
X20963878Y33502199D01*
X21444891Y33501779D01*
X22658920Y32287750D01*
X22590301Y32259327D01*
X22411673Y32080698D01*
X22315000Y31847309D01*
X22315000Y31226750D01*
X22473750Y31068000D01*
X22952560Y31068000D01*
X22952560Y30814000D01*
X22473750Y30814000D01*
X22315000Y30655250D01*
X22315000Y30034691D01*
X22411673Y29801302D01*
X22590301Y29622673D01*
X22664565Y29591912D01*
X22498559Y29485090D01*
X22353569Y29272890D01*
X22309320Y29054382D01*
X22098459Y29012439D01*
X21906162Y28883950D01*
X21827566Y28831434D01*
X19716566Y26720434D01*
X19535561Y26449541D01*
X19521219Y26377440D01*
X18957000Y26377440D01*
X18721683Y26333162D01*
X18505559Y26194090D01*
X18360569Y25981890D01*
X18309560Y25730000D01*
X18309560Y25695204D01*
X11178334Y25695204D01*
X11373434Y25825566D01*
X11984270Y26436402D01*
X12020434Y26460566D01*
X12201439Y26731459D01*
X12226177Y26855823D01*
X12425000Y26815560D01*
X12975000Y26815560D01*
X13210317Y26859838D01*
X13325815Y26934159D01*
X13335301Y26924673D01*
X13568690Y26828000D01*
X13684250Y26828000D01*
X13843000Y26986750D01*
X13843000Y28211000D01*
X14097000Y28211000D01*
X14097000Y26986750D01*
X14255750Y26828000D01*
X14371310Y26828000D01*
X14604699Y26924673D01*
X14783327Y27103302D01*
X14880000Y27336691D01*
X14880000Y28052250D01*
X14721250Y28211000D01*
X14097000Y28211000D01*
X13843000Y28211000D01*
X13823000Y28211000D01*
X13823000Y28465000D01*
X13843000Y28465000D01*
X13843000Y29689250D01*
X14097000Y29689250D01*
X14097000Y28465000D01*
X14721250Y28465000D01*
X14880000Y28623750D01*
X14880000Y29339309D01*
X14783327Y29572698D01*
X14604699Y29751327D01*
X14371310Y29848000D01*
X14255750Y29848000D01*
X14097000Y29689250D01*
X13843000Y29689250D01*
X13684250Y29848000D01*
X13568690Y29848000D01*
X13535000Y29834045D01*
X13535000Y30969000D01*
X13491077Y31189817D01*
X13471440Y31288540D01*
X13290434Y31559434D01*
X12971440Y31878428D01*
X12971440Y31890183D01*
X13142110Y31773569D01*
X13394000Y31722560D01*
X14894000Y31722560D01*
X15129317Y31766838D01*
X15345441Y31905910D01*
X15490431Y32118110D01*
X15497191Y32151490D01*
X15555673Y32010301D01*
X15734302Y31831673D01*
X15967691Y31735000D01*
X16558250Y31735000D01*
X16717000Y31893750D01*
X16717000Y32893000D01*
X16971000Y32893000D01*
X16971000Y31893750D01*
X17129750Y31735000D01*
X17720309Y31735000D01*
X17953698Y31831673D01*
X18132327Y32010301D01*
X18229000Y32243690D01*
X18229000Y32734250D01*
X18070250Y32893000D01*
X16971000Y32893000D01*
X16717000Y32893000D01*
X16697000Y32893000D01*
X16697000Y33147000D01*
X16717000Y33147000D01*
X16717000Y34146250D01*
X16971000Y34146250D01*
X16971000Y33147000D01*
X18070250Y33147000D01*
X18229000Y33305750D01*
X18229000Y33796310D01*
X18132327Y34029699D01*
X17953698Y34208327D01*
X17720309Y34305000D01*
X17129750Y34305000D01*
X16971000Y34146250D01*
X16717000Y34146250D01*
X16558250Y34305000D01*
X15967691Y34305000D01*
X15734302Y34208327D01*
X15555673Y34029699D01*
X15499346Y33893713D01*
X15497162Y33905317D01*
X15358090Y34121441D01*
X15145890Y34266431D01*
X14894000Y34317440D01*
X13394000Y34317440D01*
X13158683Y34273162D01*
X12971440Y34152674D01*
X12971440Y35150000D01*
X12927162Y35385317D01*
X12788090Y35601441D01*
X12575890Y35746431D01*
X12324000Y35797440D01*
X12142066Y35797440D01*
X12248431Y35953110D01*
X12299440Y36205000D01*
X12299440Y37455000D01*
X12255162Y37690317D01*
X12116090Y37906441D01*
X11903890Y38051431D01*
X11776649Y38077198D01*
X11987317Y38116838D01*
X12203441Y38255910D01*
X12348431Y38468110D01*
X12399440Y38720000D01*
X12399440Y40020000D01*
X12360444Y40227250D01*
X48546000Y40227250D01*
X48546000Y39761690D01*
X48642673Y39528301D01*
X48821302Y39349673D01*
X49054691Y39253000D01*
X49645250Y39253000D01*
X49804000Y39411750D01*
X49804000Y40386000D01*
X48704750Y40386000D01*
X48546000Y40227250D01*
X12360444Y40227250D01*
X12355162Y40255317D01*
X12216090Y40471441D01*
X12003890Y40616431D01*
X11752000Y40667440D01*
X10252000Y40667440D01*
X10016683Y40623162D01*
X9800559Y40484090D01*
X9655569Y40271890D01*
X9652919Y40258803D01*
X9516090Y40471441D01*
X9303890Y40616431D01*
X9052000Y40667440D01*
X7552000Y40667440D01*
X7316683Y40623162D01*
X7100559Y40484090D01*
X6955569Y40271890D01*
X6942023Y40205000D01*
X4643329Y40205000D01*
X4323789Y40141440D01*
X4052895Y39960434D01*
X710000Y36617539D01*
X710000Y41264310D01*
X48546000Y41264310D01*
X48546000Y40798750D01*
X48704750Y40640000D01*
X49804000Y40640000D01*
X49804000Y41614250D01*
X49645250Y41773000D01*
X49054691Y41773000D01*
X48821302Y41676327D01*
X48642673Y41497699D01*
X48546000Y41264310D01*
X710000Y41264310D01*
X710000Y45181000D01*
X9364560Y45181000D01*
X9364560Y43431000D01*
X9408838Y43195683D01*
X9547910Y42979559D01*
X9760110Y42834569D01*
X10012000Y42783560D01*
X10562000Y42783560D01*
X10797317Y42827838D01*
X10922277Y42908248D01*
X11030110Y42834569D01*
X11282000Y42783560D01*
X11832000Y42783560D01*
X12067317Y42827838D01*
X12192277Y42908248D01*
X12300110Y42834569D01*
X12552000Y42783560D01*
X13102000Y42783560D01*
X13337317Y42827838D01*
X13462277Y42908248D01*
X13570110Y42834569D01*
X13822000Y42783560D01*
X14372000Y42783560D01*
X14607317Y42827838D01*
X14823441Y42966910D01*
X14968431Y43179110D01*
X15019440Y43431000D01*
X15019440Y45181000D01*
X14975162Y45416317D01*
X14836090Y45632441D01*
X14623890Y45777431D01*
X14372000Y45828440D01*
X13822000Y45828440D01*
X13586683Y45784162D01*
X13461723Y45703752D01*
X13353890Y45777431D01*
X13102000Y45828440D01*
X12552000Y45828440D01*
X12316683Y45784162D01*
X12191723Y45703752D01*
X12083890Y45777431D01*
X11832000Y45828440D01*
X11282000Y45828440D01*
X11046683Y45784162D01*
X10921723Y45703752D01*
X10813890Y45777431D01*
X10562000Y45828440D01*
X10012000Y45828440D01*
X9776683Y45784162D01*
X9560559Y45645090D01*
X9415569Y45432890D01*
X9364560Y45181000D01*
X710000Y45181000D01*
X710000Y53518812D01*
X1479246Y52749566D01*
X1750139Y52568561D01*
X2069680Y52505000D01*
X2225942Y52505000D01*
X2379980Y52132200D01*
X2980041Y51531091D01*
X3156000Y51458026D01*
X3156000Y50537454D01*
X3155999Y50537449D01*
X3234785Y50141372D01*
X3459144Y49805593D01*
X5863591Y47401147D01*
X5863593Y47401144D01*
X6032079Y47288566D01*
X6199371Y47176785D01*
X6595449Y47098000D01*
X17928560Y47098000D01*
X17928560Y46279000D01*
X17972838Y46043683D01*
X18111910Y45827559D01*
X18324110Y45682569D01*
X18576000Y45631560D01*
X21276000Y45631560D01*
X21511317Y45675838D01*
X21727441Y45814910D01*
X21872431Y46027110D01*
X21923440Y46279000D01*
X21923440Y49479000D01*
X21879162Y49714317D01*
X21740090Y49930441D01*
X21527890Y50075431D01*
X21341121Y50113253D01*
X22330000Y51102132D01*
X22330000Y50790000D01*
X22393561Y50470459D01*
X22512354Y50292673D01*
X22574566Y50199566D01*
X25485566Y47288566D01*
X25756460Y47107560D01*
X25828560Y47093219D01*
X25828560Y46279000D01*
X25872838Y46043683D01*
X26011910Y45827559D01*
X26224110Y45682569D01*
X26476000Y45631560D01*
X29176000Y45631560D01*
X29411317Y45675838D01*
X29627441Y45814910D01*
X29772431Y46027110D01*
X29823440Y46279000D01*
X29823440Y46844000D01*
X31101560Y46844000D01*
X31101560Y44599000D01*
X31145838Y44363683D01*
X31284910Y44147559D01*
X31497110Y44002569D01*
X31749000Y43951560D01*
X38149000Y43951560D01*
X38384317Y43995838D01*
X38600441Y44134910D01*
X38745431Y44347110D01*
X38796440Y44599000D01*
X38796440Y45819000D01*
X39501560Y45819000D01*
X39501560Y44619000D01*
X39545838Y44383683D01*
X39684910Y44167559D01*
X39897110Y44022569D01*
X40149000Y43971560D01*
X42349000Y43971560D01*
X42584317Y44015838D01*
X42800441Y44154910D01*
X42945431Y44367110D01*
X42996440Y44619000D01*
X42996440Y45285572D01*
X43357868Y45647000D01*
X46736966Y45647000D01*
X46356302Y45392648D01*
X46045233Y44927101D01*
X45936000Y44377950D01*
X45936000Y43506050D01*
X46045233Y42956899D01*
X46356302Y42491352D01*
X46821849Y42180283D01*
X47371000Y42071050D01*
X47920151Y42180283D01*
X48385698Y42491352D01*
X48641000Y42873438D01*
X48896302Y42491352D01*
X49361849Y42180283D01*
X49911000Y42071050D01*
X50460151Y42180283D01*
X50925698Y42491352D01*
X51181000Y42873438D01*
X51436302Y42491352D01*
X51596000Y42384645D01*
X51596000Y41769446D01*
X51445683Y41741162D01*
X51229559Y41602090D01*
X51183031Y41533994D01*
X51040698Y41676327D01*
X50807309Y41773000D01*
X50216750Y41773000D01*
X50058000Y41614250D01*
X50058000Y40640000D01*
X50078000Y40640000D01*
X50078000Y40386000D01*
X50058000Y40386000D01*
X50058000Y39411750D01*
X50216750Y39253000D01*
X50807309Y39253000D01*
X51040698Y39349673D01*
X51181936Y39490910D01*
X51216910Y39436559D01*
X51429110Y39291569D01*
X51681000Y39240560D01*
X53181000Y39240560D01*
X53416317Y39284838D01*
X53632441Y39423910D01*
X53777431Y39636110D01*
X53828440Y39888000D01*
X53828440Y41138000D01*
X53784162Y41373317D01*
X53645090Y41589441D01*
X53432890Y41734431D01*
X53266000Y41768227D01*
X53266000Y42357918D01*
X53465698Y42491352D01*
X53721000Y42873438D01*
X53976302Y42491352D01*
X54441849Y42180283D01*
X54991000Y42071050D01*
X55540151Y42180283D01*
X56005698Y42491352D01*
X56041544Y42545000D01*
X61922407Y42545000D01*
X62035446Y41976715D01*
X62357353Y41494946D01*
X62686526Y41275000D01*
X62357353Y41055054D01*
X62035446Y40573285D01*
X61922407Y40005000D01*
X62035446Y39436715D01*
X62357353Y38954946D01*
X62686526Y38735000D01*
X62357353Y38515054D01*
X62035446Y38033285D01*
X61922407Y37465000D01*
X62035446Y36896715D01*
X62357353Y36414946D01*
X62698053Y36187298D01*
X62555142Y36120183D01*
X62164855Y35691924D01*
X61995024Y35281890D01*
X62116345Y35052000D01*
X63309500Y35052000D01*
X63309500Y35072000D01*
X63563500Y35072000D01*
X63563500Y35052000D01*
X64756655Y35052000D01*
X64877976Y35281890D01*
X64708145Y35691924D01*
X64317858Y36120183D01*
X64174947Y36187298D01*
X64515647Y36414946D01*
X64837554Y36896715D01*
X64950593Y37465000D01*
X64837554Y38033285D01*
X64515647Y38515054D01*
X64186474Y38735000D01*
X64515647Y38954946D01*
X64837554Y39436715D01*
X64950593Y40005000D01*
X64943546Y40040429D01*
X66681500Y40040429D01*
X66681500Y34127572D01*
X70501500Y34127572D01*
X70501500Y40040429D01*
X66681500Y40040429D01*
X64943546Y40040429D01*
X64837554Y40573285D01*
X64515647Y41055054D01*
X64186474Y41275000D01*
X64515647Y41494946D01*
X64837554Y41976715D01*
X64950593Y42545000D01*
X64837554Y43113285D01*
X64515647Y43595054D01*
X64474048Y43622850D01*
X64521817Y43631838D01*
X64737941Y43770910D01*
X64882931Y43983110D01*
X64933940Y44235000D01*
X64933940Y45935000D01*
X64889662Y46170317D01*
X64750590Y46386441D01*
X64538390Y46531431D01*
X64286500Y46582440D01*
X62586500Y46582440D01*
X62351183Y46538162D01*
X62135059Y46399090D01*
X61990069Y46186890D01*
X61939060Y45935000D01*
X61939060Y44235000D01*
X61983338Y43999683D01*
X62122410Y43783559D01*
X62334610Y43638569D01*
X62402041Y43624914D01*
X62357353Y43595054D01*
X62035446Y43113285D01*
X61922407Y42545000D01*
X56041544Y42545000D01*
X56316767Y42956899D01*
X56426000Y43506050D01*
X56426000Y44377950D01*
X56316767Y44927101D01*
X56005698Y45392648D01*
X55540151Y45703717D01*
X54991000Y45812950D01*
X54441849Y45703717D01*
X53976302Y45392648D01*
X53721000Y45010562D01*
X53465698Y45392648D01*
X53000151Y45703717D01*
X52451000Y45812950D01*
X51901849Y45703717D01*
X51436302Y45392648D01*
X51181000Y45010562D01*
X50925698Y45392648D01*
X50460151Y45703717D01*
X49911000Y45812950D01*
X49669046Y45764822D01*
X48361434Y47072434D01*
X48308863Y47107561D01*
X48090541Y47253439D01*
X47771000Y47317000D01*
X43012000Y47317000D01*
X42692460Y47253440D01*
X42421566Y47072434D01*
X41815572Y46466440D01*
X40149000Y46466440D01*
X39913683Y46422162D01*
X39697559Y46283090D01*
X39552569Y46070890D01*
X39501560Y45819000D01*
X38796440Y45819000D01*
X38796440Y50399000D01*
X38752162Y50634317D01*
X38613090Y50850441D01*
X38400890Y50995431D01*
X38149000Y51046440D01*
X31749000Y51046440D01*
X31513683Y51002162D01*
X31297559Y50863090D01*
X31152569Y50650890D01*
X31101560Y50399000D01*
X31101560Y48914000D01*
X29823440Y48914000D01*
X29823440Y49479000D01*
X29779162Y49714317D01*
X29640090Y49930441D01*
X29427890Y50075431D01*
X29176000Y50126440D01*
X26476000Y50126440D01*
X26240683Y50082162D01*
X26024559Y49943090D01*
X25879569Y49730890D01*
X25828560Y49479000D01*
X25828560Y49307308D01*
X24000000Y51135868D01*
X24000000Y51264359D01*
X24023110Y51248569D01*
X24050785Y51242965D01*
X24083750Y51210000D01*
X24151310Y51210000D01*
X24171753Y51218468D01*
X24275000Y51197560D01*
X24675000Y51197560D01*
X24910317Y51241838D01*
X25126441Y51380910D01*
X25271431Y51593110D01*
X25276066Y51616000D01*
X25713074Y51616000D01*
X25717838Y51590683D01*
X25856910Y51374559D01*
X26069110Y51229569D01*
X26321000Y51178560D01*
X27821000Y51178560D01*
X28056317Y51222838D01*
X28272441Y51361910D01*
X28318969Y51430006D01*
X28461302Y51287673D01*
X28694691Y51191000D01*
X29285250Y51191000D01*
X29444000Y51349750D01*
X29444000Y52324000D01*
X29698000Y52324000D01*
X29698000Y51349750D01*
X29856750Y51191000D01*
X30447309Y51191000D01*
X30680698Y51287673D01*
X30859327Y51466301D01*
X30956000Y51699690D01*
X30956000Y52165250D01*
X30797250Y52324000D01*
X29698000Y52324000D01*
X29444000Y52324000D01*
X29424000Y52324000D01*
X29424000Y52578000D01*
X29444000Y52578000D01*
X29444000Y53552250D01*
X29698000Y53552250D01*
X29698000Y52578000D01*
X30797250Y52578000D01*
X30956000Y52736750D01*
X30956000Y53202310D01*
X30859327Y53435699D01*
X30680698Y53614327D01*
X30447309Y53711000D01*
X29856750Y53711000D01*
X29698000Y53552250D01*
X29444000Y53552250D01*
X29285250Y53711000D01*
X28694691Y53711000D01*
X28461302Y53614327D01*
X28320064Y53473090D01*
X28285090Y53527441D01*
X28072890Y53672431D01*
X27906000Y53706227D01*
X27906000Y54491060D01*
X27851057Y54767275D01*
X27866251Y54803866D01*
X27866732Y55354853D01*
X27656323Y55864083D01*
X27316492Y56204507D01*
X27316492Y57421597D01*
X28517682Y57421597D01*
X28796455Y56746914D01*
X29312199Y56230270D01*
X29986395Y55950319D01*
X30716403Y55949682D01*
X31391086Y56228455D01*
X31907730Y56744199D01*
X31993186Y56950000D01*
X38234009Y56950000D01*
X40414000Y54770009D01*
X40414000Y51026440D01*
X40149000Y51026440D01*
X39913683Y50982162D01*
X39697559Y50843090D01*
X39552569Y50630890D01*
X39501560Y50379000D01*
X39501560Y49179000D01*
X39545838Y48943683D01*
X39684910Y48727559D01*
X39897110Y48582569D01*
X40149000Y48531560D01*
X42349000Y48531560D01*
X42584317Y48575838D01*
X42698086Y48649046D01*
X43360066Y47987066D01*
X43630960Y47806060D01*
X43950500Y47742500D01*
X51689000Y47742500D01*
X52008541Y47806061D01*
X52279434Y47987066D01*
X53041434Y48749066D01*
X53222440Y49019960D01*
X53286000Y49339500D01*
X53286000Y49991281D01*
X53465698Y50111352D01*
X53563251Y50257350D01*
X53587838Y50126683D01*
X53726910Y49910559D01*
X53939110Y49765569D01*
X54191000Y49714560D01*
X55791000Y49714560D01*
X56026317Y49758838D01*
X56242441Y49897910D01*
X56387431Y50110110D01*
X56438440Y50362000D01*
X56438440Y52324000D01*
X59763407Y52324000D01*
X59876446Y51755715D01*
X60198353Y51273946D01*
X60527526Y51054000D01*
X60198353Y50834054D01*
X59876446Y50352285D01*
X59763407Y49784000D01*
X59876446Y49215715D01*
X60198353Y48733946D01*
X60680122Y48412039D01*
X61248407Y48299000D01*
X61306593Y48299000D01*
X61874878Y48412039D01*
X62356647Y48733946D01*
X62589779Y49082855D01*
X73123854Y49082855D01*
X73334263Y48573625D01*
X73723530Y48183679D01*
X74232392Y47972381D01*
X74713405Y47971961D01*
X77758854Y44926512D01*
X77657083Y44907362D01*
X77440959Y44768290D01*
X77295969Y44556090D01*
X77244960Y44304200D01*
X77244960Y36429200D01*
X77289238Y36193883D01*
X77428310Y35977759D01*
X77640510Y35832769D01*
X77892400Y35781760D01*
X77948654Y35781760D01*
X77845569Y35630890D01*
X77794560Y35379000D01*
X77794560Y33879000D01*
X77838838Y33643683D01*
X77977910Y33427559D01*
X78046006Y33381031D01*
X77903673Y33238698D01*
X77807000Y33005309D01*
X77807000Y32414750D01*
X77965750Y32256000D01*
X78940000Y32256000D01*
X78940000Y32276000D01*
X79194000Y32276000D01*
X79194000Y32256000D01*
X80168250Y32256000D01*
X80327000Y32414750D01*
X80327000Y33005309D01*
X80230327Y33238698D01*
X80089090Y33379936D01*
X80143441Y33414910D01*
X80288431Y33627110D01*
X80339440Y33879000D01*
X80339440Y35379000D01*
X80295162Y35614317D01*
X80156090Y35830441D01*
X80145648Y35837576D01*
X80343841Y35965110D01*
X80488831Y36177310D01*
X80539840Y36429200D01*
X80539840Y44304200D01*
X80495562Y44539517D01*
X80356490Y44755641D01*
X80144290Y44900631D01*
X79892400Y44951640D01*
X79727400Y44951640D01*
X79727400Y44973834D01*
X79663839Y45293375D01*
X79482834Y45564268D01*
X75893917Y49153185D01*
X75894334Y49631425D01*
X75683925Y50140655D01*
X75294658Y50530601D01*
X74785796Y50741899D01*
X74234809Y50742380D01*
X73725579Y50531971D01*
X73335633Y50142704D01*
X73124335Y49633842D01*
X73123854Y49082855D01*
X62589779Y49082855D01*
X62678554Y49215715D01*
X62791593Y49784000D01*
X62678554Y50352285D01*
X62356647Y50834054D01*
X62027474Y51054000D01*
X62356647Y51273946D01*
X62678554Y51755715D01*
X62791593Y52324000D01*
X62678554Y52892285D01*
X62356647Y53374054D01*
X62312723Y53403403D01*
X62487198Y53475673D01*
X62665827Y53654301D01*
X62762500Y53887690D01*
X62762500Y54578250D01*
X62603750Y54737000D01*
X61404500Y54737000D01*
X61404500Y54717000D01*
X61150500Y54717000D01*
X61150500Y54737000D01*
X59951250Y54737000D01*
X59792500Y54578250D01*
X59792500Y53887690D01*
X59889173Y53654301D01*
X60067802Y53475673D01*
X60242277Y53403403D01*
X60198353Y53374054D01*
X59876446Y52892285D01*
X59763407Y52324000D01*
X56438440Y52324000D01*
X56438440Y52762000D01*
X56394162Y52997317D01*
X56255090Y53213441D01*
X56042890Y53358431D01*
X55791000Y53409440D01*
X54191000Y53409440D01*
X53955683Y53365162D01*
X53739559Y53226090D01*
X53594569Y53013890D01*
X53564403Y52864926D01*
X53465698Y53012648D01*
X53000151Y53323717D01*
X52451000Y53432950D01*
X51901849Y53323717D01*
X51436302Y53012648D01*
X51181000Y52630562D01*
X50925698Y53012648D01*
X50746000Y53132719D01*
X50746000Y54244132D01*
X52003795Y55501927D01*
X52025910Y55467559D01*
X52238110Y55322569D01*
X52490000Y55271560D01*
X54190000Y55271560D01*
X54425317Y55315838D01*
X54641441Y55454910D01*
X54786431Y55667110D01*
X54821504Y55840310D01*
X59792500Y55840310D01*
X59792500Y55149750D01*
X59951250Y54991000D01*
X61150500Y54991000D01*
X61150500Y56190250D01*
X61404500Y56190250D01*
X61404500Y54991000D01*
X62603750Y54991000D01*
X62762500Y55149750D01*
X62762500Y55840310D01*
X62665827Y56073699D01*
X62487198Y56252327D01*
X62253809Y56349000D01*
X61563250Y56349000D01*
X61404500Y56190250D01*
X61150500Y56190250D01*
X60991750Y56349000D01*
X60301191Y56349000D01*
X60067802Y56252327D01*
X59889173Y56073699D01*
X59792500Y55840310D01*
X54821504Y55840310D01*
X54837440Y55919000D01*
X54837440Y57471214D01*
X63506500Y57471214D01*
X63506500Y52129786D01*
X67326500Y52129786D01*
X67326500Y52532744D01*
X72001271Y52532744D01*
X72211680Y52023514D01*
X72600947Y51633568D01*
X73109809Y51422270D01*
X73660796Y51421789D01*
X73730725Y51450683D01*
X73951840Y51406700D01*
X77244960Y51406700D01*
X77244960Y48304200D01*
X77289238Y48068883D01*
X77428310Y47852759D01*
X77640510Y47707769D01*
X77892400Y47656760D01*
X79892400Y47656760D01*
X80127717Y47701038D01*
X80343841Y47840110D01*
X80488831Y48052310D01*
X80539840Y48304200D01*
X80539840Y56179200D01*
X80495562Y56414517D01*
X80356490Y56630641D01*
X80200459Y56737252D01*
X80243441Y56764910D01*
X80388431Y56977110D01*
X80439440Y57229000D01*
X80439440Y58729000D01*
X80395162Y58964317D01*
X80256090Y59180441D01*
X80187994Y59226969D01*
X80330327Y59369302D01*
X80427000Y59602691D01*
X80427000Y60193250D01*
X80268250Y60352000D01*
X79294000Y60352000D01*
X79294000Y60332000D01*
X79040000Y60332000D01*
X79040000Y60352000D01*
X78065750Y60352000D01*
X77907000Y60193250D01*
X77907000Y59602691D01*
X78003673Y59369302D01*
X78144910Y59228064D01*
X78090559Y59193090D01*
X77945569Y58980890D01*
X77894560Y58729000D01*
X77894560Y57229000D01*
X77938838Y56993683D01*
X78046327Y56826640D01*
X77892400Y56826640D01*
X77657083Y56782362D01*
X77440959Y56643290D01*
X77295969Y56431090D01*
X77244960Y56179200D01*
X77244960Y53076700D01*
X74771747Y53076700D01*
X74771751Y53081314D01*
X74561342Y53590544D01*
X74172075Y53980490D01*
X73663213Y54191788D01*
X73112226Y54192269D01*
X72602996Y53981860D01*
X72213050Y53592593D01*
X72001752Y53083731D01*
X72001271Y52532744D01*
X67326500Y52532744D01*
X67326500Y57471214D01*
X63506500Y57471214D01*
X54837440Y57471214D01*
X54837440Y57619000D01*
X54793162Y57854317D01*
X54654090Y58070441D01*
X54441890Y58215431D01*
X54190000Y58266440D01*
X52490000Y58266440D01*
X52254683Y58222162D01*
X52038559Y58083090D01*
X51893569Y57870890D01*
X51842560Y57619000D01*
X51842560Y57554781D01*
X51770459Y57540439D01*
X51562621Y57401566D01*
X51499566Y57359434D01*
X49320566Y55180434D01*
X49139561Y54909541D01*
X49076000Y54590000D01*
X49076000Y53132719D01*
X48896302Y53012648D01*
X48641000Y52630562D01*
X48385698Y53012648D01*
X47920151Y53323717D01*
X47371000Y53432950D01*
X46821849Y53323717D01*
X46356302Y53012648D01*
X46045233Y52547101D01*
X45936000Y51997950D01*
X45936000Y51126050D01*
X46045233Y50576899D01*
X46356302Y50111352D01*
X46821849Y49800283D01*
X47371000Y49691050D01*
X47920151Y49800283D01*
X48385698Y50111352D01*
X48641000Y50493438D01*
X48896302Y50111352D01*
X49361849Y49800283D01*
X49911000Y49691050D01*
X50460151Y49800283D01*
X50925698Y50111352D01*
X51181000Y50493438D01*
X51436302Y50111352D01*
X51616000Y49991281D01*
X51616000Y49685368D01*
X51343132Y49412500D01*
X44296368Y49412500D01*
X43339434Y50369434D01*
X43188239Y50470459D01*
X43068541Y50550439D01*
X42960124Y50572005D01*
X42952162Y50614317D01*
X42813090Y50830441D01*
X42600890Y50975431D01*
X42349000Y51026440D01*
X42084000Y51026440D01*
X42084000Y55115877D01*
X42020439Y55435418D01*
X41839434Y55706311D01*
X40172550Y57373195D01*
X43804805Y57373195D01*
X44037358Y56811742D01*
X44528224Y56290508D01*
X45181193Y55996797D01*
X45466000Y56113142D01*
X45466000Y57658000D01*
X45720000Y57658000D01*
X45720000Y56113142D01*
X46004807Y55996797D01*
X46657776Y56290508D01*
X47148642Y56811742D01*
X47381195Y57373195D01*
X47264432Y57658000D01*
X45720000Y57658000D01*
X45466000Y57658000D01*
X43921568Y57658000D01*
X43804805Y57373195D01*
X40172550Y57373195D01*
X39348940Y58196805D01*
X43804805Y58196805D01*
X43921568Y57912000D01*
X45466000Y57912000D01*
X45466000Y59456858D01*
X45720000Y59456858D01*
X45720000Y57912000D01*
X47264432Y57912000D01*
X47381195Y58196805D01*
X47148642Y58758258D01*
X46657776Y59279492D01*
X46004807Y59573203D01*
X45720000Y59456858D01*
X45466000Y59456858D01*
X45181193Y59573203D01*
X44528224Y59279492D01*
X44037358Y58758258D01*
X43804805Y58196805D01*
X39348940Y58196805D01*
X39170311Y58375434D01*
X39045934Y58458540D01*
X38899418Y58556439D01*
X38579877Y58620000D01*
X31993458Y58620000D01*
X31909545Y58823086D01*
X31393801Y59339730D01*
X30719605Y59619681D01*
X29989597Y59620318D01*
X29314914Y59341545D01*
X28798270Y58825801D01*
X28518319Y58151605D01*
X28517682Y57421597D01*
X27316492Y57421597D01*
X27316492Y60774508D01*
X27252931Y61094049D01*
X27078363Y61355309D01*
X77907000Y61355309D01*
X77907000Y60764750D01*
X78065750Y60606000D01*
X79040000Y60606000D01*
X79040000Y61705250D01*
X79294000Y61705250D01*
X79294000Y60606000D01*
X80268250Y60606000D01*
X80427000Y60764750D01*
X80427000Y61355309D01*
X80330327Y61588698D01*
X80151699Y61767327D01*
X79918310Y61864000D01*
X79452750Y61864000D01*
X79294000Y61705250D01*
X79040000Y61705250D01*
X78881250Y61864000D01*
X78415690Y61864000D01*
X78182301Y61767327D01*
X78003673Y61588698D01*
X77907000Y61355309D01*
X27078363Y61355309D01*
X27071926Y61364942D01*
X25937934Y62498934D01*
X25667041Y62679939D01*
X25594940Y62694281D01*
X25594940Y63163500D01*
X25550662Y63398817D01*
X25411590Y63614941D01*
X25391552Y63628633D01*
X25548941Y63729910D01*
X25693931Y63942110D01*
X25744940Y64194000D01*
X25744940Y65060572D01*
X25852500Y65168132D01*
X25852500Y65091498D01*
X26011248Y65091498D01*
X25852500Y64932750D01*
X25852500Y63837191D01*
X25949173Y63603802D01*
X26127801Y63425173D01*
X26361190Y63328500D01*
X26701750Y63328500D01*
X26860500Y63487250D01*
X26860500Y65091500D01*
X27114500Y65091500D01*
X27114500Y63487250D01*
X27273250Y63328500D01*
X27613810Y63328500D01*
X27847199Y63425173D01*
X28025827Y63603802D01*
X28122500Y63837191D01*
X28122500Y64446000D01*
X31826560Y64446000D01*
X31826560Y62046000D01*
X31870838Y61810683D01*
X32009910Y61594559D01*
X32222110Y61449569D01*
X32474000Y61398560D01*
X34074000Y61398560D01*
X34309317Y61442838D01*
X34525441Y61581910D01*
X34670431Y61794110D01*
X34700597Y61943074D01*
X34799302Y61795352D01*
X35264849Y61484283D01*
X35814000Y61375050D01*
X36363151Y61484283D01*
X36828698Y61795352D01*
X37081507Y62173707D01*
X37429104Y61741500D01*
X37922181Y61471633D01*
X38004961Y61454096D01*
X38227000Y61576085D01*
X38227000Y63119000D01*
X38207000Y63119000D01*
X38207000Y63373000D01*
X38227000Y63373000D01*
X38227000Y64915915D01*
X38481000Y64915915D01*
X38481000Y63373000D01*
X38501000Y63373000D01*
X38501000Y63119000D01*
X38481000Y63119000D01*
X38481000Y61576085D01*
X38703039Y61454096D01*
X38785819Y61471633D01*
X39278896Y61741500D01*
X39626493Y62173707D01*
X39879302Y61795352D01*
X40344849Y61484283D01*
X40894000Y61375050D01*
X41443151Y61484283D01*
X41908698Y61795352D01*
X42219767Y62260899D01*
X42329000Y62810050D01*
X42329000Y63681950D01*
X42219767Y64231101D01*
X41908698Y64696648D01*
X41443151Y65007717D01*
X40894000Y65116950D01*
X40344849Y65007717D01*
X39879302Y64696648D01*
X39626493Y64318293D01*
X39278896Y64750500D01*
X38785819Y65020367D01*
X38703039Y65037904D01*
X38481000Y64915915D01*
X38227000Y64915915D01*
X38004961Y65037904D01*
X37922181Y65020367D01*
X37429104Y64750500D01*
X37081507Y64318293D01*
X36828698Y64696648D01*
X36363151Y65007717D01*
X35814000Y65116950D01*
X35264849Y65007717D01*
X34799302Y64696648D01*
X34701749Y64550650D01*
X34677162Y64681317D01*
X34538090Y64897441D01*
X34325890Y65042431D01*
X34074000Y65093440D01*
X32474000Y65093440D01*
X32238683Y65049162D01*
X32022559Y64910090D01*
X31877569Y64697890D01*
X31826560Y64446000D01*
X28122500Y64446000D01*
X28122500Y64932750D01*
X27963750Y65091500D01*
X27114500Y65091500D01*
X26860500Y65091500D01*
X26840500Y65091500D01*
X26840500Y65345500D01*
X26860500Y65345500D01*
X26860500Y66949750D01*
X27114500Y66949750D01*
X27114500Y65345500D01*
X27963750Y65345500D01*
X28122500Y65504250D01*
X28122500Y65627250D01*
X46190000Y65627250D01*
X46190000Y64986691D01*
X46286673Y64753302D01*
X46465301Y64574673D01*
X46698690Y64478000D01*
X47339250Y64478000D01*
X47498000Y64636750D01*
X47498000Y65786000D01*
X47752000Y65786000D01*
X47752000Y64636750D01*
X47910750Y64478000D01*
X48551310Y64478000D01*
X48784699Y64574673D01*
X48963327Y64753302D01*
X49060000Y64986691D01*
X49060000Y65627250D01*
X48901250Y65786000D01*
X47752000Y65786000D01*
X47498000Y65786000D01*
X46348750Y65786000D01*
X46190000Y65627250D01*
X28122500Y65627250D01*
X28122500Y66599809D01*
X28025827Y66833198D01*
X27847199Y67011827D01*
X27613810Y67108500D01*
X27273250Y67108500D01*
X27114500Y66949750D01*
X26860500Y66949750D01*
X26701750Y67108500D01*
X26547560Y67108500D01*
X26547560Y68060250D01*
X29029500Y68060250D01*
X29029500Y67469691D01*
X29126173Y67236302D01*
X29304801Y67057673D01*
X29538190Y66961000D01*
X30003750Y66961000D01*
X30162500Y67119750D01*
X30162500Y68219000D01*
X30416500Y68219000D01*
X30416500Y67119750D01*
X30575250Y66961000D01*
X31040810Y66961000D01*
X31274199Y67057673D01*
X31452827Y67236302D01*
X31549500Y67469691D01*
X31549500Y68060250D01*
X31480937Y68128813D01*
X46189752Y68128813D01*
X46407757Y67601200D01*
X46671683Y67336813D01*
X46465301Y67251327D01*
X46286673Y67072698D01*
X46190000Y66839309D01*
X46190000Y66198750D01*
X46348750Y66040000D01*
X47498000Y66040000D01*
X47498000Y66060000D01*
X47752000Y66060000D01*
X47752000Y66040000D01*
X48901250Y66040000D01*
X49060000Y66198750D01*
X49060000Y66839309D01*
X48963327Y67072698D01*
X48784699Y67251327D01*
X48578165Y67336876D01*
X48840824Y67599077D01*
X49059750Y68126309D01*
X49060248Y68697187D01*
X48894223Y69099000D01*
X59460060Y69099000D01*
X59460060Y67299000D01*
X59504338Y67063683D01*
X59643410Y66847559D01*
X59855610Y66702569D01*
X60107500Y66651560D01*
X60384715Y66651560D01*
X60384715Y62962800D01*
X64583286Y62962800D01*
X64583286Y66659943D01*
X64900240Y66722989D01*
X65279815Y66976613D01*
X65533439Y67356188D01*
X65622500Y67803928D01*
X65622500Y68594072D01*
X65533439Y69041812D01*
X65495228Y69099000D01*
X67842060Y69099000D01*
X67842060Y67299000D01*
X67886338Y67063683D01*
X68025410Y66847559D01*
X68237610Y66702569D01*
X68489500Y66651560D01*
X68817515Y66651560D01*
X68817515Y63013600D01*
X73016086Y63013600D01*
X73016086Y66670048D01*
X73282240Y66722989D01*
X73661815Y66976613D01*
X73915439Y67356188D01*
X74004500Y67803928D01*
X74004500Y68594072D01*
X73915439Y69041812D01*
X73834798Y69162500D01*
X76224060Y69162500D01*
X76224060Y67362500D01*
X76268338Y67127183D01*
X76407410Y66911059D01*
X76619610Y66766069D01*
X76871500Y66715060D01*
X77199515Y66715060D01*
X77199515Y63115200D01*
X81398086Y63115200D01*
X81398086Y66733548D01*
X81664240Y66786489D01*
X82043815Y67040113D01*
X82297439Y67419688D01*
X82386500Y67867428D01*
X82386500Y68657572D01*
X82297439Y69105312D01*
X82043815Y69484887D01*
X81664240Y69738511D01*
X81216500Y69827572D01*
X80768760Y69738511D01*
X80581500Y69613388D01*
X80394240Y69738511D01*
X79946500Y69827572D01*
X79498760Y69738511D01*
X79311500Y69613388D01*
X79124240Y69738511D01*
X78676500Y69827572D01*
X78228760Y69738511D01*
X78225987Y69736658D01*
X78193390Y69758931D01*
X77941500Y69809940D01*
X76871500Y69809940D01*
X76636183Y69765662D01*
X76420059Y69626590D01*
X76275069Y69414390D01*
X76224060Y69162500D01*
X73834798Y69162500D01*
X73661815Y69421387D01*
X73282240Y69675011D01*
X72834500Y69764072D01*
X72386760Y69675011D01*
X72199500Y69549888D01*
X72012240Y69675011D01*
X71564500Y69764072D01*
X71116760Y69675011D01*
X70929500Y69549888D01*
X70742240Y69675011D01*
X70294500Y69764072D01*
X69846760Y69675011D01*
X69843987Y69673158D01*
X69811390Y69695431D01*
X69559500Y69746440D01*
X68489500Y69746440D01*
X68254183Y69702162D01*
X68038059Y69563090D01*
X67893069Y69350890D01*
X67842060Y69099000D01*
X65495228Y69099000D01*
X65279815Y69421387D01*
X64900240Y69675011D01*
X64452500Y69764072D01*
X64004760Y69675011D01*
X63817500Y69549888D01*
X63630240Y69675011D01*
X63182500Y69764072D01*
X62734760Y69675011D01*
X62547500Y69549888D01*
X62360240Y69675011D01*
X61912500Y69764072D01*
X61464760Y69675011D01*
X61461987Y69673158D01*
X61429390Y69695431D01*
X61177500Y69746440D01*
X60107500Y69746440D01*
X59872183Y69702162D01*
X59656059Y69563090D01*
X59511069Y69350890D01*
X59460060Y69099000D01*
X48894223Y69099000D01*
X48842243Y69224800D01*
X48438923Y69628824D01*
X47911691Y69847750D01*
X47340813Y69848248D01*
X46813200Y69630243D01*
X46409176Y69226923D01*
X46190250Y68699691D01*
X46189752Y68128813D01*
X31480937Y68128813D01*
X31390750Y68219000D01*
X30416500Y68219000D01*
X30162500Y68219000D01*
X29188250Y68219000D01*
X29029500Y68060250D01*
X26547560Y68060250D01*
X26547560Y68880339D01*
X26483999Y69199880D01*
X26302994Y69470773D01*
X25892464Y69881303D01*
X25621571Y70062308D01*
X25302030Y70125869D01*
X20317012Y70125869D01*
X19997472Y70062309D01*
X19726578Y69881303D01*
X18777066Y68931791D01*
X18765472Y68914440D01*
X18717500Y68914440D01*
X18482183Y68870162D01*
X18266059Y68731090D01*
X18121069Y68518890D01*
X18070060Y68267000D01*
X18070060Y66767000D01*
X18114338Y66531683D01*
X18253410Y66315559D01*
X18465610Y66170569D01*
X18478697Y66167919D01*
X18266059Y66031090D01*
X18121069Y65818890D01*
X18070060Y65567000D01*
X18070060Y64067000D01*
X18114338Y63831683D01*
X18253410Y63615559D01*
X18358688Y63543625D01*
X18271069Y63415390D01*
X18220060Y63163500D01*
X18220060Y60653500D01*
X18264338Y60418183D01*
X18403410Y60202059D01*
X18615610Y60057069D01*
X18867500Y60006060D01*
X19331072Y60006060D01*
X20459177Y58877955D01*
X20458760Y58399715D01*
X20669169Y57890485D01*
X21058436Y57500539D01*
X21567298Y57289241D01*
X22048311Y57288821D01*
X22668403Y56668729D01*
X22513559Y56569090D01*
X22415000Y56424844D01*
X22415000Y56581250D01*
X22256250Y56740000D01*
X22188690Y56740000D01*
X21955301Y56643327D01*
X21776673Y56464698D01*
X21680000Y56231309D01*
X21680000Y55610750D01*
X21838750Y55452000D01*
X22317560Y55452000D01*
X22317560Y55198000D01*
X21838750Y55198000D01*
X21680000Y55039250D01*
X21680000Y54418691D01*
X21776673Y54185302D01*
X21955301Y54006673D01*
X22029565Y53975912D01*
X21863559Y53869090D01*
X21718569Y53656890D01*
X21667560Y53405000D01*
X21667560Y52801428D01*
X19335566Y50469434D01*
X19154561Y50198541D01*
X19140219Y50126440D01*
X18576000Y50126440D01*
X18340683Y50082162D01*
X18124559Y49943090D01*
X17979569Y49730890D01*
X17928560Y49479000D01*
X17928560Y49168000D01*
X11399103Y49168000D01*
X11627434Y49320566D01*
X12147434Y49840566D01*
X12194202Y49910559D01*
X12328439Y50111459D01*
X12350882Y50224287D01*
X12552000Y50183560D01*
X13102000Y50183560D01*
X13337317Y50227838D01*
X13452815Y50302159D01*
X13462301Y50292673D01*
X13695690Y50196000D01*
X13811250Y50196000D01*
X13970000Y50354750D01*
X13970000Y51579000D01*
X14224000Y51579000D01*
X14224000Y50354750D01*
X14382750Y50196000D01*
X14498310Y50196000D01*
X14731699Y50292673D01*
X14910327Y50471302D01*
X15007000Y50704691D01*
X15007000Y51420250D01*
X14848250Y51579000D01*
X14224000Y51579000D01*
X13970000Y51579000D01*
X13950000Y51579000D01*
X13950000Y51833000D01*
X13970000Y51833000D01*
X13970000Y53057250D01*
X14224000Y53057250D01*
X14224000Y51833000D01*
X14848250Y51833000D01*
X15007000Y51991750D01*
X15007000Y52707309D01*
X14910327Y52940698D01*
X14731699Y53119327D01*
X14498310Y53216000D01*
X14382750Y53216000D01*
X14224000Y53057250D01*
X13970000Y53057250D01*
X13811250Y53216000D01*
X13695690Y53216000D01*
X13662000Y53202045D01*
X13662000Y55189000D01*
X13604024Y55480465D01*
X13648000Y55471560D01*
X15148000Y55471560D01*
X15383317Y55515838D01*
X15599441Y55654910D01*
X15744431Y55867110D01*
X15751191Y55900490D01*
X15809673Y55759301D01*
X15988302Y55580673D01*
X16221691Y55484000D01*
X16812250Y55484000D01*
X16971000Y55642750D01*
X16971000Y56642000D01*
X17225000Y56642000D01*
X17225000Y55642750D01*
X17383750Y55484000D01*
X17974309Y55484000D01*
X18207698Y55580673D01*
X18386327Y55759301D01*
X18483000Y55992690D01*
X18483000Y56483250D01*
X18324250Y56642000D01*
X17225000Y56642000D01*
X16971000Y56642000D01*
X16951000Y56642000D01*
X16951000Y56896000D01*
X16971000Y56896000D01*
X16971000Y57895250D01*
X17225000Y57895250D01*
X17225000Y56896000D01*
X18324250Y56896000D01*
X18483000Y57054750D01*
X18483000Y57545310D01*
X18386327Y57778699D01*
X18207698Y57957327D01*
X17974309Y58054000D01*
X17383750Y58054000D01*
X17225000Y57895250D01*
X16971000Y57895250D01*
X16812250Y58054000D01*
X16221691Y58054000D01*
X15988302Y57957327D01*
X15809673Y57778699D01*
X15753346Y57642713D01*
X15751162Y57654317D01*
X15612090Y57870441D01*
X15399890Y58015431D01*
X15148000Y58066440D01*
X13648000Y58066440D01*
X13412683Y58022162D01*
X13196559Y57883090D01*
X13051569Y57670890D01*
X13038023Y57604000D01*
X12971440Y57604000D01*
X12971440Y58772000D01*
X12927162Y59007317D01*
X12788090Y59223441D01*
X12575890Y59368431D01*
X12324000Y59419440D01*
X11993928Y59419440D01*
X12103441Y59489910D01*
X12248431Y59702110D01*
X12256914Y59744000D01*
X12496500Y59744000D01*
X12816041Y59807561D01*
X13086934Y59988566D01*
X14132434Y61034066D01*
X14201253Y61137061D01*
X14313439Y61304959D01*
X14329172Y61384054D01*
X14527317Y61421338D01*
X14743441Y61560410D01*
X14888431Y61772610D01*
X14939440Y62024500D01*
X14939440Y63324500D01*
X14895162Y63559817D01*
X14756090Y63775941D01*
X14543890Y63920931D01*
X14292000Y63971940D01*
X12792000Y63971940D01*
X12556683Y63927662D01*
X12340559Y63788590D01*
X12195569Y63576390D01*
X12192919Y63563303D01*
X12056090Y63775941D01*
X11843890Y63920931D01*
X11592000Y63971940D01*
X10092000Y63971940D01*
X9856683Y63927662D01*
X9640559Y63788590D01*
X9495569Y63576390D01*
X9482023Y63509500D01*
X4241750Y63509500D01*
X4237296Y63508614D01*
X3999614Y63508614D01*
X3680073Y63445053D01*
X3410506Y63264934D01*
X3409180Y63264048D01*
X710000Y60564868D01*
X710000Y65627250D01*
X1802000Y65627250D01*
X1802000Y64286691D01*
X1898673Y64053302D01*
X2077301Y63874673D01*
X2310690Y63778000D01*
X3651250Y63778000D01*
X3810000Y63936750D01*
X3810000Y65786000D01*
X4064000Y65786000D01*
X4064000Y63936750D01*
X4222750Y63778000D01*
X5563310Y63778000D01*
X5796699Y63874673D01*
X5975327Y64053302D01*
X6072000Y64286691D01*
X6072000Y65627250D01*
X5913250Y65786000D01*
X4064000Y65786000D01*
X3810000Y65786000D01*
X1960750Y65786000D01*
X1802000Y65627250D01*
X710000Y65627250D01*
X710000Y67539309D01*
X1802000Y67539309D01*
X1802000Y66198750D01*
X1960750Y66040000D01*
X3810000Y66040000D01*
X3810000Y67889250D01*
X4064000Y67889250D01*
X4064000Y66040000D01*
X5913250Y66040000D01*
X6072000Y66198750D01*
X6072000Y67539309D01*
X5975327Y67772698D01*
X5796699Y67951327D01*
X5563310Y68048000D01*
X4222750Y68048000D01*
X4064000Y67889250D01*
X3810000Y67889250D01*
X3651250Y68048000D01*
X2310690Y68048000D01*
X2077301Y67951327D01*
X1898673Y67772698D01*
X1802000Y67539309D01*
X710000Y67539309D01*
X710000Y72950000D01*
X3082498Y72950000D01*
X2729200Y72804020D01*
X2729200Y72804020D01*
G37*
X2729200Y72804020D02*
X2128091Y72203959D01*
X1802372Y71419541D01*
X1801630Y70570185D01*
X2125980Y69785200D01*
X2726041Y69184091D01*
X3510459Y68858372D01*
X4359815Y68857630D01*
X5144800Y69181980D01*
X5745909Y69782041D01*
X6071628Y70566459D01*
X6072370Y71415815D01*
X5997919Y71596000D01*
X29017060Y71596000D01*
X29017060Y70096000D01*
X29061338Y69860683D01*
X29200410Y69644559D01*
X29268506Y69598031D01*
X29126173Y69455698D01*
X29029500Y69222309D01*
X29029500Y68631750D01*
X29188250Y68473000D01*
X30162500Y68473000D01*
X30162500Y68493000D01*
X30416500Y68493000D01*
X30416500Y68473000D01*
X31390750Y68473000D01*
X31549500Y68631750D01*
X31549500Y69222309D01*
X31452827Y69455698D01*
X31311590Y69596936D01*
X31365941Y69631910D01*
X31510931Y69844110D01*
X31548777Y70031000D01*
X31918376Y70031000D01*
X31948233Y69880899D01*
X32259302Y69415352D01*
X32724849Y69104283D01*
X33274000Y68995050D01*
X33823151Y69104283D01*
X34288698Y69415352D01*
X34544000Y69797438D01*
X34799302Y69415352D01*
X35264849Y69104283D01*
X35814000Y68995050D01*
X36363151Y69104283D01*
X36828698Y69415352D01*
X37084000Y69797438D01*
X37339302Y69415352D01*
X37804849Y69104283D01*
X38354000Y68995050D01*
X38903151Y69104283D01*
X39368698Y69415352D01*
X39624000Y69797438D01*
X39879302Y69415352D01*
X40344849Y69104283D01*
X40894000Y68995050D01*
X41443151Y69104283D01*
X41908698Y69415352D01*
X42219767Y69880899D01*
X42329000Y70430050D01*
X42329000Y71301950D01*
X42219767Y71851101D01*
X41908698Y72316648D01*
X41443151Y72627717D01*
X40894000Y72736950D01*
X40344849Y72627717D01*
X39879302Y72316648D01*
X39624000Y71934562D01*
X39368698Y72316648D01*
X38903151Y72627717D01*
X38354000Y72736950D01*
X37804849Y72627717D01*
X37339302Y72316648D01*
X37084000Y71934562D01*
X36828698Y72316648D01*
X36363151Y72627717D01*
X35814000Y72736950D01*
X35264849Y72627717D01*
X34799302Y72316648D01*
X34544000Y71934562D01*
X34288698Y72316648D01*
X33823151Y72627717D01*
X33274000Y72736950D01*
X32724849Y72627717D01*
X32259302Y72316648D01*
X31948233Y71851101D01*
X31918376Y71701000D01*
X31542183Y71701000D01*
X31517662Y71831317D01*
X31378590Y72047441D01*
X31166390Y72192431D01*
X30914500Y72243440D01*
X29664500Y72243440D01*
X29429183Y72199162D01*
X29213059Y72060090D01*
X29068069Y71847890D01*
X29017060Y71596000D01*
X5997919Y71596000D01*
X5748020Y72200800D01*
X5147959Y72801909D01*
X4791316Y72950000D01*
X86349724Y72950000D01*
X86474275Y772982D01*
X57598400Y751951D01*
X57626699Y763673D01*
X57805327Y942302D01*
X57902000Y1175691D01*
X57902000Y1766250D01*
X57743250Y1925000D01*
X56769000Y1925000D01*
X56769000Y1905000D01*
X56515000Y1905000D01*
X56515000Y1925000D01*
X55540750Y1925000D01*
X55382000Y1766250D01*
X55382000Y1175691D01*
X55478673Y942302D01*
X55657301Y763673D01*
X55688958Y750560D01*
X710000Y710517D01*
X710000Y3570132D01*
X3312404Y967728D01*
X3583298Y786722D01*
X3902838Y723162D01*
X8584719Y723162D01*
X8904260Y786723D01*
X9175153Y967728D01*
X10898334Y2690909D01*
X11217815Y2690630D01*
X12002800Y3014980D01*
X12603909Y3615041D01*
X12676974Y3791000D01*
X16658560Y3791000D01*
X16658560Y3480000D01*
X16702838Y3244683D01*
X16841910Y3028559D01*
X17054110Y2883569D01*
X17306000Y2832560D01*
X20006000Y2832560D01*
X20241317Y2876838D01*
X20457441Y3015910D01*
X20602431Y3228110D01*
X20653440Y3480000D01*
X20653440Y6146572D01*
X22785934Y8279066D01*
X22823000Y8271560D01*
X22838000Y8271560D01*
X22838000Y6213000D01*
X22901561Y5893459D01*
X22995118Y5753441D01*
X23082566Y5622566D01*
X24215566Y4489566D01*
X24486459Y4308561D01*
X24558560Y4294219D01*
X24558560Y3480000D01*
X24602838Y3244683D01*
X24741910Y3028559D01*
X24954110Y2883569D01*
X25206000Y2832560D01*
X27906000Y2832560D01*
X28141317Y2876838D01*
X28357441Y3015910D01*
X28502431Y3228110D01*
X28553440Y3480000D01*
X28553440Y4045000D01*
X31263560Y4045000D01*
X31263560Y3450000D01*
X31307838Y3214683D01*
X31446910Y2998559D01*
X31659110Y2853569D01*
X31911000Y2802560D01*
X38311000Y2802560D01*
X38546317Y2846838D01*
X38762441Y2985910D01*
X38907431Y3198110D01*
X38958440Y3450000D01*
X38958440Y9250000D01*
X38914162Y9485317D01*
X38775090Y9701441D01*
X38562890Y9846431D01*
X38311000Y9897440D01*
X31911000Y9897440D01*
X31675683Y9853162D01*
X31459559Y9714090D01*
X31337000Y9534719D01*
X31337000Y9652002D01*
X31178252Y9652002D01*
X31337000Y9810750D01*
X31337000Y10276310D01*
X31240327Y10509699D01*
X31061698Y10688327D01*
X30828309Y10785000D01*
X30237750Y10785000D01*
X30079000Y10626250D01*
X30079000Y9652000D01*
X30099000Y9652000D01*
X30099000Y9398000D01*
X30079000Y9398000D01*
X30079000Y8423750D01*
X30237750Y8265000D01*
X30828309Y8265000D01*
X31061698Y8361673D01*
X31240327Y8540301D01*
X31263560Y8596390D01*
X31263560Y6115000D01*
X28553440Y6115000D01*
X28553440Y6680000D01*
X28509162Y6915317D01*
X28370090Y7131441D01*
X28157890Y7276431D01*
X27906000Y7327440D01*
X25206000Y7327440D01*
X24970683Y7283162D01*
X24754559Y7144090D01*
X24609569Y6931890D01*
X24558560Y6680000D01*
X24558560Y6508308D01*
X24508000Y6558868D01*
X24508000Y8338359D01*
X24531110Y8322569D01*
X24558785Y8316965D01*
X24591750Y8284000D01*
X24659310Y8284000D01*
X24679753Y8292468D01*
X24783000Y8271560D01*
X25183000Y8271560D01*
X25418317Y8315838D01*
X25634441Y8454910D01*
X25779431Y8667110D01*
X25784066Y8690000D01*
X26094074Y8690000D01*
X26098838Y8664683D01*
X26237910Y8448559D01*
X26450110Y8303569D01*
X26702000Y8252560D01*
X28202000Y8252560D01*
X28437317Y8296838D01*
X28653441Y8435910D01*
X28699969Y8504006D01*
X28842302Y8361673D01*
X29075691Y8265000D01*
X29666250Y8265000D01*
X29825000Y8423750D01*
X29825000Y9398000D01*
X29805000Y9398000D01*
X29805000Y9652000D01*
X29825000Y9652000D01*
X29825000Y10626250D01*
X29666250Y10785000D01*
X29380384Y10785000D01*
X29748461Y11152436D01*
X29959759Y11661298D01*
X29960240Y12212285D01*
X29749831Y12721515D01*
X29360564Y13111461D01*
X28851702Y13322759D01*
X28300715Y13323240D01*
X27791485Y13112831D01*
X27401539Y12723564D01*
X27190241Y12214702D01*
X27189821Y11733689D01*
X26861566Y11405434D01*
X26680561Y11134541D01*
X26617000Y10815000D01*
X26617000Y10781446D01*
X26466683Y10753162D01*
X26250559Y10614090D01*
X26105569Y10401890D01*
X26097086Y10360000D01*
X25830440Y10360000D01*
X25830440Y10479000D01*
X25786162Y10714317D01*
X25647090Y10930441D01*
X25471768Y11050233D01*
X25634441Y11154910D01*
X25779431Y11367110D01*
X25830440Y11619000D01*
X25830440Y13179000D01*
X25818000Y13245113D01*
X25818000Y16181963D01*
X25754439Y16501504D01*
X25617154Y16706966D01*
X25573434Y16772398D01*
X25411835Y16933997D01*
X26257082Y16933997D01*
X26535855Y16259314D01*
X27051599Y15742670D01*
X27725795Y15462719D01*
X28455803Y15462082D01*
X29130486Y15740855D01*
X29647130Y16256599D01*
X29732586Y16462400D01*
X37126051Y16462400D01*
X40576000Y13012451D01*
X40576000Y9877440D01*
X40311000Y9877440D01*
X40075683Y9833162D01*
X39859559Y9694090D01*
X39714569Y9481890D01*
X39663560Y9230000D01*
X39663560Y8030000D01*
X39707838Y7794683D01*
X39846910Y7578559D01*
X40059110Y7433569D01*
X40311000Y7382560D01*
X40625219Y7382560D01*
X40639561Y7310459D01*
X40759177Y7131441D01*
X40820566Y7039566D01*
X41075035Y6785096D01*
X41345929Y6604091D01*
X41450349Y6583321D01*
X41319566Y6495934D01*
X40820566Y5996934D01*
X40639561Y5726041D01*
X40576000Y5406500D01*
X40576000Y5317440D01*
X40311000Y5317440D01*
X40075683Y5273162D01*
X39859559Y5134090D01*
X39714569Y4921890D01*
X39663560Y4670000D01*
X39663560Y3470000D01*
X39707838Y3234683D01*
X39846910Y3018559D01*
X40059110Y2873569D01*
X40311000Y2822560D01*
X42511000Y2822560D01*
X42746317Y2866838D01*
X42962441Y3005910D01*
X43107431Y3218110D01*
X43158440Y3470000D01*
X43158440Y4670000D01*
X43114162Y4905317D01*
X43007870Y5070500D01*
X45894632Y5070500D01*
X46730566Y4234566D01*
X46482000Y3862562D01*
X46226698Y4244648D01*
X45761151Y4555717D01*
X45212000Y4664950D01*
X44662849Y4555717D01*
X44197302Y4244648D01*
X43886233Y3779101D01*
X43777000Y3229950D01*
X43777000Y2358050D01*
X43886233Y1808899D01*
X44197302Y1343352D01*
X44662849Y1032283D01*
X45212000Y923050D01*
X45761151Y1032283D01*
X46226698Y1343352D01*
X46482000Y1725438D01*
X46737302Y1343352D01*
X47202849Y1032283D01*
X47752000Y923050D01*
X48301151Y1032283D01*
X48766698Y1343352D01*
X49022000Y1725438D01*
X49277302Y1343352D01*
X49742849Y1032283D01*
X50292000Y923050D01*
X50841151Y1032283D01*
X51306698Y1343352D01*
X51562000Y1725438D01*
X51817302Y1343352D01*
X52282849Y1032283D01*
X52832000Y923050D01*
X53381151Y1032283D01*
X53846698Y1343352D01*
X54157767Y1808899D01*
X54267000Y2358050D01*
X54267000Y3229950D01*
X54157767Y3779101D01*
X53931322Y4118000D01*
X55369560Y4118000D01*
X55369560Y3802000D01*
X55413838Y3566683D01*
X55552910Y3350559D01*
X55621006Y3304031D01*
X55478673Y3161698D01*
X55382000Y2928309D01*
X55382000Y2337750D01*
X55540750Y2179000D01*
X56515000Y2179000D01*
X56515000Y2199000D01*
X56769000Y2199000D01*
X56769000Y2179000D01*
X57743250Y2179000D01*
X57902000Y2337750D01*
X57902000Y2928309D01*
X57805327Y3161698D01*
X57664090Y3302936D01*
X57718441Y3337910D01*
X57863431Y3550110D01*
X57914440Y3802000D01*
X57914440Y4064000D01*
X61815968Y4064000D01*
X61909977Y3591386D01*
X62177691Y3190723D01*
X62578354Y2923009D01*
X63050968Y2829000D01*
X63915032Y2829000D01*
X64387646Y2923009D01*
X64788309Y3190723D01*
X65056023Y3591386D01*
X65086855Y3746391D01*
X73209538Y3746391D01*
X73213408Y3708719D01*
X73439920Y3280526D01*
X73813053Y2971610D01*
X74276000Y2829000D01*
X74676000Y2829000D01*
X74676000Y3937000D01*
X74930000Y3937000D01*
X74930000Y2829000D01*
X75330000Y2829000D01*
X75792947Y2971610D01*
X76166080Y3280526D01*
X76392592Y3708719D01*
X76396462Y3746391D01*
X76271731Y3937000D01*
X74930000Y3937000D01*
X74676000Y3937000D01*
X73334269Y3937000D01*
X73209538Y3746391D01*
X65086855Y3746391D01*
X65150032Y4064000D01*
X65086856Y4381609D01*
X73209538Y4381609D01*
X73334269Y4191000D01*
X74676000Y4191000D01*
X74676000Y5299000D01*
X74930000Y5299000D01*
X74930000Y4191000D01*
X76271731Y4191000D01*
X76396462Y4381609D01*
X76392592Y4419281D01*
X76166080Y4847474D01*
X75792947Y5156390D01*
X75330000Y5299000D01*
X74930000Y5299000D01*
X74676000Y5299000D01*
X74276000Y5299000D01*
X73813053Y5156390D01*
X73439920Y4847474D01*
X73213408Y4419281D01*
X73209538Y4381609D01*
X65086856Y4381609D01*
X65056023Y4536614D01*
X64788309Y4937277D01*
X64387646Y5204991D01*
X63915032Y5299000D01*
X63050968Y5299000D01*
X62578354Y5204991D01*
X62177691Y4937277D01*
X61909977Y4536614D01*
X61815968Y4064000D01*
X57914440Y4064000D01*
X57914440Y5302000D01*
X57870162Y5537317D01*
X57731090Y5753441D01*
X57518890Y5898431D01*
X57267000Y5949440D01*
X56017000Y5949440D01*
X55781683Y5905162D01*
X55599608Y5788000D01*
X55147364Y5788000D01*
X55730184Y6370820D01*
X55911189Y6641713D01*
X55974750Y6961254D01*
X55974750Y16285250D01*
X55911189Y16604791D01*
X55730184Y16875684D01*
X53218434Y19387434D01*
X53467000Y19759438D01*
X53722302Y19377352D01*
X54187849Y19066283D01*
X54737000Y18957050D01*
X55286151Y19066283D01*
X55751698Y19377352D01*
X56062767Y19842899D01*
X56079545Y19927250D01*
X56779000Y19927250D01*
X56779000Y19336691D01*
X56875673Y19103302D01*
X57054301Y18924673D01*
X57287690Y18828000D01*
X57753250Y18828000D01*
X57912000Y18986750D01*
X57912000Y20086000D01*
X58166000Y20086000D01*
X58166000Y18986750D01*
X58324750Y18828000D01*
X58790310Y18828000D01*
X59023699Y18924673D01*
X59202327Y19103302D01*
X59299000Y19336691D01*
X59299000Y19927250D01*
X59140250Y20086000D01*
X58166000Y20086000D01*
X57912000Y20086000D01*
X56937750Y20086000D01*
X56779000Y19927250D01*
X56079545Y19927250D01*
X56172000Y20392050D01*
X56172000Y21263950D01*
X56062767Y21813101D01*
X56019403Y21878000D01*
X56782554Y21878000D01*
X56810838Y21727683D01*
X56949910Y21511559D01*
X57018006Y21465031D01*
X56875673Y21322698D01*
X56779000Y21089309D01*
X56779000Y20498750D01*
X56937750Y20340000D01*
X57912000Y20340000D01*
X57912000Y20360000D01*
X58166000Y20360000D01*
X58166000Y20340000D01*
X59140250Y20340000D01*
X59299000Y20498750D01*
X59299000Y21089309D01*
X59202327Y21322698D01*
X59061090Y21463936D01*
X59115441Y21498910D01*
X59260431Y21711110D01*
X59311440Y21963000D01*
X59311440Y23463000D01*
X59267162Y23698317D01*
X59128090Y23914441D01*
X58915890Y24059431D01*
X58664000Y24110440D01*
X57414000Y24110440D01*
X57178683Y24066162D01*
X56962559Y23927090D01*
X56817569Y23714890D01*
X56783773Y23548000D01*
X53682000Y23548000D01*
X53362459Y23484439D01*
X53159859Y23349066D01*
X53091566Y23303434D01*
X52438954Y22650822D01*
X52197000Y22698950D01*
X51647849Y22589717D01*
X51182302Y22278648D01*
X50927000Y21896562D01*
X50671698Y22278648D01*
X50492000Y22398719D01*
X50492000Y22987000D01*
X50428439Y23306541D01*
X50247434Y23577434D01*
X49294934Y24529934D01*
X49138477Y24634475D01*
X49052385Y24692000D01*
X50876000Y24692000D01*
X51195541Y24755561D01*
X51466434Y24936566D01*
X52787434Y26257566D01*
X52814744Y26298439D01*
X52968439Y26528459D01*
X53032000Y26848000D01*
X53032000Y26877281D01*
X53211698Y26997352D01*
X53309251Y27143350D01*
X53333838Y27012683D01*
X53472910Y26796559D01*
X53685110Y26651569D01*
X53937000Y26600560D01*
X55537000Y26600560D01*
X55772317Y26644838D01*
X55988441Y26783910D01*
X56133431Y26996110D01*
X56184440Y27248000D01*
X56184440Y27292507D01*
X60569608Y27292507D01*
X60569608Y8282392D01*
X60633169Y7962851D01*
X60786956Y7732693D01*
X60814174Y7691958D01*
X61830264Y6675868D01*
X61815968Y6604000D01*
X61909977Y6131386D01*
X62177691Y5730723D01*
X62578354Y5463009D01*
X63050968Y5369000D01*
X63915032Y5369000D01*
X64387646Y5463009D01*
X64788309Y5730723D01*
X65056023Y6131386D01*
X65150032Y6604000D01*
X73135968Y6604000D01*
X73229977Y6131386D01*
X73497691Y5730723D01*
X73898354Y5463009D01*
X74370968Y5369000D01*
X75235032Y5369000D01*
X75707646Y5463009D01*
X76108309Y5730723D01*
X76376023Y6131386D01*
X76470032Y6604000D01*
X76376023Y7076614D01*
X76108309Y7477277D01*
X75707646Y7744991D01*
X75235032Y7839000D01*
X74370968Y7839000D01*
X73898354Y7744991D01*
X73497691Y7477277D01*
X73229977Y7076614D01*
X73135968Y6604000D01*
X65150032Y6604000D01*
X65056023Y7076614D01*
X64788309Y7477277D01*
X64387646Y7744991D01*
X63915032Y7839000D01*
X63050968Y7839000D01*
X63032535Y7835333D01*
X62935999Y7931869D01*
X63050968Y7909000D01*
X63915032Y7909000D01*
X64387646Y8003009D01*
X64788309Y8270723D01*
X65056023Y8671386D01*
X65150032Y9144000D01*
X73135968Y9144000D01*
X73229977Y8671386D01*
X73497691Y8270723D01*
X73898354Y8003009D01*
X74370968Y7909000D01*
X75235032Y7909000D01*
X75707646Y8003009D01*
X76108309Y8270723D01*
X76376023Y8671386D01*
X76470032Y9144000D01*
X76376023Y9616614D01*
X76108309Y10017277D01*
X75707646Y10284991D01*
X75235032Y10379000D01*
X74370968Y10379000D01*
X73898354Y10284991D01*
X73497691Y10017277D01*
X73229977Y9616614D01*
X73135968Y9144000D01*
X65150032Y9144000D01*
X65135736Y9215868D01*
X67603868Y11684000D01*
X73135968Y11684000D01*
X73229977Y11211386D01*
X73497691Y10810723D01*
X73898354Y10543009D01*
X74370968Y10449000D01*
X75235032Y10449000D01*
X75707646Y10543009D01*
X76108309Y10810723D01*
X76376023Y11211386D01*
X76470032Y11684000D01*
X76376023Y12156614D01*
X76108309Y12557277D01*
X75707646Y12824991D01*
X75235032Y12919000D01*
X74370968Y12919000D01*
X73898354Y12824991D01*
X73497691Y12557277D01*
X73229977Y12156614D01*
X73135968Y11684000D01*
X67603868Y11684000D01*
X68050605Y12130737D01*
X68231611Y12401631D01*
X68295171Y12721171D01*
X68295171Y14224000D01*
X73135968Y14224000D01*
X73229977Y13751386D01*
X73497691Y13350723D01*
X73898354Y13083009D01*
X74370968Y12989000D01*
X75235032Y12989000D01*
X75707646Y13083009D01*
X76108309Y13350723D01*
X76376023Y13751386D01*
X76470032Y14224000D01*
X76376023Y14696614D01*
X76108309Y15097277D01*
X75707646Y15364991D01*
X75235032Y15459000D01*
X74370968Y15459000D01*
X73898354Y15364991D01*
X73497691Y15097277D01*
X73229977Y14696614D01*
X73135968Y14224000D01*
X68295171Y14224000D01*
X68295171Y16446391D01*
X73209538Y16446391D01*
X73213408Y16408719D01*
X73439920Y15980526D01*
X73813053Y15671610D01*
X74276000Y15529000D01*
X74676000Y15529000D01*
X74676000Y16637000D01*
X74930000Y16637000D01*
X74930000Y15529000D01*
X75330000Y15529000D01*
X75792947Y15671610D01*
X76166080Y15980526D01*
X76392592Y16408719D01*
X76396462Y16446391D01*
X76271731Y16637000D01*
X74930000Y16637000D01*
X74676000Y16637000D01*
X73334269Y16637000D01*
X73209538Y16446391D01*
X68295171Y16446391D01*
X68295171Y17081609D01*
X73209538Y17081609D01*
X73334269Y16891000D01*
X74676000Y16891000D01*
X74676000Y17999000D01*
X74930000Y17999000D01*
X74930000Y16891000D01*
X76271731Y16891000D01*
X76396462Y17081609D01*
X76392592Y17119281D01*
X76166080Y17547474D01*
X75792947Y17856390D01*
X75330000Y17999000D01*
X74930000Y17999000D01*
X74676000Y17999000D01*
X74276000Y17999000D01*
X73813053Y17856390D01*
X73439920Y17547474D01*
X73213408Y17119281D01*
X73209538Y17081609D01*
X68295171Y17081609D01*
X68295171Y18986391D01*
X73209538Y18986391D01*
X73213408Y18948719D01*
X73439920Y18520526D01*
X73813053Y18211610D01*
X74276000Y18069000D01*
X74676000Y18069000D01*
X74676000Y19177000D01*
X74930000Y19177000D01*
X74930000Y18069000D01*
X75330000Y18069000D01*
X75792947Y18211610D01*
X76166080Y18520526D01*
X76392592Y18948719D01*
X76396462Y18986391D01*
X76271731Y19177000D01*
X74930000Y19177000D01*
X74676000Y19177000D01*
X73334269Y19177000D01*
X73209538Y18986391D01*
X68295171Y18986391D01*
X68295171Y19621609D01*
X73209538Y19621609D01*
X73334269Y19431000D01*
X74676000Y19431000D01*
X74676000Y20539000D01*
X74930000Y20539000D01*
X74930000Y19431000D01*
X76271731Y19431000D01*
X76396462Y19621609D01*
X76392592Y19659281D01*
X76166080Y20087474D01*
X75792947Y20396390D01*
X75330000Y20539000D01*
X74930000Y20539000D01*
X74676000Y20539000D01*
X74276000Y20539000D01*
X73813053Y20396390D01*
X73439920Y20087474D01*
X73213408Y19659281D01*
X73209538Y19621609D01*
X68295171Y19621609D01*
X68295171Y26179545D01*
X68633632Y26517417D01*
X68844930Y27026279D01*
X68845411Y27577266D01*
X68635002Y28086496D01*
X68245735Y28476442D01*
X67736873Y28687740D01*
X67185886Y28688221D01*
X66676656Y28477812D01*
X66286710Y28088545D01*
X66075412Y27579683D01*
X66074931Y27028696D01*
X66285340Y26519466D01*
X66625171Y26179042D01*
X66625171Y13067039D01*
X65016363Y11458231D01*
X64951731Y11557000D01*
X63610000Y11557000D01*
X63610000Y10449000D01*
X64007132Y10449000D01*
X63933465Y10375333D01*
X63915032Y10379000D01*
X63050968Y10379000D01*
X62578354Y10284991D01*
X62239608Y10058649D01*
X62239608Y10801437D01*
X62493053Y10591610D01*
X62956000Y10449000D01*
X63356000Y10449000D01*
X63356000Y11557000D01*
X63336000Y11557000D01*
X63336000Y11811000D01*
X63356000Y11811000D01*
X63356000Y12919000D01*
X63610000Y12919000D01*
X63610000Y11811000D01*
X64951731Y11811000D01*
X65076462Y12001609D01*
X65072592Y12039281D01*
X64846080Y12467474D01*
X64472947Y12776390D01*
X64010000Y12919000D01*
X63610000Y12919000D01*
X63356000Y12919000D01*
X62956000Y12919000D01*
X62493053Y12776390D01*
X62239608Y12566563D01*
X62239608Y13309351D01*
X62578354Y13083009D01*
X63050968Y12989000D01*
X63915032Y12989000D01*
X64387646Y13083009D01*
X64788309Y13350723D01*
X65056023Y13751386D01*
X65150032Y14224000D01*
X65056023Y14696614D01*
X64788309Y15097277D01*
X64387646Y15364991D01*
X63915032Y15459000D01*
X63050968Y15459000D01*
X62578354Y15364991D01*
X62239608Y15138649D01*
X62239608Y15881437D01*
X62493053Y15671610D01*
X62956000Y15529000D01*
X63356000Y15529000D01*
X63356000Y16637000D01*
X63610000Y16637000D01*
X63610000Y15529000D01*
X64010000Y15529000D01*
X64472947Y15671610D01*
X64846080Y15980526D01*
X65072592Y16408719D01*
X65076462Y16446391D01*
X64951731Y16637000D01*
X63610000Y16637000D01*
X63356000Y16637000D01*
X63336000Y16637000D01*
X63336000Y16891000D01*
X63356000Y16891000D01*
X63356000Y17999000D01*
X63610000Y17999000D01*
X63610000Y16891000D01*
X64951731Y16891000D01*
X65076462Y17081609D01*
X65072592Y17119281D01*
X64846080Y17547474D01*
X64472947Y17856390D01*
X64010000Y17999000D01*
X63610000Y17999000D01*
X63356000Y17999000D01*
X62956000Y17999000D01*
X62493053Y17856390D01*
X62239608Y17646563D01*
X62239608Y18421437D01*
X62493053Y18211610D01*
X62956000Y18069000D01*
X63356000Y18069000D01*
X63356000Y19177000D01*
X63610000Y19177000D01*
X63610000Y18069000D01*
X64010000Y18069000D01*
X64472947Y18211610D01*
X64846080Y18520526D01*
X65072592Y18948719D01*
X65076462Y18986391D01*
X64951731Y19177000D01*
X63610000Y19177000D01*
X63356000Y19177000D01*
X63336000Y19177000D01*
X63336000Y19431000D01*
X63356000Y19431000D01*
X63356000Y20539000D01*
X63610000Y20539000D01*
X63610000Y19431000D01*
X64951731Y19431000D01*
X65076462Y19621609D01*
X65072592Y19659281D01*
X64846080Y20087474D01*
X64472947Y20396390D01*
X64010000Y20539000D01*
X63610000Y20539000D01*
X63356000Y20539000D01*
X62956000Y20539000D01*
X62493053Y20396390D01*
X62239608Y20186563D01*
X62239608Y26946639D01*
X63864765Y28571796D01*
X64492230Y28571796D01*
X64830102Y28233335D01*
X65338964Y28022037D01*
X65889951Y28021556D01*
X66399181Y28231965D01*
X66789127Y28621232D01*
X67000425Y29130094D01*
X67000906Y29681081D01*
X66790497Y30190311D01*
X66401230Y30580257D01*
X65892368Y30791555D01*
X65341381Y30792036D01*
X64832151Y30581627D01*
X64491727Y30241796D01*
X63518897Y30241796D01*
X63199356Y30178235D01*
X62928463Y29997230D01*
X60814174Y27882941D01*
X60633169Y27612048D01*
X60569608Y27292507D01*
X56184440Y27292507D01*
X56184440Y29648000D01*
X56140162Y29883317D01*
X56001090Y30099441D01*
X55788890Y30244431D01*
X55537000Y30295440D01*
X53937000Y30295440D01*
X53701683Y30251162D01*
X53485559Y30112090D01*
X53340569Y29899890D01*
X53310403Y29750926D01*
X53211698Y29898648D01*
X52746151Y30209717D01*
X52197000Y30318950D01*
X51647849Y30209717D01*
X51182302Y29898648D01*
X50927000Y29516562D01*
X50671698Y29898648D01*
X50492000Y30018719D01*
X50492000Y31014560D01*
X50761000Y31014560D01*
X50996317Y31058838D01*
X51212441Y31197910D01*
X51357431Y31410110D01*
X51408440Y31662000D01*
X51408440Y32028110D01*
X61995024Y32028110D01*
X62164855Y31618076D01*
X62555142Y31189817D01*
X63079608Y30943514D01*
X63309500Y31064181D01*
X63309500Y32258000D01*
X63563500Y32258000D01*
X63563500Y31064181D01*
X63793392Y30943514D01*
X64317858Y31189817D01*
X64708145Y31618076D01*
X64801409Y31843250D01*
X77807000Y31843250D01*
X77807000Y31252691D01*
X77903673Y31019302D01*
X78082301Y30840673D01*
X78315690Y30744000D01*
X78781250Y30744000D01*
X78940000Y30902750D01*
X78940000Y32002000D01*
X79194000Y32002000D01*
X79194000Y30902750D01*
X79352750Y30744000D01*
X79818310Y30744000D01*
X80051699Y30840673D01*
X80230327Y31019302D01*
X80327000Y31252691D01*
X80327000Y31843250D01*
X80168250Y32002000D01*
X79194000Y32002000D01*
X78940000Y32002000D01*
X77965750Y32002000D01*
X77807000Y31843250D01*
X64801409Y31843250D01*
X64877976Y32028110D01*
X64756655Y32258000D01*
X63563500Y32258000D01*
X63309500Y32258000D01*
X62116345Y32258000D01*
X61995024Y32028110D01*
X51408440Y32028110D01*
X51408440Y33362000D01*
X51364162Y33597317D01*
X51225090Y33813441D01*
X51012890Y33958431D01*
X50761000Y34009440D01*
X49061000Y34009440D01*
X48825683Y33965162D01*
X48609559Y33826090D01*
X48464569Y33613890D01*
X48413560Y33362000D01*
X48413560Y31662000D01*
X48457838Y31426683D01*
X48596910Y31210559D01*
X48809110Y31065569D01*
X48822000Y31062959D01*
X48822000Y30018719D01*
X48642302Y29898648D01*
X48387000Y29516562D01*
X48131698Y29898648D01*
X47666151Y30209717D01*
X47117000Y30318950D01*
X46567849Y30209717D01*
X46102302Y29898648D01*
X45791233Y29433101D01*
X45682000Y28883950D01*
X45682000Y28012050D01*
X45791233Y27462899D01*
X46102302Y26997352D01*
X46567849Y26686283D01*
X47117000Y26577050D01*
X47666151Y26686283D01*
X48131698Y26997352D01*
X48387000Y27379438D01*
X48642302Y26997352D01*
X49107849Y26686283D01*
X49657000Y26577050D01*
X50206151Y26686283D01*
X50671698Y26997352D01*
X50927000Y27379438D01*
X51175566Y27007434D01*
X50530132Y26362000D01*
X44774868Y26362000D01*
X43628434Y27508434D01*
X43537042Y27569500D01*
X43357541Y27689439D01*
X43249124Y27711005D01*
X43241162Y27753317D01*
X43102090Y27969441D01*
X42889890Y28114431D01*
X42638000Y28165440D01*
X42373000Y28165440D01*
X42373000Y31615799D01*
X42351764Y31722560D01*
X42309440Y31935339D01*
X42128434Y32206233D01*
X40075472Y34259195D01*
X43296805Y34259195D01*
X43529358Y33697742D01*
X44020224Y33176508D01*
X44673193Y32882797D01*
X44958000Y32999142D01*
X44958000Y34544000D01*
X45212000Y34544000D01*
X45212000Y32999142D01*
X45496807Y32882797D01*
X46149776Y33176508D01*
X46640642Y33697742D01*
X46873195Y34259195D01*
X46756432Y34544000D01*
X45212000Y34544000D01*
X44958000Y34544000D01*
X43413568Y34544000D01*
X43296805Y34259195D01*
X40075472Y34259195D01*
X39766557Y34568110D01*
X61995024Y34568110D01*
X62164855Y34158076D01*
X62555142Y33729817D01*
X62714454Y33655000D01*
X62555142Y33580183D01*
X62164855Y33151924D01*
X61995024Y32741890D01*
X62116345Y32512000D01*
X63309500Y32512000D01*
X63309500Y34798000D01*
X63563500Y34798000D01*
X63563500Y32512000D01*
X64756655Y32512000D01*
X64877976Y32741890D01*
X64708145Y33151924D01*
X64317858Y33580183D01*
X64158546Y33655000D01*
X64317858Y33729817D01*
X64708145Y34158076D01*
X64877976Y34568110D01*
X64756655Y34798000D01*
X63563500Y34798000D01*
X63309500Y34798000D01*
X62116345Y34798000D01*
X61995024Y34568110D01*
X39766557Y34568110D01*
X39251862Y35082805D01*
X43296805Y35082805D01*
X43413568Y34798000D01*
X44958000Y34798000D01*
X44958000Y36342858D01*
X45212000Y36342858D01*
X45212000Y34798000D01*
X46756432Y34798000D01*
X46873195Y35082805D01*
X46640642Y35644258D01*
X46149776Y36165492D01*
X45496807Y36459203D01*
X45212000Y36342858D01*
X44958000Y36342858D01*
X44673193Y36459203D01*
X44020224Y36165492D01*
X43529358Y35644258D01*
X43296805Y35082805D01*
X39251862Y35082805D01*
X39073233Y35261434D01*
X39042618Y35281890D01*
X38802340Y35442439D01*
X38482799Y35506000D01*
X31485458Y35506000D01*
X31401545Y35709086D01*
X30885801Y36225730D01*
X30211605Y36505681D01*
X29481597Y36506318D01*
X28806914Y36227545D01*
X28290270Y35711801D01*
X28010319Y35037605D01*
X28009682Y34307597D01*
X28288455Y33632914D01*
X28804199Y33116270D01*
X29478395Y32836319D01*
X30208403Y32835682D01*
X30883086Y33114455D01*
X31399730Y33630199D01*
X31485186Y33836000D01*
X38136931Y33836000D01*
X40703000Y31269931D01*
X40703000Y28165440D01*
X40438000Y28165440D01*
X40202683Y28121162D01*
X39986559Y27982090D01*
X39841569Y27769890D01*
X39790560Y27518000D01*
X39790560Y26318000D01*
X39834838Y26082683D01*
X39973910Y25866559D01*
X40186110Y25721569D01*
X40438000Y25670560D01*
X42638000Y25670560D01*
X42873317Y25714838D01*
X42987086Y25788046D01*
X43838566Y24936566D01*
X44109459Y24755561D01*
X44316871Y24714304D01*
X44299960Y24710940D01*
X44029066Y24529934D01*
X42987125Y23487993D01*
X42889890Y23554431D01*
X42638000Y23605440D01*
X40438000Y23605440D01*
X40202683Y23561162D01*
X39986559Y23422090D01*
X39841569Y23209890D01*
X39790560Y22958000D01*
X39790560Y21758000D01*
X39834838Y21522683D01*
X39973910Y21306559D01*
X40186110Y21161569D01*
X40438000Y21110560D01*
X42638000Y21110560D01*
X42873317Y21154838D01*
X43089441Y21293910D01*
X43234431Y21506110D01*
X43237851Y21523000D01*
X43337258Y21523000D01*
X43656799Y21586561D01*
X43927692Y21767566D01*
X44108697Y22038459D01*
X44160685Y22299817D01*
X44965368Y23104500D01*
X48358632Y23104500D01*
X48822000Y22641132D01*
X48822000Y22398719D01*
X48642302Y22278648D01*
X48387000Y21896562D01*
X48131698Y22278648D01*
X47666151Y22589717D01*
X47117000Y22698950D01*
X46567849Y22589717D01*
X46102302Y22278648D01*
X45791233Y21813101D01*
X45682000Y21263950D01*
X45682000Y20392050D01*
X45791233Y19842899D01*
X46102302Y19377352D01*
X46567849Y19066283D01*
X47117000Y18957050D01*
X47666151Y19066283D01*
X48131698Y19377352D01*
X48387000Y19759438D01*
X48642302Y19377352D01*
X49107849Y19066283D01*
X49657000Y18957050D01*
X50206151Y19066283D01*
X50671698Y19377352D01*
X50927000Y19759438D01*
X51182302Y19377352D01*
X51362000Y19257281D01*
X51362000Y19228000D01*
X51425561Y18908459D01*
X51463199Y18852130D01*
X51606566Y18637566D01*
X54304750Y15939382D01*
X54304750Y7307122D01*
X52785628Y5788000D01*
X50851000Y5788000D01*
X50531459Y5724439D01*
X50341390Y5597439D01*
X50260566Y5543434D01*
X49701566Y4984434D01*
X49520561Y4713541D01*
X49457000Y4394000D01*
X49457000Y4364719D01*
X49277302Y4244648D01*
X49022000Y3862562D01*
X48766698Y4244648D01*
X48587000Y4364719D01*
X48587000Y4394000D01*
X48523439Y4713541D01*
X48342434Y4984434D01*
X46830934Y6495934D01*
X46764190Y6540531D01*
X48853531Y6540531D01*
X49173072Y6604092D01*
X49443965Y6785097D01*
X50882434Y8223566D01*
X50913943Y8270723D01*
X51063439Y8494459D01*
X51127000Y8814000D01*
X51127000Y8843281D01*
X51306698Y8963352D01*
X51404251Y9109350D01*
X51428838Y8978683D01*
X51567910Y8762559D01*
X51780110Y8617569D01*
X52032000Y8566560D01*
X53632000Y8566560D01*
X53867317Y8610838D01*
X54083441Y8749910D01*
X54228431Y8962110D01*
X54279440Y9214000D01*
X54279440Y11614000D01*
X54235162Y11849317D01*
X54096090Y12065441D01*
X53883890Y12210431D01*
X53632000Y12261440D01*
X52032000Y12261440D01*
X51796683Y12217162D01*
X51580559Y12078090D01*
X51435569Y11865890D01*
X51405403Y11716926D01*
X51306698Y11864648D01*
X50841151Y12175717D01*
X50292000Y12284950D01*
X49742849Y12175717D01*
X49277302Y11864648D01*
X49022000Y11482562D01*
X48766698Y11864648D01*
X48764542Y11866089D01*
X48904439Y12075459D01*
X48968000Y12395000D01*
X48968000Y12853560D01*
X48983000Y12853560D01*
X49218317Y12897838D01*
X49434441Y13036910D01*
X49579431Y13249110D01*
X49630440Y13501000D01*
X49630440Y15201000D01*
X49586162Y15436317D01*
X49447090Y15652441D01*
X49234890Y15797431D01*
X48983000Y15848440D01*
X47283000Y15848440D01*
X47047683Y15804162D01*
X46831559Y15665090D01*
X46686569Y15452890D01*
X46635560Y15201000D01*
X46635560Y13501000D01*
X46679838Y13265683D01*
X46818910Y13049559D01*
X47031110Y12904569D01*
X47283000Y12853560D01*
X47298000Y12853560D01*
X47298000Y12740868D01*
X47161566Y12604434D01*
X46980561Y12333541D01*
X46917000Y12014000D01*
X46917000Y11984719D01*
X46737302Y11864648D01*
X46482000Y11482562D01*
X46226698Y11864648D01*
X45761151Y12175717D01*
X45212000Y12284950D01*
X44662849Y12175717D01*
X44197302Y11864648D01*
X43886233Y11399101D01*
X43777000Y10849950D01*
X43777000Y9978050D01*
X43886233Y9428899D01*
X44197302Y8963352D01*
X44662849Y8652283D01*
X45212000Y8543050D01*
X45761151Y8652283D01*
X46226698Y8963352D01*
X46482000Y9345438D01*
X46737302Y8963352D01*
X47202849Y8652283D01*
X47752000Y8543050D01*
X48301151Y8652283D01*
X48766698Y8963352D01*
X49022000Y9345438D01*
X49270566Y8973434D01*
X48507663Y8210531D01*
X43158440Y8210531D01*
X43158440Y9230000D01*
X43114162Y9465317D01*
X42975090Y9681441D01*
X42762890Y9826431D01*
X42511000Y9877440D01*
X42246000Y9877440D01*
X42246000Y13358319D01*
X42221619Y13480890D01*
X42182440Y13677859D01*
X42001434Y13948753D01*
X39064592Y16885595D01*
X41544205Y16885595D01*
X41776758Y16324142D01*
X42267624Y15802908D01*
X42920593Y15509197D01*
X43205400Y15625542D01*
X43205400Y17170400D01*
X43459400Y17170400D01*
X43459400Y15625542D01*
X43744207Y15509197D01*
X44397176Y15802908D01*
X44888042Y16324142D01*
X45120595Y16885595D01*
X45003832Y17170400D01*
X43459400Y17170400D01*
X43205400Y17170400D01*
X41660968Y17170400D01*
X41544205Y16885595D01*
X39064592Y16885595D01*
X38240982Y17709205D01*
X41544205Y17709205D01*
X41660968Y17424400D01*
X43205400Y17424400D01*
X43205400Y18969258D01*
X43459400Y18969258D01*
X43459400Y17424400D01*
X45003832Y17424400D01*
X45120595Y17709205D01*
X44888042Y18270658D01*
X44397176Y18791892D01*
X43744207Y19085603D01*
X43459400Y18969258D01*
X43205400Y18969258D01*
X42920593Y19085603D01*
X42267624Y18791892D01*
X41776758Y18270658D01*
X41544205Y17709205D01*
X38240982Y17709205D01*
X38062353Y17887834D01*
X38027636Y17911031D01*
X37791460Y18068839D01*
X37471919Y18132400D01*
X29732858Y18132400D01*
X29648945Y18335486D01*
X29133201Y18852130D01*
X28459005Y19132081D01*
X27728997Y19132718D01*
X27054314Y18853945D01*
X26537670Y18338201D01*
X26257719Y17664005D01*
X26257082Y16933997D01*
X25411835Y16933997D01*
X25295197Y17050635D01*
X25295614Y17528874D01*
X25085205Y18038104D01*
X24695938Y18428050D01*
X24187076Y18639348D01*
X23636089Y18639829D01*
X23126859Y18429420D01*
X22736913Y18040153D01*
X22588265Y17682168D01*
X22501844Y17891322D01*
X22112577Y18281268D01*
X21603715Y18492566D01*
X21052728Y18493047D01*
X20543498Y18282638D01*
X20153552Y17893371D01*
X19942254Y17384509D01*
X19941773Y16833522D01*
X20152182Y16324292D01*
X20541449Y15934346D01*
X21050311Y15723048D01*
X21531324Y15722628D01*
X23498000Y13755952D01*
X23498000Y13752411D01*
X23460170Y13768080D01*
X23414250Y13814000D01*
X23281750Y13814000D01*
X23235830Y13768080D01*
X23113301Y13717327D01*
X22934673Y13538698D01*
X22923000Y13510517D01*
X22923000Y13655250D01*
X22764250Y13814000D01*
X22696690Y13814000D01*
X22463301Y13717327D01*
X22284673Y13538698D01*
X22188000Y13305309D01*
X22188000Y12684750D01*
X22346750Y12526000D01*
X22923000Y12526000D01*
X22923000Y12599750D01*
X22996750Y12526000D01*
X23170000Y12526000D01*
X23170000Y12272000D01*
X22996750Y12272000D01*
X22976750Y12252000D01*
X22923000Y12252000D01*
X22923000Y12272000D01*
X22346750Y12272000D01*
X22188000Y12113250D01*
X22188000Y11492691D01*
X22284673Y11259302D01*
X22463301Y11080673D01*
X22537565Y11049912D01*
X22371559Y10943090D01*
X22226569Y10730890D01*
X22175560Y10479000D01*
X22175560Y10030428D01*
X19472572Y7327440D01*
X17306000Y7327440D01*
X17070683Y7283162D01*
X16854559Y7144090D01*
X16709569Y6931890D01*
X16658560Y6680000D01*
X16658560Y5861000D01*
X12677420Y5861000D01*
X12606020Y6033800D01*
X12005959Y6634909D01*
X11221541Y6960628D01*
X10372185Y6961370D01*
X9587200Y6637020D01*
X8986091Y6036959D01*
X8660372Y5252541D01*
X8659630Y4403185D01*
X8983980Y3618200D01*
X9223725Y3378036D01*
X8238851Y2393162D01*
X4248706Y2393162D01*
X3802686Y2839182D01*
X3963110Y2729569D01*
X4215000Y2678560D01*
X7215000Y2678560D01*
X7450317Y2722838D01*
X7666441Y2861910D01*
X7811431Y3074110D01*
X7862440Y3326000D01*
X7862440Y6326000D01*
X7818162Y6561317D01*
X7679090Y6777441D01*
X7466890Y6922431D01*
X7215000Y6973440D01*
X6550000Y6973440D01*
X6550000Y7703076D01*
X6688459Y7610561D01*
X7008000Y7547000D01*
X13208000Y7547000D01*
X13527541Y7610561D01*
X13798434Y7791566D01*
X15068434Y9061566D01*
X15105736Y9117392D01*
X15249439Y9332459D01*
X15313000Y9652000D01*
X15313000Y11176000D01*
X15249439Y11495541D01*
X15138684Y11661298D01*
X15068434Y11766435D01*
X14560434Y12274434D01*
X14510199Y12308000D01*
X14289541Y12455439D01*
X13970000Y12519000D01*
X13284039Y12519000D01*
X13316440Y12679000D01*
X13316440Y13229000D01*
X13272162Y13464317D01*
X13197841Y13579815D01*
X13207327Y13589301D01*
X13304000Y13822690D01*
X13304000Y13938250D01*
X13145250Y14097000D01*
X11921000Y14097000D01*
X11921000Y14077000D01*
X11667000Y14077000D01*
X11667000Y14097000D01*
X10442750Y14097000D01*
X10284000Y13938250D01*
X10284000Y13822690D01*
X10297955Y13789000D01*
X9163000Y13789000D01*
X8843460Y13725440D01*
X8572566Y13544434D01*
X8253572Y13225440D01*
X8241817Y13225440D01*
X8358431Y13396110D01*
X8409440Y13648000D01*
X8409440Y14625310D01*
X10284000Y14625310D01*
X10284000Y14509750D01*
X10442750Y14351000D01*
X11667000Y14351000D01*
X11667000Y14975250D01*
X11921000Y14975250D01*
X11921000Y14351000D01*
X13145250Y14351000D01*
X13293250Y14499000D01*
X17671560Y14499000D01*
X17671560Y13949000D01*
X17715838Y13713683D01*
X17796248Y13588723D01*
X17722569Y13480890D01*
X17671560Y13229000D01*
X17671560Y12679000D01*
X17715838Y12443683D01*
X17796248Y12318723D01*
X17722569Y12210890D01*
X17671560Y11959000D01*
X17671560Y11409000D01*
X17715838Y11173683D01*
X17796248Y11048723D01*
X17722569Y10940890D01*
X17671560Y10689000D01*
X17671560Y10139000D01*
X17715838Y9903683D01*
X17854910Y9687559D01*
X18067110Y9542569D01*
X18319000Y9491560D01*
X20069000Y9491560D01*
X20304317Y9535838D01*
X20520441Y9674910D01*
X20665431Y9887110D01*
X20716440Y10139000D01*
X20716440Y10689000D01*
X20672162Y10924317D01*
X20591752Y11049277D01*
X20665431Y11157110D01*
X20716440Y11409000D01*
X20716440Y11959000D01*
X20672162Y12194317D01*
X20591752Y12319277D01*
X20665431Y12427110D01*
X20716440Y12679000D01*
X20716440Y13229000D01*
X20672162Y13464317D01*
X20591752Y13589277D01*
X20665431Y13697110D01*
X20716440Y13949000D01*
X20716440Y14499000D01*
X20672162Y14734317D01*
X20533090Y14950441D01*
X20320890Y15095431D01*
X20069000Y15146440D01*
X18319000Y15146440D01*
X18083683Y15102162D01*
X17867559Y14963090D01*
X17722569Y14750890D01*
X17671560Y14499000D01*
X13293250Y14499000D01*
X13304000Y14509750D01*
X13304000Y14625310D01*
X13207327Y14858699D01*
X13028698Y15037327D01*
X12795309Y15134000D01*
X12079750Y15134000D01*
X11921000Y14975250D01*
X11667000Y14975250D01*
X11508250Y15134000D01*
X10792691Y15134000D01*
X10559302Y15037327D01*
X10380673Y14858699D01*
X10284000Y14625310D01*
X8409440Y14625310D01*
X8409440Y15148000D01*
X8365162Y15383317D01*
X8226090Y15599441D01*
X8013890Y15744431D01*
X7980510Y15751191D01*
X8121699Y15809673D01*
X8300327Y15988302D01*
X8397000Y16221691D01*
X8397000Y16812250D01*
X8238250Y16971000D01*
X7239000Y16971000D01*
X7239000Y16951000D01*
X6985000Y16951000D01*
X6985000Y16971000D01*
X5985750Y16971000D01*
X5827000Y16812250D01*
X5827000Y16221691D01*
X5923673Y15988302D01*
X6102301Y15809673D01*
X6238287Y15753346D01*
X6226683Y15751162D01*
X6010559Y15612090D01*
X5865569Y15399890D01*
X5814560Y15148000D01*
X5814560Y13648000D01*
X5858838Y13412683D01*
X5979326Y13225440D01*
X4982000Y13225440D01*
X4746683Y13181162D01*
X4530559Y13042090D01*
X4385569Y12829890D01*
X4334560Y12578000D01*
X4334560Y12118000D01*
X3796446Y12118000D01*
X3768162Y12268317D01*
X3629090Y12484441D01*
X3509911Y12565873D01*
X3641441Y12650510D01*
X3786431Y12862710D01*
X3837440Y13114600D01*
X3837440Y14614600D01*
X3793162Y14849917D01*
X3654090Y15066041D01*
X3441890Y15211031D01*
X3428803Y15213681D01*
X3641441Y15350510D01*
X3786431Y15562710D01*
X3837440Y15814600D01*
X3837440Y17314600D01*
X3793162Y17549917D01*
X3654090Y17766041D01*
X3441890Y17911031D01*
X3190000Y17962040D01*
X1890000Y17962040D01*
X1654683Y17917762D01*
X1438559Y17778690D01*
X1293569Y17566490D01*
X1242560Y17314600D01*
X1242560Y16348028D01*
X710000Y15815468D01*
X710000Y17974309D01*
X5827000Y17974309D01*
X5827000Y17383750D01*
X5985750Y17225000D01*
X6985000Y17225000D01*
X6985000Y18324250D01*
X7239000Y18324250D01*
X7239000Y17225000D01*
X8238250Y17225000D01*
X8397000Y17383750D01*
X8397000Y17974309D01*
X8300327Y18207698D01*
X8121699Y18386327D01*
X7888310Y18483000D01*
X7397750Y18483000D01*
X7239000Y18324250D01*
X6985000Y18324250D01*
X6826250Y18483000D01*
X6335690Y18483000D01*
X6102301Y18386327D01*
X5923673Y18207698D01*
X5827000Y17974309D01*
X710000Y17974309D01*
X710000Y21813000D01*
X9237560Y21813000D01*
X9237560Y20063000D01*
X9281838Y19827683D01*
X9420910Y19611559D01*
X9633110Y19466569D01*
X9885000Y19415560D01*
X10435000Y19415560D01*
X10670317Y19459838D01*
X10795277Y19540248D01*
X10903110Y19466569D01*
X11155000Y19415560D01*
X11705000Y19415560D01*
X11940317Y19459838D01*
X12065277Y19540248D01*
X12173110Y19466569D01*
X12425000Y19415560D01*
X12975000Y19415560D01*
X13210317Y19459838D01*
X13335277Y19540248D01*
X13443110Y19466569D01*
X13695000Y19415560D01*
X14245000Y19415560D01*
X14480317Y19459838D01*
X14696441Y19598910D01*
X14841431Y19811110D01*
X14892440Y20063000D01*
X14892440Y21813000D01*
X14848162Y22048317D01*
X14709090Y22264441D01*
X14496890Y22409431D01*
X14245000Y22460440D01*
X13695000Y22460440D01*
X13459683Y22416162D01*
X13334723Y22335752D01*
X13226890Y22409431D01*
X12975000Y22460440D01*
X12425000Y22460440D01*
X12189683Y22416162D01*
X12064723Y22335752D01*
X11956890Y22409431D01*
X11705000Y22460440D01*
X11155000Y22460440D01*
X10919683Y22416162D01*
X10794723Y22335752D01*
X10686890Y22409431D01*
X10435000Y22460440D01*
X9885000Y22460440D01*
X9649683Y22416162D01*
X9433559Y22277090D01*
X9288569Y22064890D01*
X9237560Y21813000D01*
X710000Y21813000D01*
X710000Y28626812D01*
X1479246Y27857566D01*
X1750139Y27676561D01*
X2069680Y27613000D01*
X2225942Y27613000D01*
X2379980Y27240200D01*
X2980041Y26639091D01*
X3156000Y26566026D01*
X3156000Y26326685D01*
X3155999Y26326680D01*
X3234785Y25930603D01*
X3459144Y25594824D01*
X5125618Y23928351D01*
X5125620Y23928348D01*
X5416599Y23733923D01*
X5461399Y23703989D01*
X5857476Y23625203D01*
X5857481Y23625204D01*
X18309560Y23625204D01*
X18309560Y22530000D01*
X18353838Y22294683D01*
X18492910Y22078559D01*
X18705110Y21933569D01*
X18957000Y21882560D01*
X21657000Y21882560D01*
X21892317Y21926838D01*
X22108441Y22065910D01*
X22253431Y22278110D01*
X22304440Y22530000D01*
X22304440Y25730000D01*
X22260162Y25965317D01*
X22121090Y26181441D01*
X21908890Y26326431D01*
X21722121Y26364253D01*
X22439520Y27081652D01*
X22485910Y27009559D01*
X22698110Y26864569D01*
X22950000Y26813560D01*
X22965000Y26813560D01*
X22965000Y26787000D01*
X23028561Y26467459D01*
X23196581Y26216000D01*
X23209566Y26196566D01*
X25866566Y23539566D01*
X26137459Y23358561D01*
X26209560Y23344219D01*
X26209560Y22530000D01*
X26253838Y22294683D01*
X26392910Y22078559D01*
X26605110Y21933569D01*
X26857000Y21882560D01*
X29557000Y21882560D01*
X29792317Y21926838D01*
X30008441Y22065910D01*
X30153431Y22278110D01*
X30204440Y22530000D01*
X30204440Y23095000D01*
X31390560Y23095000D01*
X31390560Y21738000D01*
X31434838Y21502683D01*
X31573910Y21286559D01*
X31786110Y21141569D01*
X32038000Y21090560D01*
X38438000Y21090560D01*
X38673317Y21134838D01*
X38889441Y21273910D01*
X39034431Y21486110D01*
X39085440Y21738000D01*
X39085440Y27538000D01*
X39041162Y27773317D01*
X38902090Y27989441D01*
X38689890Y28134431D01*
X38438000Y28185440D01*
X32038000Y28185440D01*
X31802683Y28141162D01*
X31667339Y28054070D01*
X31871358Y28545403D01*
X31871839Y29096390D01*
X31661430Y29605620D01*
X31272163Y29995566D01*
X30763301Y30206864D01*
X30212314Y30207345D01*
X29703084Y29996936D01*
X29313138Y29607669D01*
X29160261Y29239500D01*
X28497946Y29239500D01*
X28469662Y29389817D01*
X28330590Y29605941D01*
X28262494Y29652469D01*
X28404827Y29794802D01*
X28501500Y30028191D01*
X28501500Y30618750D01*
X28342750Y30777500D01*
X27368500Y30777500D01*
X27368500Y30757500D01*
X27114500Y30757500D01*
X27114500Y30777500D01*
X26140250Y30777500D01*
X25981500Y30618750D01*
X25981500Y30028191D01*
X26078173Y29794802D01*
X26219410Y29653564D01*
X26165059Y29618590D01*
X26020069Y29406390D01*
X25969060Y29154500D01*
X25969060Y28902000D01*
X25957440Y28902000D01*
X25957440Y29021000D01*
X25913162Y29256317D01*
X25774090Y29472441D01*
X25598768Y29592233D01*
X25761441Y29696910D01*
X25906431Y29909110D01*
X25957440Y30161000D01*
X25957440Y31721000D01*
X25946187Y31780809D01*
X25981500Y31780809D01*
X25981500Y31190250D01*
X26140250Y31031500D01*
X27114500Y31031500D01*
X27114500Y32130750D01*
X27368500Y32130750D01*
X27368500Y31031500D01*
X28342750Y31031500D01*
X28501500Y31190250D01*
X28501500Y31780809D01*
X28404827Y32014198D01*
X28226199Y32192827D01*
X27992810Y32289500D01*
X27527250Y32289500D01*
X27368500Y32130750D01*
X27114500Y32130750D01*
X26955750Y32289500D01*
X26490190Y32289500D01*
X26256801Y32192827D01*
X26078173Y32014198D01*
X25981500Y31780809D01*
X25946187Y31780809D01*
X25945000Y31787113D01*
X25945000Y33807077D01*
X25881439Y34126618D01*
X25700434Y34397511D01*
X25360776Y34737169D01*
X25361193Y35215409D01*
X25150784Y35724639D01*
X24761517Y36114585D01*
X24252655Y36325883D01*
X23701668Y36326364D01*
X23192438Y36115955D01*
X22802492Y35726688D01*
X22596831Y35231402D01*
X22415411Y35670473D01*
X22026144Y36060419D01*
X21517282Y36271717D01*
X20966295Y36272198D01*
X20457065Y36061789D01*
X20067119Y35672522D01*
X19855821Y35163660D01*
X19855340Y34612673D01*
X20065749Y34103443D01*
X20455016Y33713497D01*
X20963878Y33502199D01*
X21444891Y33501779D01*
X22658920Y32287750D01*
X22590301Y32259327D01*
X22411673Y32080698D01*
X22315000Y31847309D01*
X22315000Y31226750D01*
X22473750Y31068000D01*
X22952560Y31068000D01*
X22952560Y30814000D01*
X22473750Y30814000D01*
X22315000Y30655250D01*
X22315000Y30034691D01*
X22411673Y29801302D01*
X22590301Y29622673D01*
X22664565Y29591912D01*
X22498559Y29485090D01*
X22353569Y29272890D01*
X22309320Y29054382D01*
X22098459Y29012439D01*
X21906162Y28883950D01*
X21827566Y28831434D01*
X19716566Y26720434D01*
X19535561Y26449541D01*
X19521219Y26377440D01*
X18957000Y26377440D01*
X18721683Y26333162D01*
X18505559Y26194090D01*
X18360569Y25981890D01*
X18309560Y25730000D01*
X18309560Y25695204D01*
X11178334Y25695204D01*
X11373434Y25825566D01*
X11984270Y26436402D01*
X12020434Y26460566D01*
X12201439Y26731459D01*
X12226177Y26855823D01*
X12425000Y26815560D01*
X12975000Y26815560D01*
X13210317Y26859838D01*
X13325815Y26934159D01*
X13335301Y26924673D01*
X13568690Y26828000D01*
X13684250Y26828000D01*
X13843000Y26986750D01*
X13843000Y28211000D01*
X14097000Y28211000D01*
X14097000Y26986750D01*
X14255750Y26828000D01*
X14371310Y26828000D01*
X14604699Y26924673D01*
X14783327Y27103302D01*
X14880000Y27336691D01*
X14880000Y28052250D01*
X14721250Y28211000D01*
X14097000Y28211000D01*
X13843000Y28211000D01*
X13823000Y28211000D01*
X13823000Y28465000D01*
X13843000Y28465000D01*
X13843000Y29689250D01*
X14097000Y29689250D01*
X14097000Y28465000D01*
X14721250Y28465000D01*
X14880000Y28623750D01*
X14880000Y29339309D01*
X14783327Y29572698D01*
X14604699Y29751327D01*
X14371310Y29848000D01*
X14255750Y29848000D01*
X14097000Y29689250D01*
X13843000Y29689250D01*
X13684250Y29848000D01*
X13568690Y29848000D01*
X13535000Y29834045D01*
X13535000Y30969000D01*
X13491077Y31189817D01*
X13471440Y31288540D01*
X13290434Y31559434D01*
X12971440Y31878428D01*
X12971440Y31890183D01*
X13142110Y31773569D01*
X13394000Y31722560D01*
X14894000Y31722560D01*
X15129317Y31766838D01*
X15345441Y31905910D01*
X15490431Y32118110D01*
X15497191Y32151490D01*
X15555673Y32010301D01*
X15734302Y31831673D01*
X15967691Y31735000D01*
X16558250Y31735000D01*
X16717000Y31893750D01*
X16717000Y32893000D01*
X16971000Y32893000D01*
X16971000Y31893750D01*
X17129750Y31735000D01*
X17720309Y31735000D01*
X17953698Y31831673D01*
X18132327Y32010301D01*
X18229000Y32243690D01*
X18229000Y32734250D01*
X18070250Y32893000D01*
X16971000Y32893000D01*
X16717000Y32893000D01*
X16697000Y32893000D01*
X16697000Y33147000D01*
X16717000Y33147000D01*
X16717000Y34146250D01*
X16971000Y34146250D01*
X16971000Y33147000D01*
X18070250Y33147000D01*
X18229000Y33305750D01*
X18229000Y33796310D01*
X18132327Y34029699D01*
X17953698Y34208327D01*
X17720309Y34305000D01*
X17129750Y34305000D01*
X16971000Y34146250D01*
X16717000Y34146250D01*
X16558250Y34305000D01*
X15967691Y34305000D01*
X15734302Y34208327D01*
X15555673Y34029699D01*
X15499346Y33893713D01*
X15497162Y33905317D01*
X15358090Y34121441D01*
X15145890Y34266431D01*
X14894000Y34317440D01*
X13394000Y34317440D01*
X13158683Y34273162D01*
X12971440Y34152674D01*
X12971440Y35150000D01*
X12927162Y35385317D01*
X12788090Y35601441D01*
X12575890Y35746431D01*
X12324000Y35797440D01*
X12142066Y35797440D01*
X12248431Y35953110D01*
X12299440Y36205000D01*
X12299440Y37455000D01*
X12255162Y37690317D01*
X12116090Y37906441D01*
X11903890Y38051431D01*
X11776649Y38077198D01*
X11987317Y38116838D01*
X12203441Y38255910D01*
X12348431Y38468110D01*
X12399440Y38720000D01*
X12399440Y40020000D01*
X12360444Y40227250D01*
X48546000Y40227250D01*
X48546000Y39761690D01*
X48642673Y39528301D01*
X48821302Y39349673D01*
X49054691Y39253000D01*
X49645250Y39253000D01*
X49804000Y39411750D01*
X49804000Y40386000D01*
X48704750Y40386000D01*
X48546000Y40227250D01*
X12360444Y40227250D01*
X12355162Y40255317D01*
X12216090Y40471441D01*
X12003890Y40616431D01*
X11752000Y40667440D01*
X10252000Y40667440D01*
X10016683Y40623162D01*
X9800559Y40484090D01*
X9655569Y40271890D01*
X9652919Y40258803D01*
X9516090Y40471441D01*
X9303890Y40616431D01*
X9052000Y40667440D01*
X7552000Y40667440D01*
X7316683Y40623162D01*
X7100559Y40484090D01*
X6955569Y40271890D01*
X6942023Y40205000D01*
X4643329Y40205000D01*
X4323789Y40141440D01*
X4052895Y39960434D01*
X710000Y36617539D01*
X710000Y41264310D01*
X48546000Y41264310D01*
X48546000Y40798750D01*
X48704750Y40640000D01*
X49804000Y40640000D01*
X49804000Y41614250D01*
X49645250Y41773000D01*
X49054691Y41773000D01*
X48821302Y41676327D01*
X48642673Y41497699D01*
X48546000Y41264310D01*
X710000Y41264310D01*
X710000Y45181000D01*
X9364560Y45181000D01*
X9364560Y43431000D01*
X9408838Y43195683D01*
X9547910Y42979559D01*
X9760110Y42834569D01*
X10012000Y42783560D01*
X10562000Y42783560D01*
X10797317Y42827838D01*
X10922277Y42908248D01*
X11030110Y42834569D01*
X11282000Y42783560D01*
X11832000Y42783560D01*
X12067317Y42827838D01*
X12192277Y42908248D01*
X12300110Y42834569D01*
X12552000Y42783560D01*
X13102000Y42783560D01*
X13337317Y42827838D01*
X13462277Y42908248D01*
X13570110Y42834569D01*
X13822000Y42783560D01*
X14372000Y42783560D01*
X14607317Y42827838D01*
X14823441Y42966910D01*
X14968431Y43179110D01*
X15019440Y43431000D01*
X15019440Y45181000D01*
X14975162Y45416317D01*
X14836090Y45632441D01*
X14623890Y45777431D01*
X14372000Y45828440D01*
X13822000Y45828440D01*
X13586683Y45784162D01*
X13461723Y45703752D01*
X13353890Y45777431D01*
X13102000Y45828440D01*
X12552000Y45828440D01*
X12316683Y45784162D01*
X12191723Y45703752D01*
X12083890Y45777431D01*
X11832000Y45828440D01*
X11282000Y45828440D01*
X11046683Y45784162D01*
X10921723Y45703752D01*
X10813890Y45777431D01*
X10562000Y45828440D01*
X10012000Y45828440D01*
X9776683Y45784162D01*
X9560559Y45645090D01*
X9415569Y45432890D01*
X9364560Y45181000D01*
X710000Y45181000D01*
X710000Y53518812D01*
X1479246Y52749566D01*
X1750139Y52568561D01*
X2069680Y52505000D01*
X2225942Y52505000D01*
X2379980Y52132200D01*
X2980041Y51531091D01*
X3156000Y51458026D01*
X3156000Y50537454D01*
X3155999Y50537449D01*
X3234785Y50141372D01*
X3459144Y49805593D01*
X5863591Y47401147D01*
X5863593Y47401144D01*
X6032079Y47288566D01*
X6199371Y47176785D01*
X6595449Y47098000D01*
X17928560Y47098000D01*
X17928560Y46279000D01*
X17972838Y46043683D01*
X18111910Y45827559D01*
X18324110Y45682569D01*
X18576000Y45631560D01*
X21276000Y45631560D01*
X21511317Y45675838D01*
X21727441Y45814910D01*
X21872431Y46027110D01*
X21923440Y46279000D01*
X21923440Y49479000D01*
X21879162Y49714317D01*
X21740090Y49930441D01*
X21527890Y50075431D01*
X21341121Y50113253D01*
X22330000Y51102132D01*
X22330000Y50790000D01*
X22393561Y50470459D01*
X22512354Y50292673D01*
X22574566Y50199566D01*
X25485566Y47288566D01*
X25756460Y47107560D01*
X25828560Y47093219D01*
X25828560Y46279000D01*
X25872838Y46043683D01*
X26011910Y45827559D01*
X26224110Y45682569D01*
X26476000Y45631560D01*
X29176000Y45631560D01*
X29411317Y45675838D01*
X29627441Y45814910D01*
X29772431Y46027110D01*
X29823440Y46279000D01*
X29823440Y46844000D01*
X31101560Y46844000D01*
X31101560Y44599000D01*
X31145838Y44363683D01*
X31284910Y44147559D01*
X31497110Y44002569D01*
X31749000Y43951560D01*
X38149000Y43951560D01*
X38384317Y43995838D01*
X38600441Y44134910D01*
X38745431Y44347110D01*
X38796440Y44599000D01*
X38796440Y45819000D01*
X39501560Y45819000D01*
X39501560Y44619000D01*
X39545838Y44383683D01*
X39684910Y44167559D01*
X39897110Y44022569D01*
X40149000Y43971560D01*
X42349000Y43971560D01*
X42584317Y44015838D01*
X42800441Y44154910D01*
X42945431Y44367110D01*
X42996440Y44619000D01*
X42996440Y45285572D01*
X43357868Y45647000D01*
X46736966Y45647000D01*
X46356302Y45392648D01*
X46045233Y44927101D01*
X45936000Y44377950D01*
X45936000Y43506050D01*
X46045233Y42956899D01*
X46356302Y42491352D01*
X46821849Y42180283D01*
X47371000Y42071050D01*
X47920151Y42180283D01*
X48385698Y42491352D01*
X48641000Y42873438D01*
X48896302Y42491352D01*
X49361849Y42180283D01*
X49911000Y42071050D01*
X50460151Y42180283D01*
X50925698Y42491352D01*
X51181000Y42873438D01*
X51436302Y42491352D01*
X51596000Y42384645D01*
X51596000Y41769446D01*
X51445683Y41741162D01*
X51229559Y41602090D01*
X51183031Y41533994D01*
X51040698Y41676327D01*
X50807309Y41773000D01*
X50216750Y41773000D01*
X50058000Y41614250D01*
X50058000Y40640000D01*
X50078000Y40640000D01*
X50078000Y40386000D01*
X50058000Y40386000D01*
X50058000Y39411750D01*
X50216750Y39253000D01*
X50807309Y39253000D01*
X51040698Y39349673D01*
X51181936Y39490910D01*
X51216910Y39436559D01*
X51429110Y39291569D01*
X51681000Y39240560D01*
X53181000Y39240560D01*
X53416317Y39284838D01*
X53632441Y39423910D01*
X53777431Y39636110D01*
X53828440Y39888000D01*
X53828440Y41138000D01*
X53784162Y41373317D01*
X53645090Y41589441D01*
X53432890Y41734431D01*
X53266000Y41768227D01*
X53266000Y42357918D01*
X53465698Y42491352D01*
X53721000Y42873438D01*
X53976302Y42491352D01*
X54441849Y42180283D01*
X54991000Y42071050D01*
X55540151Y42180283D01*
X56005698Y42491352D01*
X56041544Y42545000D01*
X61922407Y42545000D01*
X62035446Y41976715D01*
X62357353Y41494946D01*
X62686526Y41275000D01*
X62357353Y41055054D01*
X62035446Y40573285D01*
X61922407Y40005000D01*
X62035446Y39436715D01*
X62357353Y38954946D01*
X62686526Y38735000D01*
X62357353Y38515054D01*
X62035446Y38033285D01*
X61922407Y37465000D01*
X62035446Y36896715D01*
X62357353Y36414946D01*
X62698053Y36187298D01*
X62555142Y36120183D01*
X62164855Y35691924D01*
X61995024Y35281890D01*
X62116345Y35052000D01*
X63309500Y35052000D01*
X63309500Y35072000D01*
X63563500Y35072000D01*
X63563500Y35052000D01*
X64756655Y35052000D01*
X64877976Y35281890D01*
X64708145Y35691924D01*
X64317858Y36120183D01*
X64174947Y36187298D01*
X64515647Y36414946D01*
X64837554Y36896715D01*
X64950593Y37465000D01*
X64837554Y38033285D01*
X64515647Y38515054D01*
X64186474Y38735000D01*
X64515647Y38954946D01*
X64837554Y39436715D01*
X64950593Y40005000D01*
X64943546Y40040429D01*
X66681500Y40040429D01*
X66681500Y34127572D01*
X70501500Y34127572D01*
X70501500Y40040429D01*
X66681500Y40040429D01*
X64943546Y40040429D01*
X64837554Y40573285D01*
X64515647Y41055054D01*
X64186474Y41275000D01*
X64515647Y41494946D01*
X64837554Y41976715D01*
X64950593Y42545000D01*
X64837554Y43113285D01*
X64515647Y43595054D01*
X64474048Y43622850D01*
X64521817Y43631838D01*
X64737941Y43770910D01*
X64882931Y43983110D01*
X64933940Y44235000D01*
X64933940Y45935000D01*
X64889662Y46170317D01*
X64750590Y46386441D01*
X64538390Y46531431D01*
X64286500Y46582440D01*
X62586500Y46582440D01*
X62351183Y46538162D01*
X62135059Y46399090D01*
X61990069Y46186890D01*
X61939060Y45935000D01*
X61939060Y44235000D01*
X61983338Y43999683D01*
X62122410Y43783559D01*
X62334610Y43638569D01*
X62402041Y43624914D01*
X62357353Y43595054D01*
X62035446Y43113285D01*
X61922407Y42545000D01*
X56041544Y42545000D01*
X56316767Y42956899D01*
X56426000Y43506050D01*
X56426000Y44377950D01*
X56316767Y44927101D01*
X56005698Y45392648D01*
X55540151Y45703717D01*
X54991000Y45812950D01*
X54441849Y45703717D01*
X53976302Y45392648D01*
X53721000Y45010562D01*
X53465698Y45392648D01*
X53000151Y45703717D01*
X52451000Y45812950D01*
X51901849Y45703717D01*
X51436302Y45392648D01*
X51181000Y45010562D01*
X50925698Y45392648D01*
X50460151Y45703717D01*
X49911000Y45812950D01*
X49669046Y45764822D01*
X48361434Y47072434D01*
X48308863Y47107561D01*
X48090541Y47253439D01*
X47771000Y47317000D01*
X43012000Y47317000D01*
X42692460Y47253440D01*
X42421566Y47072434D01*
X41815572Y46466440D01*
X40149000Y46466440D01*
X39913683Y46422162D01*
X39697559Y46283090D01*
X39552569Y46070890D01*
X39501560Y45819000D01*
X38796440Y45819000D01*
X38796440Y50399000D01*
X38752162Y50634317D01*
X38613090Y50850441D01*
X38400890Y50995431D01*
X38149000Y51046440D01*
X31749000Y51046440D01*
X31513683Y51002162D01*
X31297559Y50863090D01*
X31152569Y50650890D01*
X31101560Y50399000D01*
X31101560Y48914000D01*
X29823440Y48914000D01*
X29823440Y49479000D01*
X29779162Y49714317D01*
X29640090Y49930441D01*
X29427890Y50075431D01*
X29176000Y50126440D01*
X26476000Y50126440D01*
X26240683Y50082162D01*
X26024559Y49943090D01*
X25879569Y49730890D01*
X25828560Y49479000D01*
X25828560Y49307308D01*
X24000000Y51135868D01*
X24000000Y51264359D01*
X24023110Y51248569D01*
X24050785Y51242965D01*
X24083750Y51210000D01*
X24151310Y51210000D01*
X24171753Y51218468D01*
X24275000Y51197560D01*
X24675000Y51197560D01*
X24910317Y51241838D01*
X25126441Y51380910D01*
X25271431Y51593110D01*
X25276066Y51616000D01*
X25713074Y51616000D01*
X25717838Y51590683D01*
X25856910Y51374559D01*
X26069110Y51229569D01*
X26321000Y51178560D01*
X27821000Y51178560D01*
X28056317Y51222838D01*
X28272441Y51361910D01*
X28318969Y51430006D01*
X28461302Y51287673D01*
X28694691Y51191000D01*
X29285250Y51191000D01*
X29444000Y51349750D01*
X29444000Y52324000D01*
X29698000Y52324000D01*
X29698000Y51349750D01*
X29856750Y51191000D01*
X30447309Y51191000D01*
X30680698Y51287673D01*
X30859327Y51466301D01*
X30956000Y51699690D01*
X30956000Y52165250D01*
X30797250Y52324000D01*
X29698000Y52324000D01*
X29444000Y52324000D01*
X29424000Y52324000D01*
X29424000Y52578000D01*
X29444000Y52578000D01*
X29444000Y53552250D01*
X29698000Y53552250D01*
X29698000Y52578000D01*
X30797250Y52578000D01*
X30956000Y52736750D01*
X30956000Y53202310D01*
X30859327Y53435699D01*
X30680698Y53614327D01*
X30447309Y53711000D01*
X29856750Y53711000D01*
X29698000Y53552250D01*
X29444000Y53552250D01*
X29285250Y53711000D01*
X28694691Y53711000D01*
X28461302Y53614327D01*
X28320064Y53473090D01*
X28285090Y53527441D01*
X28072890Y53672431D01*
X27906000Y53706227D01*
X27906000Y54491060D01*
X27851057Y54767275D01*
X27866251Y54803866D01*
X27866732Y55354853D01*
X27656323Y55864083D01*
X27316492Y56204507D01*
X27316492Y57421597D01*
X28517682Y57421597D01*
X28796455Y56746914D01*
X29312199Y56230270D01*
X29986395Y55950319D01*
X30716403Y55949682D01*
X31391086Y56228455D01*
X31907730Y56744199D01*
X31993186Y56950000D01*
X38234009Y56950000D01*
X40414000Y54770009D01*
X40414000Y51026440D01*
X40149000Y51026440D01*
X39913683Y50982162D01*
X39697559Y50843090D01*
X39552569Y50630890D01*
X39501560Y50379000D01*
X39501560Y49179000D01*
X39545838Y48943683D01*
X39684910Y48727559D01*
X39897110Y48582569D01*
X40149000Y48531560D01*
X42349000Y48531560D01*
X42584317Y48575838D01*
X42698086Y48649046D01*
X43360066Y47987066D01*
X43630960Y47806060D01*
X43950500Y47742500D01*
X51689000Y47742500D01*
X52008541Y47806061D01*
X52279434Y47987066D01*
X53041434Y48749066D01*
X53222440Y49019960D01*
X53286000Y49339500D01*
X53286000Y49991281D01*
X53465698Y50111352D01*
X53563251Y50257350D01*
X53587838Y50126683D01*
X53726910Y49910559D01*
X53939110Y49765569D01*
X54191000Y49714560D01*
X55791000Y49714560D01*
X56026317Y49758838D01*
X56242441Y49897910D01*
X56387431Y50110110D01*
X56438440Y50362000D01*
X56438440Y52324000D01*
X59763407Y52324000D01*
X59876446Y51755715D01*
X60198353Y51273946D01*
X60527526Y51054000D01*
X60198353Y50834054D01*
X59876446Y50352285D01*
X59763407Y49784000D01*
X59876446Y49215715D01*
X60198353Y48733946D01*
X60680122Y48412039D01*
X61248407Y48299000D01*
X61306593Y48299000D01*
X61874878Y48412039D01*
X62356647Y48733946D01*
X62589779Y49082855D01*
X73123854Y49082855D01*
X73334263Y48573625D01*
X73723530Y48183679D01*
X74232392Y47972381D01*
X74713405Y47971961D01*
X77758854Y44926512D01*
X77657083Y44907362D01*
X77440959Y44768290D01*
X77295969Y44556090D01*
X77244960Y44304200D01*
X77244960Y36429200D01*
X77289238Y36193883D01*
X77428310Y35977759D01*
X77640510Y35832769D01*
X77892400Y35781760D01*
X77948654Y35781760D01*
X77845569Y35630890D01*
X77794560Y35379000D01*
X77794560Y33879000D01*
X77838838Y33643683D01*
X77977910Y33427559D01*
X78046006Y33381031D01*
X77903673Y33238698D01*
X77807000Y33005309D01*
X77807000Y32414750D01*
X77965750Y32256000D01*
X78940000Y32256000D01*
X78940000Y32276000D01*
X79194000Y32276000D01*
X79194000Y32256000D01*
X80168250Y32256000D01*
X80327000Y32414750D01*
X80327000Y33005309D01*
X80230327Y33238698D01*
X80089090Y33379936D01*
X80143441Y33414910D01*
X80288431Y33627110D01*
X80339440Y33879000D01*
X80339440Y35379000D01*
X80295162Y35614317D01*
X80156090Y35830441D01*
X80145648Y35837576D01*
X80343841Y35965110D01*
X80488831Y36177310D01*
X80539840Y36429200D01*
X80539840Y44304200D01*
X80495562Y44539517D01*
X80356490Y44755641D01*
X80144290Y44900631D01*
X79892400Y44951640D01*
X79727400Y44951640D01*
X79727400Y44973834D01*
X79663839Y45293375D01*
X79482834Y45564268D01*
X75893917Y49153185D01*
X75894334Y49631425D01*
X75683925Y50140655D01*
X75294658Y50530601D01*
X74785796Y50741899D01*
X74234809Y50742380D01*
X73725579Y50531971D01*
X73335633Y50142704D01*
X73124335Y49633842D01*
X73123854Y49082855D01*
X62589779Y49082855D01*
X62678554Y49215715D01*
X62791593Y49784000D01*
X62678554Y50352285D01*
X62356647Y50834054D01*
X62027474Y51054000D01*
X62356647Y51273946D01*
X62678554Y51755715D01*
X62791593Y52324000D01*
X62678554Y52892285D01*
X62356647Y53374054D01*
X62312723Y53403403D01*
X62487198Y53475673D01*
X62665827Y53654301D01*
X62762500Y53887690D01*
X62762500Y54578250D01*
X62603750Y54737000D01*
X61404500Y54737000D01*
X61404500Y54717000D01*
X61150500Y54717000D01*
X61150500Y54737000D01*
X59951250Y54737000D01*
X59792500Y54578250D01*
X59792500Y53887690D01*
X59889173Y53654301D01*
X60067802Y53475673D01*
X60242277Y53403403D01*
X60198353Y53374054D01*
X59876446Y52892285D01*
X59763407Y52324000D01*
X56438440Y52324000D01*
X56438440Y52762000D01*
X56394162Y52997317D01*
X56255090Y53213441D01*
X56042890Y53358431D01*
X55791000Y53409440D01*
X54191000Y53409440D01*
X53955683Y53365162D01*
X53739559Y53226090D01*
X53594569Y53013890D01*
X53564403Y52864926D01*
X53465698Y53012648D01*
X53000151Y53323717D01*
X52451000Y53432950D01*
X51901849Y53323717D01*
X51436302Y53012648D01*
X51181000Y52630562D01*
X50925698Y53012648D01*
X50746000Y53132719D01*
X50746000Y54244132D01*
X52003795Y55501927D01*
X52025910Y55467559D01*
X52238110Y55322569D01*
X52490000Y55271560D01*
X54190000Y55271560D01*
X54425317Y55315838D01*
X54641441Y55454910D01*
X54786431Y55667110D01*
X54821504Y55840310D01*
X59792500Y55840310D01*
X59792500Y55149750D01*
X59951250Y54991000D01*
X61150500Y54991000D01*
X61150500Y56190250D01*
X61404500Y56190250D01*
X61404500Y54991000D01*
X62603750Y54991000D01*
X62762500Y55149750D01*
X62762500Y55840310D01*
X62665827Y56073699D01*
X62487198Y56252327D01*
X62253809Y56349000D01*
X61563250Y56349000D01*
X61404500Y56190250D01*
X61150500Y56190250D01*
X60991750Y56349000D01*
X60301191Y56349000D01*
X60067802Y56252327D01*
X59889173Y56073699D01*
X59792500Y55840310D01*
X54821504Y55840310D01*
X54837440Y55919000D01*
X54837440Y57471214D01*
X63506500Y57471214D01*
X63506500Y52129786D01*
X67326500Y52129786D01*
X67326500Y52532744D01*
X72001271Y52532744D01*
X72211680Y52023514D01*
X72600947Y51633568D01*
X73109809Y51422270D01*
X73660796Y51421789D01*
X73730725Y51450683D01*
X73951840Y51406700D01*
X77244960Y51406700D01*
X77244960Y48304200D01*
X77289238Y48068883D01*
X77428310Y47852759D01*
X77640510Y47707769D01*
X77892400Y47656760D01*
X79892400Y47656760D01*
X80127717Y47701038D01*
X80343841Y47840110D01*
X80488831Y48052310D01*
X80539840Y48304200D01*
X80539840Y56179200D01*
X80495562Y56414517D01*
X80356490Y56630641D01*
X80200459Y56737252D01*
X80243441Y56764910D01*
X80388431Y56977110D01*
X80439440Y57229000D01*
X80439440Y58729000D01*
X80395162Y58964317D01*
X80256090Y59180441D01*
X80187994Y59226969D01*
X80330327Y59369302D01*
X80427000Y59602691D01*
X80427000Y60193250D01*
X80268250Y60352000D01*
X79294000Y60352000D01*
X79294000Y60332000D01*
X79040000Y60332000D01*
X79040000Y60352000D01*
X78065750Y60352000D01*
X77907000Y60193250D01*
X77907000Y59602691D01*
X78003673Y59369302D01*
X78144910Y59228064D01*
X78090559Y59193090D01*
X77945569Y58980890D01*
X77894560Y58729000D01*
X77894560Y57229000D01*
X77938838Y56993683D01*
X78046327Y56826640D01*
X77892400Y56826640D01*
X77657083Y56782362D01*
X77440959Y56643290D01*
X77295969Y56431090D01*
X77244960Y56179200D01*
X77244960Y53076700D01*
X74771747Y53076700D01*
X74771751Y53081314D01*
X74561342Y53590544D01*
X74172075Y53980490D01*
X73663213Y54191788D01*
X73112226Y54192269D01*
X72602996Y53981860D01*
X72213050Y53592593D01*
X72001752Y53083731D01*
X72001271Y52532744D01*
X67326500Y52532744D01*
X67326500Y57471214D01*
X63506500Y57471214D01*
X54837440Y57471214D01*
X54837440Y57619000D01*
X54793162Y57854317D01*
X54654090Y58070441D01*
X54441890Y58215431D01*
X54190000Y58266440D01*
X52490000Y58266440D01*
X52254683Y58222162D01*
X52038559Y58083090D01*
X51893569Y57870890D01*
X51842560Y57619000D01*
X51842560Y57554781D01*
X51770459Y57540439D01*
X51562621Y57401566D01*
X51499566Y57359434D01*
X49320566Y55180434D01*
X49139561Y54909541D01*
X49076000Y54590000D01*
X49076000Y53132719D01*
X48896302Y53012648D01*
X48641000Y52630562D01*
X48385698Y53012648D01*
X47920151Y53323717D01*
X47371000Y53432950D01*
X46821849Y53323717D01*
X46356302Y53012648D01*
X46045233Y52547101D01*
X45936000Y51997950D01*
X45936000Y51126050D01*
X46045233Y50576899D01*
X46356302Y50111352D01*
X46821849Y49800283D01*
X47371000Y49691050D01*
X47920151Y49800283D01*
X48385698Y50111352D01*
X48641000Y50493438D01*
X48896302Y50111352D01*
X49361849Y49800283D01*
X49911000Y49691050D01*
X50460151Y49800283D01*
X50925698Y50111352D01*
X51181000Y50493438D01*
X51436302Y50111352D01*
X51616000Y49991281D01*
X51616000Y49685368D01*
X51343132Y49412500D01*
X44296368Y49412500D01*
X43339434Y50369434D01*
X43188239Y50470459D01*
X43068541Y50550439D01*
X42960124Y50572005D01*
X42952162Y50614317D01*
X42813090Y50830441D01*
X42600890Y50975431D01*
X42349000Y51026440D01*
X42084000Y51026440D01*
X42084000Y55115877D01*
X42020439Y55435418D01*
X41839434Y55706311D01*
X40172550Y57373195D01*
X43804805Y57373195D01*
X44037358Y56811742D01*
X44528224Y56290508D01*
X45181193Y55996797D01*
X45466000Y56113142D01*
X45466000Y57658000D01*
X45720000Y57658000D01*
X45720000Y56113142D01*
X46004807Y55996797D01*
X46657776Y56290508D01*
X47148642Y56811742D01*
X47381195Y57373195D01*
X47264432Y57658000D01*
X45720000Y57658000D01*
X45466000Y57658000D01*
X43921568Y57658000D01*
X43804805Y57373195D01*
X40172550Y57373195D01*
X39348940Y58196805D01*
X43804805Y58196805D01*
X43921568Y57912000D01*
X45466000Y57912000D01*
X45466000Y59456858D01*
X45720000Y59456858D01*
X45720000Y57912000D01*
X47264432Y57912000D01*
X47381195Y58196805D01*
X47148642Y58758258D01*
X46657776Y59279492D01*
X46004807Y59573203D01*
X45720000Y59456858D01*
X45466000Y59456858D01*
X45181193Y59573203D01*
X44528224Y59279492D01*
X44037358Y58758258D01*
X43804805Y58196805D01*
X39348940Y58196805D01*
X39170311Y58375434D01*
X39045934Y58458540D01*
X38899418Y58556439D01*
X38579877Y58620000D01*
X31993458Y58620000D01*
X31909545Y58823086D01*
X31393801Y59339730D01*
X30719605Y59619681D01*
X29989597Y59620318D01*
X29314914Y59341545D01*
X28798270Y58825801D01*
X28518319Y58151605D01*
X28517682Y57421597D01*
X27316492Y57421597D01*
X27316492Y60774508D01*
X27252931Y61094049D01*
X27078363Y61355309D01*
X77907000Y61355309D01*
X77907000Y60764750D01*
X78065750Y60606000D01*
X79040000Y60606000D01*
X79040000Y61705250D01*
X79294000Y61705250D01*
X79294000Y60606000D01*
X80268250Y60606000D01*
X80427000Y60764750D01*
X80427000Y61355309D01*
X80330327Y61588698D01*
X80151699Y61767327D01*
X79918310Y61864000D01*
X79452750Y61864000D01*
X79294000Y61705250D01*
X79040000Y61705250D01*
X78881250Y61864000D01*
X78415690Y61864000D01*
X78182301Y61767327D01*
X78003673Y61588698D01*
X77907000Y61355309D01*
X27078363Y61355309D01*
X27071926Y61364942D01*
X25937934Y62498934D01*
X25667041Y62679939D01*
X25594940Y62694281D01*
X25594940Y63163500D01*
X25550662Y63398817D01*
X25411590Y63614941D01*
X25391552Y63628633D01*
X25548941Y63729910D01*
X25693931Y63942110D01*
X25744940Y64194000D01*
X25744940Y65060572D01*
X25852500Y65168132D01*
X25852500Y65091498D01*
X26011248Y65091498D01*
X25852500Y64932750D01*
X25852500Y63837191D01*
X25949173Y63603802D01*
X26127801Y63425173D01*
X26361190Y63328500D01*
X26701750Y63328500D01*
X26860500Y63487250D01*
X26860500Y65091500D01*
X27114500Y65091500D01*
X27114500Y63487250D01*
X27273250Y63328500D01*
X27613810Y63328500D01*
X27847199Y63425173D01*
X28025827Y63603802D01*
X28122500Y63837191D01*
X28122500Y64446000D01*
X31826560Y64446000D01*
X31826560Y62046000D01*
X31870838Y61810683D01*
X32009910Y61594559D01*
X32222110Y61449569D01*
X32474000Y61398560D01*
X34074000Y61398560D01*
X34309317Y61442838D01*
X34525441Y61581910D01*
X34670431Y61794110D01*
X34700597Y61943074D01*
X34799302Y61795352D01*
X35264849Y61484283D01*
X35814000Y61375050D01*
X36363151Y61484283D01*
X36828698Y61795352D01*
X37081507Y62173707D01*
X37429104Y61741500D01*
X37922181Y61471633D01*
X38004961Y61454096D01*
X38227000Y61576085D01*
X38227000Y63119000D01*
X38207000Y63119000D01*
X38207000Y63373000D01*
X38227000Y63373000D01*
X38227000Y64915915D01*
X38481000Y64915915D01*
X38481000Y63373000D01*
X38501000Y63373000D01*
X38501000Y63119000D01*
X38481000Y63119000D01*
X38481000Y61576085D01*
X38703039Y61454096D01*
X38785819Y61471633D01*
X39278896Y61741500D01*
X39626493Y62173707D01*
X39879302Y61795352D01*
X40344849Y61484283D01*
X40894000Y61375050D01*
X41443151Y61484283D01*
X41908698Y61795352D01*
X42219767Y62260899D01*
X42329000Y62810050D01*
X42329000Y63681950D01*
X42219767Y64231101D01*
X41908698Y64696648D01*
X41443151Y65007717D01*
X40894000Y65116950D01*
X40344849Y65007717D01*
X39879302Y64696648D01*
X39626493Y64318293D01*
X39278896Y64750500D01*
X38785819Y65020367D01*
X38703039Y65037904D01*
X38481000Y64915915D01*
X38227000Y64915915D01*
X38004961Y65037904D01*
X37922181Y65020367D01*
X37429104Y64750500D01*
X37081507Y64318293D01*
X36828698Y64696648D01*
X36363151Y65007717D01*
X35814000Y65116950D01*
X35264849Y65007717D01*
X34799302Y64696648D01*
X34701749Y64550650D01*
X34677162Y64681317D01*
X34538090Y64897441D01*
X34325890Y65042431D01*
X34074000Y65093440D01*
X32474000Y65093440D01*
X32238683Y65049162D01*
X32022559Y64910090D01*
X31877569Y64697890D01*
X31826560Y64446000D01*
X28122500Y64446000D01*
X28122500Y64932750D01*
X27963750Y65091500D01*
X27114500Y65091500D01*
X26860500Y65091500D01*
X26840500Y65091500D01*
X26840500Y65345500D01*
X26860500Y65345500D01*
X26860500Y66949750D01*
X27114500Y66949750D01*
X27114500Y65345500D01*
X27963750Y65345500D01*
X28122500Y65504250D01*
X28122500Y65627250D01*
X46190000Y65627250D01*
X46190000Y64986691D01*
X46286673Y64753302D01*
X46465301Y64574673D01*
X46698690Y64478000D01*
X47339250Y64478000D01*
X47498000Y64636750D01*
X47498000Y65786000D01*
X47752000Y65786000D01*
X47752000Y64636750D01*
X47910750Y64478000D01*
X48551310Y64478000D01*
X48784699Y64574673D01*
X48963327Y64753302D01*
X49060000Y64986691D01*
X49060000Y65627250D01*
X48901250Y65786000D01*
X47752000Y65786000D01*
X47498000Y65786000D01*
X46348750Y65786000D01*
X46190000Y65627250D01*
X28122500Y65627250D01*
X28122500Y66599809D01*
X28025827Y66833198D01*
X27847199Y67011827D01*
X27613810Y67108500D01*
X27273250Y67108500D01*
X27114500Y66949750D01*
X26860500Y66949750D01*
X26701750Y67108500D01*
X26547560Y67108500D01*
X26547560Y68060250D01*
X29029500Y68060250D01*
X29029500Y67469691D01*
X29126173Y67236302D01*
X29304801Y67057673D01*
X29538190Y66961000D01*
X30003750Y66961000D01*
X30162500Y67119750D01*
X30162500Y68219000D01*
X30416500Y68219000D01*
X30416500Y67119750D01*
X30575250Y66961000D01*
X31040810Y66961000D01*
X31274199Y67057673D01*
X31452827Y67236302D01*
X31549500Y67469691D01*
X31549500Y68060250D01*
X31480937Y68128813D01*
X46189752Y68128813D01*
X46407757Y67601200D01*
X46671683Y67336813D01*
X46465301Y67251327D01*
X46286673Y67072698D01*
X46190000Y66839309D01*
X46190000Y66198750D01*
X46348750Y66040000D01*
X47498000Y66040000D01*
X47498000Y66060000D01*
X47752000Y66060000D01*
X47752000Y66040000D01*
X48901250Y66040000D01*
X49060000Y66198750D01*
X49060000Y66839309D01*
X48963327Y67072698D01*
X48784699Y67251327D01*
X48578165Y67336876D01*
X48840824Y67599077D01*
X49059750Y68126309D01*
X49060248Y68697187D01*
X48894223Y69099000D01*
X59460060Y69099000D01*
X59460060Y67299000D01*
X59504338Y67063683D01*
X59643410Y66847559D01*
X59855610Y66702569D01*
X60107500Y66651560D01*
X60384715Y66651560D01*
X60384715Y62962800D01*
X64583286Y62962800D01*
X64583286Y66659943D01*
X64900240Y66722989D01*
X65279815Y66976613D01*
X65533439Y67356188D01*
X65622500Y67803928D01*
X65622500Y68594072D01*
X65533439Y69041812D01*
X65495228Y69099000D01*
X67842060Y69099000D01*
X67842060Y67299000D01*
X67886338Y67063683D01*
X68025410Y66847559D01*
X68237610Y66702569D01*
X68489500Y66651560D01*
X68817515Y66651560D01*
X68817515Y63013600D01*
X73016086Y63013600D01*
X73016086Y66670048D01*
X73282240Y66722989D01*
X73661815Y66976613D01*
X73915439Y67356188D01*
X74004500Y67803928D01*
X74004500Y68594072D01*
X73915439Y69041812D01*
X73834798Y69162500D01*
X76224060Y69162500D01*
X76224060Y67362500D01*
X76268338Y67127183D01*
X76407410Y66911059D01*
X76619610Y66766069D01*
X76871500Y66715060D01*
X77199515Y66715060D01*
X77199515Y63115200D01*
X81398086Y63115200D01*
X81398086Y66733548D01*
X81664240Y66786489D01*
X82043815Y67040113D01*
X82297439Y67419688D01*
X82386500Y67867428D01*
X82386500Y68657572D01*
X82297439Y69105312D01*
X82043815Y69484887D01*
X81664240Y69738511D01*
X81216500Y69827572D01*
X80768760Y69738511D01*
X80581500Y69613388D01*
X80394240Y69738511D01*
X79946500Y69827572D01*
X79498760Y69738511D01*
X79311500Y69613388D01*
X79124240Y69738511D01*
X78676500Y69827572D01*
X78228760Y69738511D01*
X78225987Y69736658D01*
X78193390Y69758931D01*
X77941500Y69809940D01*
X76871500Y69809940D01*
X76636183Y69765662D01*
X76420059Y69626590D01*
X76275069Y69414390D01*
X76224060Y69162500D01*
X73834798Y69162500D01*
X73661815Y69421387D01*
X73282240Y69675011D01*
X72834500Y69764072D01*
X72386760Y69675011D01*
X72199500Y69549888D01*
X72012240Y69675011D01*
X71564500Y69764072D01*
X71116760Y69675011D01*
X70929500Y69549888D01*
X70742240Y69675011D01*
X70294500Y69764072D01*
X69846760Y69675011D01*
X69843987Y69673158D01*
X69811390Y69695431D01*
X69559500Y69746440D01*
X68489500Y69746440D01*
X68254183Y69702162D01*
X68038059Y69563090D01*
X67893069Y69350890D01*
X67842060Y69099000D01*
X65495228Y69099000D01*
X65279815Y69421387D01*
X64900240Y69675011D01*
X64452500Y69764072D01*
X64004760Y69675011D01*
X63817500Y69549888D01*
X63630240Y69675011D01*
X63182500Y69764072D01*
X62734760Y69675011D01*
X62547500Y69549888D01*
X62360240Y69675011D01*
X61912500Y69764072D01*
X61464760Y69675011D01*
X61461987Y69673158D01*
X61429390Y69695431D01*
X61177500Y69746440D01*
X60107500Y69746440D01*
X59872183Y69702162D01*
X59656059Y69563090D01*
X59511069Y69350890D01*
X59460060Y69099000D01*
X48894223Y69099000D01*
X48842243Y69224800D01*
X48438923Y69628824D01*
X47911691Y69847750D01*
X47340813Y69848248D01*
X46813200Y69630243D01*
X46409176Y69226923D01*
X46190250Y68699691D01*
X46189752Y68128813D01*
X31480937Y68128813D01*
X31390750Y68219000D01*
X30416500Y68219000D01*
X30162500Y68219000D01*
X29188250Y68219000D01*
X29029500Y68060250D01*
X26547560Y68060250D01*
X26547560Y68880339D01*
X26483999Y69199880D01*
X26302994Y69470773D01*
X25892464Y69881303D01*
X25621571Y70062308D01*
X25302030Y70125869D01*
X20317012Y70125869D01*
X19997472Y70062309D01*
X19726578Y69881303D01*
X18777066Y68931791D01*
X18765472Y68914440D01*
X18717500Y68914440D01*
X18482183Y68870162D01*
X18266059Y68731090D01*
X18121069Y68518890D01*
X18070060Y68267000D01*
X18070060Y66767000D01*
X18114338Y66531683D01*
X18253410Y66315559D01*
X18465610Y66170569D01*
X18478697Y66167919D01*
X18266059Y66031090D01*
X18121069Y65818890D01*
X18070060Y65567000D01*
X18070060Y64067000D01*
X18114338Y63831683D01*
X18253410Y63615559D01*
X18358688Y63543625D01*
X18271069Y63415390D01*
X18220060Y63163500D01*
X18220060Y60653500D01*
X18264338Y60418183D01*
X18403410Y60202059D01*
X18615610Y60057069D01*
X18867500Y60006060D01*
X19331072Y60006060D01*
X20459177Y58877955D01*
X20458760Y58399715D01*
X20669169Y57890485D01*
X21058436Y57500539D01*
X21567298Y57289241D01*
X22048311Y57288821D01*
X22668403Y56668729D01*
X22513559Y56569090D01*
X22415000Y56424844D01*
X22415000Y56581250D01*
X22256250Y56740000D01*
X22188690Y56740000D01*
X21955301Y56643327D01*
X21776673Y56464698D01*
X21680000Y56231309D01*
X21680000Y55610750D01*
X21838750Y55452000D01*
X22317560Y55452000D01*
X22317560Y55198000D01*
X21838750Y55198000D01*
X21680000Y55039250D01*
X21680000Y54418691D01*
X21776673Y54185302D01*
X21955301Y54006673D01*
X22029565Y53975912D01*
X21863559Y53869090D01*
X21718569Y53656890D01*
X21667560Y53405000D01*
X21667560Y52801428D01*
X19335566Y50469434D01*
X19154561Y50198541D01*
X19140219Y50126440D01*
X18576000Y50126440D01*
X18340683Y50082162D01*
X18124559Y49943090D01*
X17979569Y49730890D01*
X17928560Y49479000D01*
X17928560Y49168000D01*
X11399103Y49168000D01*
X11627434Y49320566D01*
X12147434Y49840566D01*
X12194202Y49910559D01*
X12328439Y50111459D01*
X12350882Y50224287D01*
X12552000Y50183560D01*
X13102000Y50183560D01*
X13337317Y50227838D01*
X13452815Y50302159D01*
X13462301Y50292673D01*
X13695690Y50196000D01*
X13811250Y50196000D01*
X13970000Y50354750D01*
X13970000Y51579000D01*
X14224000Y51579000D01*
X14224000Y50354750D01*
X14382750Y50196000D01*
X14498310Y50196000D01*
X14731699Y50292673D01*
X14910327Y50471302D01*
X15007000Y50704691D01*
X15007000Y51420250D01*
X14848250Y51579000D01*
X14224000Y51579000D01*
X13970000Y51579000D01*
X13950000Y51579000D01*
X13950000Y51833000D01*
X13970000Y51833000D01*
X13970000Y53057250D01*
X14224000Y53057250D01*
X14224000Y51833000D01*
X14848250Y51833000D01*
X15007000Y51991750D01*
X15007000Y52707309D01*
X14910327Y52940698D01*
X14731699Y53119327D01*
X14498310Y53216000D01*
X14382750Y53216000D01*
X14224000Y53057250D01*
X13970000Y53057250D01*
X13811250Y53216000D01*
X13695690Y53216000D01*
X13662000Y53202045D01*
X13662000Y55189000D01*
X13604024Y55480465D01*
X13648000Y55471560D01*
X15148000Y55471560D01*
X15383317Y55515838D01*
X15599441Y55654910D01*
X15744431Y55867110D01*
X15751191Y55900490D01*
X15809673Y55759301D01*
X15988302Y55580673D01*
X16221691Y55484000D01*
X16812250Y55484000D01*
X16971000Y55642750D01*
X16971000Y56642000D01*
X17225000Y56642000D01*
X17225000Y55642750D01*
X17383750Y55484000D01*
X17974309Y55484000D01*
X18207698Y55580673D01*
X18386327Y55759301D01*
X18483000Y55992690D01*
X18483000Y56483250D01*
X18324250Y56642000D01*
X17225000Y56642000D01*
X16971000Y56642000D01*
X16951000Y56642000D01*
X16951000Y56896000D01*
X16971000Y56896000D01*
X16971000Y57895250D01*
X17225000Y57895250D01*
X17225000Y56896000D01*
X18324250Y56896000D01*
X18483000Y57054750D01*
X18483000Y57545310D01*
X18386327Y57778699D01*
X18207698Y57957327D01*
X17974309Y58054000D01*
X17383750Y58054000D01*
X17225000Y57895250D01*
X16971000Y57895250D01*
X16812250Y58054000D01*
X16221691Y58054000D01*
X15988302Y57957327D01*
X15809673Y57778699D01*
X15753346Y57642713D01*
X15751162Y57654317D01*
X15612090Y57870441D01*
X15399890Y58015431D01*
X15148000Y58066440D01*
X13648000Y58066440D01*
X13412683Y58022162D01*
X13196559Y57883090D01*
X13051569Y57670890D01*
X13038023Y57604000D01*
X12971440Y57604000D01*
X12971440Y58772000D01*
X12927162Y59007317D01*
X12788090Y59223441D01*
X12575890Y59368431D01*
X12324000Y59419440D01*
X11993928Y59419440D01*
X12103441Y59489910D01*
X12248431Y59702110D01*
X12256914Y59744000D01*
X12496500Y59744000D01*
X12816041Y59807561D01*
X13086934Y59988566D01*
X14132434Y61034066D01*
X14201253Y61137061D01*
X14313439Y61304959D01*
X14329172Y61384054D01*
X14527317Y61421338D01*
X14743441Y61560410D01*
X14888431Y61772610D01*
X14939440Y62024500D01*
X14939440Y63324500D01*
X14895162Y63559817D01*
X14756090Y63775941D01*
X14543890Y63920931D01*
X14292000Y63971940D01*
X12792000Y63971940D01*
X12556683Y63927662D01*
X12340559Y63788590D01*
X12195569Y63576390D01*
X12192919Y63563303D01*
X12056090Y63775941D01*
X11843890Y63920931D01*
X11592000Y63971940D01*
X10092000Y63971940D01*
X9856683Y63927662D01*
X9640559Y63788590D01*
X9495569Y63576390D01*
X9482023Y63509500D01*
X4241750Y63509500D01*
X4237296Y63508614D01*
X3999614Y63508614D01*
X3680073Y63445053D01*
X3410506Y63264934D01*
X3409180Y63264048D01*
X710000Y60564868D01*
X710000Y65627250D01*
X1802000Y65627250D01*
X1802000Y64286691D01*
X1898673Y64053302D01*
X2077301Y63874673D01*
X2310690Y63778000D01*
X3651250Y63778000D01*
X3810000Y63936750D01*
X3810000Y65786000D01*
X4064000Y65786000D01*
X4064000Y63936750D01*
X4222750Y63778000D01*
X5563310Y63778000D01*
X5796699Y63874673D01*
X5975327Y64053302D01*
X6072000Y64286691D01*
X6072000Y65627250D01*
X5913250Y65786000D01*
X4064000Y65786000D01*
X3810000Y65786000D01*
X1960750Y65786000D01*
X1802000Y65627250D01*
X710000Y65627250D01*
X710000Y67539309D01*
X1802000Y67539309D01*
X1802000Y66198750D01*
X1960750Y66040000D01*
X3810000Y66040000D01*
X3810000Y67889250D01*
X4064000Y67889250D01*
X4064000Y66040000D01*
X5913250Y66040000D01*
X6072000Y66198750D01*
X6072000Y67539309D01*
X5975327Y67772698D01*
X5796699Y67951327D01*
X5563310Y68048000D01*
X4222750Y68048000D01*
X4064000Y67889250D01*
X3810000Y67889250D01*
X3651250Y68048000D01*
X2310690Y68048000D01*
X2077301Y67951327D01*
X1898673Y67772698D01*
X1802000Y67539309D01*
X710000Y67539309D01*
X710000Y72950000D01*
X3082498Y72950000D01*
X2729200Y72804020D01*
M02*
