M48
;DRILL file {KiCad 4.0.7} date 03/18/18 12:41:30
;FORMAT={-:-/ absolute / inch / decimal}
FMAT,2
INCH,TZ
T1C0.031
T2C0.035
T3C0.039
T4C0.047
%
G90
G05
M72
T1
X0.3738Y2.6076
X0.8362Y1.3735
X0.8396Y0.6735
X0.86Y2.31
X0.9414Y0.6793
X0.9439Y1.3756
X0.9562Y2.3194
X1.0426Y2.1685
X1.125Y0.47
X1.2003Y1.1347
X1.31Y2.79
X1.31Y2.49
X1.41Y2.79
X1.41Y2.49
X1.51Y2.79
X1.51Y2.49
X1.61Y2.79
X1.61Y2.49
X1.78Y0.41
X1.78Y0.11
X1.855Y1.12
X1.855Y0.82
X1.865Y2.03
X1.865Y1.73
X1.875Y2.6934
X1.875Y2.595
X1.88Y0.41
X1.88Y0.11
X1.955Y1.12
X1.955Y0.82
X1.965Y2.03
X1.965Y1.73
X1.98Y0.41
X1.98Y0.11
X2.055Y1.12
X2.055Y0.82
X2.065Y2.03
X2.065Y1.73
X2.08Y0.41
X2.08Y0.11
X2.155Y1.12
X2.155Y0.82
X2.165Y2.03
X2.165Y1.73
X2.2325Y2.4475
X2.4993Y0.76
X2.4993Y0.66
X2.4993Y0.56
X2.4993Y0.46
X2.4993Y0.36
X2.4993Y0.26
X2.4993Y0.16
X2.5833Y1.1577
X2.6559Y1.0749
X2.72Y2.183
X2.8892Y2.079
X2.9334Y1.9432
X2.945Y0.76
X2.945Y0.66
X2.945Y0.56
X2.945Y0.46
X2.945Y0.36
X2.945Y0.26
X2.945Y0.16
T2
X2.3875Y2.685
X2.4375Y2.685
X2.4875Y2.685
X2.5375Y2.685
X2.7175Y2.685
X2.7675Y2.685
X2.8175Y2.685
X2.8675Y2.685
X3.0475Y2.6875
X3.0975Y2.6875
X3.1475Y2.6875
X3.1975Y2.6875
T3
X0.155Y2.795
X0.155Y2.595
X0.165Y2.3
X0.165Y2.1
X0.165Y1.32
X0.165Y1.12
X0.225Y0.19
X0.425Y0.19
X1.895Y0.565
X1.965Y1.28
X2.1Y2.235
X2.4125Y2.16
X2.4125Y2.06
X2.4125Y1.96
X2.4975Y1.775
X2.4975Y1.675
X2.4975Y1.575
X2.4975Y1.475
X2.4975Y1.375
X2.4975Y1.275
T4
X1.106Y0.681
X1.175Y1.365
X1.195Y2.275
X1.706Y0.681
X1.775Y1.365
X1.795Y2.275
T0
M30
