M48
;DRILL file {KiCad 4.0.7} date 02/28/18 17:10:53
;FORMAT={-:-/ absolute / inch / decimal}
FMAT,2
INCH,TZ
T1C0.031
T2C0.039
T3C0.047
%
G90
G05
M72
T1
X0.4421Y0.685
X0.4421Y0.385
X0.5421Y0.685
X0.5421Y0.385
X0.6421Y0.685
X0.6421Y0.385
X0.7421Y0.685
X0.7421Y0.385
X0.7965Y1.2
X0.7965Y1.1
X0.7965Y1.
X0.7965Y0.9
X1.0965Y1.2
X1.0965Y1.1
X1.0965Y1.
X1.0965Y0.9
T2
X0.561Y1.1654
X0.939Y0.3465
T3
X1.1693Y0.248
X1.7693Y0.248
T0
M30
