G04 #@! TF.FileFunction,Copper,L2,Bot,Signal*
%FSLAX46Y46*%
G04 Gerber Fmt 4.6, Leading zero omitted, Abs format (unit mm)*
G04 Created by KiCad (PCBNEW 4.0.7) date 03/18/18 12:41:27*
%MOMM*%
%LPD*%
G01*
G04 APERTURE LIST*
%ADD10C,0.100000*%
%ADD11C,0.300000*%
%ADD12R,1.250000X1.500000*%
%ADD13O,2.000000X1.200000*%
%ADD14R,1.500000X1.250000*%
%ADD15R,3.750000X2.500000*%
%ADD16R,1.600000X1.600000*%
%ADD17C,1.600000*%
%ADD18R,2.500000X3.750000*%
%ADD19R,1.070000X1.800000*%
%ADD20O,1.070000X1.800000*%
%ADD21R,1.700000X1.700000*%
%ADD22O,1.700000X1.700000*%
%ADD23R,3.000000X3.000000*%
%ADD24C,3.000000*%
%ADD25R,1.300000X1.500000*%
%ADD26C,2.400000*%
%ADD27O,2.400000X2.400000*%
%ADD28R,3.800000X2.000000*%
%ADD29R,1.500000X2.000000*%
%ADD30R,1.600000X2.400000*%
%ADD31O,1.600000X2.400000*%
%ADD32R,0.550000X1.600000*%
%ADD33R,1.600000X0.550000*%
%ADD34C,1.500000*%
%ADD35C,0.400000*%
%ADD36C,0.800000*%
%ADD37C,0.254000*%
G04 APERTURE END LIST*
D10*
D11*
X4718857Y15656642D02*
X4790286Y15442356D01*
X4861714Y15370928D01*
X5004571Y15299499D01*
X5218857Y15299499D01*
X5361714Y15370928D01*
X5433143Y15442356D01*
X5504571Y15585214D01*
X5504571Y16156642D01*
X4004571Y16156642D01*
X4004571Y15656642D01*
X4076000Y15513785D01*
X4147429Y15442356D01*
X4290286Y15370928D01*
X4433143Y15370928D01*
X4576000Y15442356D01*
X4647429Y15513785D01*
X4718857Y15656642D01*
X4718857Y16156642D01*
X4004571Y14799499D02*
X4004571Y13870928D01*
X4576000Y14370928D01*
X4576000Y14156642D01*
X4647429Y14013785D01*
X4718857Y13942356D01*
X4861714Y13870928D01*
X5218857Y13870928D01*
X5361714Y13942356D01*
X5433143Y14013785D01*
X5504571Y14156642D01*
X5504571Y14585214D01*
X5433143Y14728071D01*
X5361714Y14799499D01*
X4274357Y40929642D02*
X4345786Y40715356D01*
X4417214Y40643928D01*
X4560071Y40572499D01*
X4774357Y40572499D01*
X4917214Y40643928D01*
X4988643Y40715356D01*
X5060071Y40858214D01*
X5060071Y41429642D01*
X3560071Y41429642D01*
X3560071Y40929642D01*
X3631500Y40786785D01*
X3702929Y40715356D01*
X3845786Y40643928D01*
X3988643Y40643928D01*
X4131500Y40715356D01*
X4202929Y40786785D01*
X4274357Y40929642D01*
X4274357Y41429642D01*
X5060071Y39143928D02*
X5060071Y40001071D01*
X5060071Y39572499D02*
X3560071Y39572499D01*
X3774357Y39715356D01*
X3917214Y39858214D01*
X3988643Y40001071D01*
X4210857Y49184642D02*
X4282286Y48970356D01*
X4353714Y48898928D01*
X4496571Y48827499D01*
X4710857Y48827499D01*
X4853714Y48898928D01*
X4925143Y48970356D01*
X4996571Y49113214D01*
X4996571Y49684642D01*
X3496571Y49684642D01*
X3496571Y49184642D01*
X3568000Y49041785D01*
X3639429Y48970356D01*
X3782286Y48898928D01*
X3925143Y48898928D01*
X4068000Y48970356D01*
X4139429Y49041785D01*
X4210857Y49184642D01*
X4210857Y49684642D01*
X3639429Y48256071D02*
X3568000Y48184642D01*
X3496571Y48041785D01*
X3496571Y47684642D01*
X3568000Y47541785D01*
X3639429Y47470356D01*
X3782286Y47398928D01*
X3925143Y47398928D01*
X4139429Y47470356D01*
X4996571Y48327499D01*
X4996571Y47398928D01*
D12*
X72542400Y46425800D03*
X72542400Y48925800D03*
D13*
X74803000Y4064000D03*
X63483000Y4064000D03*
X74803000Y6604000D03*
X63483000Y6604000D03*
X74803000Y9144000D03*
X63483000Y9144000D03*
X74803000Y11684000D03*
X63483000Y11684000D03*
X74803000Y14224000D03*
X63483000Y14224000D03*
X74803000Y16764000D03*
X63483000Y16764000D03*
X74803000Y19304000D03*
X63483000Y19304000D03*
D12*
X77025500Y31496000D03*
X77025500Y28996000D03*
D14*
X66822000Y2921000D03*
X69322000Y2921000D03*
D15*
X35356000Y58039000D03*
X41606000Y58039000D03*
D12*
X19240500Y64472500D03*
X19240500Y66972500D03*
X14414500Y64472500D03*
X14414500Y66972500D03*
X29972000Y63393000D03*
X29972000Y65893000D03*
D16*
X47625000Y65913000D03*
D17*
X47625000Y68413000D03*
D14*
X41485500Y28448000D03*
X43985500Y28448000D03*
X41930000Y51689000D03*
X44430000Y51689000D03*
X39707500Y10477500D03*
X42207500Y10477500D03*
D18*
X81470500Y31559500D03*
X81470500Y25309500D03*
D12*
X60452000Y45166600D03*
X60452000Y42666600D03*
X73202800Y31196600D03*
X73202800Y28696600D03*
D19*
X69024500Y68199000D03*
D20*
X70294500Y68199000D03*
X71564500Y68199000D03*
X72834500Y68199000D03*
D19*
X77406500Y68262500D03*
D20*
X78676500Y68262500D03*
X79946500Y68262500D03*
X81216500Y68262500D03*
D19*
X60642500Y68199000D03*
D20*
X61912500Y68199000D03*
X63182500Y68199000D03*
X64452500Y68199000D03*
D21*
X63436500Y45085000D03*
D22*
X63436500Y42545000D03*
X63436500Y40005000D03*
X63436500Y37465000D03*
X63436500Y34925000D03*
X63436500Y32385000D03*
D23*
X3937000Y65913000D03*
D24*
X3937000Y70993000D03*
D23*
X4191000Y33528000D03*
D24*
X4191000Y28448000D03*
D23*
X4191000Y58420000D03*
D24*
X4191000Y53340000D03*
D23*
X5715000Y4826000D03*
D24*
X10795000Y4826000D03*
D21*
X61277500Y54864000D03*
D22*
X61277500Y52324000D03*
X61277500Y49784000D03*
D25*
X25019000Y63467000D03*
X25019000Y66167000D03*
X27686000Y63420000D03*
X27686000Y66120000D03*
D26*
X29845000Y34671000D03*
D27*
X45085000Y34671000D03*
D26*
X30353000Y57785000D03*
D27*
X45593000Y57785000D03*
D26*
X28092400Y17297400D03*
D27*
X43332400Y17297400D03*
D25*
X60502800Y37283400D03*
X60502800Y39983400D03*
X68961000Y64278500D03*
X68961000Y61578500D03*
X77470000Y64342000D03*
X77470000Y61642000D03*
X60642500Y64469000D03*
X60642500Y61769000D03*
X74041000Y64262000D03*
X74041000Y61562000D03*
X82232500Y64325500D03*
X82232500Y61625500D03*
X65849500Y64452500D03*
X65849500Y61752500D03*
X71564500Y64198500D03*
X71564500Y61498500D03*
X79946500Y64325500D03*
X79946500Y61625500D03*
X63246000Y64485500D03*
X63246000Y61785500D03*
D21*
X49911000Y32512000D03*
X53340000Y56769000D03*
X48133000Y14351000D03*
D28*
X16813500Y54977500D03*
D29*
X16813500Y61277500D03*
X19113500Y61277500D03*
X14513500Y61277500D03*
D30*
X33274000Y63246000D03*
D31*
X40894000Y70866000D03*
X35814000Y63246000D03*
X38354000Y70866000D03*
X38354000Y63246000D03*
X35814000Y70866000D03*
X40894000Y63246000D03*
X33274000Y70866000D03*
D30*
X54737000Y28448000D03*
D31*
X47117000Y20828000D03*
X52197000Y28448000D03*
X49657000Y20828000D03*
X49657000Y28448000D03*
X52197000Y20828000D03*
X47117000Y28448000D03*
X54737000Y20828000D03*
D30*
X54991000Y51562000D03*
D31*
X47371000Y43942000D03*
X52451000Y51562000D03*
X49911000Y43942000D03*
X49911000Y51562000D03*
X52451000Y43942000D03*
X47371000Y51562000D03*
X54991000Y43942000D03*
D30*
X52832000Y10414000D03*
D31*
X45212000Y2794000D03*
X50292000Y10414000D03*
X47752000Y2794000D03*
X47752000Y10414000D03*
X50292000Y2794000D03*
X45212000Y10414000D03*
X52832000Y2794000D03*
D32*
X70164372Y42950272D03*
X70964372Y42950272D03*
X71764372Y42950272D03*
X72564372Y42950272D03*
X73364372Y42950272D03*
X74164372Y42950272D03*
X74964372Y42950272D03*
X75764372Y42950272D03*
D33*
X77214372Y41500272D03*
X77214372Y40700272D03*
X77214372Y39900272D03*
X77214372Y39100272D03*
X77214372Y38300272D03*
X77214372Y37500272D03*
X77214372Y36700272D03*
X77214372Y35900272D03*
D32*
X75764372Y34450272D03*
X74964372Y34450272D03*
X74164372Y34450272D03*
X73364372Y34450272D03*
X72564372Y34450272D03*
X71764372Y34450272D03*
X70964372Y34450272D03*
X70164372Y34450272D03*
D33*
X68714372Y35900272D03*
X68714372Y36700272D03*
X68714372Y37500272D03*
X68714372Y38300272D03*
X68714372Y39100272D03*
X68714372Y39900272D03*
X68714372Y40700272D03*
X68714372Y41500272D03*
D34*
X30486599Y28822105D03*
X26481492Y55080568D03*
X28575000Y11938000D03*
X69088000Y55448200D03*
X9494654Y66232267D03*
X56705500Y62166500D03*
X21240580Y34886958D03*
X21327013Y17107807D03*
X67460171Y27302981D03*
X21844000Y58674000D03*
X23975953Y34941124D03*
X23910374Y17254589D03*
X65615666Y29406796D03*
X24286490Y58913601D03*
X74509094Y49357140D03*
X73386511Y52807029D03*
D35*
X57912000Y53345352D02*
X56674867Y54582485D01*
X60502800Y37283400D02*
X59452800Y37283400D01*
X59452800Y37283400D02*
X57912000Y38824200D01*
X57912000Y38824200D02*
X57912000Y53345352D01*
X60502800Y37283400D02*
X63254900Y37283400D01*
X63254900Y37283400D02*
X63436500Y37465000D01*
X74164372Y42950272D02*
X74164372Y45828828D01*
X74164372Y45828828D02*
X73567400Y46425800D01*
X73567400Y46425800D02*
X72542400Y46425800D01*
X72564372Y42950272D02*
X72564372Y46403828D01*
X72564372Y46403828D02*
X72542400Y46425800D01*
X74964372Y34450272D02*
X74964372Y39208628D01*
X74964372Y39208628D02*
X74164372Y40008628D01*
X74164372Y40008628D02*
X74164372Y41750272D01*
X74164372Y41750272D02*
X74164372Y42950272D01*
X51625500Y57213500D02*
X49072800Y54660800D01*
X49072800Y54660800D02*
X48632800Y54220800D01*
X56674867Y54582485D02*
X49151115Y54582485D01*
X49151115Y54582485D02*
X49072800Y54660800D01*
X19113500Y61277500D02*
X19113500Y64345500D01*
X19113500Y64345500D02*
X19240500Y64472500D01*
X29736600Y29572104D02*
X30486599Y28822105D01*
X26481492Y32827212D02*
X29736600Y29572104D01*
X26481492Y55080568D02*
X26481492Y32827212D01*
X30341130Y28676636D02*
X30486599Y28822105D01*
X30060864Y28676636D02*
X30341130Y28676636D01*
X30035500Y28702000D02*
X30060864Y28676636D01*
X63483000Y4064000D02*
X64516000Y4064000D01*
X64516000Y4064000D02*
X64883000Y4064000D01*
X66822000Y2921000D02*
X66697000Y2921000D01*
X66697000Y2921000D02*
X65554000Y4064000D01*
X65554000Y4064000D02*
X64516000Y4064000D01*
X62083000Y4064000D02*
X61332689Y4814311D01*
X50292000Y3194000D02*
X50292000Y2794000D01*
X51912311Y4814311D02*
X50292000Y3194000D01*
X63483000Y4064000D02*
X62083000Y4064000D01*
X61332689Y4814311D02*
X51912311Y4814311D01*
X52197000Y20428000D02*
X52197000Y20828000D01*
X85534500Y35340500D02*
X85534500Y35750500D01*
X85534500Y35750500D02*
X85534500Y68389500D01*
X81470500Y31559500D02*
X83120500Y31559500D01*
X83120500Y31559500D02*
X85534500Y33973500D01*
X85534500Y33973500D02*
X85534500Y35750500D01*
X77025500Y31496000D02*
X81407000Y31496000D01*
X81407000Y31496000D02*
X81470500Y31559500D01*
X77025500Y31496000D02*
X76000500Y31496000D01*
X76000500Y31496000D02*
X74964372Y32532128D01*
X74964372Y32532128D02*
X74964372Y33250272D01*
X74964372Y33250272D02*
X74964372Y34450272D01*
X50292000Y2394000D02*
X50292000Y2794000D01*
X30035500Y28702000D02*
X30167947Y28569553D01*
X28575000Y11938000D02*
X30311469Y13674469D01*
X30311469Y13674469D02*
X30311469Y28426031D01*
X30311469Y28426031D02*
X30035500Y28702000D01*
X33274000Y70866000D02*
X33274000Y70466000D01*
X33274000Y70466000D02*
X32633172Y69825172D01*
X20265500Y64472500D02*
X19240500Y64472500D01*
X32633172Y69825172D02*
X25618172Y69825172D01*
X25618172Y69825172D02*
X20265500Y64472500D01*
X62898500Y70485000D02*
X57277000Y70485000D01*
X57277000Y70485000D02*
X52070000Y70485000D01*
X56782000Y70485000D02*
X57277000Y70485000D01*
X77754000Y70485000D02*
X77533500Y70485000D01*
X77533500Y70485000D02*
X72517000Y70485000D01*
X85534500Y68389500D02*
X83439000Y70485000D01*
X83439000Y70485000D02*
X77533500Y70485000D01*
X74964372Y32584628D02*
X74964372Y33083500D01*
X74964372Y33083500D02*
X74964372Y34450272D01*
X48632800Y54220800D02*
X48632800Y53784500D01*
X48632800Y53784500D02*
X48632800Y48160200D01*
X25717500Y61277500D02*
X26481492Y60513508D01*
X26481492Y60513508D02*
X26481492Y56141228D01*
X19113500Y61277500D02*
X25717500Y61277500D01*
X26481492Y56141228D02*
X26481492Y55080568D01*
X51625500Y71691500D02*
X51625500Y70929500D01*
X51625500Y70929500D02*
X51625500Y57213500D01*
X52070000Y70485000D02*
X51625500Y70929500D01*
X72517000Y70485000D02*
X70929500Y70485000D01*
X61912500Y68199000D02*
X61912500Y69499000D01*
X61912500Y69499000D02*
X62898500Y70485000D01*
X62898500Y70485000D02*
X72517000Y70485000D01*
X70929500Y70485000D02*
X70294500Y69850000D01*
X70294500Y69850000D02*
X70294500Y68199000D01*
X78676500Y68262500D02*
X78676500Y69562500D01*
X78676500Y69562500D02*
X77754000Y70485000D01*
X52451000Y43942000D02*
X52451000Y43542000D01*
X52451000Y43542000D02*
X48375677Y39466677D01*
X48375677Y39466677D02*
X48375677Y25049323D01*
X48375677Y25049323D02*
X52197000Y21228000D01*
X52197000Y21228000D02*
X52197000Y20828000D01*
X33274000Y70866000D02*
X33274000Y72466000D01*
X33274000Y72466000D02*
X33515500Y72707500D01*
X33515500Y72707500D02*
X50609500Y72707500D01*
X50609500Y72707500D02*
X51625500Y71691500D01*
X48632800Y48160200D02*
X52451000Y44342000D01*
X52451000Y44342000D02*
X52451000Y43942000D01*
X19240500Y61404500D02*
X19113500Y61277500D01*
X69757326Y53730174D02*
X69775682Y53730174D01*
X69775682Y53730174D02*
X71608000Y51897856D01*
X71608000Y51897856D02*
X71608000Y51879500D01*
X71764372Y42950272D02*
X71764372Y40259000D01*
X71764372Y40259000D02*
X71764372Y39161508D01*
X73364372Y42950272D02*
X73364372Y41750272D01*
X73364372Y41750272D02*
X71873100Y40259000D01*
X71873100Y40259000D02*
X71764372Y40259000D01*
X71764372Y39161508D02*
X72564372Y38361508D01*
X72564372Y38361508D02*
X72564372Y34450272D01*
X71764372Y42950272D02*
X71764372Y44459372D01*
X71764372Y44459372D02*
X71651959Y44459372D01*
X71651959Y44459372D02*
X67218034Y48893297D01*
X67218034Y48893297D02*
X67218034Y53460094D01*
X67218034Y53460094D02*
X67488114Y53730174D01*
X67488114Y53730174D02*
X69757326Y53730174D01*
X69757326Y53730174D02*
X69757326Y54778874D01*
X69757326Y54778874D02*
X69088000Y55448200D01*
X3937000Y65913000D02*
X9175387Y65913000D01*
X9175387Y65913000D02*
X9494654Y66232267D01*
X72564372Y34450272D02*
X72564372Y32795372D01*
X38354000Y63246000D02*
X38354000Y64846000D01*
X38354000Y64846000D02*
X39421000Y65913000D01*
X39421000Y65913000D02*
X46425000Y65913000D01*
X46425000Y65913000D02*
X47625000Y65913000D01*
X21844000Y58674000D02*
X21844000Y35490378D01*
X21327013Y34800525D02*
X21240580Y34886958D01*
X21844000Y35490378D02*
X21240580Y34886958D01*
X21327013Y17107807D02*
X21327013Y34800525D01*
X21327013Y12772487D02*
X21327013Y16047147D01*
X27051000Y7048500D02*
X21327013Y12772487D01*
X21327013Y16047147D02*
X21327013Y17107807D01*
X28646489Y5453011D02*
X27051000Y7048500D01*
X64952511Y5453011D02*
X28646489Y5453011D01*
X65595500Y6096000D02*
X64952511Y5453011D01*
X65595500Y7431500D02*
X65595500Y6096000D01*
X63883000Y9144000D02*
X65595500Y7431500D01*
X63483000Y9144000D02*
X63883000Y9144000D01*
X67514372Y37500272D02*
X67460171Y37446071D01*
X67460171Y28363641D02*
X67460171Y27302981D01*
X67460171Y37446071D02*
X67460171Y28363641D01*
X68714372Y37500272D02*
X67514372Y37500272D01*
X27114500Y6985000D02*
X27051000Y7048500D01*
X23910374Y34875545D02*
X23975953Y34941124D01*
X23910374Y17254589D02*
X23910374Y34875545D01*
X24286490Y35251661D02*
X23975953Y34941124D01*
X24286490Y58913601D02*
X24286490Y35251661D01*
X23910374Y12792626D02*
X23910374Y16193929D01*
X63483000Y6604000D02*
X30099000Y6604000D01*
X23910374Y16193929D02*
X23910374Y17254589D01*
X30099000Y6604000D02*
X23910374Y12792626D01*
X68714372Y38300272D02*
X66873257Y38300272D01*
X66873257Y38300272D02*
X65615666Y37042681D01*
X65615666Y30467456D02*
X65615666Y29406796D01*
X65615666Y37042681D02*
X65615666Y30467456D01*
X68714372Y38300272D02*
X67899370Y38300272D01*
X47371000Y51562000D02*
X47371000Y49962000D01*
X47371000Y49962000D02*
X45161200Y47752200D01*
X45161200Y38836600D02*
X47005818Y36991982D01*
X45161200Y47752200D02*
X45161200Y38836600D01*
X47005818Y36991982D02*
X47015702Y36991982D01*
X47015702Y36991982D02*
X47117000Y36890684D01*
X47117000Y36890684D02*
X47117000Y28448000D01*
X43860500Y28448000D02*
X43985500Y28448000D01*
X45212000Y27346500D02*
X44110500Y28448000D01*
X44110500Y28448000D02*
X43985500Y28448000D01*
X47625000Y68413000D02*
X49125500Y68413000D01*
X49125500Y68413000D02*
X50165000Y67373500D01*
X50165000Y67373500D02*
X50165000Y57048400D01*
X50165000Y57048400D02*
X47371000Y54254400D01*
X47371000Y54254400D02*
X47371000Y51562000D01*
X45212000Y10414000D02*
X45212000Y27346500D01*
X45212000Y10414000D02*
X42271000Y10414000D01*
X42271000Y10414000D02*
X42207500Y10477500D01*
X47117000Y28448000D02*
X43985500Y28448000D01*
X47371000Y51562000D02*
X44557000Y51562000D01*
X44557000Y51562000D02*
X44430000Y51689000D01*
X29972000Y65893000D02*
X30489308Y66410308D01*
X30489308Y66410308D02*
X37634270Y66410308D01*
X37634270Y66410308D02*
X40894000Y69670038D01*
X40894000Y69670038D02*
X40894000Y70866000D01*
X40894000Y70866000D02*
X45172000Y70866000D01*
X45172000Y70866000D02*
X47625000Y68413000D01*
X27686000Y66120000D02*
X29745000Y66120000D01*
X29745000Y66120000D02*
X29972000Y65893000D01*
X14414500Y64472500D02*
X14414500Y61376500D01*
X14414500Y61376500D02*
X14513500Y61277500D01*
D36*
X3937000Y70993000D02*
X8839200Y70993000D01*
X8839200Y70993000D02*
X11836400Y67995800D01*
X11836400Y67995800D02*
X11836400Y62103000D01*
X11836400Y62103000D02*
X12661900Y61277500D01*
X12661900Y61277500D02*
X14513500Y61277500D01*
D35*
X14513500Y61277500D02*
X14513500Y64373500D01*
X14513500Y64373500D02*
X14414500Y64472500D01*
D36*
X4048589Y70881411D02*
X3937000Y70993000D01*
X3937000Y70993000D02*
X3950247Y70979753D01*
D35*
X60452000Y45166600D02*
X63354900Y45166600D01*
X63354900Y45166600D02*
X63436500Y45085000D01*
X63500000Y45148500D02*
X63436500Y45085000D01*
X68714372Y39100272D02*
X65798073Y39100272D01*
X65798073Y39100272D02*
X65432354Y38734553D01*
X65432354Y38734553D02*
X61620847Y38734553D01*
X61620847Y38734553D02*
X61620847Y38765353D01*
X61620847Y38765353D02*
X60502800Y39883400D01*
X60502800Y39883400D02*
X60502800Y39983400D01*
X58978800Y51638200D02*
X59664600Y52324000D01*
X59664600Y52324000D02*
X61277500Y52324000D01*
X58978800Y43114800D02*
X58978800Y51638200D01*
X60452000Y42666600D02*
X59427000Y42666600D01*
X59427000Y42666600D02*
X58978800Y43114800D01*
X60502800Y39983400D02*
X60502800Y42615800D01*
X60502800Y42615800D02*
X60452000Y42666600D01*
X68961000Y64278500D02*
X68961000Y68135500D01*
X68961000Y68135500D02*
X69024500Y68199000D01*
X71564500Y64198500D02*
X71564500Y65348500D01*
X71564500Y65348500D02*
X71564500Y68199000D01*
X74041000Y64262000D02*
X74041000Y67927500D01*
X74041000Y67927500D02*
X73769500Y68199000D01*
X73769500Y68199000D02*
X72834500Y68199000D01*
X77470000Y64342000D02*
X77470000Y68199000D01*
X77470000Y68199000D02*
X77406500Y68262500D01*
X79946500Y64325500D02*
X79946500Y68262500D01*
X82232500Y64325500D02*
X82232500Y68181500D01*
X82232500Y68181500D02*
X82151500Y68262500D01*
X82151500Y68262500D02*
X81216500Y68262500D01*
X60642500Y64469000D02*
X60642500Y68199000D01*
X63246000Y64485500D02*
X63246000Y68135500D01*
X63246000Y68135500D02*
X63182500Y68199000D01*
X65849500Y64452500D02*
X65849500Y67737000D01*
X65849500Y67737000D02*
X65387500Y68199000D01*
X65387500Y68199000D02*
X64452500Y68199000D01*
X63436500Y42545000D02*
X65151000Y42545000D01*
X65151000Y42545000D02*
X66995728Y40700272D01*
X66995728Y40700272D02*
X67514372Y40700272D01*
X67514372Y40700272D02*
X68714372Y40700272D01*
X63436500Y40005000D02*
X68609644Y40005000D01*
X68609644Y40005000D02*
X68714372Y39900272D01*
X25019000Y66167000D02*
X25019000Y67317000D01*
X25019000Y67317000D02*
X25901000Y68199000D01*
X25901000Y68199000D02*
X37691231Y68199000D01*
X37691231Y68199000D02*
X38354000Y68861769D01*
X38354000Y68861769D02*
X38354000Y70866000D01*
X77214372Y41500272D02*
X78414372Y41500272D01*
X78414372Y41500272D02*
X79057500Y42143400D01*
X79057500Y42143400D02*
X79057500Y51435000D01*
X79057500Y51435000D02*
X71755637Y58736863D01*
X68961000Y59817000D02*
X68961000Y61578500D01*
X71755637Y58736863D02*
X70041137Y58736863D01*
X70041137Y58736863D02*
X68961000Y59817000D01*
X68961000Y61478500D02*
X68961000Y61578500D01*
X77214372Y39900272D02*
X78414372Y39900272D01*
X78414372Y39900272D02*
X78455600Y39941500D01*
X78455600Y39941500D02*
X80366995Y39941500D01*
X80366995Y39941500D02*
X81595801Y41170306D01*
X81595801Y52296338D02*
X75060639Y58831500D01*
X81595801Y41170306D02*
X81595801Y52296338D01*
X75060639Y58831500D02*
X75060639Y58864222D01*
X75060639Y58864222D02*
X74041000Y59883861D01*
X74041000Y59883861D02*
X74041000Y61562000D01*
X77214372Y40700272D02*
X79308272Y40700272D01*
X79308272Y40700272D02*
X80386715Y41778715D01*
X71564500Y60953290D02*
X71564500Y61498500D01*
X80386715Y41778715D02*
X80386715Y52131075D01*
X80386715Y52131075D02*
X71564500Y60953290D01*
X77470000Y60769500D02*
X77597000Y60642500D01*
X77597000Y60642500D02*
X77597000Y57761500D01*
X77597000Y57761500D02*
X82575574Y52782926D01*
X82575574Y52782926D02*
X82575574Y40763692D01*
X82575574Y40763692D02*
X80912154Y39100272D01*
X80912154Y39100272D02*
X77214372Y39100272D01*
X77470000Y61642000D02*
X77470000Y60769500D01*
X77470000Y60769500D02*
X77470000Y60492000D01*
X82232500Y61625500D02*
X82232500Y59022000D01*
X82232500Y59022000D02*
X84307476Y56947024D01*
X84307476Y56947024D02*
X84307476Y40010690D01*
X84307476Y40010690D02*
X81797058Y37500272D01*
X81797058Y37500272D02*
X77214372Y37500272D01*
X79946500Y61625500D02*
X79946500Y57872000D01*
X79946500Y57872000D02*
X83403875Y54414625D01*
X83403875Y54414625D02*
X83403875Y40387191D01*
X83403875Y40387191D02*
X81316956Y38300272D01*
X81316956Y38300272D02*
X77214372Y38300272D01*
X68714372Y41500272D02*
X68714372Y42928372D01*
X60642500Y60619000D02*
X60642500Y61769000D01*
X68714372Y42928372D02*
X63461475Y48181269D01*
X63461475Y48181269D02*
X63461475Y57800025D01*
X63461475Y57800025D02*
X60642500Y60619000D01*
X65849500Y61752500D02*
X65849500Y49279724D01*
X65849500Y49279724D02*
X70964372Y44164852D01*
X70964372Y44164852D02*
X70964372Y44150272D01*
X70964372Y44150272D02*
X70964372Y42950272D01*
X70164372Y42950272D02*
X70141080Y42950272D01*
X70141080Y42950272D02*
X64566345Y48525007D01*
X64566345Y48525007D02*
X64566345Y58814155D01*
X64566345Y58814155D02*
X63246000Y60134500D01*
X63246000Y60134500D02*
X63246000Y61785500D01*
X74803000Y14224000D02*
X71305234Y14224000D01*
X71305234Y14224000D02*
X69971734Y15557500D01*
X55168800Y24409400D02*
X51054000Y24409400D01*
X69971734Y15557500D02*
X61380440Y15557500D01*
X51054000Y24409400D02*
X49657000Y25806400D01*
X61380440Y15557500D02*
X57065501Y19872439D01*
X57065501Y19872439D02*
X57065501Y22512699D01*
X49657000Y25806400D02*
X49657000Y28448000D01*
X57065501Y22512699D02*
X55168800Y24409400D01*
X49657000Y28048000D02*
X49657000Y28448000D01*
X74803000Y9144000D02*
X70901009Y9144000D01*
X70901009Y9144000D02*
X69694509Y10350500D01*
X69694509Y10350500D02*
X58229500Y10350500D01*
X58229500Y10350500D02*
X55562500Y7683500D01*
X55562500Y7683500D02*
X48323500Y7683500D01*
X48323500Y7683500D02*
X47752000Y8255000D01*
X47752000Y8255000D02*
X47752000Y10414000D01*
X49911000Y51562000D02*
X49911000Y49593500D01*
X62676408Y17963579D02*
X76067571Y17963579D01*
X77633434Y13114434D02*
X76203000Y11684000D01*
X49911000Y49593500D02*
X50673000Y48831500D01*
X77633434Y16397716D02*
X77633434Y13114434D01*
X50673000Y48831500D02*
X54956601Y48831500D01*
X54956601Y48831500D02*
X56859914Y46928187D01*
X56859914Y46928187D02*
X56859914Y33030686D01*
X56859914Y33030686D02*
X60361210Y29529390D01*
X60361210Y29529390D02*
X60361210Y20278777D01*
X60361210Y20278777D02*
X62676408Y17963579D01*
X76067571Y17963579D02*
X77633434Y16397716D01*
X76203000Y11684000D02*
X74803000Y11684000D01*
X35814000Y63246000D02*
X35814000Y58497000D01*
X35814000Y58497000D02*
X35356000Y58039000D01*
X40894000Y63246000D02*
X40894000Y58751000D01*
X40894000Y58751000D02*
X41606000Y58039000D01*
X25019000Y63467000D02*
X27639000Y63467000D01*
X27639000Y63467000D02*
X27686000Y63420000D01*
X33274000Y63246000D02*
X30119000Y63246000D01*
X30119000Y63246000D02*
X29972000Y63393000D01*
X27686000Y63420000D02*
X29945000Y63420000D01*
X29945000Y63420000D02*
X29972000Y63393000D01*
X33274000Y63246000D02*
X31772000Y63246000D01*
X29972000Y63268000D02*
X29972000Y63393000D01*
X74964372Y48901862D02*
X74509094Y49357140D01*
X74964372Y42950272D02*
X74964372Y48901862D01*
X73364372Y34450272D02*
X73364372Y31358172D01*
X73364372Y31358172D02*
X73202800Y31196600D01*
X75764372Y42950272D02*
X75795957Y42981857D01*
X75795957Y42981857D02*
X75795957Y50397583D01*
X75795957Y50397583D02*
X74136510Y52057030D01*
X74136510Y52057030D02*
X73386511Y52807029D01*
D37*
G36*
X2729200Y72804020D02*
X2128091Y72203959D01*
X1802372Y71419541D01*
X1801630Y70570185D01*
X2125980Y69785200D01*
X2726041Y69184091D01*
X3510459Y68858372D01*
X4359815Y68857630D01*
X5144800Y69181980D01*
X5745909Y69782041D01*
X5818974Y69958000D01*
X8410488Y69958000D01*
X10801400Y67567089D01*
X10801400Y62103005D01*
X10801399Y62103000D01*
X10880185Y61706923D01*
X11104544Y61371144D01*
X11930042Y60545647D01*
X11930044Y60545644D01*
X12112010Y60424059D01*
X12265822Y60321285D01*
X12661900Y60242500D01*
X13122646Y60242500D01*
X13160338Y60042183D01*
X13299410Y59826059D01*
X13511610Y59681069D01*
X13763500Y59630060D01*
X15263500Y59630060D01*
X15498817Y59674338D01*
X15662992Y59779982D01*
X15703801Y59739173D01*
X15937190Y59642500D01*
X16527750Y59642500D01*
X16686500Y59801250D01*
X16686500Y61150500D01*
X16666500Y61150500D01*
X16666500Y61404500D01*
X16686500Y61404500D01*
X16686500Y62753750D01*
X16527750Y62912500D01*
X15937190Y62912500D01*
X15703801Y62815827D01*
X15661840Y62773866D01*
X15515390Y62873931D01*
X15348500Y62907727D01*
X15348500Y63166752D01*
X15490941Y63258410D01*
X15635931Y63470610D01*
X15686940Y63722500D01*
X15686940Y65222500D01*
X15642662Y65457817D01*
X15503590Y65673941D01*
X15435494Y65720469D01*
X15577827Y65862802D01*
X15674500Y66096191D01*
X15674500Y66686750D01*
X15515750Y66845500D01*
X14541500Y66845500D01*
X14541500Y66825500D01*
X14287500Y66825500D01*
X14287500Y66845500D01*
X13313250Y66845500D01*
X13154500Y66686750D01*
X13154500Y66096191D01*
X13251173Y65862802D01*
X13392410Y65721564D01*
X13338059Y65686590D01*
X13193069Y65474390D01*
X13142060Y65222500D01*
X13142060Y63722500D01*
X13186338Y63487183D01*
X13325410Y63271059D01*
X13537610Y63126069D01*
X13579500Y63117586D01*
X13579500Y62890318D01*
X13528183Y62880662D01*
X13312059Y62741590D01*
X13167069Y62529390D01*
X13123148Y62312500D01*
X13090611Y62312500D01*
X12871400Y62531712D01*
X12871400Y67848809D01*
X13154500Y67848809D01*
X13154500Y67258250D01*
X13313250Y67099500D01*
X14287500Y67099500D01*
X14287500Y68198750D01*
X14541500Y68198750D01*
X14541500Y67099500D01*
X15515750Y67099500D01*
X15674500Y67258250D01*
X15674500Y67848809D01*
X17980500Y67848809D01*
X17980500Y67258250D01*
X18139250Y67099500D01*
X19113500Y67099500D01*
X19113500Y68198750D01*
X19367500Y68198750D01*
X19367500Y67099500D01*
X20341750Y67099500D01*
X20500500Y67258250D01*
X20500500Y67848809D01*
X20403827Y68082198D01*
X20225199Y68260827D01*
X19991810Y68357500D01*
X19526250Y68357500D01*
X19367500Y68198750D01*
X19113500Y68198750D01*
X18954750Y68357500D01*
X18489190Y68357500D01*
X18255801Y68260827D01*
X18077173Y68082198D01*
X17980500Y67848809D01*
X15674500Y67848809D01*
X15577827Y68082198D01*
X15399199Y68260827D01*
X15165810Y68357500D01*
X14700250Y68357500D01*
X14541500Y68198750D01*
X14287500Y68198750D01*
X14128750Y68357500D01*
X13663190Y68357500D01*
X13429801Y68260827D01*
X13251173Y68082198D01*
X13154500Y67848809D01*
X12871400Y67848809D01*
X12871400Y67995795D01*
X12871401Y67995800D01*
X12792615Y68391877D01*
X12692154Y68542228D01*
X12568256Y68727656D01*
X12568253Y68727658D01*
X9571056Y71724856D01*
X9235277Y71949215D01*
X8839200Y72028001D01*
X8839195Y72028000D01*
X5819420Y72028000D01*
X5748020Y72200800D01*
X5147959Y72801909D01*
X4791316Y72950000D01*
X32612449Y72950000D01*
X32502561Y72785541D01*
X32439000Y72466000D01*
X32439000Y72436719D01*
X32259302Y72316648D01*
X31948233Y71851101D01*
X31839000Y71301950D01*
X31839000Y70660172D01*
X25618172Y70660172D01*
X25298631Y70596611D01*
X25103158Y70466000D01*
X25027738Y70415606D01*
X20303737Y65691605D01*
X20261494Y65720469D01*
X20403827Y65862802D01*
X20500500Y66096191D01*
X20500500Y66686750D01*
X20341750Y66845500D01*
X19367500Y66845500D01*
X19367500Y66825500D01*
X19113500Y66825500D01*
X19113500Y66845500D01*
X18139250Y66845500D01*
X17980500Y66686750D01*
X17980500Y66096191D01*
X18077173Y65862802D01*
X18218410Y65721564D01*
X18164059Y65686590D01*
X18019069Y65474390D01*
X17968060Y65222500D01*
X17968060Y63722500D01*
X18012338Y63487183D01*
X18151410Y63271059D01*
X18278500Y63184222D01*
X18278500Y62908946D01*
X18128183Y62880662D01*
X17964008Y62775018D01*
X17923199Y62815827D01*
X17689810Y62912500D01*
X17099250Y62912500D01*
X16940500Y62753750D01*
X16940500Y61404500D01*
X16960500Y61404500D01*
X16960500Y61150500D01*
X16940500Y61150500D01*
X16940500Y59801250D01*
X17099250Y59642500D01*
X17689810Y59642500D01*
X17923199Y59739173D01*
X17965160Y59781134D01*
X18111610Y59681069D01*
X18363500Y59630060D01*
X19863500Y59630060D01*
X20098817Y59674338D01*
X20314941Y59813410D01*
X20459931Y60025610D01*
X20510940Y60277500D01*
X20510940Y60442500D01*
X25371632Y60442500D01*
X25646492Y60167640D01*
X25646492Y59248967D01*
X25461321Y59697116D01*
X25072054Y60087062D01*
X24563192Y60298360D01*
X24012205Y60298841D01*
X23502975Y60088432D01*
X23113029Y59699165D01*
X23014492Y59461862D01*
X22629564Y59847461D01*
X22120702Y60058759D01*
X21569715Y60059240D01*
X21060485Y59848831D01*
X20670539Y59459564D01*
X20459241Y58950702D01*
X20458760Y58399715D01*
X20669169Y57890485D01*
X21009000Y57550061D01*
X21009000Y36272161D01*
X20966295Y36272198D01*
X20457065Y36061789D01*
X20067119Y35672522D01*
X19855821Y35163660D01*
X19855340Y34612673D01*
X20065749Y34103443D01*
X20455016Y33713497D01*
X20492013Y33698135D01*
X20492013Y18231243D01*
X20153552Y17893371D01*
X19942254Y17384509D01*
X19941773Y16833522D01*
X20152182Y16324292D01*
X20492013Y15983868D01*
X20492013Y12772487D01*
X20555574Y12452946D01*
X20671511Y12279434D01*
X20736579Y12182053D01*
X28056055Y4862577D01*
X28326948Y4681572D01*
X28646489Y4618011D01*
X44976022Y4618011D01*
X44662849Y4555717D01*
X44197302Y4244648D01*
X43886233Y3779101D01*
X43777000Y3229950D01*
X43777000Y2358050D01*
X43886233Y1808899D01*
X44197302Y1343352D01*
X44662849Y1032283D01*
X45212000Y923050D01*
X45761151Y1032283D01*
X46226698Y1343352D01*
X46482000Y1725438D01*
X46737302Y1343352D01*
X47202849Y1032283D01*
X47752000Y923050D01*
X48301151Y1032283D01*
X48766698Y1343352D01*
X49022000Y1725438D01*
X49277302Y1343352D01*
X49742849Y1032283D01*
X50292000Y923050D01*
X50841151Y1032283D01*
X51306698Y1343352D01*
X51562000Y1725438D01*
X51817302Y1343352D01*
X52282849Y1032283D01*
X52832000Y923050D01*
X53381151Y1032283D01*
X53846698Y1343352D01*
X54157767Y1808899D01*
X54267000Y2358050D01*
X54267000Y3229950D01*
X54157767Y3779101D01*
X54023991Y3979311D01*
X60986821Y3979311D01*
X61492566Y3473566D01*
X61763459Y3292561D01*
X62083000Y3229000D01*
X62152115Y3229000D01*
X62177691Y3190723D01*
X62578354Y2923009D01*
X63050968Y2829000D01*
X63915032Y2829000D01*
X64387646Y2923009D01*
X64788309Y3190723D01*
X64813885Y3229000D01*
X65208132Y3229000D01*
X65424560Y3012572D01*
X65424560Y2296000D01*
X65468838Y2060683D01*
X65607910Y1844559D01*
X65820110Y1699569D01*
X66072000Y1648560D01*
X67572000Y1648560D01*
X67807317Y1692838D01*
X68023441Y1831910D01*
X68069969Y1900006D01*
X68212302Y1757673D01*
X68445691Y1661000D01*
X69036250Y1661000D01*
X69195000Y1819750D01*
X69195000Y2794000D01*
X69449000Y2794000D01*
X69449000Y1819750D01*
X69607750Y1661000D01*
X70198309Y1661000D01*
X70431698Y1757673D01*
X70610327Y1936301D01*
X70707000Y2169690D01*
X70707000Y2635250D01*
X70548250Y2794000D01*
X69449000Y2794000D01*
X69195000Y2794000D01*
X69175000Y2794000D01*
X69175000Y3048000D01*
X69195000Y3048000D01*
X69195000Y4022250D01*
X69449000Y4022250D01*
X69449000Y3048000D01*
X70548250Y3048000D01*
X70707000Y3206750D01*
X70707000Y3672310D01*
X70676315Y3746391D01*
X73209538Y3746391D01*
X73213408Y3708719D01*
X73439920Y3280526D01*
X73813053Y2971610D01*
X74276000Y2829000D01*
X74676000Y2829000D01*
X74676000Y3937000D01*
X74930000Y3937000D01*
X74930000Y2829000D01*
X75330000Y2829000D01*
X75792947Y2971610D01*
X76166080Y3280526D01*
X76392592Y3708719D01*
X76396462Y3746391D01*
X76271731Y3937000D01*
X74930000Y3937000D01*
X74676000Y3937000D01*
X73334269Y3937000D01*
X73209538Y3746391D01*
X70676315Y3746391D01*
X70610327Y3905699D01*
X70431698Y4084327D01*
X70198309Y4181000D01*
X69607750Y4181000D01*
X69449000Y4022250D01*
X69195000Y4022250D01*
X69036250Y4181000D01*
X68445691Y4181000D01*
X68212302Y4084327D01*
X68071064Y3943090D01*
X68036090Y3997441D01*
X67823890Y4142431D01*
X67572000Y4193440D01*
X66605428Y4193440D01*
X66417259Y4381609D01*
X73209538Y4381609D01*
X73334269Y4191000D01*
X74676000Y4191000D01*
X74676000Y5299000D01*
X74930000Y5299000D01*
X74930000Y4191000D01*
X76271731Y4191000D01*
X76396462Y4381609D01*
X76392592Y4419281D01*
X76166080Y4847474D01*
X75792947Y5156390D01*
X75330000Y5299000D01*
X74930000Y5299000D01*
X74676000Y5299000D01*
X74276000Y5299000D01*
X73813053Y5156390D01*
X73439920Y4847474D01*
X73213408Y4419281D01*
X73209538Y4381609D01*
X66417259Y4381609D01*
X66144434Y4654434D01*
X66103819Y4681572D01*
X65873541Y4835439D01*
X65575159Y4894791D01*
X66185934Y5505566D01*
X66366940Y5776460D01*
X66430500Y6096000D01*
X66430500Y6604000D01*
X73135968Y6604000D01*
X73229977Y6131386D01*
X73497691Y5730723D01*
X73898354Y5463009D01*
X74370968Y5369000D01*
X75235032Y5369000D01*
X75707646Y5463009D01*
X76108309Y5730723D01*
X76376023Y6131386D01*
X76470032Y6604000D01*
X76376023Y7076614D01*
X76108309Y7477277D01*
X75707646Y7744991D01*
X75235032Y7839000D01*
X74370968Y7839000D01*
X73898354Y7744991D01*
X73497691Y7477277D01*
X73229977Y7076614D01*
X73135968Y6604000D01*
X66430500Y6604000D01*
X66430500Y7431500D01*
X66389239Y7638934D01*
X66366940Y7751040D01*
X66185934Y8021934D01*
X65135736Y9072132D01*
X65150032Y9144000D01*
X65076136Y9515500D01*
X69348641Y9515500D01*
X70310575Y8553566D01*
X70581469Y8372560D01*
X70901009Y8309000D01*
X73472115Y8309000D01*
X73497691Y8270723D01*
X73898354Y8003009D01*
X74370968Y7909000D01*
X75235032Y7909000D01*
X75707646Y8003009D01*
X76108309Y8270723D01*
X76376023Y8671386D01*
X76470032Y9144000D01*
X76376023Y9616614D01*
X76108309Y10017277D01*
X75707646Y10284991D01*
X75235032Y10379000D01*
X74370968Y10379000D01*
X73898354Y10284991D01*
X73497691Y10017277D01*
X73472115Y9979000D01*
X71246877Y9979000D01*
X70284943Y10940934D01*
X70014050Y11121939D01*
X69694509Y11185500D01*
X64996830Y11185500D01*
X65072592Y11328719D01*
X65076462Y11366391D01*
X64951731Y11557000D01*
X63610000Y11557000D01*
X63610000Y11537000D01*
X63356000Y11537000D01*
X63356000Y11557000D01*
X62014269Y11557000D01*
X61889538Y11366391D01*
X61893408Y11328719D01*
X61969170Y11185500D01*
X58229500Y11185500D01*
X57909960Y11121940D01*
X57639066Y10940934D01*
X55216632Y8518500D01*
X48669368Y8518500D01*
X48587000Y8600868D01*
X48587000Y8843281D01*
X48766698Y8963352D01*
X49022000Y9345438D01*
X49277302Y8963352D01*
X49742849Y8652283D01*
X50292000Y8543050D01*
X50841151Y8652283D01*
X51306698Y8963352D01*
X51404251Y9109350D01*
X51428838Y8978683D01*
X51567910Y8762559D01*
X51780110Y8617569D01*
X52032000Y8566560D01*
X53632000Y8566560D01*
X53867317Y8610838D01*
X54083441Y8749910D01*
X54228431Y8962110D01*
X54279440Y9214000D01*
X54279440Y11614000D01*
X54235162Y11849317D01*
X54137165Y12001609D01*
X61889538Y12001609D01*
X62014269Y11811000D01*
X63356000Y11811000D01*
X63356000Y12919000D01*
X63610000Y12919000D01*
X63610000Y11811000D01*
X64951731Y11811000D01*
X65076462Y12001609D01*
X65072592Y12039281D01*
X64846080Y12467474D01*
X64472947Y12776390D01*
X64010000Y12919000D01*
X63610000Y12919000D01*
X63356000Y12919000D01*
X62956000Y12919000D01*
X62493053Y12776390D01*
X62119920Y12467474D01*
X61893408Y12039281D01*
X61889538Y12001609D01*
X54137165Y12001609D01*
X54096090Y12065441D01*
X53883890Y12210431D01*
X53632000Y12261440D01*
X52032000Y12261440D01*
X51796683Y12217162D01*
X51580559Y12078090D01*
X51435569Y11865890D01*
X51405403Y11716926D01*
X51306698Y11864648D01*
X50841151Y12175717D01*
X50292000Y12284950D01*
X49742849Y12175717D01*
X49277302Y11864648D01*
X49022000Y11482562D01*
X48766698Y11864648D01*
X48301151Y12175717D01*
X47752000Y12284950D01*
X47202849Y12175717D01*
X46737302Y11864648D01*
X46482000Y11482562D01*
X46226698Y11864648D01*
X46047000Y11984719D01*
X46047000Y15201000D01*
X46635560Y15201000D01*
X46635560Y13501000D01*
X46679838Y13265683D01*
X46818910Y13049559D01*
X47031110Y12904569D01*
X47283000Y12853560D01*
X48983000Y12853560D01*
X49218317Y12897838D01*
X49434441Y13036910D01*
X49579431Y13249110D01*
X49630440Y13501000D01*
X49630440Y15201000D01*
X49586162Y15436317D01*
X49447090Y15652441D01*
X49234890Y15797431D01*
X48983000Y15848440D01*
X47283000Y15848440D01*
X47047683Y15804162D01*
X46831559Y15665090D01*
X46686569Y15452890D01*
X46635560Y15201000D01*
X46047000Y15201000D01*
X46047000Y19460117D01*
X46102302Y19377352D01*
X46567849Y19066283D01*
X47117000Y18957050D01*
X47666151Y19066283D01*
X48131698Y19377352D01*
X48387000Y19759438D01*
X48642302Y19377352D01*
X49107849Y19066283D01*
X49657000Y18957050D01*
X50206151Y19066283D01*
X50671698Y19377352D01*
X50927000Y19759438D01*
X51182302Y19377352D01*
X51647849Y19066283D01*
X52197000Y18957050D01*
X52746151Y19066283D01*
X53211698Y19377352D01*
X53467000Y19759438D01*
X53722302Y19377352D01*
X54187849Y19066283D01*
X54737000Y18957050D01*
X55286151Y19066283D01*
X55751698Y19377352D01*
X56062767Y19842899D01*
X56172000Y20392050D01*
X56172000Y21263950D01*
X56062767Y21813101D01*
X55751698Y22278648D01*
X55286151Y22589717D01*
X54737000Y22698950D01*
X54187849Y22589717D01*
X53722302Y22278648D01*
X53467000Y21896562D01*
X53211698Y22278648D01*
X52746151Y22589717D01*
X52197000Y22698950D01*
X51955046Y22650822D01*
X51025873Y23579995D01*
X51054000Y23574400D01*
X54822932Y23574400D01*
X56230501Y22166831D01*
X56230501Y19872439D01*
X56294062Y19552898D01*
X56375512Y19431000D01*
X56475067Y19282005D01*
X60790006Y14967066D01*
X61060899Y14786061D01*
X61380440Y14722500D01*
X61927273Y14722500D01*
X61909977Y14696614D01*
X61815968Y14224000D01*
X61909977Y13751386D01*
X62177691Y13350723D01*
X62578354Y13083009D01*
X63050968Y12989000D01*
X63915032Y12989000D01*
X64387646Y13083009D01*
X64788309Y13350723D01*
X65056023Y13751386D01*
X65150032Y14224000D01*
X65056023Y14696614D01*
X65038727Y14722500D01*
X69625866Y14722500D01*
X70714800Y13633566D01*
X70985694Y13452560D01*
X71305234Y13389000D01*
X73472115Y13389000D01*
X73497691Y13350723D01*
X73898354Y13083009D01*
X74370968Y12989000D01*
X75235032Y12989000D01*
X75707646Y13083009D01*
X76108309Y13350723D01*
X76376023Y13751386D01*
X76470032Y14224000D01*
X76376023Y14696614D01*
X76108309Y15097277D01*
X75707646Y15364991D01*
X75235032Y15459000D01*
X74370968Y15459000D01*
X73898354Y15364991D01*
X73497691Y15097277D01*
X73472115Y15059000D01*
X71651102Y15059000D01*
X70562168Y16147934D01*
X70291275Y16328939D01*
X69971734Y16392500D01*
X65064012Y16392500D01*
X65072592Y16408719D01*
X65076462Y16446391D01*
X73209538Y16446391D01*
X73213408Y16408719D01*
X73439920Y15980526D01*
X73813053Y15671610D01*
X74276000Y15529000D01*
X74676000Y15529000D01*
X74676000Y16637000D01*
X73334269Y16637000D01*
X73209538Y16446391D01*
X65076462Y16446391D01*
X64951731Y16637000D01*
X63610000Y16637000D01*
X63610000Y16617000D01*
X63356000Y16617000D01*
X63356000Y16637000D01*
X62014269Y16637000D01*
X61889538Y16446391D01*
X61893408Y16408719D01*
X61901988Y16392500D01*
X61726308Y16392500D01*
X57900501Y20218307D01*
X57900501Y22512699D01*
X57836940Y22832240D01*
X57655935Y23103133D01*
X55759234Y24999834D01*
X55706663Y25034961D01*
X55488341Y25180839D01*
X55168800Y25244400D01*
X51399868Y25244400D01*
X50492000Y26152268D01*
X50492000Y26877281D01*
X50671698Y26997352D01*
X50927000Y27379438D01*
X51182302Y26997352D01*
X51647849Y26686283D01*
X52197000Y26577050D01*
X52746151Y26686283D01*
X53211698Y26997352D01*
X53309251Y27143350D01*
X53333838Y27012683D01*
X53472910Y26796559D01*
X53685110Y26651569D01*
X53937000Y26600560D01*
X55537000Y26600560D01*
X55772317Y26644838D01*
X55988441Y26783910D01*
X56133431Y26996110D01*
X56184440Y27248000D01*
X56184440Y29648000D01*
X56140162Y29883317D01*
X56001090Y30099441D01*
X55788890Y30244431D01*
X55537000Y30295440D01*
X53937000Y30295440D01*
X53701683Y30251162D01*
X53485559Y30112090D01*
X53340569Y29899890D01*
X53310403Y29750926D01*
X53211698Y29898648D01*
X52746151Y30209717D01*
X52197000Y30318950D01*
X51647849Y30209717D01*
X51182302Y29898648D01*
X50927000Y29516562D01*
X50671698Y29898648D01*
X50206151Y30209717D01*
X49657000Y30318950D01*
X49210677Y30230171D01*
X49210677Y31014560D01*
X50761000Y31014560D01*
X50996317Y31058838D01*
X51212441Y31197910D01*
X51357431Y31410110D01*
X51408440Y31662000D01*
X51408440Y33362000D01*
X51364162Y33597317D01*
X51225090Y33813441D01*
X51012890Y33958431D01*
X50761000Y34009440D01*
X49210677Y34009440D01*
X49210677Y39120809D01*
X52209046Y42119178D01*
X52451000Y42071050D01*
X53000151Y42180283D01*
X53465698Y42491352D01*
X53721000Y42873438D01*
X53976302Y42491352D01*
X54441849Y42180283D01*
X54991000Y42071050D01*
X55540151Y42180283D01*
X56005698Y42491352D01*
X56024914Y42520111D01*
X56024914Y33030686D01*
X56088475Y32711145D01*
X56224432Y32507671D01*
X56269480Y32440252D01*
X59526210Y29183522D01*
X59526210Y20278777D01*
X59589771Y19959236D01*
X59770776Y19688343D01*
X62047862Y17411257D01*
X61893408Y17119281D01*
X61889538Y17081609D01*
X62014269Y16891000D01*
X63356000Y16891000D01*
X63356000Y16911000D01*
X63610000Y16911000D01*
X63610000Y16891000D01*
X64951731Y16891000D01*
X65076462Y17081609D01*
X65072592Y17119281D01*
X65067673Y17128579D01*
X73218327Y17128579D01*
X73213408Y17119281D01*
X73209538Y17081609D01*
X73334269Y16891000D01*
X74676000Y16891000D01*
X74676000Y16911000D01*
X74930000Y16911000D01*
X74930000Y16891000D01*
X74950000Y16891000D01*
X74950000Y16637000D01*
X74930000Y16637000D01*
X74930000Y15529000D01*
X75330000Y15529000D01*
X75792947Y15671610D01*
X76166080Y15980526D01*
X76392592Y16408719D01*
X76396462Y16446391D01*
X76382396Y16467886D01*
X76798434Y16051848D01*
X76798434Y13460302D01*
X75980685Y12642553D01*
X75707646Y12824991D01*
X75235032Y12919000D01*
X74370968Y12919000D01*
X73898354Y12824991D01*
X73497691Y12557277D01*
X73229977Y12156614D01*
X73135968Y11684000D01*
X73229977Y11211386D01*
X73497691Y10810723D01*
X73898354Y10543009D01*
X74370968Y10449000D01*
X75235032Y10449000D01*
X75707646Y10543009D01*
X76108309Y10810723D01*
X76133885Y10849000D01*
X76203000Y10849000D01*
X76522541Y10912561D01*
X76793434Y11093566D01*
X78223868Y12524000D01*
X78357212Y12723564D01*
X78404873Y12794893D01*
X78468434Y13114434D01*
X78468434Y16397716D01*
X78444633Y16517373D01*
X78404874Y16717256D01*
X78223868Y16988150D01*
X76658005Y18554013D01*
X76529572Y18639829D01*
X76387112Y18735018D01*
X76289786Y18754377D01*
X76392592Y18948719D01*
X76396462Y18986391D01*
X76271731Y19177000D01*
X74930000Y19177000D01*
X74930000Y19157000D01*
X74676000Y19157000D01*
X74676000Y19177000D01*
X73334269Y19177000D01*
X73209538Y18986391D01*
X73213408Y18948719D01*
X73292831Y18798579D01*
X64993169Y18798579D01*
X65072592Y18948719D01*
X65076462Y18986391D01*
X64951731Y19177000D01*
X63610000Y19177000D01*
X63610000Y19157000D01*
X63356000Y19157000D01*
X63356000Y19177000D01*
X63336000Y19177000D01*
X63336000Y19431000D01*
X63356000Y19431000D01*
X63356000Y20539000D01*
X63610000Y20539000D01*
X63610000Y19431000D01*
X64951731Y19431000D01*
X65076462Y19621609D01*
X73209538Y19621609D01*
X73334269Y19431000D01*
X74676000Y19431000D01*
X74676000Y20539000D01*
X74930000Y20539000D01*
X74930000Y19431000D01*
X76271731Y19431000D01*
X76396462Y19621609D01*
X76392592Y19659281D01*
X76166080Y20087474D01*
X75792947Y20396390D01*
X75330000Y20539000D01*
X74930000Y20539000D01*
X74676000Y20539000D01*
X74276000Y20539000D01*
X73813053Y20396390D01*
X73439920Y20087474D01*
X73213408Y19659281D01*
X73209538Y19621609D01*
X65076462Y19621609D01*
X65072592Y19659281D01*
X64846080Y20087474D01*
X64472947Y20396390D01*
X64010000Y20539000D01*
X63610000Y20539000D01*
X63356000Y20539000D01*
X62956000Y20539000D01*
X62493053Y20396390D01*
X62119920Y20087474D01*
X61986187Y19834668D01*
X61196210Y20624645D01*
X61196210Y25023750D01*
X79585500Y25023750D01*
X79585500Y23308191D01*
X79682173Y23074802D01*
X79860801Y22896173D01*
X80094190Y22799500D01*
X81184750Y22799500D01*
X81343500Y22958250D01*
X81343500Y25182500D01*
X81597500Y25182500D01*
X81597500Y22958250D01*
X81756250Y22799500D01*
X82846810Y22799500D01*
X83080199Y22896173D01*
X83258827Y23074802D01*
X83355500Y23308191D01*
X83355500Y25023750D01*
X83196750Y25182500D01*
X81597500Y25182500D01*
X81343500Y25182500D01*
X79744250Y25182500D01*
X79585500Y25023750D01*
X61196210Y25023750D01*
X61196210Y29529390D01*
X61132649Y29848931D01*
X60951644Y30119824D01*
X59043358Y32028110D01*
X61995024Y32028110D01*
X62164855Y31618076D01*
X62555142Y31189817D01*
X63079608Y30943514D01*
X63309500Y31064181D01*
X63309500Y32258000D01*
X62116345Y32258000D01*
X61995024Y32028110D01*
X59043358Y32028110D01*
X57694914Y33376554D01*
X57694914Y34568110D01*
X61995024Y34568110D01*
X62164855Y34158076D01*
X62555142Y33729817D01*
X62714454Y33655000D01*
X62555142Y33580183D01*
X62164855Y33151924D01*
X61995024Y32741890D01*
X62116345Y32512000D01*
X63309500Y32512000D01*
X63309500Y34798000D01*
X62116345Y34798000D01*
X61995024Y34568110D01*
X57694914Y34568110D01*
X57694914Y37860418D01*
X58862366Y36692966D01*
X59133259Y36511961D01*
X59212354Y36496228D01*
X59249638Y36298083D01*
X59388710Y36081959D01*
X59600910Y35936969D01*
X59852800Y35885960D01*
X61152800Y35885960D01*
X61388117Y35930238D01*
X61604241Y36069310D01*
X61749231Y36281510D01*
X61783027Y36448400D01*
X62335000Y36448400D01*
X62357353Y36414946D01*
X62698053Y36187298D01*
X62555142Y36120183D01*
X62164855Y35691924D01*
X61995024Y35281890D01*
X62116345Y35052000D01*
X63309500Y35052000D01*
X63309500Y35072000D01*
X63563500Y35072000D01*
X63563500Y35052000D01*
X63583500Y35052000D01*
X63583500Y34798000D01*
X63563500Y34798000D01*
X63563500Y32512000D01*
X63583500Y32512000D01*
X63583500Y32258000D01*
X63563500Y32258000D01*
X63563500Y31064181D01*
X63793392Y30943514D01*
X64317858Y31189817D01*
X64708145Y31618076D01*
X64780666Y31793168D01*
X64780666Y30530232D01*
X64442205Y30192360D01*
X64230907Y29683498D01*
X64230426Y29132511D01*
X64440835Y28623281D01*
X64830102Y28233335D01*
X65338964Y28022037D01*
X65889951Y28021556D01*
X66399181Y28231965D01*
X66625171Y28457561D01*
X66625171Y28426417D01*
X66286710Y28088545D01*
X66075412Y27579683D01*
X66074931Y27028696D01*
X66285340Y26519466D01*
X66674607Y26129520D01*
X67183469Y25918222D01*
X67734456Y25917741D01*
X68243686Y26128150D01*
X68633632Y26517417D01*
X68844930Y27026279D01*
X68845178Y27310809D01*
X79585500Y27310809D01*
X79585500Y25595250D01*
X79744250Y25436500D01*
X81343500Y25436500D01*
X81343500Y27660750D01*
X81597500Y27660750D01*
X81597500Y25436500D01*
X83196750Y25436500D01*
X83355500Y25595250D01*
X83355500Y27310809D01*
X83258827Y27544198D01*
X83080199Y27722827D01*
X82846810Y27819500D01*
X81756250Y27819500D01*
X81597500Y27660750D01*
X81343500Y27660750D01*
X81184750Y27819500D01*
X80094190Y27819500D01*
X79860801Y27722827D01*
X79682173Y27544198D01*
X79585500Y27310809D01*
X68845178Y27310809D01*
X68845411Y27577266D01*
X68635002Y28086496D01*
X68311214Y28410850D01*
X71942800Y28410850D01*
X71942800Y27820291D01*
X72039473Y27586902D01*
X72218101Y27408273D01*
X72451490Y27311600D01*
X72917050Y27311600D01*
X73075800Y27470350D01*
X73075800Y28569600D01*
X73329800Y28569600D01*
X73329800Y27470350D01*
X73488550Y27311600D01*
X73954110Y27311600D01*
X74187499Y27408273D01*
X74366127Y27586902D01*
X74462800Y27820291D01*
X74462800Y28410850D01*
X74304050Y28569600D01*
X73329800Y28569600D01*
X73075800Y28569600D01*
X72101550Y28569600D01*
X71942800Y28410850D01*
X68311214Y28410850D01*
X68295171Y28426920D01*
X68295171Y28710250D01*
X75765500Y28710250D01*
X75765500Y28119691D01*
X75862173Y27886302D01*
X76040801Y27707673D01*
X76274190Y27611000D01*
X76739750Y27611000D01*
X76898500Y27769750D01*
X76898500Y28869000D01*
X77152500Y28869000D01*
X77152500Y27769750D01*
X77311250Y27611000D01*
X77776810Y27611000D01*
X78010199Y27707673D01*
X78188827Y27886302D01*
X78285500Y28119691D01*
X78285500Y28710250D01*
X78126750Y28869000D01*
X77152500Y28869000D01*
X76898500Y28869000D01*
X75924250Y28869000D01*
X75765500Y28710250D01*
X68295171Y28710250D01*
X68295171Y34977832D01*
X69241932Y34977832D01*
X69241932Y33650272D01*
X69286210Y33414955D01*
X69425282Y33198831D01*
X69637482Y33053841D01*
X69889372Y33002832D01*
X70439372Y33002832D01*
X70568961Y33027216D01*
X70689372Y33002832D01*
X71239372Y33002832D01*
X71368961Y33027216D01*
X71489372Y33002832D01*
X72039372Y33002832D01*
X72145077Y33022722D01*
X72163062Y33015272D01*
X72278622Y33015272D01*
X72375023Y33111673D01*
X72437370Y33151792D01*
X72437370Y33015272D01*
X72529372Y33015272D01*
X72529372Y32584928D01*
X72342483Y32549762D01*
X72126359Y32410690D01*
X71981369Y32198490D01*
X71930360Y31946600D01*
X71930360Y30446600D01*
X71974638Y30211283D01*
X72113710Y29995159D01*
X72181806Y29948631D01*
X72039473Y29806298D01*
X71942800Y29572909D01*
X71942800Y28982350D01*
X72101550Y28823600D01*
X73075800Y28823600D01*
X73075800Y28843600D01*
X73329800Y28843600D01*
X73329800Y28823600D01*
X74304050Y28823600D01*
X74462800Y28982350D01*
X74462800Y29572909D01*
X74366127Y29806298D01*
X74224890Y29947536D01*
X74279241Y29982510D01*
X74424231Y30194710D01*
X74475240Y30446600D01*
X74475240Y31840392D01*
X75410066Y30905566D01*
X75680959Y30724561D01*
X75760054Y30708828D01*
X75797338Y30510683D01*
X75936410Y30294559D01*
X76004506Y30248031D01*
X75862173Y30105698D01*
X75765500Y29872309D01*
X75765500Y29281750D01*
X75924250Y29123000D01*
X76898500Y29123000D01*
X76898500Y29143000D01*
X77152500Y29143000D01*
X77152500Y29123000D01*
X78126750Y29123000D01*
X78285500Y29281750D01*
X78285500Y29872309D01*
X78188827Y30105698D01*
X78047590Y30246936D01*
X78101941Y30281910D01*
X78246931Y30494110D01*
X78280727Y30661000D01*
X79573060Y30661000D01*
X79573060Y29684500D01*
X79617338Y29449183D01*
X79756410Y29233059D01*
X79968610Y29088069D01*
X80220500Y29037060D01*
X82720500Y29037060D01*
X82955817Y29081338D01*
X83171941Y29220410D01*
X83316931Y29432610D01*
X83367940Y29684500D01*
X83367940Y30773719D01*
X83440041Y30788061D01*
X83710934Y30969066D01*
X86124934Y33383066D01*
X86305940Y33653960D01*
X86369500Y33973500D01*
X86369500Y61489854D01*
X86474275Y772982D01*
X710000Y710517D01*
X710000Y6326000D01*
X3567560Y6326000D01*
X3567560Y3326000D01*
X3611838Y3090683D01*
X3750910Y2874559D01*
X3963110Y2729569D01*
X4215000Y2678560D01*
X7215000Y2678560D01*
X7450317Y2722838D01*
X7666441Y2861910D01*
X7811431Y3074110D01*
X7862440Y3326000D01*
X7862440Y4403185D01*
X8659630Y4403185D01*
X8983980Y3618200D01*
X9584041Y3017091D01*
X10368459Y2691372D01*
X11217815Y2690630D01*
X12002800Y3014980D01*
X12603909Y3615041D01*
X12929628Y4399459D01*
X12930370Y5248815D01*
X12606020Y6033800D01*
X12005959Y6634909D01*
X11221541Y6960628D01*
X10372185Y6961370D01*
X9587200Y6637020D01*
X8986091Y6036959D01*
X8660372Y5252541D01*
X8659630Y4403185D01*
X7862440Y4403185D01*
X7862440Y6326000D01*
X7818162Y6561317D01*
X7679090Y6777441D01*
X7466890Y6922431D01*
X7215000Y6973440D01*
X4215000Y6973440D01*
X3979683Y6929162D01*
X3763559Y6790090D01*
X3618569Y6577890D01*
X3567560Y6326000D01*
X710000Y6326000D01*
X710000Y17148786D01*
X2991000Y17148786D01*
X2991000Y12950215D01*
X6811000Y12950215D01*
X6811000Y17148786D01*
X2991000Y17148786D01*
X710000Y17148786D01*
X710000Y28025185D01*
X2055630Y28025185D01*
X2379980Y27240200D01*
X2980041Y26639091D01*
X3764459Y26313372D01*
X4613815Y26312630D01*
X5398800Y26636980D01*
X5999909Y27237041D01*
X6325628Y28021459D01*
X6326370Y28870815D01*
X6002020Y29655800D01*
X5401959Y30256909D01*
X4617541Y30582628D01*
X3768185Y30583370D01*
X2983200Y30259020D01*
X2382091Y29658959D01*
X2056372Y28874541D01*
X2055630Y28025185D01*
X710000Y28025185D01*
X710000Y35028000D01*
X2043560Y35028000D01*
X2043560Y32028000D01*
X2087838Y31792683D01*
X2226910Y31576559D01*
X2439110Y31431569D01*
X2691000Y31380560D01*
X5691000Y31380560D01*
X5926317Y31424838D01*
X6142441Y31563910D01*
X6287431Y31776110D01*
X6338440Y32028000D01*
X6338440Y35028000D01*
X6294162Y35263317D01*
X6155090Y35479441D01*
X5942890Y35624431D01*
X5691000Y35675440D01*
X2691000Y35675440D01*
X2455683Y35631162D01*
X2239559Y35492090D01*
X2094569Y35279890D01*
X2043560Y35028000D01*
X710000Y35028000D01*
X710000Y42421786D01*
X2546500Y42421786D01*
X2546500Y38223215D01*
X6366500Y38223215D01*
X6366500Y42421786D01*
X2546500Y42421786D01*
X710000Y42421786D01*
X710000Y50676786D01*
X2483000Y50676786D01*
X2483000Y46478215D01*
X6303000Y46478215D01*
X6303000Y50676786D01*
X2483000Y50676786D01*
X710000Y50676786D01*
X710000Y52917185D01*
X2055630Y52917185D01*
X2379980Y52132200D01*
X2980041Y51531091D01*
X3764459Y51205372D01*
X4613815Y51204630D01*
X5398800Y51528980D01*
X5999909Y52129041D01*
X6325628Y52913459D01*
X6326370Y53762815D01*
X6002020Y54547800D01*
X5858321Y54691750D01*
X14278500Y54691750D01*
X14278500Y53851191D01*
X14375173Y53617802D01*
X14553801Y53439173D01*
X14787190Y53342500D01*
X16527750Y53342500D01*
X16686500Y53501250D01*
X16686500Y54850500D01*
X16940500Y54850500D01*
X16940500Y53501250D01*
X17099250Y53342500D01*
X18839810Y53342500D01*
X19073199Y53439173D01*
X19251827Y53617802D01*
X19348500Y53851191D01*
X19348500Y54691750D01*
X19189750Y54850500D01*
X16940500Y54850500D01*
X16686500Y54850500D01*
X14437250Y54850500D01*
X14278500Y54691750D01*
X5858321Y54691750D01*
X5401959Y55148909D01*
X4617541Y55474628D01*
X3768185Y55475370D01*
X2983200Y55151020D01*
X2382091Y54550959D01*
X2056372Y53766541D01*
X2055630Y52917185D01*
X710000Y52917185D01*
X710000Y56103809D01*
X14278500Y56103809D01*
X14278500Y55263250D01*
X14437250Y55104500D01*
X16686500Y55104500D01*
X16686500Y56453750D01*
X16940500Y56453750D01*
X16940500Y55104500D01*
X19189750Y55104500D01*
X19348500Y55263250D01*
X19348500Y56103809D01*
X19251827Y56337198D01*
X19073199Y56515827D01*
X18839810Y56612500D01*
X17099250Y56612500D01*
X16940500Y56453750D01*
X16686500Y56453750D01*
X16527750Y56612500D01*
X14787190Y56612500D01*
X14553801Y56515827D01*
X14375173Y56337198D01*
X14278500Y56103809D01*
X710000Y56103809D01*
X710000Y59920000D01*
X2043560Y59920000D01*
X2043560Y56920000D01*
X2087838Y56684683D01*
X2226910Y56468559D01*
X2439110Y56323569D01*
X2691000Y56272560D01*
X5691000Y56272560D01*
X5926317Y56316838D01*
X6142441Y56455910D01*
X6287431Y56668110D01*
X6338440Y56920000D01*
X6338440Y59920000D01*
X6294162Y60155317D01*
X6155090Y60371441D01*
X5942890Y60516431D01*
X5691000Y60567440D01*
X2691000Y60567440D01*
X2455683Y60523162D01*
X2239559Y60384090D01*
X2094569Y60171890D01*
X2043560Y59920000D01*
X710000Y59920000D01*
X710000Y65627250D01*
X1802000Y65627250D01*
X1802000Y64286691D01*
X1898673Y64053302D01*
X2077301Y63874673D01*
X2310690Y63778000D01*
X3651250Y63778000D01*
X3810000Y63936750D01*
X3810000Y65786000D01*
X4064000Y65786000D01*
X4064000Y63936750D01*
X4222750Y63778000D01*
X5563310Y63778000D01*
X5796699Y63874673D01*
X5975327Y64053302D01*
X6072000Y64286691D01*
X6072000Y65627250D01*
X5913250Y65786000D01*
X4064000Y65786000D01*
X3810000Y65786000D01*
X1960750Y65786000D01*
X1802000Y65627250D01*
X710000Y65627250D01*
X710000Y67539309D01*
X1802000Y67539309D01*
X1802000Y66198750D01*
X1960750Y66040000D01*
X3810000Y66040000D01*
X3810000Y67889250D01*
X4064000Y67889250D01*
X4064000Y66040000D01*
X5913250Y66040000D01*
X6072000Y66198750D01*
X6072000Y67539309D01*
X5975327Y67772698D01*
X5796699Y67951327D01*
X5563310Y68048000D01*
X4222750Y68048000D01*
X4064000Y67889250D01*
X3810000Y67889250D01*
X3651250Y68048000D01*
X2310690Y68048000D01*
X2077301Y67951327D01*
X1898673Y67772698D01*
X1802000Y67539309D01*
X710000Y67539309D01*
X710000Y72950000D01*
X3082498Y72950000D01*
X2729200Y72804020D01*
X2729200Y72804020D01*
G37*
X2729200Y72804020D02*
X2128091Y72203959D01*
X1802372Y71419541D01*
X1801630Y70570185D01*
X2125980Y69785200D01*
X2726041Y69184091D01*
X3510459Y68858372D01*
X4359815Y68857630D01*
X5144800Y69181980D01*
X5745909Y69782041D01*
X5818974Y69958000D01*
X8410488Y69958000D01*
X10801400Y67567089D01*
X10801400Y62103005D01*
X10801399Y62103000D01*
X10880185Y61706923D01*
X11104544Y61371144D01*
X11930042Y60545647D01*
X11930044Y60545644D01*
X12112010Y60424059D01*
X12265822Y60321285D01*
X12661900Y60242500D01*
X13122646Y60242500D01*
X13160338Y60042183D01*
X13299410Y59826059D01*
X13511610Y59681069D01*
X13763500Y59630060D01*
X15263500Y59630060D01*
X15498817Y59674338D01*
X15662992Y59779982D01*
X15703801Y59739173D01*
X15937190Y59642500D01*
X16527750Y59642500D01*
X16686500Y59801250D01*
X16686500Y61150500D01*
X16666500Y61150500D01*
X16666500Y61404500D01*
X16686500Y61404500D01*
X16686500Y62753750D01*
X16527750Y62912500D01*
X15937190Y62912500D01*
X15703801Y62815827D01*
X15661840Y62773866D01*
X15515390Y62873931D01*
X15348500Y62907727D01*
X15348500Y63166752D01*
X15490941Y63258410D01*
X15635931Y63470610D01*
X15686940Y63722500D01*
X15686940Y65222500D01*
X15642662Y65457817D01*
X15503590Y65673941D01*
X15435494Y65720469D01*
X15577827Y65862802D01*
X15674500Y66096191D01*
X15674500Y66686750D01*
X15515750Y66845500D01*
X14541500Y66845500D01*
X14541500Y66825500D01*
X14287500Y66825500D01*
X14287500Y66845500D01*
X13313250Y66845500D01*
X13154500Y66686750D01*
X13154500Y66096191D01*
X13251173Y65862802D01*
X13392410Y65721564D01*
X13338059Y65686590D01*
X13193069Y65474390D01*
X13142060Y65222500D01*
X13142060Y63722500D01*
X13186338Y63487183D01*
X13325410Y63271059D01*
X13537610Y63126069D01*
X13579500Y63117586D01*
X13579500Y62890318D01*
X13528183Y62880662D01*
X13312059Y62741590D01*
X13167069Y62529390D01*
X13123148Y62312500D01*
X13090611Y62312500D01*
X12871400Y62531712D01*
X12871400Y67848809D01*
X13154500Y67848809D01*
X13154500Y67258250D01*
X13313250Y67099500D01*
X14287500Y67099500D01*
X14287500Y68198750D01*
X14541500Y68198750D01*
X14541500Y67099500D01*
X15515750Y67099500D01*
X15674500Y67258250D01*
X15674500Y67848809D01*
X17980500Y67848809D01*
X17980500Y67258250D01*
X18139250Y67099500D01*
X19113500Y67099500D01*
X19113500Y68198750D01*
X19367500Y68198750D01*
X19367500Y67099500D01*
X20341750Y67099500D01*
X20500500Y67258250D01*
X20500500Y67848809D01*
X20403827Y68082198D01*
X20225199Y68260827D01*
X19991810Y68357500D01*
X19526250Y68357500D01*
X19367500Y68198750D01*
X19113500Y68198750D01*
X18954750Y68357500D01*
X18489190Y68357500D01*
X18255801Y68260827D01*
X18077173Y68082198D01*
X17980500Y67848809D01*
X15674500Y67848809D01*
X15577827Y68082198D01*
X15399199Y68260827D01*
X15165810Y68357500D01*
X14700250Y68357500D01*
X14541500Y68198750D01*
X14287500Y68198750D01*
X14128750Y68357500D01*
X13663190Y68357500D01*
X13429801Y68260827D01*
X13251173Y68082198D01*
X13154500Y67848809D01*
X12871400Y67848809D01*
X12871400Y67995795D01*
X12871401Y67995800D01*
X12792615Y68391877D01*
X12692154Y68542228D01*
X12568256Y68727656D01*
X12568253Y68727658D01*
X9571056Y71724856D01*
X9235277Y71949215D01*
X8839200Y72028001D01*
X8839195Y72028000D01*
X5819420Y72028000D01*
X5748020Y72200800D01*
X5147959Y72801909D01*
X4791316Y72950000D01*
X32612449Y72950000D01*
X32502561Y72785541D01*
X32439000Y72466000D01*
X32439000Y72436719D01*
X32259302Y72316648D01*
X31948233Y71851101D01*
X31839000Y71301950D01*
X31839000Y70660172D01*
X25618172Y70660172D01*
X25298631Y70596611D01*
X25103158Y70466000D01*
X25027738Y70415606D01*
X20303737Y65691605D01*
X20261494Y65720469D01*
X20403827Y65862802D01*
X20500500Y66096191D01*
X20500500Y66686750D01*
X20341750Y66845500D01*
X19367500Y66845500D01*
X19367500Y66825500D01*
X19113500Y66825500D01*
X19113500Y66845500D01*
X18139250Y66845500D01*
X17980500Y66686750D01*
X17980500Y66096191D01*
X18077173Y65862802D01*
X18218410Y65721564D01*
X18164059Y65686590D01*
X18019069Y65474390D01*
X17968060Y65222500D01*
X17968060Y63722500D01*
X18012338Y63487183D01*
X18151410Y63271059D01*
X18278500Y63184222D01*
X18278500Y62908946D01*
X18128183Y62880662D01*
X17964008Y62775018D01*
X17923199Y62815827D01*
X17689810Y62912500D01*
X17099250Y62912500D01*
X16940500Y62753750D01*
X16940500Y61404500D01*
X16960500Y61404500D01*
X16960500Y61150500D01*
X16940500Y61150500D01*
X16940500Y59801250D01*
X17099250Y59642500D01*
X17689810Y59642500D01*
X17923199Y59739173D01*
X17965160Y59781134D01*
X18111610Y59681069D01*
X18363500Y59630060D01*
X19863500Y59630060D01*
X20098817Y59674338D01*
X20314941Y59813410D01*
X20459931Y60025610D01*
X20510940Y60277500D01*
X20510940Y60442500D01*
X25371632Y60442500D01*
X25646492Y60167640D01*
X25646492Y59248967D01*
X25461321Y59697116D01*
X25072054Y60087062D01*
X24563192Y60298360D01*
X24012205Y60298841D01*
X23502975Y60088432D01*
X23113029Y59699165D01*
X23014492Y59461862D01*
X22629564Y59847461D01*
X22120702Y60058759D01*
X21569715Y60059240D01*
X21060485Y59848831D01*
X20670539Y59459564D01*
X20459241Y58950702D01*
X20458760Y58399715D01*
X20669169Y57890485D01*
X21009000Y57550061D01*
X21009000Y36272161D01*
X20966295Y36272198D01*
X20457065Y36061789D01*
X20067119Y35672522D01*
X19855821Y35163660D01*
X19855340Y34612673D01*
X20065749Y34103443D01*
X20455016Y33713497D01*
X20492013Y33698135D01*
X20492013Y18231243D01*
X20153552Y17893371D01*
X19942254Y17384509D01*
X19941773Y16833522D01*
X20152182Y16324292D01*
X20492013Y15983868D01*
X20492013Y12772487D01*
X20555574Y12452946D01*
X20671511Y12279434D01*
X20736579Y12182053D01*
X28056055Y4862577D01*
X28326948Y4681572D01*
X28646489Y4618011D01*
X44976022Y4618011D01*
X44662849Y4555717D01*
X44197302Y4244648D01*
X43886233Y3779101D01*
X43777000Y3229950D01*
X43777000Y2358050D01*
X43886233Y1808899D01*
X44197302Y1343352D01*
X44662849Y1032283D01*
X45212000Y923050D01*
X45761151Y1032283D01*
X46226698Y1343352D01*
X46482000Y1725438D01*
X46737302Y1343352D01*
X47202849Y1032283D01*
X47752000Y923050D01*
X48301151Y1032283D01*
X48766698Y1343352D01*
X49022000Y1725438D01*
X49277302Y1343352D01*
X49742849Y1032283D01*
X50292000Y923050D01*
X50841151Y1032283D01*
X51306698Y1343352D01*
X51562000Y1725438D01*
X51817302Y1343352D01*
X52282849Y1032283D01*
X52832000Y923050D01*
X53381151Y1032283D01*
X53846698Y1343352D01*
X54157767Y1808899D01*
X54267000Y2358050D01*
X54267000Y3229950D01*
X54157767Y3779101D01*
X54023991Y3979311D01*
X60986821Y3979311D01*
X61492566Y3473566D01*
X61763459Y3292561D01*
X62083000Y3229000D01*
X62152115Y3229000D01*
X62177691Y3190723D01*
X62578354Y2923009D01*
X63050968Y2829000D01*
X63915032Y2829000D01*
X64387646Y2923009D01*
X64788309Y3190723D01*
X64813885Y3229000D01*
X65208132Y3229000D01*
X65424560Y3012572D01*
X65424560Y2296000D01*
X65468838Y2060683D01*
X65607910Y1844559D01*
X65820110Y1699569D01*
X66072000Y1648560D01*
X67572000Y1648560D01*
X67807317Y1692838D01*
X68023441Y1831910D01*
X68069969Y1900006D01*
X68212302Y1757673D01*
X68445691Y1661000D01*
X69036250Y1661000D01*
X69195000Y1819750D01*
X69195000Y2794000D01*
X69449000Y2794000D01*
X69449000Y1819750D01*
X69607750Y1661000D01*
X70198309Y1661000D01*
X70431698Y1757673D01*
X70610327Y1936301D01*
X70707000Y2169690D01*
X70707000Y2635250D01*
X70548250Y2794000D01*
X69449000Y2794000D01*
X69195000Y2794000D01*
X69175000Y2794000D01*
X69175000Y3048000D01*
X69195000Y3048000D01*
X69195000Y4022250D01*
X69449000Y4022250D01*
X69449000Y3048000D01*
X70548250Y3048000D01*
X70707000Y3206750D01*
X70707000Y3672310D01*
X70676315Y3746391D01*
X73209538Y3746391D01*
X73213408Y3708719D01*
X73439920Y3280526D01*
X73813053Y2971610D01*
X74276000Y2829000D01*
X74676000Y2829000D01*
X74676000Y3937000D01*
X74930000Y3937000D01*
X74930000Y2829000D01*
X75330000Y2829000D01*
X75792947Y2971610D01*
X76166080Y3280526D01*
X76392592Y3708719D01*
X76396462Y3746391D01*
X76271731Y3937000D01*
X74930000Y3937000D01*
X74676000Y3937000D01*
X73334269Y3937000D01*
X73209538Y3746391D01*
X70676315Y3746391D01*
X70610327Y3905699D01*
X70431698Y4084327D01*
X70198309Y4181000D01*
X69607750Y4181000D01*
X69449000Y4022250D01*
X69195000Y4022250D01*
X69036250Y4181000D01*
X68445691Y4181000D01*
X68212302Y4084327D01*
X68071064Y3943090D01*
X68036090Y3997441D01*
X67823890Y4142431D01*
X67572000Y4193440D01*
X66605428Y4193440D01*
X66417259Y4381609D01*
X73209538Y4381609D01*
X73334269Y4191000D01*
X74676000Y4191000D01*
X74676000Y5299000D01*
X74930000Y5299000D01*
X74930000Y4191000D01*
X76271731Y4191000D01*
X76396462Y4381609D01*
X76392592Y4419281D01*
X76166080Y4847474D01*
X75792947Y5156390D01*
X75330000Y5299000D01*
X74930000Y5299000D01*
X74676000Y5299000D01*
X74276000Y5299000D01*
X73813053Y5156390D01*
X73439920Y4847474D01*
X73213408Y4419281D01*
X73209538Y4381609D01*
X66417259Y4381609D01*
X66144434Y4654434D01*
X66103819Y4681572D01*
X65873541Y4835439D01*
X65575159Y4894791D01*
X66185934Y5505566D01*
X66366940Y5776460D01*
X66430500Y6096000D01*
X66430500Y6604000D01*
X73135968Y6604000D01*
X73229977Y6131386D01*
X73497691Y5730723D01*
X73898354Y5463009D01*
X74370968Y5369000D01*
X75235032Y5369000D01*
X75707646Y5463009D01*
X76108309Y5730723D01*
X76376023Y6131386D01*
X76470032Y6604000D01*
X76376023Y7076614D01*
X76108309Y7477277D01*
X75707646Y7744991D01*
X75235032Y7839000D01*
X74370968Y7839000D01*
X73898354Y7744991D01*
X73497691Y7477277D01*
X73229977Y7076614D01*
X73135968Y6604000D01*
X66430500Y6604000D01*
X66430500Y7431500D01*
X66389239Y7638934D01*
X66366940Y7751040D01*
X66185934Y8021934D01*
X65135736Y9072132D01*
X65150032Y9144000D01*
X65076136Y9515500D01*
X69348641Y9515500D01*
X70310575Y8553566D01*
X70581469Y8372560D01*
X70901009Y8309000D01*
X73472115Y8309000D01*
X73497691Y8270723D01*
X73898354Y8003009D01*
X74370968Y7909000D01*
X75235032Y7909000D01*
X75707646Y8003009D01*
X76108309Y8270723D01*
X76376023Y8671386D01*
X76470032Y9144000D01*
X76376023Y9616614D01*
X76108309Y10017277D01*
X75707646Y10284991D01*
X75235032Y10379000D01*
X74370968Y10379000D01*
X73898354Y10284991D01*
X73497691Y10017277D01*
X73472115Y9979000D01*
X71246877Y9979000D01*
X70284943Y10940934D01*
X70014050Y11121939D01*
X69694509Y11185500D01*
X64996830Y11185500D01*
X65072592Y11328719D01*
X65076462Y11366391D01*
X64951731Y11557000D01*
X63610000Y11557000D01*
X63610000Y11537000D01*
X63356000Y11537000D01*
X63356000Y11557000D01*
X62014269Y11557000D01*
X61889538Y11366391D01*
X61893408Y11328719D01*
X61969170Y11185500D01*
X58229500Y11185500D01*
X57909960Y11121940D01*
X57639066Y10940934D01*
X55216632Y8518500D01*
X48669368Y8518500D01*
X48587000Y8600868D01*
X48587000Y8843281D01*
X48766698Y8963352D01*
X49022000Y9345438D01*
X49277302Y8963352D01*
X49742849Y8652283D01*
X50292000Y8543050D01*
X50841151Y8652283D01*
X51306698Y8963352D01*
X51404251Y9109350D01*
X51428838Y8978683D01*
X51567910Y8762559D01*
X51780110Y8617569D01*
X52032000Y8566560D01*
X53632000Y8566560D01*
X53867317Y8610838D01*
X54083441Y8749910D01*
X54228431Y8962110D01*
X54279440Y9214000D01*
X54279440Y11614000D01*
X54235162Y11849317D01*
X54137165Y12001609D01*
X61889538Y12001609D01*
X62014269Y11811000D01*
X63356000Y11811000D01*
X63356000Y12919000D01*
X63610000Y12919000D01*
X63610000Y11811000D01*
X64951731Y11811000D01*
X65076462Y12001609D01*
X65072592Y12039281D01*
X64846080Y12467474D01*
X64472947Y12776390D01*
X64010000Y12919000D01*
X63610000Y12919000D01*
X63356000Y12919000D01*
X62956000Y12919000D01*
X62493053Y12776390D01*
X62119920Y12467474D01*
X61893408Y12039281D01*
X61889538Y12001609D01*
X54137165Y12001609D01*
X54096090Y12065441D01*
X53883890Y12210431D01*
X53632000Y12261440D01*
X52032000Y12261440D01*
X51796683Y12217162D01*
X51580559Y12078090D01*
X51435569Y11865890D01*
X51405403Y11716926D01*
X51306698Y11864648D01*
X50841151Y12175717D01*
X50292000Y12284950D01*
X49742849Y12175717D01*
X49277302Y11864648D01*
X49022000Y11482562D01*
X48766698Y11864648D01*
X48301151Y12175717D01*
X47752000Y12284950D01*
X47202849Y12175717D01*
X46737302Y11864648D01*
X46482000Y11482562D01*
X46226698Y11864648D01*
X46047000Y11984719D01*
X46047000Y15201000D01*
X46635560Y15201000D01*
X46635560Y13501000D01*
X46679838Y13265683D01*
X46818910Y13049559D01*
X47031110Y12904569D01*
X47283000Y12853560D01*
X48983000Y12853560D01*
X49218317Y12897838D01*
X49434441Y13036910D01*
X49579431Y13249110D01*
X49630440Y13501000D01*
X49630440Y15201000D01*
X49586162Y15436317D01*
X49447090Y15652441D01*
X49234890Y15797431D01*
X48983000Y15848440D01*
X47283000Y15848440D01*
X47047683Y15804162D01*
X46831559Y15665090D01*
X46686569Y15452890D01*
X46635560Y15201000D01*
X46047000Y15201000D01*
X46047000Y19460117D01*
X46102302Y19377352D01*
X46567849Y19066283D01*
X47117000Y18957050D01*
X47666151Y19066283D01*
X48131698Y19377352D01*
X48387000Y19759438D01*
X48642302Y19377352D01*
X49107849Y19066283D01*
X49657000Y18957050D01*
X50206151Y19066283D01*
X50671698Y19377352D01*
X50927000Y19759438D01*
X51182302Y19377352D01*
X51647849Y19066283D01*
X52197000Y18957050D01*
X52746151Y19066283D01*
X53211698Y19377352D01*
X53467000Y19759438D01*
X53722302Y19377352D01*
X54187849Y19066283D01*
X54737000Y18957050D01*
X55286151Y19066283D01*
X55751698Y19377352D01*
X56062767Y19842899D01*
X56172000Y20392050D01*
X56172000Y21263950D01*
X56062767Y21813101D01*
X55751698Y22278648D01*
X55286151Y22589717D01*
X54737000Y22698950D01*
X54187849Y22589717D01*
X53722302Y22278648D01*
X53467000Y21896562D01*
X53211698Y22278648D01*
X52746151Y22589717D01*
X52197000Y22698950D01*
X51955046Y22650822D01*
X51025873Y23579995D01*
X51054000Y23574400D01*
X54822932Y23574400D01*
X56230501Y22166831D01*
X56230501Y19872439D01*
X56294062Y19552898D01*
X56375512Y19431000D01*
X56475067Y19282005D01*
X60790006Y14967066D01*
X61060899Y14786061D01*
X61380440Y14722500D01*
X61927273Y14722500D01*
X61909977Y14696614D01*
X61815968Y14224000D01*
X61909977Y13751386D01*
X62177691Y13350723D01*
X62578354Y13083009D01*
X63050968Y12989000D01*
X63915032Y12989000D01*
X64387646Y13083009D01*
X64788309Y13350723D01*
X65056023Y13751386D01*
X65150032Y14224000D01*
X65056023Y14696614D01*
X65038727Y14722500D01*
X69625866Y14722500D01*
X70714800Y13633566D01*
X70985694Y13452560D01*
X71305234Y13389000D01*
X73472115Y13389000D01*
X73497691Y13350723D01*
X73898354Y13083009D01*
X74370968Y12989000D01*
X75235032Y12989000D01*
X75707646Y13083009D01*
X76108309Y13350723D01*
X76376023Y13751386D01*
X76470032Y14224000D01*
X76376023Y14696614D01*
X76108309Y15097277D01*
X75707646Y15364991D01*
X75235032Y15459000D01*
X74370968Y15459000D01*
X73898354Y15364991D01*
X73497691Y15097277D01*
X73472115Y15059000D01*
X71651102Y15059000D01*
X70562168Y16147934D01*
X70291275Y16328939D01*
X69971734Y16392500D01*
X65064012Y16392500D01*
X65072592Y16408719D01*
X65076462Y16446391D01*
X73209538Y16446391D01*
X73213408Y16408719D01*
X73439920Y15980526D01*
X73813053Y15671610D01*
X74276000Y15529000D01*
X74676000Y15529000D01*
X74676000Y16637000D01*
X73334269Y16637000D01*
X73209538Y16446391D01*
X65076462Y16446391D01*
X64951731Y16637000D01*
X63610000Y16637000D01*
X63610000Y16617000D01*
X63356000Y16617000D01*
X63356000Y16637000D01*
X62014269Y16637000D01*
X61889538Y16446391D01*
X61893408Y16408719D01*
X61901988Y16392500D01*
X61726308Y16392500D01*
X57900501Y20218307D01*
X57900501Y22512699D01*
X57836940Y22832240D01*
X57655935Y23103133D01*
X55759234Y24999834D01*
X55706663Y25034961D01*
X55488341Y25180839D01*
X55168800Y25244400D01*
X51399868Y25244400D01*
X50492000Y26152268D01*
X50492000Y26877281D01*
X50671698Y26997352D01*
X50927000Y27379438D01*
X51182302Y26997352D01*
X51647849Y26686283D01*
X52197000Y26577050D01*
X52746151Y26686283D01*
X53211698Y26997352D01*
X53309251Y27143350D01*
X53333838Y27012683D01*
X53472910Y26796559D01*
X53685110Y26651569D01*
X53937000Y26600560D01*
X55537000Y26600560D01*
X55772317Y26644838D01*
X55988441Y26783910D01*
X56133431Y26996110D01*
X56184440Y27248000D01*
X56184440Y29648000D01*
X56140162Y29883317D01*
X56001090Y30099441D01*
X55788890Y30244431D01*
X55537000Y30295440D01*
X53937000Y30295440D01*
X53701683Y30251162D01*
X53485559Y30112090D01*
X53340569Y29899890D01*
X53310403Y29750926D01*
X53211698Y29898648D01*
X52746151Y30209717D01*
X52197000Y30318950D01*
X51647849Y30209717D01*
X51182302Y29898648D01*
X50927000Y29516562D01*
X50671698Y29898648D01*
X50206151Y30209717D01*
X49657000Y30318950D01*
X49210677Y30230171D01*
X49210677Y31014560D01*
X50761000Y31014560D01*
X50996317Y31058838D01*
X51212441Y31197910D01*
X51357431Y31410110D01*
X51408440Y31662000D01*
X51408440Y33362000D01*
X51364162Y33597317D01*
X51225090Y33813441D01*
X51012890Y33958431D01*
X50761000Y34009440D01*
X49210677Y34009440D01*
X49210677Y39120809D01*
X52209046Y42119178D01*
X52451000Y42071050D01*
X53000151Y42180283D01*
X53465698Y42491352D01*
X53721000Y42873438D01*
X53976302Y42491352D01*
X54441849Y42180283D01*
X54991000Y42071050D01*
X55540151Y42180283D01*
X56005698Y42491352D01*
X56024914Y42520111D01*
X56024914Y33030686D01*
X56088475Y32711145D01*
X56224432Y32507671D01*
X56269480Y32440252D01*
X59526210Y29183522D01*
X59526210Y20278777D01*
X59589771Y19959236D01*
X59770776Y19688343D01*
X62047862Y17411257D01*
X61893408Y17119281D01*
X61889538Y17081609D01*
X62014269Y16891000D01*
X63356000Y16891000D01*
X63356000Y16911000D01*
X63610000Y16911000D01*
X63610000Y16891000D01*
X64951731Y16891000D01*
X65076462Y17081609D01*
X65072592Y17119281D01*
X65067673Y17128579D01*
X73218327Y17128579D01*
X73213408Y17119281D01*
X73209538Y17081609D01*
X73334269Y16891000D01*
X74676000Y16891000D01*
X74676000Y16911000D01*
X74930000Y16911000D01*
X74930000Y16891000D01*
X74950000Y16891000D01*
X74950000Y16637000D01*
X74930000Y16637000D01*
X74930000Y15529000D01*
X75330000Y15529000D01*
X75792947Y15671610D01*
X76166080Y15980526D01*
X76392592Y16408719D01*
X76396462Y16446391D01*
X76382396Y16467886D01*
X76798434Y16051848D01*
X76798434Y13460302D01*
X75980685Y12642553D01*
X75707646Y12824991D01*
X75235032Y12919000D01*
X74370968Y12919000D01*
X73898354Y12824991D01*
X73497691Y12557277D01*
X73229977Y12156614D01*
X73135968Y11684000D01*
X73229977Y11211386D01*
X73497691Y10810723D01*
X73898354Y10543009D01*
X74370968Y10449000D01*
X75235032Y10449000D01*
X75707646Y10543009D01*
X76108309Y10810723D01*
X76133885Y10849000D01*
X76203000Y10849000D01*
X76522541Y10912561D01*
X76793434Y11093566D01*
X78223868Y12524000D01*
X78357212Y12723564D01*
X78404873Y12794893D01*
X78468434Y13114434D01*
X78468434Y16397716D01*
X78444633Y16517373D01*
X78404874Y16717256D01*
X78223868Y16988150D01*
X76658005Y18554013D01*
X76529572Y18639829D01*
X76387112Y18735018D01*
X76289786Y18754377D01*
X76392592Y18948719D01*
X76396462Y18986391D01*
X76271731Y19177000D01*
X74930000Y19177000D01*
X74930000Y19157000D01*
X74676000Y19157000D01*
X74676000Y19177000D01*
X73334269Y19177000D01*
X73209538Y18986391D01*
X73213408Y18948719D01*
X73292831Y18798579D01*
X64993169Y18798579D01*
X65072592Y18948719D01*
X65076462Y18986391D01*
X64951731Y19177000D01*
X63610000Y19177000D01*
X63610000Y19157000D01*
X63356000Y19157000D01*
X63356000Y19177000D01*
X63336000Y19177000D01*
X63336000Y19431000D01*
X63356000Y19431000D01*
X63356000Y20539000D01*
X63610000Y20539000D01*
X63610000Y19431000D01*
X64951731Y19431000D01*
X65076462Y19621609D01*
X73209538Y19621609D01*
X73334269Y19431000D01*
X74676000Y19431000D01*
X74676000Y20539000D01*
X74930000Y20539000D01*
X74930000Y19431000D01*
X76271731Y19431000D01*
X76396462Y19621609D01*
X76392592Y19659281D01*
X76166080Y20087474D01*
X75792947Y20396390D01*
X75330000Y20539000D01*
X74930000Y20539000D01*
X74676000Y20539000D01*
X74276000Y20539000D01*
X73813053Y20396390D01*
X73439920Y20087474D01*
X73213408Y19659281D01*
X73209538Y19621609D01*
X65076462Y19621609D01*
X65072592Y19659281D01*
X64846080Y20087474D01*
X64472947Y20396390D01*
X64010000Y20539000D01*
X63610000Y20539000D01*
X63356000Y20539000D01*
X62956000Y20539000D01*
X62493053Y20396390D01*
X62119920Y20087474D01*
X61986187Y19834668D01*
X61196210Y20624645D01*
X61196210Y25023750D01*
X79585500Y25023750D01*
X79585500Y23308191D01*
X79682173Y23074802D01*
X79860801Y22896173D01*
X80094190Y22799500D01*
X81184750Y22799500D01*
X81343500Y22958250D01*
X81343500Y25182500D01*
X81597500Y25182500D01*
X81597500Y22958250D01*
X81756250Y22799500D01*
X82846810Y22799500D01*
X83080199Y22896173D01*
X83258827Y23074802D01*
X83355500Y23308191D01*
X83355500Y25023750D01*
X83196750Y25182500D01*
X81597500Y25182500D01*
X81343500Y25182500D01*
X79744250Y25182500D01*
X79585500Y25023750D01*
X61196210Y25023750D01*
X61196210Y29529390D01*
X61132649Y29848931D01*
X60951644Y30119824D01*
X59043358Y32028110D01*
X61995024Y32028110D01*
X62164855Y31618076D01*
X62555142Y31189817D01*
X63079608Y30943514D01*
X63309500Y31064181D01*
X63309500Y32258000D01*
X62116345Y32258000D01*
X61995024Y32028110D01*
X59043358Y32028110D01*
X57694914Y33376554D01*
X57694914Y34568110D01*
X61995024Y34568110D01*
X62164855Y34158076D01*
X62555142Y33729817D01*
X62714454Y33655000D01*
X62555142Y33580183D01*
X62164855Y33151924D01*
X61995024Y32741890D01*
X62116345Y32512000D01*
X63309500Y32512000D01*
X63309500Y34798000D01*
X62116345Y34798000D01*
X61995024Y34568110D01*
X57694914Y34568110D01*
X57694914Y37860418D01*
X58862366Y36692966D01*
X59133259Y36511961D01*
X59212354Y36496228D01*
X59249638Y36298083D01*
X59388710Y36081959D01*
X59600910Y35936969D01*
X59852800Y35885960D01*
X61152800Y35885960D01*
X61388117Y35930238D01*
X61604241Y36069310D01*
X61749231Y36281510D01*
X61783027Y36448400D01*
X62335000Y36448400D01*
X62357353Y36414946D01*
X62698053Y36187298D01*
X62555142Y36120183D01*
X62164855Y35691924D01*
X61995024Y35281890D01*
X62116345Y35052000D01*
X63309500Y35052000D01*
X63309500Y35072000D01*
X63563500Y35072000D01*
X63563500Y35052000D01*
X63583500Y35052000D01*
X63583500Y34798000D01*
X63563500Y34798000D01*
X63563500Y32512000D01*
X63583500Y32512000D01*
X63583500Y32258000D01*
X63563500Y32258000D01*
X63563500Y31064181D01*
X63793392Y30943514D01*
X64317858Y31189817D01*
X64708145Y31618076D01*
X64780666Y31793168D01*
X64780666Y30530232D01*
X64442205Y30192360D01*
X64230907Y29683498D01*
X64230426Y29132511D01*
X64440835Y28623281D01*
X64830102Y28233335D01*
X65338964Y28022037D01*
X65889951Y28021556D01*
X66399181Y28231965D01*
X66625171Y28457561D01*
X66625171Y28426417D01*
X66286710Y28088545D01*
X66075412Y27579683D01*
X66074931Y27028696D01*
X66285340Y26519466D01*
X66674607Y26129520D01*
X67183469Y25918222D01*
X67734456Y25917741D01*
X68243686Y26128150D01*
X68633632Y26517417D01*
X68844930Y27026279D01*
X68845178Y27310809D01*
X79585500Y27310809D01*
X79585500Y25595250D01*
X79744250Y25436500D01*
X81343500Y25436500D01*
X81343500Y27660750D01*
X81597500Y27660750D01*
X81597500Y25436500D01*
X83196750Y25436500D01*
X83355500Y25595250D01*
X83355500Y27310809D01*
X83258827Y27544198D01*
X83080199Y27722827D01*
X82846810Y27819500D01*
X81756250Y27819500D01*
X81597500Y27660750D01*
X81343500Y27660750D01*
X81184750Y27819500D01*
X80094190Y27819500D01*
X79860801Y27722827D01*
X79682173Y27544198D01*
X79585500Y27310809D01*
X68845178Y27310809D01*
X68845411Y27577266D01*
X68635002Y28086496D01*
X68311214Y28410850D01*
X71942800Y28410850D01*
X71942800Y27820291D01*
X72039473Y27586902D01*
X72218101Y27408273D01*
X72451490Y27311600D01*
X72917050Y27311600D01*
X73075800Y27470350D01*
X73075800Y28569600D01*
X73329800Y28569600D01*
X73329800Y27470350D01*
X73488550Y27311600D01*
X73954110Y27311600D01*
X74187499Y27408273D01*
X74366127Y27586902D01*
X74462800Y27820291D01*
X74462800Y28410850D01*
X74304050Y28569600D01*
X73329800Y28569600D01*
X73075800Y28569600D01*
X72101550Y28569600D01*
X71942800Y28410850D01*
X68311214Y28410850D01*
X68295171Y28426920D01*
X68295171Y28710250D01*
X75765500Y28710250D01*
X75765500Y28119691D01*
X75862173Y27886302D01*
X76040801Y27707673D01*
X76274190Y27611000D01*
X76739750Y27611000D01*
X76898500Y27769750D01*
X76898500Y28869000D01*
X77152500Y28869000D01*
X77152500Y27769750D01*
X77311250Y27611000D01*
X77776810Y27611000D01*
X78010199Y27707673D01*
X78188827Y27886302D01*
X78285500Y28119691D01*
X78285500Y28710250D01*
X78126750Y28869000D01*
X77152500Y28869000D01*
X76898500Y28869000D01*
X75924250Y28869000D01*
X75765500Y28710250D01*
X68295171Y28710250D01*
X68295171Y34977832D01*
X69241932Y34977832D01*
X69241932Y33650272D01*
X69286210Y33414955D01*
X69425282Y33198831D01*
X69637482Y33053841D01*
X69889372Y33002832D01*
X70439372Y33002832D01*
X70568961Y33027216D01*
X70689372Y33002832D01*
X71239372Y33002832D01*
X71368961Y33027216D01*
X71489372Y33002832D01*
X72039372Y33002832D01*
X72145077Y33022722D01*
X72163062Y33015272D01*
X72278622Y33015272D01*
X72375023Y33111673D01*
X72437370Y33151792D01*
X72437370Y33015272D01*
X72529372Y33015272D01*
X72529372Y32584928D01*
X72342483Y32549762D01*
X72126359Y32410690D01*
X71981369Y32198490D01*
X71930360Y31946600D01*
X71930360Y30446600D01*
X71974638Y30211283D01*
X72113710Y29995159D01*
X72181806Y29948631D01*
X72039473Y29806298D01*
X71942800Y29572909D01*
X71942800Y28982350D01*
X72101550Y28823600D01*
X73075800Y28823600D01*
X73075800Y28843600D01*
X73329800Y28843600D01*
X73329800Y28823600D01*
X74304050Y28823600D01*
X74462800Y28982350D01*
X74462800Y29572909D01*
X74366127Y29806298D01*
X74224890Y29947536D01*
X74279241Y29982510D01*
X74424231Y30194710D01*
X74475240Y30446600D01*
X74475240Y31840392D01*
X75410066Y30905566D01*
X75680959Y30724561D01*
X75760054Y30708828D01*
X75797338Y30510683D01*
X75936410Y30294559D01*
X76004506Y30248031D01*
X75862173Y30105698D01*
X75765500Y29872309D01*
X75765500Y29281750D01*
X75924250Y29123000D01*
X76898500Y29123000D01*
X76898500Y29143000D01*
X77152500Y29143000D01*
X77152500Y29123000D01*
X78126750Y29123000D01*
X78285500Y29281750D01*
X78285500Y29872309D01*
X78188827Y30105698D01*
X78047590Y30246936D01*
X78101941Y30281910D01*
X78246931Y30494110D01*
X78280727Y30661000D01*
X79573060Y30661000D01*
X79573060Y29684500D01*
X79617338Y29449183D01*
X79756410Y29233059D01*
X79968610Y29088069D01*
X80220500Y29037060D01*
X82720500Y29037060D01*
X82955817Y29081338D01*
X83171941Y29220410D01*
X83316931Y29432610D01*
X83367940Y29684500D01*
X83367940Y30773719D01*
X83440041Y30788061D01*
X83710934Y30969066D01*
X86124934Y33383066D01*
X86305940Y33653960D01*
X86369500Y33973500D01*
X86369500Y61489854D01*
X86474275Y772982D01*
X710000Y710517D01*
X710000Y6326000D01*
X3567560Y6326000D01*
X3567560Y3326000D01*
X3611838Y3090683D01*
X3750910Y2874559D01*
X3963110Y2729569D01*
X4215000Y2678560D01*
X7215000Y2678560D01*
X7450317Y2722838D01*
X7666441Y2861910D01*
X7811431Y3074110D01*
X7862440Y3326000D01*
X7862440Y4403185D01*
X8659630Y4403185D01*
X8983980Y3618200D01*
X9584041Y3017091D01*
X10368459Y2691372D01*
X11217815Y2690630D01*
X12002800Y3014980D01*
X12603909Y3615041D01*
X12929628Y4399459D01*
X12930370Y5248815D01*
X12606020Y6033800D01*
X12005959Y6634909D01*
X11221541Y6960628D01*
X10372185Y6961370D01*
X9587200Y6637020D01*
X8986091Y6036959D01*
X8660372Y5252541D01*
X8659630Y4403185D01*
X7862440Y4403185D01*
X7862440Y6326000D01*
X7818162Y6561317D01*
X7679090Y6777441D01*
X7466890Y6922431D01*
X7215000Y6973440D01*
X4215000Y6973440D01*
X3979683Y6929162D01*
X3763559Y6790090D01*
X3618569Y6577890D01*
X3567560Y6326000D01*
X710000Y6326000D01*
X710000Y17148786D01*
X2991000Y17148786D01*
X2991000Y12950215D01*
X6811000Y12950215D01*
X6811000Y17148786D01*
X2991000Y17148786D01*
X710000Y17148786D01*
X710000Y28025185D01*
X2055630Y28025185D01*
X2379980Y27240200D01*
X2980041Y26639091D01*
X3764459Y26313372D01*
X4613815Y26312630D01*
X5398800Y26636980D01*
X5999909Y27237041D01*
X6325628Y28021459D01*
X6326370Y28870815D01*
X6002020Y29655800D01*
X5401959Y30256909D01*
X4617541Y30582628D01*
X3768185Y30583370D01*
X2983200Y30259020D01*
X2382091Y29658959D01*
X2056372Y28874541D01*
X2055630Y28025185D01*
X710000Y28025185D01*
X710000Y35028000D01*
X2043560Y35028000D01*
X2043560Y32028000D01*
X2087838Y31792683D01*
X2226910Y31576559D01*
X2439110Y31431569D01*
X2691000Y31380560D01*
X5691000Y31380560D01*
X5926317Y31424838D01*
X6142441Y31563910D01*
X6287431Y31776110D01*
X6338440Y32028000D01*
X6338440Y35028000D01*
X6294162Y35263317D01*
X6155090Y35479441D01*
X5942890Y35624431D01*
X5691000Y35675440D01*
X2691000Y35675440D01*
X2455683Y35631162D01*
X2239559Y35492090D01*
X2094569Y35279890D01*
X2043560Y35028000D01*
X710000Y35028000D01*
X710000Y42421786D01*
X2546500Y42421786D01*
X2546500Y38223215D01*
X6366500Y38223215D01*
X6366500Y42421786D01*
X2546500Y42421786D01*
X710000Y42421786D01*
X710000Y50676786D01*
X2483000Y50676786D01*
X2483000Y46478215D01*
X6303000Y46478215D01*
X6303000Y50676786D01*
X2483000Y50676786D01*
X710000Y50676786D01*
X710000Y52917185D01*
X2055630Y52917185D01*
X2379980Y52132200D01*
X2980041Y51531091D01*
X3764459Y51205372D01*
X4613815Y51204630D01*
X5398800Y51528980D01*
X5999909Y52129041D01*
X6325628Y52913459D01*
X6326370Y53762815D01*
X6002020Y54547800D01*
X5858321Y54691750D01*
X14278500Y54691750D01*
X14278500Y53851191D01*
X14375173Y53617802D01*
X14553801Y53439173D01*
X14787190Y53342500D01*
X16527750Y53342500D01*
X16686500Y53501250D01*
X16686500Y54850500D01*
X16940500Y54850500D01*
X16940500Y53501250D01*
X17099250Y53342500D01*
X18839810Y53342500D01*
X19073199Y53439173D01*
X19251827Y53617802D01*
X19348500Y53851191D01*
X19348500Y54691750D01*
X19189750Y54850500D01*
X16940500Y54850500D01*
X16686500Y54850500D01*
X14437250Y54850500D01*
X14278500Y54691750D01*
X5858321Y54691750D01*
X5401959Y55148909D01*
X4617541Y55474628D01*
X3768185Y55475370D01*
X2983200Y55151020D01*
X2382091Y54550959D01*
X2056372Y53766541D01*
X2055630Y52917185D01*
X710000Y52917185D01*
X710000Y56103809D01*
X14278500Y56103809D01*
X14278500Y55263250D01*
X14437250Y55104500D01*
X16686500Y55104500D01*
X16686500Y56453750D01*
X16940500Y56453750D01*
X16940500Y55104500D01*
X19189750Y55104500D01*
X19348500Y55263250D01*
X19348500Y56103809D01*
X19251827Y56337198D01*
X19073199Y56515827D01*
X18839810Y56612500D01*
X17099250Y56612500D01*
X16940500Y56453750D01*
X16686500Y56453750D01*
X16527750Y56612500D01*
X14787190Y56612500D01*
X14553801Y56515827D01*
X14375173Y56337198D01*
X14278500Y56103809D01*
X710000Y56103809D01*
X710000Y59920000D01*
X2043560Y59920000D01*
X2043560Y56920000D01*
X2087838Y56684683D01*
X2226910Y56468559D01*
X2439110Y56323569D01*
X2691000Y56272560D01*
X5691000Y56272560D01*
X5926317Y56316838D01*
X6142441Y56455910D01*
X6287431Y56668110D01*
X6338440Y56920000D01*
X6338440Y59920000D01*
X6294162Y60155317D01*
X6155090Y60371441D01*
X5942890Y60516431D01*
X5691000Y60567440D01*
X2691000Y60567440D01*
X2455683Y60523162D01*
X2239559Y60384090D01*
X2094569Y60171890D01*
X2043560Y59920000D01*
X710000Y59920000D01*
X710000Y65627250D01*
X1802000Y65627250D01*
X1802000Y64286691D01*
X1898673Y64053302D01*
X2077301Y63874673D01*
X2310690Y63778000D01*
X3651250Y63778000D01*
X3810000Y63936750D01*
X3810000Y65786000D01*
X4064000Y65786000D01*
X4064000Y63936750D01*
X4222750Y63778000D01*
X5563310Y63778000D01*
X5796699Y63874673D01*
X5975327Y64053302D01*
X6072000Y64286691D01*
X6072000Y65627250D01*
X5913250Y65786000D01*
X4064000Y65786000D01*
X3810000Y65786000D01*
X1960750Y65786000D01*
X1802000Y65627250D01*
X710000Y65627250D01*
X710000Y67539309D01*
X1802000Y67539309D01*
X1802000Y66198750D01*
X1960750Y66040000D01*
X3810000Y66040000D01*
X3810000Y67889250D01*
X4064000Y67889250D01*
X4064000Y66040000D01*
X5913250Y66040000D01*
X6072000Y66198750D01*
X6072000Y67539309D01*
X5975327Y67772698D01*
X5796699Y67951327D01*
X5563310Y68048000D01*
X4222750Y68048000D01*
X4064000Y67889250D01*
X3810000Y67889250D01*
X3651250Y68048000D01*
X2310690Y68048000D01*
X2077301Y67951327D01*
X1898673Y67772698D01*
X1802000Y67539309D01*
X710000Y67539309D01*
X710000Y72950000D01*
X3082498Y72950000D01*
X2729200Y72804020D01*
G36*
X46190221Y68666911D02*
X46189752Y68128813D01*
X46407757Y67601200D01*
X46671683Y67336813D01*
X46465301Y67251327D01*
X46286673Y67072698D01*
X46190000Y66839309D01*
X46190000Y66198750D01*
X46348750Y66040000D01*
X47498000Y66040000D01*
X47498000Y66060000D01*
X47752000Y66060000D01*
X47752000Y66040000D01*
X48901250Y66040000D01*
X49060000Y66198750D01*
X49060000Y66839309D01*
X48963327Y67072698D01*
X48784699Y67251327D01*
X48578165Y67336876D01*
X48799654Y67557978D01*
X49330000Y67027632D01*
X49330000Y57394268D01*
X46780566Y54844834D01*
X46599561Y54573941D01*
X46536000Y54254400D01*
X46536000Y53132719D01*
X46356302Y53012648D01*
X46045233Y52547101D01*
X46015376Y52397000D01*
X45811822Y52397000D01*
X45783162Y52549317D01*
X45644090Y52765441D01*
X45431890Y52910431D01*
X45180000Y52961440D01*
X43680000Y52961440D01*
X43444683Y52917162D01*
X43228559Y52778090D01*
X43182031Y52709994D01*
X43039698Y52852327D01*
X42806309Y52949000D01*
X42215750Y52949000D01*
X42057000Y52790250D01*
X42057000Y51816000D01*
X42077000Y51816000D01*
X42077000Y51562000D01*
X42057000Y51562000D01*
X42057000Y50587750D01*
X42215750Y50429000D01*
X42806309Y50429000D01*
X43039698Y50525673D01*
X43180936Y50666910D01*
X43215910Y50612559D01*
X43428110Y50467569D01*
X43680000Y50416560D01*
X45180000Y50416560D01*
X45415317Y50460838D01*
X45631441Y50599910D01*
X45718278Y50727000D01*
X46015376Y50727000D01*
X46045233Y50576899D01*
X46349566Y50121434D01*
X44570766Y48342634D01*
X44389761Y48071741D01*
X44326200Y47752200D01*
X44326200Y38836600D01*
X44389761Y38517059D01*
X44485463Y38373831D01*
X44570766Y38246166D01*
X46282000Y36534932D01*
X46282000Y36025088D01*
X46149776Y36165492D01*
X45496807Y36459203D01*
X45212000Y36342858D01*
X45212000Y34798000D01*
X45232000Y34798000D01*
X45232000Y34544000D01*
X45212000Y34544000D01*
X45212000Y32999142D01*
X45496807Y32882797D01*
X46149776Y33176508D01*
X46282000Y33316912D01*
X46282000Y30018719D01*
X46102302Y29898648D01*
X45791233Y29433101D01*
X45761376Y29283000D01*
X45343426Y29283000D01*
X45338662Y29308317D01*
X45199590Y29524441D01*
X44987390Y29669431D01*
X44735500Y29720440D01*
X43235500Y29720440D01*
X43000183Y29676162D01*
X42784059Y29537090D01*
X42737531Y29468994D01*
X42595198Y29611327D01*
X42361809Y29708000D01*
X41771250Y29708000D01*
X41612500Y29549250D01*
X41612500Y28575000D01*
X41632500Y28575000D01*
X41632500Y28321000D01*
X41612500Y28321000D01*
X41612500Y27346750D01*
X41771250Y27188000D01*
X42361809Y27188000D01*
X42595198Y27284673D01*
X42736436Y27425910D01*
X42771410Y27371559D01*
X42983610Y27226569D01*
X43235500Y27175560D01*
X44202072Y27175560D01*
X44377000Y27000632D01*
X44377000Y18800967D01*
X43744207Y19085603D01*
X43459400Y18969258D01*
X43459400Y17424400D01*
X43479400Y17424400D01*
X43479400Y17170400D01*
X43459400Y17170400D01*
X43459400Y15625542D01*
X43744207Y15509197D01*
X44377000Y15793833D01*
X44377000Y11984719D01*
X44197302Y11864648D01*
X43886233Y11399101D01*
X43856376Y11249000D01*
X43577374Y11249000D01*
X43560662Y11337817D01*
X43421590Y11553941D01*
X43209390Y11698931D01*
X42957500Y11749940D01*
X41457500Y11749940D01*
X41222183Y11705662D01*
X41006059Y11566590D01*
X40959531Y11498494D01*
X40817198Y11640827D01*
X40583809Y11737500D01*
X39993250Y11737500D01*
X39834500Y11578750D01*
X39834500Y10604500D01*
X39854500Y10604500D01*
X39854500Y10350500D01*
X39834500Y10350500D01*
X39834500Y9376250D01*
X39993250Y9217500D01*
X40583809Y9217500D01*
X40817198Y9314173D01*
X40958436Y9455410D01*
X40993410Y9401059D01*
X41205610Y9256069D01*
X41457500Y9205060D01*
X42957500Y9205060D01*
X43192817Y9249338D01*
X43408941Y9388410D01*
X43539166Y9579000D01*
X43856376Y9579000D01*
X43886233Y9428899D01*
X44197302Y8963352D01*
X44662849Y8652283D01*
X45212000Y8543050D01*
X45761151Y8652283D01*
X46226698Y8963352D01*
X46482000Y9345438D01*
X46737302Y8963352D01*
X46917000Y8843281D01*
X46917000Y8255000D01*
X46980561Y7935459D01*
X47015279Y7883500D01*
X47161566Y7664566D01*
X47387132Y7439000D01*
X30444868Y7439000D01*
X27692118Y10191750D01*
X38322500Y10191750D01*
X38322500Y9726190D01*
X38419173Y9492801D01*
X38597802Y9314173D01*
X38831191Y9217500D01*
X39421750Y9217500D01*
X39580500Y9376250D01*
X39580500Y10350500D01*
X38481250Y10350500D01*
X38322500Y10191750D01*
X27692118Y10191750D01*
X24745374Y13138494D01*
X24745374Y16131153D01*
X25083835Y16469025D01*
X25295133Y16977887D01*
X25295614Y17528874D01*
X25085205Y18038104D01*
X24745374Y18378528D01*
X24745374Y33760469D01*
X24759468Y33766293D01*
X25149414Y34155560D01*
X25360712Y34664422D01*
X25361193Y35215409D01*
X25150784Y35724639D01*
X25121490Y35753984D01*
X25121490Y54745202D01*
X25306661Y54297053D01*
X25646492Y53956629D01*
X25646492Y32827212D01*
X25710053Y32507671D01*
X25870571Y32267439D01*
X25891058Y32236778D01*
X29101776Y29026060D01*
X29101359Y28547820D01*
X29311768Y28038590D01*
X29476469Y27873602D01*
X29476469Y18508263D01*
X29133201Y18852130D01*
X28459005Y19132081D01*
X27728997Y19132718D01*
X27054314Y18853945D01*
X26537670Y18338201D01*
X26257719Y17664005D01*
X26257082Y16933997D01*
X26535855Y16259314D01*
X27051599Y15742670D01*
X27725795Y15462719D01*
X28455803Y15462082D01*
X29130486Y15740855D01*
X29476469Y16086235D01*
X29476469Y14020337D01*
X28778955Y13322823D01*
X28300715Y13323240D01*
X27791485Y13112831D01*
X27401539Y12723564D01*
X27190241Y12214702D01*
X27189760Y11663715D01*
X27400169Y11154485D01*
X27789436Y10764539D01*
X28298298Y10553241D01*
X28849285Y10552760D01*
X29358515Y10763169D01*
X29748461Y11152436D01*
X29780174Y11228810D01*
X38322500Y11228810D01*
X38322500Y10763250D01*
X38481250Y10604500D01*
X39580500Y10604500D01*
X39580500Y11578750D01*
X39421750Y11737500D01*
X38831191Y11737500D01*
X38597802Y11640827D01*
X38419173Y11462199D01*
X38322500Y11228810D01*
X29780174Y11228810D01*
X29959759Y11661298D01*
X29960179Y12142311D01*
X30901903Y13084035D01*
X30920228Y13111461D01*
X31082908Y13354928D01*
X31146469Y13674469D01*
X31146469Y16885595D01*
X41544205Y16885595D01*
X41776758Y16324142D01*
X42267624Y15802908D01*
X42920593Y15509197D01*
X43205400Y15625542D01*
X43205400Y17170400D01*
X41660968Y17170400D01*
X41544205Y16885595D01*
X31146469Y16885595D01*
X31146469Y17709205D01*
X41544205Y17709205D01*
X41660968Y17424400D01*
X43205400Y17424400D01*
X43205400Y18969258D01*
X42920593Y19085603D01*
X42267624Y18791892D01*
X41776758Y18270658D01*
X41544205Y17709205D01*
X31146469Y17709205D01*
X31146469Y27596185D01*
X31270114Y27647274D01*
X31660060Y28036541D01*
X31712258Y28162250D01*
X40100500Y28162250D01*
X40100500Y27696690D01*
X40197173Y27463301D01*
X40375802Y27284673D01*
X40609191Y27188000D01*
X41199750Y27188000D01*
X41358500Y27346750D01*
X41358500Y28321000D01*
X40259250Y28321000D01*
X40100500Y28162250D01*
X31712258Y28162250D01*
X31871358Y28545403D01*
X31871839Y29096390D01*
X31829314Y29199310D01*
X40100500Y29199310D01*
X40100500Y28733750D01*
X40259250Y28575000D01*
X41358500Y28575000D01*
X41358500Y29549250D01*
X41199750Y29708000D01*
X40609191Y29708000D01*
X40375802Y29611327D01*
X40197173Y29432699D01*
X40100500Y29199310D01*
X31829314Y29199310D01*
X31661430Y29605620D01*
X31272163Y29995566D01*
X30763301Y30206864D01*
X30282288Y30207284D01*
X27316492Y33173080D01*
X27316492Y34307597D01*
X28009682Y34307597D01*
X28288455Y33632914D01*
X28804199Y33116270D01*
X29478395Y32836319D01*
X30208403Y32835682D01*
X30883086Y33114455D01*
X31399730Y33630199D01*
X31660912Y34259195D01*
X43296805Y34259195D01*
X43529358Y33697742D01*
X44020224Y33176508D01*
X44673193Y32882797D01*
X44958000Y32999142D01*
X44958000Y34544000D01*
X43413568Y34544000D01*
X43296805Y34259195D01*
X31660912Y34259195D01*
X31679681Y34304395D01*
X31680318Y35034403D01*
X31660319Y35082805D01*
X43296805Y35082805D01*
X43413568Y34798000D01*
X44958000Y34798000D01*
X44958000Y36342858D01*
X44673193Y36459203D01*
X44020224Y36165492D01*
X43529358Y35644258D01*
X43296805Y35082805D01*
X31660319Y35082805D01*
X31401545Y35709086D01*
X30885801Y36225730D01*
X30211605Y36505681D01*
X29481597Y36506318D01*
X28806914Y36227545D01*
X28290270Y35711801D01*
X28010319Y35037605D01*
X28009682Y34307597D01*
X27316492Y34307597D01*
X27316492Y51403250D01*
X40545000Y51403250D01*
X40545000Y50937690D01*
X40641673Y50704301D01*
X40820302Y50525673D01*
X41053691Y50429000D01*
X41644250Y50429000D01*
X41803000Y50587750D01*
X41803000Y51562000D01*
X40703750Y51562000D01*
X40545000Y51403250D01*
X27316492Y51403250D01*
X27316492Y52440310D01*
X40545000Y52440310D01*
X40545000Y51974750D01*
X40703750Y51816000D01*
X41803000Y51816000D01*
X41803000Y52790250D01*
X41644250Y52949000D01*
X41053691Y52949000D01*
X40820302Y52852327D01*
X40641673Y52673699D01*
X40545000Y52440310D01*
X27316492Y52440310D01*
X27316492Y53957132D01*
X27654953Y54295004D01*
X27866251Y54803866D01*
X27866732Y55354853D01*
X27656323Y55864083D01*
X27316492Y56204507D01*
X27316492Y57421597D01*
X28517682Y57421597D01*
X28796455Y56746914D01*
X29312199Y56230270D01*
X29986395Y55950319D01*
X30716403Y55949682D01*
X31391086Y56228455D01*
X31907730Y56744199D01*
X32187681Y57418395D01*
X32188318Y58148403D01*
X31909545Y58823086D01*
X31393801Y59339730D01*
X30719605Y59619681D01*
X29989597Y59620318D01*
X29314914Y59341545D01*
X28798270Y58825801D01*
X28518319Y58151605D01*
X28517682Y57421597D01*
X27316492Y57421597D01*
X27316492Y60513508D01*
X27252931Y60833049D01*
X27071926Y61103942D01*
X26307934Y61867934D01*
X26159770Y61966934D01*
X26037041Y62048939D01*
X25804858Y62095123D01*
X25904317Y62113838D01*
X26120441Y62252910D01*
X26265431Y62465110D01*
X26299227Y62632000D01*
X26395710Y62632000D01*
X26432838Y62434683D01*
X26571910Y62218559D01*
X26784110Y62073569D01*
X27036000Y62022560D01*
X28336000Y62022560D01*
X28571317Y62066838D01*
X28787441Y62205910D01*
X28831851Y62270907D01*
X28882910Y62191559D01*
X29095110Y62046569D01*
X29347000Y61995560D01*
X30597000Y61995560D01*
X30832317Y62039838D01*
X31048441Y62178910D01*
X31193431Y62391110D01*
X31197459Y62411000D01*
X31826560Y62411000D01*
X31826560Y62046000D01*
X31870838Y61810683D01*
X32009910Y61594559D01*
X32222110Y61449569D01*
X32474000Y61398560D01*
X34074000Y61398560D01*
X34309317Y61442838D01*
X34525441Y61581910D01*
X34670431Y61794110D01*
X34700597Y61943074D01*
X34799302Y61795352D01*
X34979000Y61675281D01*
X34979000Y59936440D01*
X33481000Y59936440D01*
X33245683Y59892162D01*
X33029559Y59753090D01*
X32884569Y59540890D01*
X32833560Y59289000D01*
X32833560Y56789000D01*
X32877838Y56553683D01*
X33016910Y56337559D01*
X33229110Y56192569D01*
X33481000Y56141560D01*
X37231000Y56141560D01*
X37466317Y56185838D01*
X37682441Y56324910D01*
X37827431Y56537110D01*
X37878440Y56789000D01*
X37878440Y59289000D01*
X37834162Y59524317D01*
X37695090Y59740441D01*
X37482890Y59885431D01*
X37231000Y59936440D01*
X36649000Y59936440D01*
X36649000Y61675281D01*
X36828698Y61795352D01*
X37081507Y62173707D01*
X37429104Y61741500D01*
X37922181Y61471633D01*
X38004961Y61454096D01*
X38227000Y61576085D01*
X38227000Y63119000D01*
X38207000Y63119000D01*
X38207000Y63373000D01*
X38227000Y63373000D01*
X38227000Y64915915D01*
X38481000Y64915915D01*
X38481000Y63373000D01*
X38501000Y63373000D01*
X38501000Y63119000D01*
X38481000Y63119000D01*
X38481000Y61576085D01*
X38703039Y61454096D01*
X38785819Y61471633D01*
X39278896Y61741500D01*
X39626493Y62173707D01*
X39879302Y61795352D01*
X40059000Y61675281D01*
X40059000Y59936440D01*
X39731000Y59936440D01*
X39495683Y59892162D01*
X39279559Y59753090D01*
X39134569Y59540890D01*
X39083560Y59289000D01*
X39083560Y56789000D01*
X39127838Y56553683D01*
X39266910Y56337559D01*
X39479110Y56192569D01*
X39731000Y56141560D01*
X43481000Y56141560D01*
X43716317Y56185838D01*
X43932441Y56324910D01*
X44077431Y56537110D01*
X44116111Y56728117D01*
X44528224Y56290508D01*
X45181193Y55996797D01*
X45466000Y56113142D01*
X45466000Y57658000D01*
X45720000Y57658000D01*
X45720000Y56113142D01*
X46004807Y55996797D01*
X46657776Y56290508D01*
X47148642Y56811742D01*
X47381195Y57373195D01*
X47264432Y57658000D01*
X45720000Y57658000D01*
X45466000Y57658000D01*
X45446000Y57658000D01*
X45446000Y57912000D01*
X45466000Y57912000D01*
X45466000Y59456858D01*
X45720000Y59456858D01*
X45720000Y57912000D01*
X47264432Y57912000D01*
X47381195Y58196805D01*
X47148642Y58758258D01*
X46657776Y59279492D01*
X46004807Y59573203D01*
X45720000Y59456858D01*
X45466000Y59456858D01*
X45181193Y59573203D01*
X44528224Y59279492D01*
X44128440Y58854975D01*
X44128440Y59289000D01*
X44084162Y59524317D01*
X43945090Y59740441D01*
X43732890Y59885431D01*
X43481000Y59936440D01*
X41729000Y59936440D01*
X41729000Y61675281D01*
X41908698Y61795352D01*
X42219767Y62260899D01*
X42329000Y62810050D01*
X42329000Y63681950D01*
X42219767Y64231101D01*
X41908698Y64696648D01*
X41443151Y65007717D01*
X40894000Y65116950D01*
X40344849Y65007717D01*
X39879302Y64696648D01*
X39626493Y64318293D01*
X39278896Y64750500D01*
X38785819Y65020367D01*
X38703039Y65037904D01*
X38481000Y64915915D01*
X38227000Y64915915D01*
X38004961Y65037904D01*
X37922181Y65020367D01*
X37429104Y64750500D01*
X37081507Y64318293D01*
X36828698Y64696648D01*
X36363151Y65007717D01*
X35814000Y65116950D01*
X35264849Y65007717D01*
X34799302Y64696648D01*
X34701749Y64550650D01*
X34677162Y64681317D01*
X34538090Y64897441D01*
X34325890Y65042431D01*
X34074000Y65093440D01*
X32474000Y65093440D01*
X32238683Y65049162D01*
X32022559Y64910090D01*
X31877569Y64697890D01*
X31826560Y64446000D01*
X31826560Y64081000D01*
X31244440Y64081000D01*
X31244440Y64143000D01*
X31200162Y64378317D01*
X31061090Y64594441D01*
X30991289Y64642134D01*
X31048441Y64678910D01*
X31193431Y64891110D01*
X31244440Y65143000D01*
X31244440Y65575308D01*
X37634270Y65575308D01*
X37895398Y65627250D01*
X46190000Y65627250D01*
X46190000Y64986691D01*
X46286673Y64753302D01*
X46465301Y64574673D01*
X46698690Y64478000D01*
X47339250Y64478000D01*
X47498000Y64636750D01*
X47498000Y65786000D01*
X47752000Y65786000D01*
X47752000Y64636750D01*
X47910750Y64478000D01*
X48551310Y64478000D01*
X48784699Y64574673D01*
X48963327Y64753302D01*
X49060000Y64986691D01*
X49060000Y65627250D01*
X48901250Y65786000D01*
X47752000Y65786000D01*
X47498000Y65786000D01*
X46348750Y65786000D01*
X46190000Y65627250D01*
X37895398Y65627250D01*
X37953811Y65638869D01*
X38224704Y65819874D01*
X41484434Y69079604D01*
X41500924Y69104283D01*
X41547522Y69174021D01*
X41908698Y69415352D01*
X42219767Y69880899D01*
X42249624Y70031000D01*
X44826132Y70031000D01*
X46190221Y68666911D01*
X46190221Y68666911D01*
G37*
X46190221Y68666911D02*
X46189752Y68128813D01*
X46407757Y67601200D01*
X46671683Y67336813D01*
X46465301Y67251327D01*
X46286673Y67072698D01*
X46190000Y66839309D01*
X46190000Y66198750D01*
X46348750Y66040000D01*
X47498000Y66040000D01*
X47498000Y66060000D01*
X47752000Y66060000D01*
X47752000Y66040000D01*
X48901250Y66040000D01*
X49060000Y66198750D01*
X49060000Y66839309D01*
X48963327Y67072698D01*
X48784699Y67251327D01*
X48578165Y67336876D01*
X48799654Y67557978D01*
X49330000Y67027632D01*
X49330000Y57394268D01*
X46780566Y54844834D01*
X46599561Y54573941D01*
X46536000Y54254400D01*
X46536000Y53132719D01*
X46356302Y53012648D01*
X46045233Y52547101D01*
X46015376Y52397000D01*
X45811822Y52397000D01*
X45783162Y52549317D01*
X45644090Y52765441D01*
X45431890Y52910431D01*
X45180000Y52961440D01*
X43680000Y52961440D01*
X43444683Y52917162D01*
X43228559Y52778090D01*
X43182031Y52709994D01*
X43039698Y52852327D01*
X42806309Y52949000D01*
X42215750Y52949000D01*
X42057000Y52790250D01*
X42057000Y51816000D01*
X42077000Y51816000D01*
X42077000Y51562000D01*
X42057000Y51562000D01*
X42057000Y50587750D01*
X42215750Y50429000D01*
X42806309Y50429000D01*
X43039698Y50525673D01*
X43180936Y50666910D01*
X43215910Y50612559D01*
X43428110Y50467569D01*
X43680000Y50416560D01*
X45180000Y50416560D01*
X45415317Y50460838D01*
X45631441Y50599910D01*
X45718278Y50727000D01*
X46015376Y50727000D01*
X46045233Y50576899D01*
X46349566Y50121434D01*
X44570766Y48342634D01*
X44389761Y48071741D01*
X44326200Y47752200D01*
X44326200Y38836600D01*
X44389761Y38517059D01*
X44485463Y38373831D01*
X44570766Y38246166D01*
X46282000Y36534932D01*
X46282000Y36025088D01*
X46149776Y36165492D01*
X45496807Y36459203D01*
X45212000Y36342858D01*
X45212000Y34798000D01*
X45232000Y34798000D01*
X45232000Y34544000D01*
X45212000Y34544000D01*
X45212000Y32999142D01*
X45496807Y32882797D01*
X46149776Y33176508D01*
X46282000Y33316912D01*
X46282000Y30018719D01*
X46102302Y29898648D01*
X45791233Y29433101D01*
X45761376Y29283000D01*
X45343426Y29283000D01*
X45338662Y29308317D01*
X45199590Y29524441D01*
X44987390Y29669431D01*
X44735500Y29720440D01*
X43235500Y29720440D01*
X43000183Y29676162D01*
X42784059Y29537090D01*
X42737531Y29468994D01*
X42595198Y29611327D01*
X42361809Y29708000D01*
X41771250Y29708000D01*
X41612500Y29549250D01*
X41612500Y28575000D01*
X41632500Y28575000D01*
X41632500Y28321000D01*
X41612500Y28321000D01*
X41612500Y27346750D01*
X41771250Y27188000D01*
X42361809Y27188000D01*
X42595198Y27284673D01*
X42736436Y27425910D01*
X42771410Y27371559D01*
X42983610Y27226569D01*
X43235500Y27175560D01*
X44202072Y27175560D01*
X44377000Y27000632D01*
X44377000Y18800967D01*
X43744207Y19085603D01*
X43459400Y18969258D01*
X43459400Y17424400D01*
X43479400Y17424400D01*
X43479400Y17170400D01*
X43459400Y17170400D01*
X43459400Y15625542D01*
X43744207Y15509197D01*
X44377000Y15793833D01*
X44377000Y11984719D01*
X44197302Y11864648D01*
X43886233Y11399101D01*
X43856376Y11249000D01*
X43577374Y11249000D01*
X43560662Y11337817D01*
X43421590Y11553941D01*
X43209390Y11698931D01*
X42957500Y11749940D01*
X41457500Y11749940D01*
X41222183Y11705662D01*
X41006059Y11566590D01*
X40959531Y11498494D01*
X40817198Y11640827D01*
X40583809Y11737500D01*
X39993250Y11737500D01*
X39834500Y11578750D01*
X39834500Y10604500D01*
X39854500Y10604500D01*
X39854500Y10350500D01*
X39834500Y10350500D01*
X39834500Y9376250D01*
X39993250Y9217500D01*
X40583809Y9217500D01*
X40817198Y9314173D01*
X40958436Y9455410D01*
X40993410Y9401059D01*
X41205610Y9256069D01*
X41457500Y9205060D01*
X42957500Y9205060D01*
X43192817Y9249338D01*
X43408941Y9388410D01*
X43539166Y9579000D01*
X43856376Y9579000D01*
X43886233Y9428899D01*
X44197302Y8963352D01*
X44662849Y8652283D01*
X45212000Y8543050D01*
X45761151Y8652283D01*
X46226698Y8963352D01*
X46482000Y9345438D01*
X46737302Y8963352D01*
X46917000Y8843281D01*
X46917000Y8255000D01*
X46980561Y7935459D01*
X47015279Y7883500D01*
X47161566Y7664566D01*
X47387132Y7439000D01*
X30444868Y7439000D01*
X27692118Y10191750D01*
X38322500Y10191750D01*
X38322500Y9726190D01*
X38419173Y9492801D01*
X38597802Y9314173D01*
X38831191Y9217500D01*
X39421750Y9217500D01*
X39580500Y9376250D01*
X39580500Y10350500D01*
X38481250Y10350500D01*
X38322500Y10191750D01*
X27692118Y10191750D01*
X24745374Y13138494D01*
X24745374Y16131153D01*
X25083835Y16469025D01*
X25295133Y16977887D01*
X25295614Y17528874D01*
X25085205Y18038104D01*
X24745374Y18378528D01*
X24745374Y33760469D01*
X24759468Y33766293D01*
X25149414Y34155560D01*
X25360712Y34664422D01*
X25361193Y35215409D01*
X25150784Y35724639D01*
X25121490Y35753984D01*
X25121490Y54745202D01*
X25306661Y54297053D01*
X25646492Y53956629D01*
X25646492Y32827212D01*
X25710053Y32507671D01*
X25870571Y32267439D01*
X25891058Y32236778D01*
X29101776Y29026060D01*
X29101359Y28547820D01*
X29311768Y28038590D01*
X29476469Y27873602D01*
X29476469Y18508263D01*
X29133201Y18852130D01*
X28459005Y19132081D01*
X27728997Y19132718D01*
X27054314Y18853945D01*
X26537670Y18338201D01*
X26257719Y17664005D01*
X26257082Y16933997D01*
X26535855Y16259314D01*
X27051599Y15742670D01*
X27725795Y15462719D01*
X28455803Y15462082D01*
X29130486Y15740855D01*
X29476469Y16086235D01*
X29476469Y14020337D01*
X28778955Y13322823D01*
X28300715Y13323240D01*
X27791485Y13112831D01*
X27401539Y12723564D01*
X27190241Y12214702D01*
X27189760Y11663715D01*
X27400169Y11154485D01*
X27789436Y10764539D01*
X28298298Y10553241D01*
X28849285Y10552760D01*
X29358515Y10763169D01*
X29748461Y11152436D01*
X29780174Y11228810D01*
X38322500Y11228810D01*
X38322500Y10763250D01*
X38481250Y10604500D01*
X39580500Y10604500D01*
X39580500Y11578750D01*
X39421750Y11737500D01*
X38831191Y11737500D01*
X38597802Y11640827D01*
X38419173Y11462199D01*
X38322500Y11228810D01*
X29780174Y11228810D01*
X29959759Y11661298D01*
X29960179Y12142311D01*
X30901903Y13084035D01*
X30920228Y13111461D01*
X31082908Y13354928D01*
X31146469Y13674469D01*
X31146469Y16885595D01*
X41544205Y16885595D01*
X41776758Y16324142D01*
X42267624Y15802908D01*
X42920593Y15509197D01*
X43205400Y15625542D01*
X43205400Y17170400D01*
X41660968Y17170400D01*
X41544205Y16885595D01*
X31146469Y16885595D01*
X31146469Y17709205D01*
X41544205Y17709205D01*
X41660968Y17424400D01*
X43205400Y17424400D01*
X43205400Y18969258D01*
X42920593Y19085603D01*
X42267624Y18791892D01*
X41776758Y18270658D01*
X41544205Y17709205D01*
X31146469Y17709205D01*
X31146469Y27596185D01*
X31270114Y27647274D01*
X31660060Y28036541D01*
X31712258Y28162250D01*
X40100500Y28162250D01*
X40100500Y27696690D01*
X40197173Y27463301D01*
X40375802Y27284673D01*
X40609191Y27188000D01*
X41199750Y27188000D01*
X41358500Y27346750D01*
X41358500Y28321000D01*
X40259250Y28321000D01*
X40100500Y28162250D01*
X31712258Y28162250D01*
X31871358Y28545403D01*
X31871839Y29096390D01*
X31829314Y29199310D01*
X40100500Y29199310D01*
X40100500Y28733750D01*
X40259250Y28575000D01*
X41358500Y28575000D01*
X41358500Y29549250D01*
X41199750Y29708000D01*
X40609191Y29708000D01*
X40375802Y29611327D01*
X40197173Y29432699D01*
X40100500Y29199310D01*
X31829314Y29199310D01*
X31661430Y29605620D01*
X31272163Y29995566D01*
X30763301Y30206864D01*
X30282288Y30207284D01*
X27316492Y33173080D01*
X27316492Y34307597D01*
X28009682Y34307597D01*
X28288455Y33632914D01*
X28804199Y33116270D01*
X29478395Y32836319D01*
X30208403Y32835682D01*
X30883086Y33114455D01*
X31399730Y33630199D01*
X31660912Y34259195D01*
X43296805Y34259195D01*
X43529358Y33697742D01*
X44020224Y33176508D01*
X44673193Y32882797D01*
X44958000Y32999142D01*
X44958000Y34544000D01*
X43413568Y34544000D01*
X43296805Y34259195D01*
X31660912Y34259195D01*
X31679681Y34304395D01*
X31680318Y35034403D01*
X31660319Y35082805D01*
X43296805Y35082805D01*
X43413568Y34798000D01*
X44958000Y34798000D01*
X44958000Y36342858D01*
X44673193Y36459203D01*
X44020224Y36165492D01*
X43529358Y35644258D01*
X43296805Y35082805D01*
X31660319Y35082805D01*
X31401545Y35709086D01*
X30885801Y36225730D01*
X30211605Y36505681D01*
X29481597Y36506318D01*
X28806914Y36227545D01*
X28290270Y35711801D01*
X28010319Y35037605D01*
X28009682Y34307597D01*
X27316492Y34307597D01*
X27316492Y51403250D01*
X40545000Y51403250D01*
X40545000Y50937690D01*
X40641673Y50704301D01*
X40820302Y50525673D01*
X41053691Y50429000D01*
X41644250Y50429000D01*
X41803000Y50587750D01*
X41803000Y51562000D01*
X40703750Y51562000D01*
X40545000Y51403250D01*
X27316492Y51403250D01*
X27316492Y52440310D01*
X40545000Y52440310D01*
X40545000Y51974750D01*
X40703750Y51816000D01*
X41803000Y51816000D01*
X41803000Y52790250D01*
X41644250Y52949000D01*
X41053691Y52949000D01*
X40820302Y52852327D01*
X40641673Y52673699D01*
X40545000Y52440310D01*
X27316492Y52440310D01*
X27316492Y53957132D01*
X27654953Y54295004D01*
X27866251Y54803866D01*
X27866732Y55354853D01*
X27656323Y55864083D01*
X27316492Y56204507D01*
X27316492Y57421597D01*
X28517682Y57421597D01*
X28796455Y56746914D01*
X29312199Y56230270D01*
X29986395Y55950319D01*
X30716403Y55949682D01*
X31391086Y56228455D01*
X31907730Y56744199D01*
X32187681Y57418395D01*
X32188318Y58148403D01*
X31909545Y58823086D01*
X31393801Y59339730D01*
X30719605Y59619681D01*
X29989597Y59620318D01*
X29314914Y59341545D01*
X28798270Y58825801D01*
X28518319Y58151605D01*
X28517682Y57421597D01*
X27316492Y57421597D01*
X27316492Y60513508D01*
X27252931Y60833049D01*
X27071926Y61103942D01*
X26307934Y61867934D01*
X26159770Y61966934D01*
X26037041Y62048939D01*
X25804858Y62095123D01*
X25904317Y62113838D01*
X26120441Y62252910D01*
X26265431Y62465110D01*
X26299227Y62632000D01*
X26395710Y62632000D01*
X26432838Y62434683D01*
X26571910Y62218559D01*
X26784110Y62073569D01*
X27036000Y62022560D01*
X28336000Y62022560D01*
X28571317Y62066838D01*
X28787441Y62205910D01*
X28831851Y62270907D01*
X28882910Y62191559D01*
X29095110Y62046569D01*
X29347000Y61995560D01*
X30597000Y61995560D01*
X30832317Y62039838D01*
X31048441Y62178910D01*
X31193431Y62391110D01*
X31197459Y62411000D01*
X31826560Y62411000D01*
X31826560Y62046000D01*
X31870838Y61810683D01*
X32009910Y61594559D01*
X32222110Y61449569D01*
X32474000Y61398560D01*
X34074000Y61398560D01*
X34309317Y61442838D01*
X34525441Y61581910D01*
X34670431Y61794110D01*
X34700597Y61943074D01*
X34799302Y61795352D01*
X34979000Y61675281D01*
X34979000Y59936440D01*
X33481000Y59936440D01*
X33245683Y59892162D01*
X33029559Y59753090D01*
X32884569Y59540890D01*
X32833560Y59289000D01*
X32833560Y56789000D01*
X32877838Y56553683D01*
X33016910Y56337559D01*
X33229110Y56192569D01*
X33481000Y56141560D01*
X37231000Y56141560D01*
X37466317Y56185838D01*
X37682441Y56324910D01*
X37827431Y56537110D01*
X37878440Y56789000D01*
X37878440Y59289000D01*
X37834162Y59524317D01*
X37695090Y59740441D01*
X37482890Y59885431D01*
X37231000Y59936440D01*
X36649000Y59936440D01*
X36649000Y61675281D01*
X36828698Y61795352D01*
X37081507Y62173707D01*
X37429104Y61741500D01*
X37922181Y61471633D01*
X38004961Y61454096D01*
X38227000Y61576085D01*
X38227000Y63119000D01*
X38207000Y63119000D01*
X38207000Y63373000D01*
X38227000Y63373000D01*
X38227000Y64915915D01*
X38481000Y64915915D01*
X38481000Y63373000D01*
X38501000Y63373000D01*
X38501000Y63119000D01*
X38481000Y63119000D01*
X38481000Y61576085D01*
X38703039Y61454096D01*
X38785819Y61471633D01*
X39278896Y61741500D01*
X39626493Y62173707D01*
X39879302Y61795352D01*
X40059000Y61675281D01*
X40059000Y59936440D01*
X39731000Y59936440D01*
X39495683Y59892162D01*
X39279559Y59753090D01*
X39134569Y59540890D01*
X39083560Y59289000D01*
X39083560Y56789000D01*
X39127838Y56553683D01*
X39266910Y56337559D01*
X39479110Y56192569D01*
X39731000Y56141560D01*
X43481000Y56141560D01*
X43716317Y56185838D01*
X43932441Y56324910D01*
X44077431Y56537110D01*
X44116111Y56728117D01*
X44528224Y56290508D01*
X45181193Y55996797D01*
X45466000Y56113142D01*
X45466000Y57658000D01*
X45720000Y57658000D01*
X45720000Y56113142D01*
X46004807Y55996797D01*
X46657776Y56290508D01*
X47148642Y56811742D01*
X47381195Y57373195D01*
X47264432Y57658000D01*
X45720000Y57658000D01*
X45466000Y57658000D01*
X45446000Y57658000D01*
X45446000Y57912000D01*
X45466000Y57912000D01*
X45466000Y59456858D01*
X45720000Y59456858D01*
X45720000Y57912000D01*
X47264432Y57912000D01*
X47381195Y58196805D01*
X47148642Y58758258D01*
X46657776Y59279492D01*
X46004807Y59573203D01*
X45720000Y59456858D01*
X45466000Y59456858D01*
X45181193Y59573203D01*
X44528224Y59279492D01*
X44128440Y58854975D01*
X44128440Y59289000D01*
X44084162Y59524317D01*
X43945090Y59740441D01*
X43732890Y59885431D01*
X43481000Y59936440D01*
X41729000Y59936440D01*
X41729000Y61675281D01*
X41908698Y61795352D01*
X42219767Y62260899D01*
X42329000Y62810050D01*
X42329000Y63681950D01*
X42219767Y64231101D01*
X41908698Y64696648D01*
X41443151Y65007717D01*
X40894000Y65116950D01*
X40344849Y65007717D01*
X39879302Y64696648D01*
X39626493Y64318293D01*
X39278896Y64750500D01*
X38785819Y65020367D01*
X38703039Y65037904D01*
X38481000Y64915915D01*
X38227000Y64915915D01*
X38004961Y65037904D01*
X37922181Y65020367D01*
X37429104Y64750500D01*
X37081507Y64318293D01*
X36828698Y64696648D01*
X36363151Y65007717D01*
X35814000Y65116950D01*
X35264849Y65007717D01*
X34799302Y64696648D01*
X34701749Y64550650D01*
X34677162Y64681317D01*
X34538090Y64897441D01*
X34325890Y65042431D01*
X34074000Y65093440D01*
X32474000Y65093440D01*
X32238683Y65049162D01*
X32022559Y64910090D01*
X31877569Y64697890D01*
X31826560Y64446000D01*
X31826560Y64081000D01*
X31244440Y64081000D01*
X31244440Y64143000D01*
X31200162Y64378317D01*
X31061090Y64594441D01*
X30991289Y64642134D01*
X31048441Y64678910D01*
X31193431Y64891110D01*
X31244440Y65143000D01*
X31244440Y65575308D01*
X37634270Y65575308D01*
X37895398Y65627250D01*
X46190000Y65627250D01*
X46190000Y64986691D01*
X46286673Y64753302D01*
X46465301Y64574673D01*
X46698690Y64478000D01*
X47339250Y64478000D01*
X47498000Y64636750D01*
X47498000Y65786000D01*
X47752000Y65786000D01*
X47752000Y64636750D01*
X47910750Y64478000D01*
X48551310Y64478000D01*
X48784699Y64574673D01*
X48963327Y64753302D01*
X49060000Y64986691D01*
X49060000Y65627250D01*
X48901250Y65786000D01*
X47752000Y65786000D01*
X47498000Y65786000D01*
X46348750Y65786000D01*
X46190000Y65627250D01*
X37895398Y65627250D01*
X37953811Y65638869D01*
X38224704Y65819874D01*
X41484434Y69079604D01*
X41500924Y69104283D01*
X41547522Y69174021D01*
X41908698Y69415352D01*
X42219767Y69880899D01*
X42249624Y70031000D01*
X44826132Y70031000D01*
X46190221Y68666911D01*
G36*
X71825282Y41698831D02*
X71955617Y41609777D01*
X72050122Y41515272D01*
X72165682Y41515272D01*
X72186125Y41523740D01*
X72289372Y41502832D01*
X72839372Y41502832D01*
X72945077Y41522722D01*
X72963062Y41515272D01*
X73078622Y41515272D01*
X73175023Y41611673D01*
X73237370Y41651792D01*
X73237370Y41515272D01*
X73329372Y41515272D01*
X73329372Y40008628D01*
X73392933Y39689087D01*
X73500455Y39528169D01*
X73573938Y39418194D01*
X74129372Y38862760D01*
X74129372Y35897712D01*
X73889372Y35897712D01*
X73759783Y35873328D01*
X73639372Y35897712D01*
X73089372Y35897712D01*
X72983667Y35877822D01*
X72965682Y35885272D01*
X72850122Y35885272D01*
X72753721Y35788871D01*
X72637931Y35714362D01*
X72564488Y35606875D01*
X72503462Y35701713D01*
X72373127Y35790767D01*
X72278622Y35885272D01*
X72163062Y35885272D01*
X72142619Y35876804D01*
X72039372Y35897712D01*
X71489372Y35897712D01*
X71359783Y35873328D01*
X71239372Y35897712D01*
X70689372Y35897712D01*
X70559783Y35873328D01*
X70439372Y35897712D01*
X70161812Y35897712D01*
X70161812Y36175272D01*
X70137428Y36304861D01*
X70161812Y36425272D01*
X70161812Y36975272D01*
X70137428Y37104861D01*
X70161812Y37225272D01*
X70161812Y37775272D01*
X70137428Y37904861D01*
X70161812Y38025272D01*
X70161812Y38575272D01*
X70137428Y38704861D01*
X70161812Y38825272D01*
X70161812Y39375272D01*
X70137428Y39504861D01*
X70161812Y39625272D01*
X70161812Y40175272D01*
X70137428Y40304861D01*
X70161812Y40425272D01*
X70161812Y40975272D01*
X70137428Y41104861D01*
X70161812Y41225272D01*
X70161812Y41502832D01*
X70439372Y41502832D01*
X70568961Y41527216D01*
X70689372Y41502832D01*
X71239372Y41502832D01*
X71345077Y41522722D01*
X71363062Y41515272D01*
X71478622Y41515272D01*
X71575023Y41611673D01*
X71690813Y41686182D01*
X71764256Y41793669D01*
X71825282Y41698831D01*
X71825282Y41698831D01*
G37*
X71825282Y41698831D02*
X71955617Y41609777D01*
X72050122Y41515272D01*
X72165682Y41515272D01*
X72186125Y41523740D01*
X72289372Y41502832D01*
X72839372Y41502832D01*
X72945077Y41522722D01*
X72963062Y41515272D01*
X73078622Y41515272D01*
X73175023Y41611673D01*
X73237370Y41651792D01*
X73237370Y41515272D01*
X73329372Y41515272D01*
X73329372Y40008628D01*
X73392933Y39689087D01*
X73500455Y39528169D01*
X73573938Y39418194D01*
X74129372Y38862760D01*
X74129372Y35897712D01*
X73889372Y35897712D01*
X73759783Y35873328D01*
X73639372Y35897712D01*
X73089372Y35897712D01*
X72983667Y35877822D01*
X72965682Y35885272D01*
X72850122Y35885272D01*
X72753721Y35788871D01*
X72637931Y35714362D01*
X72564488Y35606875D01*
X72503462Y35701713D01*
X72373127Y35790767D01*
X72278622Y35885272D01*
X72163062Y35885272D01*
X72142619Y35876804D01*
X72039372Y35897712D01*
X71489372Y35897712D01*
X71359783Y35873328D01*
X71239372Y35897712D01*
X70689372Y35897712D01*
X70559783Y35873328D01*
X70439372Y35897712D01*
X70161812Y35897712D01*
X70161812Y36175272D01*
X70137428Y36304861D01*
X70161812Y36425272D01*
X70161812Y36975272D01*
X70137428Y37104861D01*
X70161812Y37225272D01*
X70161812Y37775272D01*
X70137428Y37904861D01*
X70161812Y38025272D01*
X70161812Y38575272D01*
X70137428Y38704861D01*
X70161812Y38825272D01*
X70161812Y39375272D01*
X70137428Y39504861D01*
X70161812Y39625272D01*
X70161812Y40175272D01*
X70137428Y40304861D01*
X70161812Y40425272D01*
X70161812Y40975272D01*
X70137428Y41104861D01*
X70161812Y41225272D01*
X70161812Y41502832D01*
X70439372Y41502832D01*
X70568961Y41527216D01*
X70689372Y41502832D01*
X71239372Y41502832D01*
X71345077Y41522722D01*
X71363062Y41515272D01*
X71478622Y41515272D01*
X71575023Y41611673D01*
X71690813Y41686182D01*
X71764256Y41793669D01*
X71825282Y41698831D01*
G36*
X68038059Y69563090D02*
X67893069Y69350890D01*
X67842060Y69099000D01*
X67842060Y67299000D01*
X67886338Y67063683D01*
X68025410Y66847559D01*
X68126000Y66778829D01*
X68126000Y65641130D01*
X68075683Y65631662D01*
X67859559Y65492590D01*
X67714569Y65280390D01*
X67663560Y65028500D01*
X67663560Y63528500D01*
X67707838Y63293183D01*
X67846910Y63077059D01*
X68059110Y62932069D01*
X68072197Y62929419D01*
X67859559Y62792590D01*
X67714569Y62580390D01*
X67663560Y62328500D01*
X67663560Y60828500D01*
X67707838Y60593183D01*
X67846910Y60377059D01*
X68059110Y60232069D01*
X68126000Y60218523D01*
X68126000Y59817000D01*
X68189561Y59497459D01*
X68293743Y59341540D01*
X68370566Y59226566D01*
X69450703Y58146429D01*
X69721596Y57965424D01*
X70041137Y57901863D01*
X71409769Y57901863D01*
X78222500Y51089132D01*
X78222500Y42489268D01*
X78132103Y42398871D01*
X78014372Y42422712D01*
X76686812Y42422712D01*
X76686812Y43750272D01*
X76642534Y43985589D01*
X76630957Y44003580D01*
X76630957Y50397583D01*
X76567396Y50717124D01*
X76386391Y50988017D01*
X74771334Y52603074D01*
X74771751Y53081314D01*
X74561342Y53590544D01*
X74172075Y53980490D01*
X73663213Y54191788D01*
X73112226Y54192269D01*
X72602996Y53981860D01*
X72213050Y53592593D01*
X72001752Y53083731D01*
X72001271Y52532744D01*
X72211680Y52023514D01*
X72600947Y51633568D01*
X73109809Y51422270D01*
X73590822Y51421850D01*
X74270323Y50742349D01*
X74234809Y50742380D01*
X73725579Y50531971D01*
X73442347Y50249232D01*
X73293710Y50310800D01*
X72828150Y50310800D01*
X72669400Y50152050D01*
X72669400Y49052800D01*
X72689400Y49052800D01*
X72689400Y48798800D01*
X72669400Y48798800D01*
X72669400Y48778800D01*
X72415400Y48778800D01*
X72415400Y48798800D01*
X71441150Y48798800D01*
X71282400Y48640050D01*
X71282400Y48049491D01*
X71379073Y47816102D01*
X71520310Y47674864D01*
X71465959Y47639890D01*
X71320969Y47427690D01*
X71269960Y47175800D01*
X71269960Y45675800D01*
X71314238Y45440483D01*
X71453310Y45224359D01*
X71665510Y45079369D01*
X71729372Y45066437D01*
X71729372Y44494030D01*
X71554806Y44755286D01*
X66684500Y49625592D01*
X66684500Y49802109D01*
X71282400Y49802109D01*
X71282400Y49211550D01*
X71441150Y49052800D01*
X72415400Y49052800D01*
X72415400Y50152050D01*
X72256650Y50310800D01*
X71791090Y50310800D01*
X71557701Y50214127D01*
X71379073Y50035498D01*
X71282400Y49802109D01*
X66684500Y49802109D01*
X66684500Y60389870D01*
X66734817Y60399338D01*
X66950941Y60538410D01*
X67095931Y60750610D01*
X67146940Y61002500D01*
X67146940Y62502500D01*
X67102662Y62737817D01*
X66963590Y62953941D01*
X66751390Y63098931D01*
X66738303Y63101581D01*
X66950941Y63238410D01*
X67095931Y63450610D01*
X67146940Y63702500D01*
X67146940Y65202500D01*
X67102662Y65437817D01*
X66963590Y65653941D01*
X66751390Y65798931D01*
X66684500Y65812477D01*
X66684500Y67737000D01*
X66677399Y67772698D01*
X66620940Y68056540D01*
X66439934Y68327434D01*
X65977934Y68789434D01*
X65909683Y68835038D01*
X65707041Y68970439D01*
X65541069Y69003453D01*
X65533439Y69041812D01*
X65279815Y69421387D01*
X64937672Y69650000D01*
X68173121Y69650000D01*
X68038059Y69563090D01*
X68038059Y69563090D01*
G37*
X68038059Y69563090D02*
X67893069Y69350890D01*
X67842060Y69099000D01*
X67842060Y67299000D01*
X67886338Y67063683D01*
X68025410Y66847559D01*
X68126000Y66778829D01*
X68126000Y65641130D01*
X68075683Y65631662D01*
X67859559Y65492590D01*
X67714569Y65280390D01*
X67663560Y65028500D01*
X67663560Y63528500D01*
X67707838Y63293183D01*
X67846910Y63077059D01*
X68059110Y62932069D01*
X68072197Y62929419D01*
X67859559Y62792590D01*
X67714569Y62580390D01*
X67663560Y62328500D01*
X67663560Y60828500D01*
X67707838Y60593183D01*
X67846910Y60377059D01*
X68059110Y60232069D01*
X68126000Y60218523D01*
X68126000Y59817000D01*
X68189561Y59497459D01*
X68293743Y59341540D01*
X68370566Y59226566D01*
X69450703Y58146429D01*
X69721596Y57965424D01*
X70041137Y57901863D01*
X71409769Y57901863D01*
X78222500Y51089132D01*
X78222500Y42489268D01*
X78132103Y42398871D01*
X78014372Y42422712D01*
X76686812Y42422712D01*
X76686812Y43750272D01*
X76642534Y43985589D01*
X76630957Y44003580D01*
X76630957Y50397583D01*
X76567396Y50717124D01*
X76386391Y50988017D01*
X74771334Y52603074D01*
X74771751Y53081314D01*
X74561342Y53590544D01*
X74172075Y53980490D01*
X73663213Y54191788D01*
X73112226Y54192269D01*
X72602996Y53981860D01*
X72213050Y53592593D01*
X72001752Y53083731D01*
X72001271Y52532744D01*
X72211680Y52023514D01*
X72600947Y51633568D01*
X73109809Y51422270D01*
X73590822Y51421850D01*
X74270323Y50742349D01*
X74234809Y50742380D01*
X73725579Y50531971D01*
X73442347Y50249232D01*
X73293710Y50310800D01*
X72828150Y50310800D01*
X72669400Y50152050D01*
X72669400Y49052800D01*
X72689400Y49052800D01*
X72689400Y48798800D01*
X72669400Y48798800D01*
X72669400Y48778800D01*
X72415400Y48778800D01*
X72415400Y48798800D01*
X71441150Y48798800D01*
X71282400Y48640050D01*
X71282400Y48049491D01*
X71379073Y47816102D01*
X71520310Y47674864D01*
X71465959Y47639890D01*
X71320969Y47427690D01*
X71269960Y47175800D01*
X71269960Y45675800D01*
X71314238Y45440483D01*
X71453310Y45224359D01*
X71665510Y45079369D01*
X71729372Y45066437D01*
X71729372Y44494030D01*
X71554806Y44755286D01*
X66684500Y49625592D01*
X66684500Y49802109D01*
X71282400Y49802109D01*
X71282400Y49211550D01*
X71441150Y49052800D01*
X72415400Y49052800D01*
X72415400Y50152050D01*
X72256650Y50310800D01*
X71791090Y50310800D01*
X71557701Y50214127D01*
X71379073Y50035498D01*
X71282400Y49802109D01*
X66684500Y49802109D01*
X66684500Y60389870D01*
X66734817Y60399338D01*
X66950941Y60538410D01*
X67095931Y60750610D01*
X67146940Y61002500D01*
X67146940Y62502500D01*
X67102662Y62737817D01*
X66963590Y62953941D01*
X66751390Y63098931D01*
X66738303Y63101581D01*
X66950941Y63238410D01*
X67095931Y63450610D01*
X67146940Y63702500D01*
X67146940Y65202500D01*
X67102662Y65437817D01*
X66963590Y65653941D01*
X66751390Y65798931D01*
X66684500Y65812477D01*
X66684500Y67737000D01*
X66677399Y67772698D01*
X66620940Y68056540D01*
X66439934Y68327434D01*
X65977934Y68789434D01*
X65909683Y68835038D01*
X65707041Y68970439D01*
X65541069Y69003453D01*
X65533439Y69041812D01*
X65279815Y69421387D01*
X64937672Y69650000D01*
X68173121Y69650000D01*
X68038059Y69563090D01*
G36*
X59656059Y69563090D02*
X59511069Y69350890D01*
X59460060Y69099000D01*
X59460060Y67299000D01*
X59504338Y67063683D01*
X59643410Y66847559D01*
X59807500Y66735441D01*
X59807500Y65831630D01*
X59757183Y65822162D01*
X59541059Y65683090D01*
X59396069Y65470890D01*
X59345060Y65219000D01*
X59345060Y63719000D01*
X59389338Y63483683D01*
X59528410Y63267559D01*
X59740610Y63122569D01*
X59753697Y63119919D01*
X59541059Y62983090D01*
X59396069Y62770890D01*
X59345060Y62519000D01*
X59345060Y61019000D01*
X59389338Y60783683D01*
X59528410Y60567559D01*
X59740610Y60422569D01*
X59851020Y60400210D01*
X59871061Y60299459D01*
X60003627Y60101060D01*
X60052066Y60028566D01*
X62626475Y57454157D01*
X62626475Y56113051D01*
X62487198Y56252327D01*
X62253809Y56349000D01*
X61563250Y56349000D01*
X61404500Y56190250D01*
X61404500Y54991000D01*
X61424500Y54991000D01*
X61424500Y54737000D01*
X61404500Y54737000D01*
X61404500Y54717000D01*
X61150500Y54717000D01*
X61150500Y54737000D01*
X59951250Y54737000D01*
X59792500Y54578250D01*
X59792500Y53887690D01*
X59889173Y53654301D01*
X60067802Y53475673D01*
X60242277Y53403403D01*
X60198353Y53374054D01*
X60054659Y53159000D01*
X59664600Y53159000D01*
X59345060Y53095440D01*
X59074166Y52914434D01*
X58747000Y52587268D01*
X58747000Y53345352D01*
X58683439Y53664893D01*
X58502434Y53935786D01*
X57265301Y55172919D01*
X57117674Y55271560D01*
X56994408Y55353924D01*
X56674867Y55417485D01*
X54583281Y55417485D01*
X54641441Y55454910D01*
X54786431Y55667110D01*
X54821504Y55840310D01*
X59792500Y55840310D01*
X59792500Y55149750D01*
X59951250Y54991000D01*
X61150500Y54991000D01*
X61150500Y56190250D01*
X60991750Y56349000D01*
X60301191Y56349000D01*
X60067802Y56252327D01*
X59889173Y56073699D01*
X59792500Y55840310D01*
X54821504Y55840310D01*
X54837440Y55919000D01*
X54837440Y57619000D01*
X54793162Y57854317D01*
X54654090Y58070441D01*
X54441890Y58215431D01*
X54190000Y58266440D01*
X52490000Y58266440D01*
X52460500Y58260889D01*
X52460500Y69650000D01*
X59791121Y69650000D01*
X59656059Y69563090D01*
X59656059Y69563090D01*
G37*
X59656059Y69563090D02*
X59511069Y69350890D01*
X59460060Y69099000D01*
X59460060Y67299000D01*
X59504338Y67063683D01*
X59643410Y66847559D01*
X59807500Y66735441D01*
X59807500Y65831630D01*
X59757183Y65822162D01*
X59541059Y65683090D01*
X59396069Y65470890D01*
X59345060Y65219000D01*
X59345060Y63719000D01*
X59389338Y63483683D01*
X59528410Y63267559D01*
X59740610Y63122569D01*
X59753697Y63119919D01*
X59541059Y62983090D01*
X59396069Y62770890D01*
X59345060Y62519000D01*
X59345060Y61019000D01*
X59389338Y60783683D01*
X59528410Y60567559D01*
X59740610Y60422569D01*
X59851020Y60400210D01*
X59871061Y60299459D01*
X60003627Y60101060D01*
X60052066Y60028566D01*
X62626475Y57454157D01*
X62626475Y56113051D01*
X62487198Y56252327D01*
X62253809Y56349000D01*
X61563250Y56349000D01*
X61404500Y56190250D01*
X61404500Y54991000D01*
X61424500Y54991000D01*
X61424500Y54737000D01*
X61404500Y54737000D01*
X61404500Y54717000D01*
X61150500Y54717000D01*
X61150500Y54737000D01*
X59951250Y54737000D01*
X59792500Y54578250D01*
X59792500Y53887690D01*
X59889173Y53654301D01*
X60067802Y53475673D01*
X60242277Y53403403D01*
X60198353Y53374054D01*
X60054659Y53159000D01*
X59664600Y53159000D01*
X59345060Y53095440D01*
X59074166Y52914434D01*
X58747000Y52587268D01*
X58747000Y53345352D01*
X58683439Y53664893D01*
X58502434Y53935786D01*
X57265301Y55172919D01*
X57117674Y55271560D01*
X56994408Y55353924D01*
X56674867Y55417485D01*
X54583281Y55417485D01*
X54641441Y55454910D01*
X54786431Y55667110D01*
X54821504Y55840310D01*
X59792500Y55840310D01*
X59792500Y55149750D01*
X59951250Y54991000D01*
X61150500Y54991000D01*
X61150500Y56190250D01*
X60991750Y56349000D01*
X60301191Y56349000D01*
X60067802Y56252327D01*
X59889173Y56073699D01*
X59792500Y55840310D01*
X54821504Y55840310D01*
X54837440Y55919000D01*
X54837440Y57619000D01*
X54793162Y57854317D01*
X54654090Y58070441D01*
X54441890Y58215431D01*
X54190000Y58266440D01*
X52490000Y58266440D01*
X52460500Y58260889D01*
X52460500Y69650000D01*
X59791121Y69650000D01*
X59656059Y69563090D01*
M02*
